<?xml version="1.0" encoding="us-ascii" standalone="no"?><svg xmlns="http://www.w3.org/2000/svg" xmlns:xlink="http://www.w3.org/1999/xlink" contentStyleType="text/css" height="1433px" preserveAspectRatio="none" style="width:2400px;height:1433px;background:#FFFFFF;" version="1.1" viewBox="0 0 2400 1433" width="2400px" zoomAndPan="magnify"><defs/><g><rect fill="#FFFFFF" height="1204.7617" style="stroke:#181818;stroke-width:1.0;" width="10" x="162.5" y="115.2871"/><rect fill="#FFFFFF" height="1146.1406" style="stroke:#181818;stroke-width:1.0;" width="10" x="296.5" y="144.5977"/><rect fill="#FFFFFF" height="28" style="stroke:#181818;stroke-width:1.0;" width="10" x="301.5" y="181.9082"/><rect fill="#FFFFFF" height="28" style="stroke:#181818;stroke-width:1.0;" width="10" x="301.5" y="1226.4277"/><rect fill="#FFFFFF" height="29.3105" style="stroke:#181818;stroke-width:1.0;" width="10" x="431.5" y="246.2188"/><rect fill="#FFFFFF" height="237.2422" style="stroke:#181818;stroke-width:1.0;" width="10" x="431.5" y="951.875"/><rect fill="#FFFFFF" height="855.6113" style="stroke:#181818;stroke-width:1.0;" width="10" x="672.5" y="333.5059"/><rect fill="#FFFFFF" height="88.6211" style="stroke:#181818;stroke-width:1.0;" width="10" x="958.5" y="362.8164"/><rect fill="#FFFFFF" height="30" style="stroke:#181818;stroke-width:1.0;" width="10" x="1060.5" y="597.3457"/><rect fill="#FFFFFF" height="30" style="stroke:#181818;stroke-width:1.0;" width="10" x="1060.5" y="656.6563"/><rect fill="#FFFFFF" height="30" style="stroke:#181818;stroke-width:1.0;" width="10" x="1060.5" y="715.9668"/><rect fill="#FFFFFF" height="30" style="stroke:#181818;stroke-width:1.0;" width="10" x="1060.5" y="775.2773"/><rect fill="#FFFFFF" height="30" style="stroke:#181818;stroke-width:1.0;" width="10" x="1060.5" y="981.1855"/><rect fill="#FFFFFF" height="30" style="stroke:#181818;stroke-width:1.0;" width="10" x="1060.5" y="1040.4961"/><rect fill="#FFFFFF" height="30" style="stroke:#181818;stroke-width:1.0;" width="10" x="1060.5" y="1099.8066"/><rect fill="#FFFFFF" height="30" style="stroke:#181818;stroke-width:1.0;" width="10" x="1060.5" y="1159.1172"/><rect fill="#FFFFFF" height="383.8398" style="stroke:#181818;stroke-width:1.0;" width="10" x="1193.5" y="538.7246"/><rect fill="#FFFFFF" height="59.3105" style="stroke:#181818;stroke-width:1.0;" width="10" x="1393.5" y="392.127"/><rect fill="#FFFFFF" height="266.5527" style="stroke:#181818;stroke-width:1.0;" width="10" x="1564" y="568.0352"/><rect fill="#FFFFFF" height="30" style="stroke:#181818;stroke-width:1.0;" width="10" x="2352.5" y="421.4375"/><rect fill="#FFFFFF" height="30" style="stroke:#181818;stroke-width:1.0;" width="10" x="2352.5" y="892.5645"/><line style="stroke:#181818;stroke-width:0.5;stroke-dasharray:5.0,5.0;" x1="29" x2="29" y1="83.9766" y2="1338.0488"/><line style="stroke:#181818;stroke-width:0.5;stroke-dasharray:5.0,5.0;" x1="167.5" x2="167.5" y1="83.9766" y2="1338.0488"/><line style="stroke:#181818;stroke-width:0.5;stroke-dasharray:5.0,5.0;" x1="301.5" x2="301.5" y1="83.9766" y2="1338.0488"/><line style="stroke:#181818;stroke-width:0.5;stroke-dasharray:5.0,5.0;" x1="436.5" x2="436.5" y1="83.9766" y2="1338.0488"/><line style="stroke:#181818;stroke-width:0.5;stroke-dasharray:5.0,5.0;" x1="578.5" x2="578.5" y1="293.207" y2="1338.0488"/><line style="stroke:#181818;stroke-width:0.5;stroke-dasharray:5.0,5.0;" x1="677.5" x2="677.5" y1="83.9766" y2="1338.0488"/><line style="stroke:#181818;stroke-width:0.5;stroke-dasharray:5.0,5.0;" x1="963.5" x2="963.5" y1="83.9766" y2="1338.0488"/><line style="stroke:#181818;stroke-width:0.5;stroke-dasharray:5.0,5.0;" x1="1065.5" x2="1065.5" y1="498.4258" y2="1338.0488"/><line style="stroke:#181818;stroke-width:0.5;stroke-dasharray:5.0,5.0;" x1="1198.5" x2="1198.5" y1="83.9766" y2="1338.0488"/><line style="stroke:#181818;stroke-width:0.5;stroke-dasharray:5.0,5.0;" x1="1398.5" x2="1398.5" y1="83.9766" y2="1338.0488"/><line style="stroke:#181818;stroke-width:0.5;stroke-dasharray:5.0,5.0;" x1="1568.5" x2="1568.5" y1="83.9766" y2="1338.0488"/><line style="stroke:#181818;stroke-width:0.5;stroke-dasharray:5.0,5.0;" x1="2254" x2="2254" y1="852.2656" y2="1338.0488"/><line style="stroke:#181818;stroke-width:0.5;stroke-dasharray:5.0,5.0;" x1="2357" x2="2357" y1="83.9766" y2="1338.0488"/><text fill="#000000" font-family="sans-serif" font-size="14" lengthAdjust="spacing" textLength="9" x="22" y="81.0234">X</text><path d="M9,39.4883 L9,63.4883 M9,51.4883 L26,51.4883 " fill="none" style="stroke:#181818;stroke-width:0.5;"/><ellipse cx="38" cy="51.4883" fill="#E2E2F0" rx="12" ry="12" style="stroke:#181818;stroke-width:0.5;"/><text fill="#000000" font-family="sans-serif" font-size="14" lengthAdjust="spacing" textLength="9" x="22" y="1350.584">X</text><path d="M9,1357.5371 L9,1381.5371 M9,1369.5371 L26,1369.5371 " fill="none" style="stroke:#181818;stroke-width:0.5;"/><ellipse cx="38" cy="1369.5371" fill="#E2E2F0" rx="12" ry="12" style="stroke:#181818;stroke-width:0.5;"/><rect fill="#E2E2F0" height="30.4883" rx="2.5" ry="2.5" style="stroke:#181818;stroke-width:0.5;" width="94" x="120.5" y="52.4883"/><text fill="#000000" font-family="sans-serif" font-size="14" lengthAdjust="spacing" textLength="80" x="127.5" y="73.0234">:RouteFloor</text><rect fill="#E2E2F0" height="30.4883" rx="2.5" ry="2.5" style="stroke:#181818;stroke-width:0.5;" width="94" x="120.5" y="1337.0488"/><text fill="#000000" font-family="sans-serif" font-size="14" lengthAdjust="spacing" textLength="80" x="127.5" y="1357.584">:RouteFloor</text><rect fill="#E2E2F0" height="46.9766" rx="2.5" ry="2.5" style="stroke:#181818;stroke-width:0.5;" width="120" x="241.5" y="36"/><text fill="#000000" font-family="sans-serif" font-size="14" lengthAdjust="spacing" textLength="106" x="248.5" y="56.5352">FloorController</text><text fill="#000000" font-family="sans-serif" font-size="14" lengthAdjust="spacing" textLength="84" x="259.5" y="73.0234">&#171;Controller&#187;</text><rect fill="#E2E2F0" height="46.9766" rx="2.5" ry="2.5" style="stroke:#181818;stroke-width:0.5;" width="120" x="241.5" y="1337.0488"/><text fill="#000000" font-family="sans-serif" font-size="14" lengthAdjust="spacing" textLength="106" x="248.5" y="1357.584">FloorController</text><text fill="#000000" font-family="sans-serif" font-size="14" lengthAdjust="spacing" textLength="84" x="259.5" y="1374.0723">&#171;Controller&#187;</text><rect fill="#E2E2F0" height="46.9766" rx="2.5" ry="2.5" style="stroke:#181818;stroke-width:0.5;" width="102" x="385.5" y="36"/><text fill="#000000" font-family="sans-serif" font-size="14" lengthAdjust="spacing" textLength="88" x="392.5" y="56.5352">FloorMapper</text><text fill="#000000" font-family="sans-serif" font-size="14" lengthAdjust="spacing" textLength="82" x="395.5" y="73.0234">&#171;Json2DTO&#187;</text><rect fill="#E2E2F0" height="46.9766" rx="2.5" ry="2.5" style="stroke:#181818;stroke-width:0.5;" width="102" x="385.5" y="1337.0488"/><text fill="#000000" font-family="sans-serif" font-size="14" lengthAdjust="spacing" textLength="88" x="392.5" y="1357.584">FloorMapper</text><text fill="#000000" font-family="sans-serif" font-size="14" lengthAdjust="spacing" textLength="82" x="395.5" y="1374.0723">&#171;Json2DTO&#187;</text><rect fill="#E2E2F0" height="46.9766" rx="2.5" ry="2.5" style="stroke:#181818;stroke-width:0.5;" width="80" x="538.5" y="1337.0488"/><text fill="#000000" font-family="sans-serif" font-size="14" lengthAdjust="spacing" textLength="66" x="545.5" y="1357.584">FloorDTO</text><text fill="#000000" font-family="sans-serif" font-size="14" lengthAdjust="spacing" textLength="44" x="556.5" y="1374.0723">&#171;DTO&#187;</text><rect fill="#E2E2F0" height="46.9766" rx="2.5" ry="2.5" style="stroke:#181818;stroke-width:0.5;" width="98" x="628.5" y="36"/><text fill="#000000" font-family="sans-serif" font-size="14" lengthAdjust="spacing" textLength="84" x="635.5" y="56.5352">FloorService</text><text fill="#000000" font-family="sans-serif" font-size="14" lengthAdjust="spacing" textLength="62" x="646.5" y="73.0234">&#171;Service&#187;</text><rect fill="#E2E2F0" height="46.9766" rx="2.5" ry="2.5" style="stroke:#181818;stroke-width:0.5;" width="98" x="628.5" y="1337.0488"/><text fill="#000000" font-family="sans-serif" font-size="14" lengthAdjust="spacing" textLength="84" x="635.5" y="1357.584">FloorService</text><text fill="#000000" font-family="sans-serif" font-size="14" lengthAdjust="spacing" textLength="62" x="646.5" y="1374.0723">&#171;Service&#187;</text><rect fill="#E2E2F0" height="46.9766" rx="2.5" ry="2.5" style="stroke:#181818;stroke-width:0.5;" width="118" x="904.5" y="36"/><text fill="#000000" font-family="sans-serif" font-size="14" lengthAdjust="spacing" textLength="104" x="911.5" y="56.5352">BuildingService</text><text fill="#000000" font-family="sans-serif" font-size="14" lengthAdjust="spacing" textLength="62" x="932.5" y="73.0234">&#171;Service&#187;</text><rect fill="#E2E2F0" height="46.9766" rx="2.5" ry="2.5" style="stroke:#181818;stroke-width:0.5;" width="118" x="904.5" y="1337.0488"/><text fill="#000000" font-family="sans-serif" font-size="14" lengthAdjust="spacing" textLength="104" x="911.5" y="1357.584">BuildingService</text><text fill="#000000" font-family="sans-serif" font-size="14" lengthAdjust="spacing" textLength="62" x="932.5" y="1374.0723">&#171;Service&#187;</text><rect fill="#E2E2F0" height="46.9766" rx="2.5" ry="2.5" style="stroke:#181818;stroke-width:0.5;" width="66" x="1032.5" y="1337.0488"/><text fill="#000000" font-family="sans-serif" font-size="14" lengthAdjust="spacing" textLength="36" x="1047.5" y="1357.584">Floor</text><text fill="#000000" font-family="sans-serif" font-size="14" lengthAdjust="spacing" textLength="52" x="1039.5" y="1374.0723">&#171;Entity&#187;</text><rect fill="#E2E2F0" height="46.9766" rx="2.5" ry="2.5" style="stroke:#181818;stroke-width:0.5;" width="180" x="1108.5" y="36"/><text fill="#000000" font-family="sans-serif" font-size="14" lengthAdjust="spacing" textLength="71" x="1163" y="56.5352">FloorRepo</text><text fill="#000000" font-family="sans-serif" font-size="14" lengthAdjust="spacing" textLength="166" x="1115.5" y="73.0234">:IFloorRepo&#171;Repository&#187;</text><rect fill="#E2E2F0" height="46.9766" rx="2.5" ry="2.5" style="stroke:#181818;stroke-width:0.5;" width="180" x="1108.5" y="1337.0488"/><text fill="#000000" font-family="sans-serif" font-size="14" lengthAdjust="spacing" textLength="71" x="1163" y="1357.584">FloorRepo</text><text fill="#000000" font-family="sans-serif" font-size="14" lengthAdjust="spacing" textLength="166" x="1115.5" y="1374.0723">:IFloorRepo&#171;Repository&#187;</text><rect fill="#E2E2F0" height="46.9766" rx="2.5" ry="2.5" style="stroke:#181818;stroke-width:0.5;" width="200" x="1298.5" y="36"/><text fill="#000000" font-family="sans-serif" font-size="14" lengthAdjust="spacing" textLength="91" x="1353" y="56.5352">BuildingRepo</text><text fill="#000000" font-family="sans-serif" font-size="14" lengthAdjust="spacing" textLength="186" x="1305.5" y="73.0234">:IBuildingRepo&#171;Repository&#187;</text><rect fill="#E2E2F0" height="46.9766" rx="2.5" ry="2.5" style="stroke:#181818;stroke-width:0.5;" width="200" x="1298.5" y="1337.0488"/><text fill="#000000" font-family="sans-serif" font-size="14" lengthAdjust="spacing" textLength="91" x="1353" y="1357.584">BuildingRepo</text><text fill="#000000" font-family="sans-serif" font-size="14" lengthAdjust="spacing" textLength="186" x="1305.5" y="1374.0723">:IBuildingRepo&#171;Repository&#187;</text><rect fill="#E2E2F0" height="46.9766" rx="2.5" ry="2.5" style="stroke:#181818;stroke-width:0.5;" width="121" x="1508.5" y="36"/><text fill="#000000" font-family="sans-serif" font-size="14" lengthAdjust="spacing" textLength="74" x="1532" y="56.5352">FloorgMap</text><text fill="#000000" font-family="sans-serif" font-size="14" lengthAdjust="spacing" textLength="107" x="1515.5" y="73.0234">&#171;Domain2Data&#187;</text><rect fill="#E2E2F0" height="46.9766" rx="2.5" ry="2.5" style="stroke:#181818;stroke-width:0.5;" width="121" x="1508.5" y="1337.0488"/><text fill="#000000" font-family="sans-serif" font-size="14" lengthAdjust="spacing" textLength="74" x="1532" y="1357.584">FloorgMap</text><text fill="#000000" font-family="sans-serif" font-size="14" lengthAdjust="spacing" textLength="107" x="1515.5" y="1374.0723">&#171;Domain2Data&#187;</text><rect fill="#E2E2F0" height="46.9766" rx="2.5" ry="2.5" style="stroke:#181818;stroke-width:0.5;" width="103" x="2203" y="1337.0488"/><text fill="#000000" font-family="sans-serif" font-size="14" lengthAdjust="spacing" textLength="89" x="2210" y="1357.584">DataFloor&lt;&lt;</text><text fill="#000000" font-family="sans-serif" font-size="14" lengthAdjust="spacing" textLength="45" x="2232" y="1374.0723">&#171;Data&#187;</text><text fill="#000000" font-family="sans-serif" font-size="14" lengthAdjust="spacing" textLength="59" x="2325" y="64.5352">dbDriver</text><text fill="#000000" font-family="sans-serif" font-size="14" lengthAdjust="spacing" textLength="77" x="2316" y="81.0234">&#171;Database&#187;</text><path d="M2339.5,15 C2339.5,5 2357.5,5 2357.5,5 C2357.5,5 2375.5,5 2375.5,15 L2375.5,41 C2375.5,51 2357.5,51 2357.5,51 C2357.5,51 2339.5,51 2339.5,41 L2339.5,15 " fill="#E2E2F0" style="stroke:#181818;stroke-width:1.5;"/><path d="M2339.5,15 C2339.5,25 2357.5,25 2357.5,25 C2357.5,25 2375.5,25 2375.5,15 " fill="none" style="stroke:#181818;stroke-width:1.5;"/><text fill="#000000" font-family="sans-serif" font-size="14" lengthAdjust="spacing" textLength="59" x="2325" y="1350.584">dbDriver</text><text fill="#000000" font-family="sans-serif" font-size="14" lengthAdjust="spacing" textLength="77" x="2316" y="1367.0723">&#171;Database&#187;</text><path d="M2339.5,1380.0254 C2339.5,1370.0254 2357.5,1370.0254 2357.5,1370.0254 C2357.5,1370.0254 2375.5,1370.0254 2375.5,1380.0254 L2375.5,1406.0254 C2375.5,1416.0254 2357.5,1416.0254 2357.5,1416.0254 C2357.5,1416.0254 2339.5,1416.0254 2339.5,1406.0254 L2339.5,1380.0254 " fill="#E2E2F0" style="stroke:#181818;stroke-width:1.5;"/><path d="M2339.5,1380.0254 C2339.5,1390.0254 2357.5,1390.0254 2357.5,1390.0254 C2357.5,1390.0254 2375.5,1390.0254 2375.5,1380.0254 " fill="none" style="stroke:#181818;stroke-width:1.5;"/><rect fill="#FFFFFF" height="1204.7617" style="stroke:#181818;stroke-width:1.0;" width="10" x="162.5" y="115.2871"/><rect fill="#FFFFFF" height="1146.1406" style="stroke:#181818;stroke-width:1.0;" width="10" x="296.5" y="144.5977"/><rect fill="#FFFFFF" height="28" style="stroke:#181818;stroke-width:1.0;" width="10" x="301.5" y="181.9082"/><rect fill="#FFFFFF" height="28" style="stroke:#181818;stroke-width:1.0;" width="10" x="301.5" y="1226.4277"/><rect fill="#FFFFFF" height="29.3105" style="stroke:#181818;stroke-width:1.0;" width="10" x="431.5" y="246.2188"/><rect fill="#FFFFFF" height="237.2422" style="stroke:#181818;stroke-width:1.0;" width="10" x="431.5" y="951.875"/><rect fill="#FFFFFF" height="855.6113" style="stroke:#181818;stroke-width:1.0;" width="10" x="672.5" y="333.5059"/><rect fill="#FFFFFF" height="88.6211" style="stroke:#181818;stroke-width:1.0;" width="10" x="958.5" y="362.8164"/><rect fill="#FFFFFF" height="30" style="stroke:#181818;stroke-width:1.0;" width="10" x="1060.5" y="597.3457"/><rect fill="#FFFFFF" height="30" style="stroke:#181818;stroke-width:1.0;" width="10" x="1060.5" y="656.6563"/><rect fill="#FFFFFF" height="30" style="stroke:#181818;stroke-width:1.0;" width="10" x="1060.5" y="715.9668"/><rect fill="#FFFFFF" height="30" style="stroke:#181818;stroke-width:1.0;" width="10" x="1060.5" y="775.2773"/><rect fill="#FFFFFF" height="30" style="stroke:#181818;stroke-width:1.0;" width="10" x="1060.5" y="981.1855"/><rect fill="#FFFFFF" height="30" style="stroke:#181818;stroke-width:1.0;" width="10" x="1060.5" y="1040.4961"/><rect fill="#FFFFFF" height="30" style="stroke:#181818;stroke-width:1.0;" width="10" x="1060.5" y="1099.8066"/><rect fill="#FFFFFF" height="30" style="stroke:#181818;stroke-width:1.0;" width="10" x="1060.5" y="1159.1172"/><rect fill="#FFFFFF" height="383.8398" style="stroke:#181818;stroke-width:1.0;" width="10" x="1193.5" y="538.7246"/><rect fill="#FFFFFF" height="59.3105" style="stroke:#181818;stroke-width:1.0;" width="10" x="1393.5" y="392.127"/><rect fill="#FFFFFF" height="266.5527" style="stroke:#181818;stroke-width:1.0;" width="10" x="1564" y="568.0352"/><rect fill="#FFFFFF" height="30" style="stroke:#181818;stroke-width:1.0;" width="10" x="2352.5" y="421.4375"/><rect fill="#FFFFFF" height="30" style="stroke:#181818;stroke-width:1.0;" width="10" x="2352.5" y="892.5645"/><polygon fill="#181818" points="150.5,111.2871,160.5,115.2871,150.5,119.2871,154.5,115.2871" style="stroke:#181818;stroke-width:1.0;"/><line style="stroke:#181818;stroke-width:1.0;" x1="29.5" x2="156.5" y1="115.2871" y2="115.2871"/><text fill="#000000" font-family="sans-serif" font-size="13" lengthAdjust="spacing" textLength="114" x="36.5" y="110.5449">POST /Floor (json)</text><polygon fill="#181818" points="284.5,140.5977,294.5,144.5977,284.5,148.5977,288.5,144.5977" style="stroke:#181818;stroke-width:1.0;"/><line style="stroke:#181818;stroke-width:1.0;" x1="172.5" x2="290.5" y1="144.5977" y2="144.5977"/><text fill="#000000" font-family="sans-serif" font-size="13" lengthAdjust="spacing" textLength="105" x="179.5" y="139.8555">createFloor(json)</text><line style="stroke:#181818;stroke-width:1.0;" x1="311.5" x2="353.5" y1="173.9082" y2="173.9082"/><line style="stroke:#181818;stroke-width:1.0;" x1="353.5" x2="353.5" y1="173.9082" y2="186.9082"/><line style="stroke:#181818;stroke-width:1.0;" x1="312.5" x2="353.5" y1="186.9082" y2="186.9082"/><polygon fill="#181818" points="322.5,182.9082,312.5,186.9082,322.5,190.9082,318.5,186.9082" style="stroke:#181818;stroke-width:1.0;"/><text fill="#000000" font-family="sans-serif" font-size="13" lengthAdjust="spacing" textLength="84" x="318.5" y="169.166">validateJson()</text><polygon fill="#181818" points="419.5,242.2188,429.5,246.2188,419.5,250.2188,423.5,246.2188" style="stroke:#181818;stroke-width:1.0;"/><line style="stroke:#181818;stroke-width:1.0;" x1="306.5" x2="425.5" y1="246.2188" y2="246.2188"/><text fill="#000000" font-family="sans-serif" font-size="13" lengthAdjust="spacing" textLength="76" x="313.5" y="241.4766">toDTO(json)</text><polygon fill="#181818" points="526.5,271.5293,536.5,275.5293,526.5,279.5293,530.5,275.5293" style="stroke:#181818;stroke-width:1.0;"/><line style="stroke:#181818;stroke-width:1.0;" x1="436.5" x2="532.5" y1="275.5293" y2="275.5293"/><text fill="#000000" font-family="sans-serif" font-size="13" lengthAdjust="spacing" textLength="73" x="443.5" y="270.7871">create(json)</text><rect fill="#E2E2F0" height="46.9766" rx="2.5" ry="2.5" style="stroke:#181818;stroke-width:0.5;" width="80" x="538.5" y="254.2188"/><text fill="#000000" font-family="sans-serif" font-size="14" lengthAdjust="spacing" textLength="66" x="545.5" y="274.7539">FloorDTO</text><text fill="#000000" font-family="sans-serif" font-size="14" lengthAdjust="spacing" textLength="44" x="556.5" y="291.2422">&#171;DTO&#187;</text><polygon fill="#181818" points="660.5,329.5059,670.5,333.5059,660.5,337.5059,664.5,333.5059" style="stroke:#181818;stroke-width:1.0;"/><line style="stroke:#181818;stroke-width:1.0;" x1="306.5" x2="666.5" y1="333.5059" y2="333.5059"/><text fill="#000000" font-family="sans-serif" font-size="13" lengthAdjust="spacing" textLength="234" x="313.5" y="328.7637">buildingDTO = createFloor(floorDTO)</text><polygon fill="#181818" points="946.5,358.8164,956.5,362.8164,946.5,366.8164,950.5,362.8164" style="stroke:#181818;stroke-width:1.0;"/><line style="stroke:#181818;stroke-width:1.0;" x1="682.5" x2="952.5" y1="362.8164" y2="362.8164"/><text fill="#000000" font-family="sans-serif" font-size="13" lengthAdjust="spacing" textLength="257" x="689.5" y="358.0742">building = findBuilding(buildingFinderId)</text><polygon fill="#181818" points="1381.5,388.127,1391.5,392.127,1381.5,396.127,1385.5,392.127" style="stroke:#181818;stroke-width:1.0;"/><line style="stroke:#181818;stroke-width:1.0;" x1="968.5" x2="1387.5" y1="392.127" y2="392.127"/><text fill="#000000" font-family="sans-serif" font-size="13" lengthAdjust="spacing" textLength="257" x="975.5" y="387.3848">building = findBuilding(buildingFinderId)</text><polygon fill="#181818" points="2340.5,417.4375,2350.5,421.4375,2340.5,425.4375,2344.5,421.4375" style="stroke:#181818;stroke-width:1.0;"/><line style="stroke:#181818;stroke-width:1.0;" x1="1403.5" x2="2346.5" y1="421.4375" y2="421.4375"/><text fill="#000000" font-family="sans-serif" font-size="13" lengthAdjust="spacing" textLength="257" x="1410.5" y="416.6953">building = findBuilding(buildingFinderId)</text><polygon fill="#181818" points="1020.5,476.748,1030.5,480.748,1020.5,484.748,1024.5,480.748" style="stroke:#181818;stroke-width:1.0;"/><line style="stroke:#181818;stroke-width:1.0;" x1="682.5" x2="1026.5" y1="480.748" y2="480.748"/><text fill="#000000" font-family="sans-serif" font-size="13" lengthAdjust="spacing" textLength="152" x="689.5" y="476.0059">floor = create(floorDTO)</text><rect fill="#E2E2F0" height="46.9766" rx="2.5" ry="2.5" style="stroke:#181818;stroke-width:0.5;" width="66" x="1032.5" y="459.4375"/><text fill="#000000" font-family="sans-serif" font-size="14" lengthAdjust="spacing" textLength="36" x="1047.5" y="479.9727">Floor</text><text fill="#000000" font-family="sans-serif" font-size="14" lengthAdjust="spacing" textLength="52" x="1039.5" y="496.4609">&#171;Entity&#187;</text><polygon fill="#181818" points="1181.5,534.7246,1191.5,538.7246,1181.5,542.7246,1185.5,538.7246" style="stroke:#181818;stroke-width:1.0;"/><line style="stroke:#181818;stroke-width:1.0;" x1="682.5" x2="1187.5" y1="538.7246" y2="538.7246"/><text fill="#000000" font-family="sans-serif" font-size="13" lengthAdjust="spacing" textLength="66" x="689.5" y="533.9824">save(floor)</text><polygon fill="#181818" points="1552,564.0352,1562,568.0352,1552,572.0352,1556,568.0352" style="stroke:#181818;stroke-width:1.0;"/><line style="stroke:#181818;stroke-width:1.0;" x1="1203.5" x2="1558" y1="568.0352" y2="568.0352"/><text fill="#000000" font-family="sans-serif" font-size="13" lengthAdjust="spacing" textLength="157" x="1210.5" y="563.293">dataFloor = toData(floor)</text><polygon fill="#181818" points="1081.5,593.3457,1071.5,597.3457,1081.5,601.3457,1077.5,597.3457" style="stroke:#181818;stroke-width:1.0;"/><line style="stroke:#181818;stroke-width:1.0;" x1="1075.5" x2="1563" y1="597.3457" y2="597.3457"/><text fill="#000000" font-family="sans-serif" font-size="13" lengthAdjust="spacing" textLength="133" x="1087.5" y="592.6035">getFloorDescription()</text><polygon fill="#181818" points="1081.5,652.6563,1071.5,656.6563,1081.5,660.6563,1077.5,656.6563" style="stroke:#181818;stroke-width:1.0;"/><line style="stroke:#181818;stroke-width:1.0;" x1="1075.5" x2="1563" y1="656.6563" y2="656.6563"/><text fill="#000000" font-family="sans-serif" font-size="13" lengthAdjust="spacing" textLength="86" x="1087.5" y="651.9141">getFloorMap()</text><polygon fill="#181818" points="1081.5,711.9668,1071.5,715.9668,1081.5,719.9668,1077.5,715.9668" style="stroke:#181818;stroke-width:1.0;"/><line style="stroke:#181818;stroke-width:1.0;" x1="1075.5" x2="1563" y1="715.9668" y2="715.9668"/><text fill="#000000" font-family="sans-serif" font-size="13" lengthAdjust="spacing" textLength="161" x="1087.5" y="711.2246">getFloorMaxDimensions()</text><polygon fill="#181818" points="1081.5,771.2773,1071.5,775.2773,1081.5,779.2773,1077.5,775.2773" style="stroke:#181818;stroke-width:1.0;"/><line style="stroke:#181818;stroke-width:1.0;" x1="1075.5" x2="1563" y1="775.2773" y2="775.2773"/><text fill="#000000" font-family="sans-serif" font-size="13" lengthAdjust="spacing" textLength="110" x="1087.5" y="770.5352">getFloorNumber()</text><polygon fill="#181818" points="2191,830.5879,2201,834.5879,2191,838.5879,2195,834.5879" style="stroke:#181818;stroke-width:1.0;"/><line style="stroke:#181818;stroke-width:1.0;" x1="1569" x2="2197" y1="834.5879" y2="834.5879"/><text fill="#000000" font-family="sans-serif" font-size="13" lengthAdjust="spacing" textLength="605" x="1576" y="829.8457">datafloor = create(floorDescription,floorMap,floorMaxDimensions,floorNumber,buildingFindeId)</text><rect fill="#E2E2F0" height="46.9766" rx="2.5" ry="2.5" style="stroke:#181818;stroke-width:0.5;" width="103" x="2203" y="813.2773"/><text fill="#000000" font-family="sans-serif" font-size="14" lengthAdjust="spacing" textLength="89" x="2210" y="833.8125">DataFloor&lt;&lt;</text><text fill="#000000" font-family="sans-serif" font-size="14" lengthAdjust="spacing" textLength="45" x="2232" y="850.3008">&#171;Data&#187;</text><polygon fill="#181818" points="2340.5,888.5645,2350.5,892.5645,2340.5,896.5645,2344.5,892.5645" style="stroke:#181818;stroke-width:1.0;"/><line style="stroke:#181818;stroke-width:1.0;" x1="1203.5" x2="2346.5" y1="892.5645" y2="892.5645"/><text fill="#000000" font-family="sans-serif" font-size="13" lengthAdjust="spacing" textLength="114" x="1210.5" y="887.8223">save(dataBuilding)</text><polygon fill="#181818" points="452.5,947.875,442.5,951.875,452.5,955.875,448.5,951.875" style="stroke:#181818;stroke-width:1.0;"/><line style="stroke:#181818;stroke-width:1.0;" x1="446.5" x2="671.5" y1="951.875" y2="951.875"/><text fill="#000000" font-family="sans-serif" font-size="13" lengthAdjust="spacing" textLength="79" x="458.5" y="947.1328">toDTO(floor)</text><polygon fill="#181818" points="1048.5,977.1855,1058.5,981.1855,1048.5,985.1855,1052.5,981.1855" style="stroke:#181818;stroke-width:1.0;"/><line style="stroke:#181818;stroke-width:1.0;" x1="441.5" x2="1054.5" y1="981.1855" y2="981.1855"/><text fill="#000000" font-family="sans-serif" font-size="13" lengthAdjust="spacing" textLength="254" x="448.5" y="976.4434">floorDescription = getFloorDescription()</text><polygon fill="#181818" points="1048.5,1036.4961,1058.5,1040.4961,1048.5,1044.4961,1052.5,1040.4961" style="stroke:#181818;stroke-width:1.0;"/><line style="stroke:#181818;stroke-width:1.0;" x1="441.5" x2="1054.5" y1="1040.4961" y2="1040.4961"/><text fill="#000000" font-family="sans-serif" font-size="13" lengthAdjust="spacing" textLength="160" x="448.5" y="1035.7539">floorMap = getFloorMap()</text><polygon fill="#181818" points="1048.5,1095.8066,1058.5,1099.8066,1048.5,1103.8066,1052.5,1099.8066" style="stroke:#181818;stroke-width:1.0;"/><line style="stroke:#181818;stroke-width:1.0;" x1="441.5" x2="1054.5" y1="1099.8066" y2="1099.8066"/><text fill="#000000" font-family="sans-serif" font-size="13" lengthAdjust="spacing" textLength="310" x="448.5" y="1095.0645">floorMaxDimensions = getFloorMaxDimensions()</text><polygon fill="#181818" points="1048.5,1155.1172,1058.5,1159.1172,1048.5,1163.1172,1052.5,1159.1172" style="stroke:#181818;stroke-width:1.0;"/><line style="stroke:#181818;stroke-width:1.0;" x1="441.5" x2="1054.5" y1="1159.1172" y2="1159.1172"/><text fill="#000000" font-family="sans-serif" font-size="13" lengthAdjust="spacing" textLength="208" x="448.5" y="1154.375">floorNumber = getFloorNumber()</text><line style="stroke:#181818;stroke-width:1.0;" x1="311.5" x2="353.5" y1="1218.4277" y2="1218.4277"/><line style="stroke:#181818;stroke-width:1.0;" x1="353.5" x2="353.5" y1="1218.4277" y2="1231.4277"/><line style="stroke:#181818;stroke-width:1.0;" x1="312.5" x2="353.5" y1="1231.4277" y2="1231.4277"/><polygon fill="#181818" points="322.5,1227.4277,312.5,1231.4277,322.5,1235.4277,318.5,1231.4277" style="stroke:#181818;stroke-width:1.0;"/><text fill="#000000" font-family="sans-serif" font-size="13" lengthAdjust="spacing" textLength="111" x="318.5" y="1213.6855">generateRes(json)</text><polygon fill="#181818" points="183.5,1286.7383,173.5,1290.7383,183.5,1294.7383,179.5,1290.7383" style="stroke:#181818;stroke-width:1.0;"/><line style="stroke:#181818;stroke-width:1.0;stroke-dasharray:2.0,2.0;" x1="177.5" x2="300.5" y1="1290.7383" y2="1290.7383"/><text fill="#000000" font-family="sans-serif" font-size="13" lengthAdjust="spacing" textLength="57" x="189.5" y="1285.9961">response</text><polygon fill="#181818" points="40.5,1316.0488,30.5,1320.0488,40.5,1324.0488,36.5,1320.0488" style="stroke:#181818;stroke-width:1.0;"/><line style="stroke:#181818;stroke-width:1.0;" x1="34.5" x2="166.5" y1="1320.0488" y2="1320.0488"/><text fill="#000000" font-family="sans-serif" font-size="13" lengthAdjust="spacing" textLength="57" x="46.5" y="1315.3066">response</text><!--SRC=[nLPTRzem57tFhx1uObMdINb46H8KAZ6j1OMiOb9V33784yIHOz3wxtVzbTZ1oIgXhJoWs3dd-ERUSsrlsRd8CNz3cwZ4ND0TBN4Xq62KihCWZqV6-03X2gNB7zdSXwYN3wmGd1sFXByMITACncD5UyZIxm7M4ovBpVXMiIAUPKk3VvgiLlCqm028X3T8U0h0reHVw8v8g7aqy7NwuiEdPthCQN7eOyI15IHmNWWgtWnk_fmjify1P4fAzbgC5lKWIUH_HGNZbfpELyjmN9RjZZi4Gc4U8CKgOUo4AMGO2-obkCMHxnKlIHIhWSycsIJAORp55K63V3lZzA9hDpEp5ZcDeWtwFDPUGIEqMgupz4N9ek4lAFId2Ey4lM11Z9yq4YZI9y3OSOADwmm1mQycAJV96GLlQ1Tyf10YaMOQQawO9tyvwTRJkG55mS1VJWYUd36fdJSae0Fdxgx-Z1RTMTSHi2k3su2uDSK68VJLoyRUD44W76bjEobbj5hio87MdXQvjTBGpZ_29E6BF2mQkwgnAgmqssswsgzsMWlAp4rlamNl1V8SdlK-pPdtGpEPrDsjggfAK9SbK153aJe0h_35W1h4LIgyDufOkr0cEhTj2Sk29M4KKWoOCxu2MD7wcq3-G8JUN4cruxGKr6kVeBpPxK8O9vKTgBuOOB_wmBL_p-Y951KaeFgmA9xFfotX_sjvkQyhMqkF1QtTcE9-Rofa7vnqwIaT-xtNgMwZTcw2SR03r7QW6aX6PpU27jSxdTw_3mHwljs_hKEWhuLR9u5_6jG5RgSJ4ls-pljREViBtXK9rD698DntDwpSlQpZ6Y-0_kRxDqdGXdN2wEo-szOFd_hN9rBeMdCW1U7mFYLLrrNadJSRvrB6ILL2eadKnQZlP1iNxVQCkhhz0G00]--></g></svg>