<?xml version="1.0" encoding="us-ascii" standalone="no"?><svg xmlns="http://www.w3.org/2000/svg" xmlns:xlink="http://www.w3.org/1999/xlink" contentStyleType="text/css" height="922px" preserveAspectRatio="none" style="width:1107px;height:922px;background:#FFFFFF;" version="1.1" viewBox="0 0 1107 922" width="1107px" zoomAndPan="magnify"><defs/><g><!--cluster Frameworks and Drivers Layer--><g id="cluster_Frameworks and Drivers Layer"><path d="M171,6 L391,6 A3.75,3.75 0 0 1 393.5,8.5 L400.5,28.4883 L453,28.4883 A2.5,2.5 0 0 1 455.5,30.9883 L455.5,102.5 A2.5,2.5 0 0 1 453,105 L171,105 A2.5,2.5 0 0 1 168.5,102.5 L168.5,8.5 A2.5,2.5 0 0 1 171,6 " fill="none" style="stroke:#000000;stroke-width:1.5;"/><line style="stroke:#000000;stroke-width:1.5;" x1="168.5" x2="400.5" y1="28.4883" y2="28.4883"/><text fill="#000000" font-family="sans-serif" font-size="14" font-weight="bold" lengthAdjust="spacing" textLength="219" x="172.5" y="21.5352">Frameworks and Drivers Layer</text></g><!--cluster Interface Adapters Layers--><g id="cluster_Interface Adapters Layers"><path d="M155,138 L339,138 A3.75,3.75 0 0 1 341.5,140.5 L348.5,160.4883 L702,160.4883 A2.5,2.5 0 0 1 704.5,162.9883 L704.5,283.5 A2.5,2.5 0 0 1 702,286 L155,286 A2.5,2.5 0 0 1 152.5,283.5 L152.5,140.5 A2.5,2.5 0 0 1 155,138 " fill="none" style="stroke:#000000;stroke-width:1.5;"/><line style="stroke:#000000;stroke-width:1.5;" x1="152.5" x2="348.5" y1="160.4883" y2="160.4883"/><text fill="#000000" font-family="sans-serif" font-size="14" font-weight="bold" lengthAdjust="spacing" textLength="183" x="156.5" y="153.5352">Interface Adapters Layers</text></g><!--cluster Application Services/Use Case Services--><g id="cluster_Application Services/Use Case Services"><path d="M218,319 L500,319 A3.75,3.75 0 0 1 502.5,321.5 L509.5,341.4883 L629,341.4883 A2.5,2.5 0 0 1 631.5,343.9883 L631.5,431.5 A2.5,2.5 0 0 1 629,434 L218,434 A2.5,2.5 0 0 1 215.5,431.5 L215.5,321.5 A2.5,2.5 0 0 1 218,319 " fill="none" style="stroke:#000000;stroke-width:1.5;"/><line style="stroke:#000000;stroke-width:1.5;" x1="215.5" x2="509.5" y1="341.4883" y2="341.4883"/><text fill="#000000" font-family="sans-serif" font-size="14" font-weight="bold" lengthAdjust="spacing" textLength="281" x="219.5" y="334.5352">Application Services/Use Case Services</text></g><!--cluster Model--><g id="cluster_Model"><path d="M145,625 L190,625 A3.75,3.75 0 0 1 192.5,627.5 L199.5,647.4883 L920,647.4883 A2.5,2.5 0 0 1 922.5,649.9883 L922.5,913 A2.5,2.5 0 0 1 920,915.5 L145,915.5 A2.5,2.5 0 0 1 142.5,913 L142.5,627.5 A2.5,2.5 0 0 1 145,625 " fill="none" style="stroke:#000000;stroke-width:1.5;"/><line style="stroke:#000000;stroke-width:1.5;" x1="142.5" x2="199.5" y1="647.4883" y2="647.4883"/><text fill="#000000" font-family="sans-serif" font-size="14" font-weight="bold" lengthAdjust="spacing" textLength="44" x="146.5" y="640.5352">Model</text></g><!--class RouteBuilding--><g id="elem_RouteBuilding"><rect codeLine="3" fill="#F1F1F1" height="48" id="RouteBuilding" rx="2.5" ry="2.5" style="stroke:#181818;stroke-width:0.5;" width="128" x="311.5" y="41"/><ellipse cx="326.5" cy="57" fill="#ADD1B2" rx="11" ry="11" style="stroke:#181818;stroke-width:1.0;"/><path d="M329.4731,62.6431 Q328.8921,62.9419 328.2529,63.0913 Q327.6138,63.2407 326.9082,63.2407 Q324.4014,63.2407 323.0815,61.5889 Q321.7617,59.937 321.7617,56.8159 Q321.7617,53.6865 323.0815,52.0347 Q324.4014,50.3828 326.9082,50.3828 Q327.6138,50.3828 328.2612,50.5322 Q328.9087,50.6816 329.4731,50.9805 L329.4731,53.7031 Q328.8423,53.1221 328.2488,52.8523 Q327.6553,52.5825 327.0244,52.5825 Q325.6797,52.5825 324.9949,53.6492 Q324.3101,54.7158 324.3101,56.8159 Q324.3101,58.9077 324.9949,59.9744 Q325.6797,61.041 327.0244,61.041 Q327.6553,61.041 328.2488,60.7712 Q328.8423,60.5015 329.4731,59.9204 Z " fill="#000000"/><text fill="#000000" font-family="sans-serif" font-size="14" lengthAdjust="spacing" textLength="96" x="340.5" y="62.291">RouteBuilding</text><line style="stroke:#181818;stroke-width:0.5;" x1="312.5" x2="438.5" y1="73" y2="73"/><line style="stroke:#181818;stroke-width:0.5;" x1="312.5" x2="438.5" y1="81" y2="81"/></g><!--class dbDriver--><g id="elem_dbDriver"><rect codeLine="4" fill="#F1F1F1" height="48" id="dbDriver" rx="2.5" ry="2.5" style="stroke:#181818;stroke-width:0.5;" width="91" x="185" y="41"/><ellipse cx="200" cy="57" fill="#ADD1B2" rx="11" ry="11" style="stroke:#181818;stroke-width:1.0;"/><path d="M202.9731,62.6431 Q202.3921,62.9419 201.7529,63.0913 Q201.1138,63.2407 200.4082,63.2407 Q197.9014,63.2407 196.5815,61.5889 Q195.2617,59.937 195.2617,56.8159 Q195.2617,53.6865 196.5815,52.0347 Q197.9014,50.3828 200.4082,50.3828 Q201.1138,50.3828 201.7612,50.5322 Q202.4087,50.6816 202.9731,50.9805 L202.9731,53.7031 Q202.3423,53.1221 201.7488,52.8523 Q201.1553,52.5825 200.5244,52.5825 Q199.1797,52.5825 198.4949,53.6492 Q197.8101,54.7158 197.8101,56.8159 Q197.8101,58.9077 198.4949,59.9744 Q199.1797,61.041 200.5244,61.041 Q201.1553,61.041 201.7488,60.7712 Q202.3423,60.5015 202.9731,59.9204 Z " fill="#000000"/><text fill="#000000" font-family="sans-serif" font-size="14" lengthAdjust="spacing" textLength="59" x="214" y="62.291">dbDriver</text><line style="stroke:#181818;stroke-width:0.5;" x1="186" x2="275" y1="73" y2="73"/><line style="stroke:#181818;stroke-width:0.5;" x1="186" x2="275" y1="81" y2="81"/></g><!--class IBuildingController--><g id="elem_IBuildingController"><rect codeLine="8" fill="#F1F1F1" height="64.4883" id="IBuildingController" rx="2.5" ry="2.5" style="stroke:#181818;stroke-width:0.5;" width="163" x="327" y="189.5"/><ellipse cx="342.45" cy="205.5" fill="#B4A7E5" rx="11" ry="11" style="stroke:#181818;stroke-width:1.0;"/><path d="M338.3777,201.2651 L338.3777,199.1069 L345.7571,199.1069 L345.7571,201.2651 L343.2918,201.2651 L343.2918,209.3418 L345.7571,209.3418 L345.7571,211.5 L338.3777,211.5 L338.3777,209.3418 L340.8431,209.3418 L340.8431,201.2651 Z " fill="#000000"/><text fill="#000000" font-family="sans-serif" font-size="14" font-style="italic" lengthAdjust="spacing" textLength="130" x="356.55" y="210.791">IBuildingController</text><line style="stroke:#181818;stroke-width:0.5;" x1="328" x2="489" y1="221.5" y2="221.5"/><line style="stroke:#181818;stroke-width:0.5;" x1="328" x2="489" y1="229.5" y2="229.5"/><ellipse cx="338" cy="243.2441" fill="#84BE84" rx="3" ry="3" style="stroke:#038048;stroke-width:1.0;"/><text fill="#000000" font-family="sans-serif" font-size="14" lengthAdjust="spacing" textLength="137" x="347" y="247.0352">createBuilding(json)</text></g><!--class BuildingController--><g id="elem_BuildingController"><rect codeLine="11" fill="#F1F1F1" height="97.4648" id="BuildingController" rx="2.5" ry="2.5" style="stroke:#181818;stroke-width:0.5;" width="163" x="525" y="173"/><ellipse cx="542.25" cy="189" fill="#ADD1B2" rx="11" ry="11" style="stroke:#181818;stroke-width:1.0;"/><path d="M545.2231,194.6431 Q544.6421,194.9419 544.0029,195.0913 Q543.3638,195.2407 542.6582,195.2407 Q540.1514,195.2407 538.8315,193.5889 Q537.5117,191.937 537.5117,188.8159 Q537.5117,185.6865 538.8315,184.0347 Q540.1514,182.3828 542.6582,182.3828 Q543.3638,182.3828 544.0112,182.5322 Q544.6587,182.6816 545.2231,182.9805 L545.2231,185.7031 Q544.5923,185.1221 543.9988,184.8523 Q543.4053,184.5825 542.7744,184.5825 Q541.4297,184.5825 540.7449,185.6492 Q540.0601,186.7158 540.0601,188.8159 Q540.0601,190.9077 540.7449,191.9744 Q541.4297,193.041 542.7744,193.041 Q543.4053,193.041 543.9988,192.7712 Q544.5923,192.5015 545.2231,191.9204 Z " fill="#000000"/><text fill="#000000" font-family="sans-serif" font-size="14" lengthAdjust="spacing" textLength="126" x="556.75" y="194.291">BuildingController</text><line style="stroke:#181818;stroke-width:0.5;" x1="526" x2="687" y1="205" y2="205"/><line style="stroke:#181818;stroke-width:0.5;" x1="526" x2="687" y1="213" y2="213"/><rect fill="#F24D5C" height="6" style="stroke:#C82930;stroke-width:1.0;" width="6" x="533" y="223.7441"/><text fill="#000000" font-family="sans-serif" font-size="14" lengthAdjust="spacing" textLength="137" x="545" y="230.5352">createBuilding(json)</text><rect fill="#F24D5C" height="6" style="stroke:#C82930;stroke-width:1.0;" width="6" x="533" y="240.2324"/><text fill="#000000" font-family="sans-serif" font-size="14" lengthAdjust="spacing" textLength="121" x="545" y="247.0234">validateJson(json)</text><rect fill="#F24D5C" height="6" style="stroke:#C82930;stroke-width:1.0;" width="6" x="533" y="256.7207"/><text fill="#000000" font-family="sans-serif" font-size="14" lengthAdjust="spacing" textLength="124" x="545" y="263.5117">generateRes(json)</text></g><!--class BuildingRepo--><g id="elem_BuildingRepo"><rect codeLine="16" fill="#F1F1F1" height="64.4883" id="BuildingRepo" rx="2.5" ry="2.5" style="stroke:#181818;stroke-width:0.5;" width="123" x="169" y="189.5"/><ellipse cx="184" cy="205.5" fill="#ADD1B2" rx="11" ry="11" style="stroke:#181818;stroke-width:1.0;"/><path d="M186.9731,211.1431 Q186.3921,211.4419 185.7529,211.5913 Q185.1138,211.7407 184.4082,211.7407 Q181.9014,211.7407 180.5815,210.0889 Q179.2617,208.437 179.2617,205.3159 Q179.2617,202.1865 180.5815,200.5347 Q181.9014,198.8828 184.4082,198.8828 Q185.1138,198.8828 185.7612,199.0322 Q186.4087,199.1816 186.9731,199.4805 L186.9731,202.2031 Q186.3423,201.6221 185.7488,201.3523 Q185.1553,201.0825 184.5244,201.0825 Q183.1797,201.0825 182.4949,202.1492 Q181.8101,203.2158 181.8101,205.3159 Q181.8101,207.4077 182.4949,208.4744 Q183.1797,209.541 184.5244,209.541 Q185.1553,209.541 185.7488,209.2712 Q186.3423,209.0015 186.9731,208.4204 Z " fill="#000000"/><text fill="#000000" font-family="sans-serif" font-size="14" lengthAdjust="spacing" textLength="91" x="198" y="210.791">BuildingRepo</text><line style="stroke:#181818;stroke-width:0.5;" x1="170" x2="291" y1="221.5" y2="221.5"/><rect fill="none" height="6" style="stroke:#C82930;stroke-width:1.0;" width="6" x="177" y="232.2441"/><text fill="#000000" font-family="sans-serif" font-size="14" lengthAdjust="spacing" textLength="30" x="189" y="239.0352">save</text><line style="stroke:#181818;stroke-width:0.5;" x1="170" x2="291" y1="245.9883" y2="245.9883"/></g><!--class BuildingService--><g id="elem_BuildingService"><rect codeLine="24" fill="#F1F1F1" height="64.4883" id="BuildingService" rx="2.5" ry="2.5" style="stroke:#181818;stroke-width:0.5;" width="221" x="394" y="354"/><ellipse cx="448.25" cy="370" fill="#ADD1B2" rx="11" ry="11" style="stroke:#181818;stroke-width:1.0;"/><path d="M451.2231,375.6431 Q450.6421,375.9419 450.0029,376.0913 Q449.3638,376.2407 448.6582,376.2407 Q446.1514,376.2407 444.8315,374.5889 Q443.5117,372.937 443.5117,369.8159 Q443.5117,366.6865 444.8315,365.0347 Q446.1514,363.3828 448.6582,363.3828 Q449.3638,363.3828 450.0112,363.5322 Q450.6587,363.6816 451.2231,363.9805 L451.2231,366.7031 Q450.5923,366.1221 449.9988,365.8523 Q449.4053,365.5825 448.7744,365.5825 Q447.4297,365.5825 446.7449,366.6492 Q446.0601,367.7158 446.0601,369.8159 Q446.0601,371.9077 446.7449,372.9744 Q447.4297,374.041 448.7744,374.041 Q449.4053,374.041 449.9988,373.7712 Q450.5923,373.5015 451.2231,372.9204 Z " fill="#000000"/><text fill="#000000" font-family="sans-serif" font-size="14" lengthAdjust="spacing" textLength="104" x="468.75" y="375.291">BuildingService</text><line style="stroke:#181818;stroke-width:0.5;" x1="395" x2="614" y1="386" y2="386"/><line style="stroke:#181818;stroke-width:0.5;" x1="395" x2="614" y1="394" y2="394"/><rect fill="#F24D5C" height="6" style="stroke:#C82930;stroke-width:1.0;" width="6" x="402" y="404.7441"/><text fill="#000000" font-family="sans-serif" font-size="14" lengthAdjust="spacing" textLength="195" x="414" y="411.5352">createBuilding(buildingDTO)</text></g><!--class IBuildingRepo--><g id="elem_IBuildingRepo"><rect codeLine="27" fill="#F1F1F1" height="64.4883" id="IBuildingRepo" rx="2.5" ry="2.5" style="stroke:#181818;stroke-width:0.5;" width="127" x="232" y="354"/><ellipse cx="247" cy="370" fill="#B4A7E5" rx="11" ry="11" style="stroke:#181818;stroke-width:1.0;"/><path d="M242.9277,365.7651 L242.9277,363.6069 L250.3071,363.6069 L250.3071,365.7651 L247.8418,365.7651 L247.8418,373.8418 L250.3071,373.8418 L250.3071,376 L242.9277,376 L242.9277,373.8418 L245.3931,373.8418 L245.3931,365.7651 Z " fill="#000000"/><text fill="#000000" font-family="sans-serif" font-size="14" font-style="italic" lengthAdjust="spacing" textLength="95" x="261" y="375.291">IBuildingRepo</text><line style="stroke:#181818;stroke-width:0.5;" x1="233" x2="358" y1="386" y2="386"/><line style="stroke:#181818;stroke-width:0.5;" x1="233" x2="358" y1="394" y2="394"/><rect fill="#F24D5C" height="6" style="stroke:#C82930;stroke-width:1.0;" width="6" x="240" y="404.7441"/><text fill="#000000" font-family="sans-serif" font-size="14" lengthAdjust="spacing" textLength="97" x="252" y="411.5352">save(building)</text></g><!--class Building--><g id="elem_Building"><rect codeLine="34" fill="#F1F1F1" height="80.9766" id="Building" rx="2.5" ry="2.5" style="stroke:#181818;stroke-width:0.5;" width="154" x="345.5" y="660"/><ellipse cx="390.25" cy="676" fill="#ADD1B2" rx="11" ry="11" style="stroke:#181818;stroke-width:1.0;"/><path d="M393.2231,681.6431 Q392.6421,681.9419 392.0029,682.0913 Q391.3638,682.2407 390.6582,682.2407 Q388.1514,682.2407 386.8315,680.5889 Q385.5117,678.937 385.5117,675.8159 Q385.5117,672.6865 386.8315,671.0347 Q388.1514,669.3828 390.6582,669.3828 Q391.3638,669.3828 392.0112,669.5322 Q392.6587,669.6816 393.2231,669.9805 L393.2231,672.7031 Q392.5923,672.1221 391.9988,671.8523 Q391.4053,671.5825 390.7744,671.5825 Q389.4297,671.5825 388.7449,672.6492 Q388.0601,673.7158 388.0601,675.8159 Q388.0601,677.9077 388.7449,678.9744 Q389.4297,680.041 390.7744,680.041 Q391.4053,680.041 391.9988,679.7712 Q392.5923,679.5015 393.2231,678.9204 Z " fill="#000000"/><text fill="#000000" font-family="sans-serif" font-size="14" lengthAdjust="spacing" textLength="56" x="410.75" y="681.291">Building</text><line style="stroke:#181818;stroke-width:0.5;" x1="346.5" x2="498.5" y1="692" y2="692"/><line style="stroke:#181818;stroke-width:0.5;" x1="346.5" x2="498.5" y1="700" y2="700"/><ellipse cx="356.5" cy="713.7441" fill="#84BE84" rx="3" ry="3" style="stroke:#038048;stroke-width:1.0;"/><text fill="#000000" font-family="sans-serif" font-size="14" lengthAdjust="spacing" textLength="125" x="365.5" y="717.5352">getbuildingCode()</text><ellipse cx="356.5" cy="730.2324" fill="#84BE84" rx="3" ry="3" style="stroke:#038048;stroke-width:1.0;"/><text fill="#000000" font-family="sans-serif" font-size="14" lengthAdjust="spacing" textLength="128" x="365.5" y="734.0234">getbuildingName()</text></g><!--class BuildingCode--><g id="elem_BuildingCode"><rect codeLine="38" fill="#F1F1F1" height="80.9766" id="BuildingCode" rx="2.5" ry="2.5" style="stroke:#181818;stroke-width:0.5;" width="151" x="159" y="818.5"/><ellipse cx="186.15" cy="834.5" fill="#ADD1B2" rx="11" ry="11" style="stroke:#181818;stroke-width:1.0;"/><path d="M189.1231,840.1431 Q188.5421,840.4419 187.9029,840.5913 Q187.2638,840.7407 186.5582,840.7407 Q184.0514,840.7407 182.7315,839.0889 Q181.4117,837.437 181.4117,834.3159 Q181.4117,831.1865 182.7315,829.5347 Q184.0514,827.8828 186.5582,827.8828 Q187.2638,827.8828 187.9112,828.0322 Q188.5587,828.1816 189.1231,828.4805 L189.1231,831.2031 Q188.4923,830.6221 187.8988,830.3523 Q187.3053,830.0825 186.6744,830.0825 Q185.3297,830.0825 184.6449,831.1492 Q183.9601,832.2158 183.9601,834.3159 Q183.9601,836.4077 184.6449,837.4744 Q185.3297,838.541 186.6744,838.541 Q187.3053,838.541 187.8988,838.2712 Q188.4923,838.0015 189.1231,837.4204 Z " fill="#000000"/><text fill="#000000" font-family="sans-serif" font-size="14" lengthAdjust="spacing" textLength="92" x="202.85" y="839.791">BuildingCode</text><line style="stroke:#181818;stroke-width:0.5;" x1="160" x2="309" y1="850.5" y2="850.5"/><rect fill="none" height="6" style="stroke:#C82930;stroke-width:1.0;" width="6" x="167" y="861.2441"/><text fill="#000000" font-family="sans-serif" font-size="14" lengthAdjust="spacing" textLength="93" x="179" y="868.0352">buildingCode</text><line style="stroke:#181818;stroke-width:0.5;" x1="160" x2="309" y1="874.9883" y2="874.9883"/><ellipse cx="170" cy="888.7324" fill="#84BE84" rx="3" ry="3" style="stroke:#038048;stroke-width:1.0;"/><text fill="#000000" font-family="sans-serif" font-size="14" lengthAdjust="spacing" textLength="125" x="179" y="892.5234">getbuildingCode()</text></g><!--class BuildingName--><g id="elem_BuildingName"><rect codeLine="42" fill="#F1F1F1" height="80.9766" id="BuildingName" rx="2.5" ry="2.5" style="stroke:#181818;stroke-width:0.5;" width="154" x="345.5" y="818.5"/><ellipse cx="372.65" cy="834.5" fill="#ADD1B2" rx="11" ry="11" style="stroke:#181818;stroke-width:1.0;"/><path d="M375.6231,840.1431 Q375.0421,840.4419 374.4029,840.5913 Q373.7638,840.7407 373.0582,840.7407 Q370.5514,840.7407 369.2315,839.0889 Q367.9117,837.437 367.9117,834.3159 Q367.9117,831.1865 369.2315,829.5347 Q370.5514,827.8828 373.0582,827.8828 Q373.7638,827.8828 374.4112,828.0322 Q375.0587,828.1816 375.6231,828.4805 L375.6231,831.2031 Q374.9923,830.6221 374.3988,830.3523 Q373.8053,830.0825 373.1744,830.0825 Q371.8297,830.0825 371.1449,831.1492 Q370.4601,832.2158 370.4601,834.3159 Q370.4601,836.4077 371.1449,837.4744 Q371.8297,838.541 373.1744,838.541 Q373.8053,838.541 374.3988,838.2712 Q374.9923,838.0015 375.6231,837.4204 Z " fill="#000000"/><text fill="#000000" font-family="sans-serif" font-size="14" lengthAdjust="spacing" textLength="95" x="389.35" y="839.791">BuildingName</text><line style="stroke:#181818;stroke-width:0.5;" x1="346.5" x2="498.5" y1="850.5" y2="850.5"/><rect fill="none" height="6" style="stroke:#C82930;stroke-width:1.0;" width="6" x="353.5" y="861.2441"/><text fill="#000000" font-family="sans-serif" font-size="14" lengthAdjust="spacing" textLength="96" x="365.5" y="868.0352">buildingName</text><line style="stroke:#181818;stroke-width:0.5;" x1="346.5" x2="498.5" y1="874.9883" y2="874.9883"/><ellipse cx="356.5" cy="888.7324" fill="#84BE84" rx="3" ry="3" style="stroke:#038048;stroke-width:1.0;"/><text fill="#000000" font-family="sans-serif" font-size="14" lengthAdjust="spacing" textLength="128" x="365.5" y="892.5234">getbuildingName()</text></g><!--class BuildingDescription--><g id="elem_BuildingDescription"><rect codeLine="46" fill="#F1F1F1" height="80.9766" id="BuildingDescription" rx="2.5" ry="2.5" style="stroke:#181818;stroke-width:0.5;" width="193" x="535" y="818.5"/><ellipse cx="562.15" cy="834.5" fill="#ADD1B2" rx="11" ry="11" style="stroke:#181818;stroke-width:1.0;"/><path d="M565.1231,840.1431 Q564.5421,840.4419 563.9029,840.5913 Q563.2638,840.7407 562.5582,840.7407 Q560.0514,840.7407 558.7315,839.0889 Q557.4117,837.437 557.4117,834.3159 Q557.4117,831.1865 558.7315,829.5347 Q560.0514,827.8828 562.5582,827.8828 Q563.2638,827.8828 563.9112,828.0322 Q564.5587,828.1816 565.1231,828.4805 L565.1231,831.2031 Q564.4923,830.6221 563.8988,830.3523 Q563.3053,830.0825 562.6744,830.0825 Q561.3297,830.0825 560.6449,831.1492 Q559.9601,832.2158 559.9601,834.3159 Q559.9601,836.4077 560.6449,837.4744 Q561.3297,838.541 562.6744,838.541 Q563.3053,838.541 563.8988,838.2712 Q564.4923,838.0015 565.1231,837.4204 Z " fill="#000000"/><text fill="#000000" font-family="sans-serif" font-size="14" lengthAdjust="spacing" textLength="134" x="578.85" y="839.791">BuildingDescription</text><line style="stroke:#181818;stroke-width:0.5;" x1="536" x2="727" y1="850.5" y2="850.5"/><rect fill="none" height="6" style="stroke:#C82930;stroke-width:1.0;" width="6" x="543" y="861.2441"/><text fill="#000000" font-family="sans-serif" font-size="14" lengthAdjust="spacing" textLength="135" x="555" y="868.0352">buildingDescription</text><line style="stroke:#181818;stroke-width:0.5;" x1="536" x2="727" y1="874.9883" y2="874.9883"/><ellipse cx="546" cy="888.7324" fill="#84BE84" rx="3" ry="3" style="stroke:#038048;stroke-width:1.0;"/><text fill="#000000" font-family="sans-serif" font-size="14" lengthAdjust="spacing" textLength="167" x="555" y="892.5234">getbuildingDescription()</text></g><!--class BuildingSize--><g id="elem_BuildingSize"><rect codeLine="50" fill="#F1F1F1" height="80.9766" id="BuildingSize" rx="2.5" ry="2.5" style="stroke:#181818;stroke-width:0.5;" width="143" x="763" y="818.5"/><ellipse cx="790.15" cy="834.5" fill="#ADD1B2" rx="11" ry="11" style="stroke:#181818;stroke-width:1.0;"/><path d="M793.1231,840.1431 Q792.5421,840.4419 791.9029,840.5913 Q791.2638,840.7407 790.5582,840.7407 Q788.0514,840.7407 786.7315,839.0889 Q785.4117,837.437 785.4117,834.3159 Q785.4117,831.1865 786.7315,829.5347 Q788.0514,827.8828 790.5582,827.8828 Q791.2638,827.8828 791.9112,828.0322 Q792.5587,828.1816 793.1231,828.4805 L793.1231,831.2031 Q792.4923,830.6221 791.8988,830.3523 Q791.3053,830.0825 790.6744,830.0825 Q789.3297,830.0825 788.6449,831.1492 Q787.9601,832.2158 787.9601,834.3159 Q787.9601,836.4077 788.6449,837.4744 Q789.3297,838.541 790.6744,838.541 Q791.3053,838.541 791.8988,838.2712 Q792.4923,838.0015 793.1231,837.4204 Z " fill="#000000"/><text fill="#000000" font-family="sans-serif" font-size="14" lengthAdjust="spacing" textLength="84" x="806.85" y="839.791">BuildingSize</text><line style="stroke:#181818;stroke-width:0.5;" x1="764" x2="905" y1="850.5" y2="850.5"/><rect fill="none" height="6" style="stroke:#C82930;stroke-width:1.0;" width="6" x="771" y="861.2441"/><text fill="#000000" font-family="sans-serif" font-size="14" lengthAdjust="spacing" textLength="85" x="783" y="868.0352">buildingSize</text><line style="stroke:#181818;stroke-width:0.5;" x1="764" x2="905" y1="874.9883" y2="874.9883"/><ellipse cx="774" cy="888.7324" fill="#84BE84" rx="3" ry="3" style="stroke:#038048;stroke-width:1.0;"/><text fill="#000000" font-family="sans-serif" font-size="14" lengthAdjust="spacing" textLength="117" x="783" y="892.5234">getbuildingSize()</text></g><!--class BuildingMapper--><g id="elem_BuildingMapper"><rect codeLine="55" fill="#F1F1F1" height="80.9766" id="BuildingMapper" rx="2.5" ry="2.5" style="stroke:#181818;stroke-width:0.5;" width="140" x="475.5" y="497"/><ellipse cx="490.5" cy="513" fill="#ADD1B2" rx="11" ry="11" style="stroke:#181818;stroke-width:1.0;"/><path d="M493.4731,518.6431 Q492.8921,518.9419 492.2529,519.0913 Q491.6138,519.2407 490.9082,519.2407 Q488.4014,519.2407 487.0815,517.5889 Q485.7617,515.937 485.7617,512.8159 Q485.7617,509.6865 487.0815,508.0347 Q488.4014,506.3828 490.9082,506.3828 Q491.6138,506.3828 492.2612,506.5322 Q492.9087,506.6816 493.4731,506.9805 L493.4731,509.7031 Q492.8423,509.1221 492.2488,508.8523 Q491.6553,508.5825 491.0244,508.5825 Q489.6797,508.5825 488.9949,509.6492 Q488.3101,510.7158 488.3101,512.8159 Q488.3101,514.9077 488.9949,515.9744 Q489.6797,517.041 491.0244,517.041 Q491.6553,517.041 492.2488,516.7712 Q492.8423,516.5015 493.4731,515.9204 Z " fill="#000000"/><text fill="#000000" font-family="sans-serif" font-size="14" lengthAdjust="spacing" textLength="108" x="504.5" y="518.291">BuildingMapper</text><line style="stroke:#181818;stroke-width:0.5;" x1="476.5" x2="614.5" y1="529" y2="529"/><line style="stroke:#181818;stroke-width:0.5;" x1="476.5" x2="614.5" y1="537" y2="537"/><rect fill="#F24D5C" height="6" style="stroke:#C82930;stroke-width:1.0;" width="6" x="483.5" y="547.7441"/><text fill="#000000" font-family="sans-serif" font-size="14" lengthAdjust="spacing" textLength="83" x="495.5" y="554.5352">toDTO(json)</text><rect fill="#F24D5C" height="6" style="stroke:#C82930;stroke-width:1.0;" width="6" x="483.5" y="564.2324"/><text fill="#000000" font-family="sans-serif" font-size="14" lengthAdjust="spacing" textLength="112" x="495.5" y="571.0234">toData(building)</text></g><!--class BuildingDTO--><g id="elem_BuildingDTO"><rect codeLine="59" fill="#F1F1F1" height="113.9531" id="BuildingDTO" rx="2.5" ry="2.5" style="stroke:#181818;stroke-width:0.5;" width="161" x="939" y="643.5"/><ellipse cx="973.35" cy="659.5" fill="#ADD1B2" rx="11" ry="11" style="stroke:#181818;stroke-width:1.0;"/><path d="M976.3231,665.1431 Q975.7421,665.4419 975.1029,665.5913 Q974.4638,665.7407 973.7582,665.7407 Q971.2514,665.7407 969.9315,664.0889 Q968.6117,662.437 968.6117,659.3159 Q968.6117,656.1865 969.9315,654.5347 Q971.2514,652.8828 973.7582,652.8828 Q974.4638,652.8828 975.1112,653.0322 Q975.7587,653.1816 976.3231,653.4805 L976.3231,656.2031 Q975.6923,655.6221 975.0988,655.3523 Q974.5053,655.0825 973.8744,655.0825 Q972.5297,655.0825 971.8449,656.1492 Q971.1601,657.2158 971.1601,659.3159 Q971.1601,661.4077 971.8449,662.4744 Q972.5297,663.541 973.8744,663.541 Q974.5053,663.541 975.0988,663.2712 Q975.6923,663.0015 976.3231,662.4204 Z " fill="#000000"/><text fill="#000000" font-family="sans-serif" font-size="14" lengthAdjust="spacing" textLength="86" x="991.65" y="664.791">BuildingDTO</text><line style="stroke:#181818;stroke-width:0.5;" x1="940" x2="1099" y1="675.5" y2="675.5"/><rect fill="none" height="6" style="stroke:#C82930;stroke-width:1.0;" width="6" x="947" y="686.2441"/><text fill="#000000" font-family="sans-serif" font-size="14" lengthAdjust="spacing" textLength="93" x="959" y="693.0352">buildingCode</text><rect fill="none" height="6" style="stroke:#C82930;stroke-width:1.0;" width="6" x="947" y="702.7324"/><text fill="#000000" font-family="sans-serif" font-size="14" lengthAdjust="spacing" textLength="96" x="959" y="709.5234">buildingName</text><rect fill="none" height="6" style="stroke:#C82930;stroke-width:1.0;" width="6" x="947" y="719.2207"/><text fill="#000000" font-family="sans-serif" font-size="14" lengthAdjust="spacing" textLength="135" x="959" y="726.0117">buildingDescription</text><rect fill="none" height="6" style="stroke:#C82930;stroke-width:1.0;" width="6" x="947" y="735.709"/><text fill="#000000" font-family="sans-serif" font-size="14" lengthAdjust="spacing" textLength="85" x="959" y="742.5">buildingSize</text><line style="stroke:#181818;stroke-width:0.5;" x1="940" x2="1099" y1="749.4531" y2="749.4531"/></g><!--class DataBuilding--><g id="elem_DataBuilding"><rect codeLine="65" fill="#F1F1F1" height="48" id="DataBuilding" rx="2.5" ry="2.5" style="stroke:#181818;stroke-width:0.5;" width="119" x="7" y="676.5"/><ellipse cx="22" cy="692.5" fill="#ADD1B2" rx="11" ry="11" style="stroke:#181818;stroke-width:1.0;"/><path d="M24.9731,698.1431 Q24.3921,698.4419 23.7529,698.5913 Q23.1138,698.7407 22.4082,698.7407 Q19.9014,698.7407 18.5815,697.0889 Q17.2617,695.437 17.2617,692.3159 Q17.2617,689.1865 18.5815,687.5347 Q19.9014,685.8828 22.4082,685.8828 Q23.1138,685.8828 23.7612,686.0322 Q24.4087,686.1816 24.9731,686.4805 L24.9731,689.2031 Q24.3423,688.6221 23.7488,688.3523 Q23.1553,688.0825 22.5244,688.0825 Q21.1797,688.0825 20.4949,689.1492 Q19.8101,690.2158 19.8101,692.3159 Q19.8101,694.4077 20.4949,695.4744 Q21.1797,696.541 22.5244,696.541 Q23.1553,696.541 23.7488,696.2712 Q24.3423,696.0015 24.9731,695.4204 Z " fill="#000000"/><text fill="#000000" font-family="sans-serif" font-size="14" lengthAdjust="spacing" textLength="87" x="36" y="697.791">DataBuilding</text><line style="stroke:#181818;stroke-width:0.5;" x1="8" x2="125" y1="708.5" y2="708.5"/><line style="stroke:#181818;stroke-width:0.5;" x1="8" x2="125" y1="716.5" y2="716.5"/></g><!--link BuildingController to BuildingMapper--><g id="link_BuildingController_BuildingMapper"><path codeLine="21" d="M686.877,270.452 C693.683,279.984 697.123,290.857 694.5,303 C680.177,369.297 668.781,385.338 631.5,442 C618.698,461.458 606.0647,476.505 590.7387,492.614 " fill="none" id="BuildingController-to-BuildingMapper" style="stroke:#181818;stroke-width:1.0;"/><polygon fill="#181818" points="586.603,496.961,595.7045,493.1977,590.0494,493.3385,589.9085,487.6834,586.603,496.961" style="stroke:#181818;stroke-width:1.0;"/><text fill="#000000" font-family="sans-serif" font-size="13" lengthAdjust="spacing" textLength="29" x="693.5" y="391.0684">uses</text></g><!--link BuildingService to BuildingMapper--><g id="link_BuildingService_BuildingMapper"><path codeLine="31" d="M513.095,418.34 C519.364,441.201 526.3211,466.5656 533.0611,491.1426 " fill="none" id="BuildingService-to-BuildingMapper" style="stroke:#181818;stroke-width:1.0;"/><polygon fill="#181818" points="534.648,496.929,536.1253,487.1916,533.3256,492.107,528.4102,489.3074,534.648,496.929" style="stroke:#181818;stroke-width:1.0;"/><text fill="#000000" font-family="sans-serif" font-size="13" lengthAdjust="spacing" textLength="29" x="526.5" y="463.5684">uses</text></g><!--link RouteBuilding to IBuildingController--><g id="link_RouteBuilding_IBuildingController"><path codeLine="69" d="M380.44,89.13 C386.14,115.815 394.2847,153.9474 400.6167,183.5924 " fill="none" id="RouteBuilding-to-IBuildingController" style="stroke:#181818;stroke-width:1.0;stroke-dasharray:7.0,7.0;"/><polygon fill="#181818" points="401.87,189.46,403.9018,179.823,400.8256,184.5703,396.0783,181.4941,401.87,189.46" style="stroke:#181818;stroke-width:1.0;"/></g><!--link BuildingController to IBuildingController--><g id="link_BuildingController_IBuildingController"><path codeLine="70" d="M524.655,221.5 C513.136,221.5 519.617,221.5 508.098,221.5 " fill="none" id="BuildingController-to-IBuildingController" style="stroke:#181818;stroke-width:1.0;"/><polygon fill="none" points="490.098,221.5,508.098,227.5,508.098,215.5,490.098,221.5" style="stroke:#181818;stroke-width:1.0;"/></g><!--link BuildingController to BuildingService--><g id="link_BuildingController_BuildingService"><path codeLine="71" d="M576.448,270.376 C559.524,297.339 542.0648,325.1541 527.2358,348.7791 " fill="none" id="BuildingController-to-BuildingService" style="stroke:#181818;stroke-width:1.0;stroke-dasharray:7.0,7.0;"/><polygon fill="#181818" points="524.046,353.861,532.2186,348.3647,526.7042,349.6261,525.4428,344.1117,524.046,353.861" style="stroke:#181818;stroke-width:1.0;"/></g><!--link BuildingService to Building--><g id="link_BuildingService_Building"><path codeLine="72" d="M489.327,418.1 C479.297,439.771 466.559,469.595 458.5,497 C442.23,552.325 432.9135,612.4844 427.6965,653.7554 " fill="none" id="BuildingService-to-Building" style="stroke:#181818;stroke-width:1.0;stroke-dasharray:7.0,7.0;"/><polygon fill="#181818" points="426.944,659.708,432.0411,651.2807,427.5711,654.7475,424.1043,650.2774,426.944,659.708" style="stroke:#181818;stroke-width:1.0;"/></g><!--link BuildingService to IBuildingRepo--><g id="link_BuildingService_IBuildingRepo"><path codeLine="73" d="M393.807,386 C382.264,386 376.722,386 365.18,386 " fill="none" id="BuildingService-to-IBuildingRepo" style="stroke:#181818;stroke-width:1.0;stroke-dasharray:7.0,7.0;"/><polygon fill="#181818" points="359.18,386,368.18,390,364.18,386,368.18,382,359.18,386" style="stroke:#181818;stroke-width:1.0;"/></g><!--reverse link BuildingRepo to IBuildingRepo--><g id="link_BuildingRepo_IBuildingRepo"><path codeLine="74" d="M245.2613,259.4029 C256.7713,288.1779 271.508,325.02 283.006,353.765 " fill="none" id="BuildingRepo-backto-IBuildingRepo" style="stroke:#181818;stroke-width:1.0;stroke-dasharray:7.0,7.0;"/><polygon fill="#181818" points="243.033,253.832,242.6616,263.6739,244.89,258.4744,250.0894,260.7027,243.033,253.832" style="stroke:#181818;stroke-width:1.0;"/></g><!--reverse link dbDriver to BuildingRepo--><g id="link_dbDriver_BuildingRepo"><path codeLine="75" d="M230.5,95.13 C230.5,121.815 230.5,159.815 230.5,189.46 " fill="none" id="dbDriver-backto-BuildingRepo" style="stroke:#181818;stroke-width:1.0;stroke-dasharray:7.0,7.0;"/><polygon fill="#181818" points="230.5,89.13,226.5,98.13,230.5,94.13,234.5,98.13,230.5,89.13" style="stroke:#181818;stroke-width:1.0;"/></g><!--link BuildingMapper to BuildingDTO--><g id="link_BuildingMapper_BuildingDTO"><path codeLine="77" d="M588.189,578.021 C604.066,590.3 622.992,602.35 642.5,609 C701.419,629.084 864.39,594.683 922.5,617 C938.185,623.024 948.439,628.9712 961.667,639.6592 " fill="none" id="BuildingMapper-to-BuildingDTO" style="stroke:#181818;stroke-width:1.0;stroke-dasharray:7.0,7.0;"/><polygon fill="#181818" points="966.334,643.43,961.8474,634.6624,962.4448,640.2876,956.8196,640.8851,966.334,643.43" style="stroke:#181818;stroke-width:1.0;"/></g><!--link BuildingMapper to Building--><g id="link_BuildingMapper_Building"><path codeLine="78" d="M527.842,578.108 C522.522,588.517 516.277,599.485 509.5,609 C496.73,626.929 484.7245,640.5432 469.7455,655.6082 " fill="none" id="BuildingMapper-to-Building" style="stroke:#181818;stroke-width:1.0;stroke-dasharray:7.0,7.0;"/><polygon fill="#181818" points="465.515,659.863,474.6972,656.3012,469.0404,656.3174,469.0242,650.6605,465.515,659.863" style="stroke:#181818;stroke-width:1.0;"/></g><!--link BuildingMapper to DataBuilding--><g id="link_BuildingMapper_DataBuilding"><path codeLine="79" d="M475.434,539.119 C391.294,542.682 248.293,557.91 142.5,617 C116.827,631.339 98.4866,652.5839 84.8993,671.6029 " fill="none" id="BuildingMapper-to-DataBuilding" style="stroke:#181818;stroke-width:1.0;stroke-dasharray:7.0,7.0;"/><polygon fill="#181818" points="81.4115,676.485,89.898,671.487,84.318,672.4166,83.3885,666.8366,81.4115,676.485" style="stroke:#181818;stroke-width:1.0;"/></g><!--link dbDriver to DataBuilding--><g id="link_dbDriver_DataBuilding"><path codeLine="81" d="M190.658,89.199 C151.159,115.527 96.5,162.448 96.5,220.5 C96.5,220.5 96.5,220.5 96.5,538.5 C96.5,588.257 84.1285,639.4526 75.2571,670.5196 " fill="none" id="dbDriver-to-DataBuilding" style="stroke:#181818;stroke-width:1.0;stroke-dasharray:7.0,7.0;"/><polygon fill="#181818" points="73.6096,676.289,79.9271,668.7333,74.9825,671.4812,72.2346,666.5366,73.6096,676.289" style="stroke:#181818;stroke-width:1.0;"/></g><!--link BuildingRepo to Building--><g id="link_BuildingRepo_Building"><path codeLine="82" d="M220.782,253.721 C208.902,297.256 192.983,378.05 215.5,442 C247.123,531.811 320.3421,609.3744 371.0301,655.6544 " fill="none" id="BuildingRepo-to-Building" style="stroke:#181818;stroke-width:1.0;stroke-dasharray:7.0,7.0;"/><polygon fill="#181818" points="375.461,659.7,371.5117,650.6776,371.7686,656.3287,366.1175,656.5856,375.461,659.7" style="stroke:#181818;stroke-width:1.0;"/></g><!--link BuildingRepo to BuildingDTO--><g id="link_BuildingRepo_BuildingDTO"><path codeLine="83" d="M255.648,253.638 C269.744,268.688 288.662,285.333 309.5,294 C375.66,321.519 572.368,270.529 631.5,311 C684.195,347.065 650.654,392.103 690.5,442 C771.094,542.925 821.709,536.238 922.5,617 C933.024,625.433 939.4456,630.6721 950.1216,639.6391 " fill="none" id="BuildingRepo-to-BuildingDTO" style="stroke:#181818;stroke-width:1.0;stroke-dasharray:7.0,7.0;"/><polygon fill="#181818" points="954.716,643.498,950.397,634.6467,950.8873,640.2822,945.2518,640.7725,954.716,643.498" style="stroke:#181818;stroke-width:1.0;"/></g><!--reverse link Building to BuildingCode--><g id="link_Building_BuildingCode"><path codeLine="85" d="M369.9617,745.2347 C341.5677,768.8717 310.334,794.872 282.013,818.448 " fill="none" id="Building-backto-BuildingCode" style="stroke:#181818;stroke-width:1.0;"/><polygon fill="#181818" points="374.573,741.396,365.0969,744.0799,370.7303,744.595,370.2152,750.2283,374.573,741.396" style="stroke:#181818;stroke-width:1.0;"/></g><!--reverse link Building to BuildingName--><g id="link_Building_BuildingName"><path codeLine="86" d="M422.5,747.396 C422.5,771.033 422.5,794.872 422.5,818.448 " fill="none" id="Building-backto-BuildingName" style="stroke:#181818;stroke-width:1.0;"/><polygon fill="#181818" points="422.5,741.396,418.5,750.396,422.5,746.396,426.5,750.396,422.5,741.396" style="stroke:#181818;stroke-width:1.0;"/></g><!--reverse link Building to BuildingDescription--><g id="link_Building_BuildingDescription"><path codeLine="87" d="M480.3128,744.7903 C511.8768,768.4253 546.993,794.721 578.547,818.348 " fill="none" id="Building-backto-BuildingDescription" style="stroke:#181818;stroke-width:1.0;"/><polygon fill="#181818" points="475.51,741.194,480.3166,749.7903,479.5123,744.1909,485.1117,743.3866,475.51,741.194" style="stroke:#181818;stroke-width:1.0;"/></g><!--reverse link Building to BuildingSize--><g id="link_Building_BuildingSize"><path codeLine="88" d="M505.4267,729.7362 C571.2247,752.5192 662.368,785.044 745.5,818.5 C751.146,820.772 756.964,823.186 762.793,825.658 " fill="none" id="Building-backto-BuildingSize" style="stroke:#181818;stroke-width:1.0;"/><polygon fill="#181818" points="499.757,727.773,506.9528,734.4976,504.4818,729.409,509.5704,726.938,499.757,727.773" style="stroke:#181818;stroke-width:1.0;"/></g><!--SRC=[dLLjJy8m4Fw-Nz7m2MA6tuqnGOc9HZG1_G5bFKbbhaqxCBxzTzknbUjs368_47BFtNFlDyspDLy16zmQ_WuVogmjuuLWKoEtO2nxu9zW1enz9yozBEVMihdQb72zaRcGnOfz_o98B7U6NlgR9BfXlojACAyy0pOHN9U1sGPg6JJk6keRLPH6vRcdgtJyEyiCyBtxuPjLnQX2SHoz5Eb1YWhTybmAXzyxSHjRGG76ONEmHppFGIliq_8jrCgkC4HyQNeLZ6TSQoUwO1iB5fLnedKkCrvALR05cAtCm9w_M60ttFqq4bVJg5yDQuttL69P_va-F-7CYDvGwGNpKKYqxVgK96TAG3wWKy23i89o6SeeO3WYeKStriE-0H5HGJ3ZCLSKdtT7yNdvV-ARWisCr5N72Le4a-m8xt6oa5zaq5vEqdfWkEzop5RtTSUNbieD4zeLB-0bHxFIjdVwZN6d6zrw7Yn5d4NZnFl6fykz-9oDnVYAEa7aolwSh5hHjhQXinsHKXSrE3A_W4cyZkCDCg_mBjmSwFq9gjirHhQk0tqmXU6w9adu37IWE2AAj8FuQ0BABjCqMbuQgSQ3HF2Oa0hLk2H_]--></g></svg>