<?xml version="1.0" encoding="us-ascii" standalone="no"?><svg xmlns="http://www.w3.org/2000/svg" xmlns:xlink="http://www.w3.org/1999/xlink" contentStyleType="text/css" height="763px" preserveAspectRatio="none" style="width:1483px;height:763px;background:#FFFFFF;" version="1.1" viewBox="0 0 1483 763" width="1483px" zoomAndPan="magnify"><defs/><g><rect fill="#FFFFFF" height="529.2188" style="stroke:#181818;stroke-width:1.0;" width="10" x="186.5" y="118.5703"/><rect fill="#FFFFFF" height="468.5156" style="stroke:#181818;stroke-width:1.0;" width="10" x="439.5" y="148.9219"/><rect fill="#FFFFFF" height="28" style="stroke:#181818;stroke-width:1.0;" width="10" x="444.5" y="552.0859"/><rect fill="#FFFFFF" height="221.4063" style="stroke:#181818;stroke-width:1.0;" width="10" x="570.5" y="300.3281"/><rect fill="#FFFFFF" height="342.4609" style="stroke:#181818;stroke-width:1.0;" width="10" x="802.5" y="179.2734"/><rect fill="#FFFFFF" height="30" style="stroke:#181818;stroke-width:1.0;" width="10" x="902" y="356.0313"/><rect fill="#FFFFFF" height="30" style="stroke:#181818;stroke-width:1.0;" width="10" x="902" y="416.3828"/><rect fill="#FFFFFF" height="30" style="stroke:#181818;stroke-width:1.0;" width="10" x="902" y="476.7344"/><rect fill="#FFFFFF" height="60.3516" style="stroke:#181818;stroke-width:1.0;" width="10" x="1040.5" y="209.625"/><rect fill="#FFFFFF" height="30" style="stroke:#181818;stroke-width:1.0;" width="10" x="1435.5" y="239.9766"/><rect fill="none" height="199.4063" style="stroke:#000000;stroke-width:1.5;" width="441.5" x="508.5" y="315.3281"/><line style="stroke:#181818;stroke-width:0.5;stroke-dasharray:5.0,5.0;" x1="29" x2="29" y1="86.2188" y2="665.7891"/><line style="stroke:#181818;stroke-width:0.5;stroke-dasharray:5.0,5.0;" x1="191.5" x2="191.5" y1="86.2188" y2="665.7891"/><line style="stroke:#181818;stroke-width:0.5;stroke-dasharray:5.0,5.0;" x1="444.5" x2="444.5" y1="86.2188" y2="665.7891"/><line style="stroke:#181818;stroke-width:0.5;stroke-dasharray:5.0,5.0;" x1="575.5" x2="575.5" y1="86.2188" y2="665.7891"/><line style="stroke:#181818;stroke-width:0.5;stroke-dasharray:5.0,5.0;" x1="690.5" x2="690.5" y1="86.2188" y2="665.7891"/><line style="stroke:#181818;stroke-width:0.5;stroke-dasharray:5.0,5.0;" x1="807" x2="807" y1="86.2188" y2="665.7891"/><line style="stroke:#181818;stroke-width:0.5;stroke-dasharray:5.0,5.0;" x1="907" x2="907" y1="86.2188" y2="665.7891"/><line style="stroke:#181818;stroke-width:0.5;stroke-dasharray:5.0,5.0;" x1="1045" x2="1045" y1="86.2188" y2="665.7891"/><line style="stroke:#181818;stroke-width:0.5;stroke-dasharray:5.0,5.0;" x1="1209" x2="1209" y1="86.2188" y2="665.7891"/><line style="stroke:#181818;stroke-width:0.5;stroke-dasharray:5.0,5.0;" x1="1333" x2="1333" y1="86.2188" y2="665.7891"/><line style="stroke:#181818;stroke-width:0.5;stroke-dasharray:5.0,5.0;" x1="1440" x2="1440" y1="86.2188" y2="665.7891"/><text fill="#000000" font-family="sans-serif" font-size="14" lengthAdjust="spacing" textLength="8" x="22.5" y="83.1426">X</text><path d="M9,40.6094 L9,64.6094 M9,52.6094 L26,52.6094 " fill="none" style="stroke:#181818;stroke-width:0.5;"/><ellipse cx="38" cy="52.6094" fill="#E2E2F0" rx="12" ry="12" style="stroke:#181818;stroke-width:0.5;"/><text fill="#000000" font-family="sans-serif" font-size="14" lengthAdjust="spacing" textLength="8" x="22.5" y="679.3223">X</text><path d="M9,686.3984 L9,710.3984 M9,698.3984 L26,698.3984 " fill="none" style="stroke:#181818;stroke-width:0.5;"/><ellipse cx="38" cy="698.3984" fill="#E2E2F0" rx="12" ry="12" style="stroke:#181818;stroke-width:0.5;"/><rect fill="#E2E2F0" height="31.6094" rx="2.5" ry="2.5" style="stroke:#181818;stroke-width:0.5;" width="108" x="137.5" y="53.6094"/><text fill="#000000" font-family="sans-serif" font-size="14" lengthAdjust="spacing" textLength="94" x="144.5" y="75.1426">:RouteElevator</text><rect fill="#E2E2F0" height="31.6094" rx="2.5" ry="2.5" style="stroke:#181818;stroke-width:0.5;" width="108" x="137.5" y="664.7891"/><text fill="#000000" font-family="sans-serif" font-size="14" lengthAdjust="spacing" textLength="94" x="144.5" y="686.3223">:RouteElevator</text><rect fill="#E2E2F0" height="49.2188" rx="2.5" ry="2.5" style="stroke:#181818;stroke-width:0.5;" width="128" x="380.5" y="36"/><text fill="#000000" font-family="sans-serif" font-size="14" lengthAdjust="spacing" textLength="114" x="387.5" y="57.5332">ElevatorController</text><text fill="#000000" font-family="sans-serif" font-size="14" lengthAdjust="spacing" textLength="78" x="405.5" y="75.1426">&#171;Controller&#187;</text><rect fill="#E2E2F0" height="49.2188" rx="2.5" ry="2.5" style="stroke:#181818;stroke-width:0.5;" width="128" x="380.5" y="664.7891"/><text fill="#000000" font-family="sans-serif" font-size="14" lengthAdjust="spacing" textLength="114" x="387.5" y="686.3223">ElevatorController</text><text fill="#000000" font-family="sans-serif" font-size="14" lengthAdjust="spacing" textLength="78" x="405.5" y="703.9316">&#171;Controller&#187;</text><rect fill="#E2E2F0" height="49.2188" rx="2.5" ry="2.5" style="stroke:#181818;stroke-width:0.5;" width="114" x="518.5" y="36"/><text fill="#000000" font-family="sans-serif" font-size="14" lengthAdjust="spacing" textLength="100" x="525.5" y="57.5332">ElevatorMapper</text><text fill="#000000" font-family="sans-serif" font-size="14" lengthAdjust="spacing" textLength="83" x="534" y="75.1426">&#171;Json2DTO&#187;</text><rect fill="#E2E2F0" height="49.2188" rx="2.5" ry="2.5" style="stroke:#181818;stroke-width:0.5;" width="114" x="518.5" y="664.7891"/><text fill="#000000" font-family="sans-serif" font-size="14" lengthAdjust="spacing" textLength="100" x="525.5" y="686.3223">ElevatorMapper</text><text fill="#000000" font-family="sans-serif" font-size="14" lengthAdjust="spacing" textLength="83" x="534" y="703.9316">&#171;Json2DTO&#187;</text><rect fill="#E2E2F0" height="49.2188" rx="2.5" ry="2.5" style="stroke:#181818;stroke-width:0.5;" width="96" x="642.5" y="36"/><text fill="#000000" font-family="sans-serif" font-size="14" lengthAdjust="spacing" textLength="82" x="649.5" y="57.5332">ElevatorDTO</text><text fill="#000000" font-family="sans-serif" font-size="14" lengthAdjust="spacing" textLength="46" x="667.5" y="75.1426">&#171;DTO&#187;</text><rect fill="#E2E2F0" height="49.2188" rx="2.5" ry="2.5" style="stroke:#181818;stroke-width:0.5;" width="96" x="642.5" y="664.7891"/><text fill="#000000" font-family="sans-serif" font-size="14" lengthAdjust="spacing" textLength="82" x="649.5" y="686.3223">ElevatorDTO</text><text fill="#000000" font-family="sans-serif" font-size="14" lengthAdjust="spacing" textLength="46" x="667.5" y="703.9316">&#171;DTO&#187;</text><rect fill="#E2E2F0" height="49.2188" rx="2.5" ry="2.5" style="stroke:#181818;stroke-width:0.5;" width="113" x="751" y="36"/><text fill="#000000" font-family="sans-serif" font-size="14" lengthAdjust="spacing" textLength="99" x="758" y="57.5332">ElevatorService</text><text fill="#000000" font-family="sans-serif" font-size="14" lengthAdjust="spacing" textLength="63" x="776" y="75.1426">&#171;Service&#187;</text><rect fill="#E2E2F0" height="49.2188" rx="2.5" ry="2.5" style="stroke:#181818;stroke-width:0.5;" width="113" x="751" y="664.7891"/><text fill="#000000" font-family="sans-serif" font-size="14" lengthAdjust="spacing" textLength="99" x="758" y="686.3223">ElevatorService</text><text fill="#000000" font-family="sans-serif" font-size="14" lengthAdjust="spacing" textLength="63" x="776" y="703.9316">&#171;Service&#187;</text><rect fill="#E2E2F0" height="49.2188" rx="2.5" ry="2.5" style="stroke:#181818;stroke-width:0.5;" width="66" x="874" y="36"/><text fill="#000000" font-family="sans-serif" font-size="14" lengthAdjust="spacing" textLength="52" x="881" y="57.5332">Elevator</text><text fill="#000000" font-family="sans-serif" font-size="14" lengthAdjust="spacing" textLength="51" x="881.5" y="75.1426">&#171;Entity&#187;</text><rect fill="#E2E2F0" height="49.2188" rx="2.5" ry="2.5" style="stroke:#181818;stroke-width:0.5;" width="66" x="874" y="664.7891"/><text fill="#000000" font-family="sans-serif" font-size="14" lengthAdjust="spacing" textLength="52" x="881" y="686.3223">Elevator</text><text fill="#000000" font-family="sans-serif" font-size="14" lengthAdjust="spacing" textLength="51" x="881.5" y="703.9316">&#171;Entity&#187;</text><rect fill="#E2E2F0" height="49.2188" rx="2.5" ry="2.5" style="stroke:#181818;stroke-width:0.5;" width="191" x="950" y="36"/><text fill="#000000" font-family="sans-serif" font-size="14" lengthAdjust="spacing" textLength="86" x="1002.5" y="57.5332">ElevatorRepo</text><text fill="#000000" font-family="sans-serif" font-size="14" lengthAdjust="spacing" textLength="177" x="957" y="75.1426">:IElevatorRepo&#171;Repository&#187;</text><rect fill="#E2E2F0" height="49.2188" rx="2.5" ry="2.5" style="stroke:#181818;stroke-width:0.5;" width="191" x="950" y="664.7891"/><text fill="#000000" font-family="sans-serif" font-size="14" lengthAdjust="spacing" textLength="86" x="1002.5" y="686.3223">ElevatorRepo</text><text fill="#000000" font-family="sans-serif" font-size="14" lengthAdjust="spacing" textLength="177" x="957" y="703.9316">:IElevatorRepo&#171;Repository&#187;</text><rect fill="#E2E2F0" height="49.2188" rx="2.5" ry="2.5" style="stroke:#181818;stroke-width:0.5;" width="116" x="1151" y="36"/><text fill="#000000" font-family="sans-serif" font-size="14" lengthAdjust="spacing" textLength="79" x="1169.5" y="57.5332">ElevatorMap</text><text fill="#000000" font-family="sans-serif" font-size="14" lengthAdjust="spacing" textLength="102" x="1158" y="75.1426">&#171;Domain2Data&#187;</text><rect fill="#E2E2F0" height="49.2188" rx="2.5" ry="2.5" style="stroke:#181818;stroke-width:0.5;" width="116" x="1151" y="664.7891"/><text fill="#000000" font-family="sans-serif" font-size="14" lengthAdjust="spacing" textLength="79" x="1169.5" y="686.3223">ElevatorMap</text><text fill="#000000" font-family="sans-serif" font-size="14" lengthAdjust="spacing" textLength="102" x="1158" y="703.9316">&#171;Domain2Data&#187;</text><rect fill="#E2E2F0" height="49.2188" rx="2.5" ry="2.5" style="stroke:#181818;stroke-width:0.5;" width="112" x="1277" y="36"/><text fill="#000000" font-family="sans-serif" font-size="14" lengthAdjust="spacing" textLength="98" x="1284" y="57.5332">DataElevator&lt;&lt;</text><text fill="#000000" font-family="sans-serif" font-size="14" lengthAdjust="spacing" textLength="46" x="1310" y="75.1426">&#171;Data&#187;</text><rect fill="#E2E2F0" height="49.2188" rx="2.5" ry="2.5" style="stroke:#181818;stroke-width:0.5;" width="112" x="1277" y="664.7891"/><text fill="#000000" font-family="sans-serif" font-size="14" lengthAdjust="spacing" textLength="98" x="1284" y="686.3223">DataElevator&lt;&lt;</text><text fill="#000000" font-family="sans-serif" font-size="14" lengthAdjust="spacing" textLength="46" x="1310" y="703.9316">&#171;Data&#187;</text><text fill="#000000" font-family="sans-serif" font-size="14" lengthAdjust="spacing" textLength="54" x="1410.5" y="65.5332">dbDriver</text><text fill="#000000" font-family="sans-serif" font-size="14" lengthAdjust="spacing" textLength="77" x="1399" y="83.1426">&#171;Database&#187;</text><path d="M1422.5,15 C1422.5,5 1440.5,5 1440.5,5 C1440.5,5 1458.5,5 1458.5,15 L1458.5,41 C1458.5,51 1440.5,51 1440.5,51 C1440.5,51 1422.5,51 1422.5,41 L1422.5,15 " fill="#E2E2F0" style="stroke:#181818;stroke-width:1.5;"/><path d="M1422.5,15 C1422.5,25 1440.5,25 1440.5,25 C1440.5,25 1458.5,25 1458.5,15 " fill="none" style="stroke:#181818;stroke-width:1.5;"/><text fill="#000000" font-family="sans-serif" font-size="14" lengthAdjust="spacing" textLength="54" x="1410.5" y="679.3223">dbDriver</text><text fill="#000000" font-family="sans-serif" font-size="14" lengthAdjust="spacing" textLength="77" x="1399" y="696.9316">&#171;Database&#187;</text><path d="M1422.5,710.0078 C1422.5,700.0078 1440.5,700.0078 1440.5,700.0078 C1440.5,700.0078 1458.5,700.0078 1458.5,710.0078 L1458.5,736.0078 C1458.5,746.0078 1440.5,746.0078 1440.5,746.0078 C1440.5,746.0078 1422.5,746.0078 1422.5,736.0078 L1422.5,710.0078 " fill="#E2E2F0" style="stroke:#181818;stroke-width:1.5;"/><path d="M1422.5,710.0078 C1422.5,720.0078 1440.5,720.0078 1440.5,720.0078 C1440.5,720.0078 1458.5,720.0078 1458.5,710.0078 " fill="none" style="stroke:#181818;stroke-width:1.5;"/><rect fill="#FFFFFF" height="529.2188" style="stroke:#181818;stroke-width:1.0;" width="10" x="186.5" y="118.5703"/><rect fill="#FFFFFF" height="468.5156" style="stroke:#181818;stroke-width:1.0;" width="10" x="439.5" y="148.9219"/><rect fill="#FFFFFF" height="28" style="stroke:#181818;stroke-width:1.0;" width="10" x="444.5" y="552.0859"/><rect fill="#FFFFFF" height="221.4063" style="stroke:#181818;stroke-width:1.0;" width="10" x="570.5" y="300.3281"/><rect fill="#FFFFFF" height="342.4609" style="stroke:#181818;stroke-width:1.0;" width="10" x="802.5" y="179.2734"/><rect fill="#FFFFFF" height="30" style="stroke:#181818;stroke-width:1.0;" width="10" x="902" y="356.0313"/><rect fill="#FFFFFF" height="30" style="stroke:#181818;stroke-width:1.0;" width="10" x="902" y="416.3828"/><rect fill="#FFFFFF" height="30" style="stroke:#181818;stroke-width:1.0;" width="10" x="902" y="476.7344"/><rect fill="#FFFFFF" height="60.3516" style="stroke:#181818;stroke-width:1.0;" width="10" x="1040.5" y="209.625"/><rect fill="#FFFFFF" height="30" style="stroke:#181818;stroke-width:1.0;" width="10" x="1435.5" y="239.9766"/><polygon fill="#181818" points="174.5,114.5703,184.5,118.5703,174.5,122.5703,178.5,118.5703" style="stroke:#181818;stroke-width:1.0;"/><line style="stroke:#181818;stroke-width:1.0;" x1="29.5" x2="180.5" y1="118.5703" y2="118.5703"/><text fill="#000000" font-family="sans-serif" font-size="13" lengthAdjust="spacing" textLength="138" x="36.5" y="113.7139">GET /elevators/all (json)</text><polygon fill="#181818" points="427.5,144.9219,437.5,148.9219,427.5,152.9219,431.5,148.9219" style="stroke:#181818;stroke-width:1.0;"/><line style="stroke:#181818;stroke-width:1.0;" x1="196.5" x2="433.5" y1="148.9219" y2="148.9219"/><text fill="#000000" font-family="sans-serif" font-size="13" lengthAdjust="spacing" textLength="224" x="203.5" y="144.0654">getElevatorsByBuilding(param1: string)</text><polygon fill="#181818" points="790.5,175.2734,800.5,179.2734,790.5,183.2734,794.5,179.2734" style="stroke:#181818;stroke-width:1.0;"/><line style="stroke:#181818;stroke-width:1.0;" x1="449.5" x2="796.5" y1="179.2734" y2="179.2734"/><text fill="#000000" font-family="sans-serif" font-size="13" lengthAdjust="spacing" textLength="297" x="456.5" y="174.417">elevatorDTO = getElevatorsByBuilding(elevatorDTO)</text><polygon fill="#181818" points="1028.5,205.625,1038.5,209.625,1028.5,213.625,1032.5,209.625" style="stroke:#181818;stroke-width:1.0;"/><line style="stroke:#181818;stroke-width:1.0;" x1="812.5" x2="1034.5" y1="209.625" y2="209.625"/><text fill="#000000" font-family="sans-serif" font-size="13" lengthAdjust="spacing" textLength="133" x="819.5" y="204.7686">getElevatorsByBuilding</text><polygon fill="#181818" points="1423.5,235.9766,1433.5,239.9766,1423.5,243.9766,1427.5,239.9766" style="stroke:#181818;stroke-width:1.0;"/><line style="stroke:#181818;stroke-width:1.0;" x1="1050.5" x2="1429.5" y1="239.9766" y2="239.9766"/><text fill="#000000" font-family="sans-serif" font-size="13" lengthAdjust="spacing" textLength="133" x="1057.5" y="235.1201">getElevatorsByBuilding</text><polygon fill="#181818" points="591.5,296.3281,581.5,300.3281,591.5,304.3281,587.5,300.3281" style="stroke:#181818;stroke-width:1.0;"/><line style="stroke:#181818;stroke-width:1.0;" x1="585.5" x2="801.5" y1="300.3281" y2="300.3281"/><text fill="#000000" font-family="sans-serif" font-size="13" lengthAdjust="spacing" textLength="203" x="597.5" y="295.4717">iElevatorDTO[] = toDTO(elevators[])</text><path d="M508.5,315.3281 L581.5,315.3281 L581.5,323.6797 L571.5,333.6797 L508.5,333.6797 L508.5,315.3281 " fill="#EEEEEE" style="stroke:#000000;stroke-width:1.5;"/><rect fill="none" height="199.4063" style="stroke:#000000;stroke-width:1.5;" width="441.5" x="508.5" y="315.3281"/><text fill="#000000" font-family="sans-serif" font-size="13" font-weight="bold" lengthAdjust="spacing" textLength="28" x="523.5" y="329.8232">loop</text><text fill="#000000" font-family="sans-serif" font-size="11" font-weight="bold" lengthAdjust="spacing" textLength="122" x="596.5" y="328.7471">[(while data available)]</text><polygon fill="#181818" points="890,352.0313,900,356.0313,890,360.0313,894,356.0313" style="stroke:#181818;stroke-width:1.0;"/><line style="stroke:#181818;stroke-width:1.0;" x1="580.5" x2="896" y1="356.0313" y2="356.0313"/><text fill="#000000" font-family="sans-serif" font-size="13" lengthAdjust="spacing" textLength="266" x="587.5" y="351.1748">elevatorbuildingFinderId = getbuildingFinderId()</text><polygon fill="#181818" points="890,412.3828,900,416.3828,890,420.3828,894,416.3828" style="stroke:#181818;stroke-width:1.0;"/><line style="stroke:#181818;stroke-width:1.0;" x1="580.5" x2="896" y1="416.3828" y2="416.3828"/><text fill="#000000" font-family="sans-serif" font-size="13" lengthAdjust="spacing" textLength="190" x="587.5" y="411.5264">elevatorfloorsList = getfloorsList()</text><polygon fill="#181818" points="890,472.7344,900,476.7344,890,480.7344,894,476.7344" style="stroke:#181818;stroke-width:1.0;"/><line style="stroke:#181818;stroke-width:1.0;" x1="580.5" x2="896" y1="476.7344" y2="476.7344"/><text fill="#000000" font-family="sans-serif" font-size="13" lengthAdjust="spacing" textLength="222" x="587.5" y="471.8779">elevatorlocation = getElevatorlocation()</text><line style="stroke:#181818;stroke-width:1.0;" x1="454.5" x2="496.5" y1="544.0859" y2="544.0859"/><line style="stroke:#181818;stroke-width:1.0;" x1="496.5" x2="496.5" y1="544.0859" y2="557.0859"/><line style="stroke:#181818;stroke-width:1.0;" x1="455.5" x2="496.5" y1="557.0859" y2="557.0859"/><polygon fill="#181818" points="465.5,553.0859,455.5,557.0859,465.5,561.0859,461.5,557.0859" style="stroke:#181818;stroke-width:1.0;"/><text fill="#000000" font-family="sans-serif" font-size="13" lengthAdjust="spacing" textLength="105" x="461.5" y="539.2295">generateRes(json)</text><polygon fill="#181818" points="207.5,613.4375,197.5,617.4375,207.5,621.4375,203.5,617.4375" style="stroke:#181818;stroke-width:1.0;"/><line style="stroke:#181818;stroke-width:1.0;stroke-dasharray:2.0,2.0;" x1="201.5" x2="443.5" y1="617.4375" y2="617.4375"/><text fill="#000000" font-family="sans-serif" font-size="13" lengthAdjust="spacing" textLength="53" x="213.5" y="612.5811">response</text><polygon fill="#181818" points="40.5,643.7891,30.5,647.7891,40.5,651.7891,36.5,647.7891" style="stroke:#181818;stroke-width:1.0;"/><line style="stroke:#181818;stroke-width:1.0;" x1="34.5" x2="190.5" y1="647.7891" y2="647.7891"/><text fill="#000000" font-family="sans-serif" font-size="13" lengthAdjust="spacing" textLength="53" x="46.5" y="642.9326">response</text><!--SRC=[nLJBRjim4BppAmYVx4CHD4T3DM17Qk4YgGr53LmaET0Mcx9WI86aNVZlktn8eXJ9xQdrmI2vCwFXBdVtyYXAeivuXogY33kmYWY39_DS7WtDE3qH8zK44utppTSYwwBg-8qKHadEgNeIITBk5Wl7l2doss7Y7QagJ_gifRXEYqsWt2stsomV9W7ACbemh8QHzrITs85QT5W6ndt-CComq4mOPiu1cNqfriMtON1EA_aavkjudoJsNpFOrX9vjjsCNj_THBuI1hSdXdIkVzrbsNZDJ197R1dfibYY4lPxeYcUbFjKiPDFRHfEQ-GAeHr-j_05nNFyAIlm5Gt2-efmZgS_eHmpH0w6mIaDjVS4ODg20l65cjgFNfrNHyPB9bwcO9gylfzZRHHiPmZ3hr5oRm6vCwS2Qb0C4ADjTV67CUa8v7KxshQgpQbLjPU4v8zQRS0T6LSlX3f19mDowUhln3g2aF5-hAHn58s4d9FUXVpJ01SiweV7PyYPaR1gKgGVdmTI5Fgg_HgNiiBJNpyOfzW-7qnEX76ovtJMCnq-31PyJqGrsuSKV6IYf6fT-WBsJwUpDsaOILXekileA4z_n5_m_XqoeFGjqyQxRlV_o-y5irmUY65IT3kaFls7XgaetTCPUxczTnP5R9F6tT_C4a4Ln7Egm_1vOzgDZW55Fr9QpMYqAQehAJH5GnJNr_L8syNek0NTvFiD]--></g></svg>