<?xml version="1.0" encoding="us-ascii" standalone="no"?><svg xmlns="http://www.w3.org/2000/svg" xmlns:xlink="http://www.w3.org/1999/xlink" contentStyleType="text/css" height="184px" preserveAspectRatio="none" style="width:163px;height:184px;background:#FFFFFF;" version="1.1" viewBox="0 0 163 184" width="163px" zoomAndPan="magnify"><defs/><g><!--entity FleetManager--><g id="elem_FleetManager"><ellipse cx="82" cy="22" fill="#F1F1F1" rx="16" ry="16" style="stroke:#181818;stroke-width:1.5;"/><path d="M82,42 C86,42 89,42 93,38 C101,38 109,46 109,54 L109,58 C109,62 105,66 101,66 L63,66 C59,66 55,62 55,58 L55,54 C55,46 63,38 71,38 C75,42 78,42 82,42 " fill="#F1F1F1" style="stroke:#181818;stroke-width:1.5;"/><text fill="#000000" font-family="sans-serif" font-size="14" lengthAdjust="spacing" textLength="98" x="33" y="80.4951">FleetManager</text></g><g id="elem_Use"><ellipse cx="81.7754" cy="161.0551" fill="#F1F1F1" rx="75.7754" ry="17.5551" style="stroke:#181818;stroke-width:0.5;"/><text fill="#000000" font-family="sans-serif" font-size="14" lengthAdjust="spacing" textLength="108" x="24.7754" y="164.8026">Disable a robot</text></g><!--link FleetManager to Use--><g id="link_FleetManager_Use"><path d="M82,83.61 C82,103.97 82,121.88 82,137.46 " fill="none" id="FleetManager-to-Use" style="stroke:#181818;stroke-width:1.0;"/><polygon fill="#181818" points="82,143.46,86,134.46,82,138.46,78,134.46,82,143.46" style="stroke:#181818;stroke-width:1.0;"/></g><!--SRC=[AyxEp2j8B4hCLKXCBial2Ywfp4bLI2nFBSxFJUMoSij9JItnJSnBJ4yjibBGrRLJq0WjJjNaub9ooInEJ08fLIZAJyelKL98B8RA0G00]--></g></svg>