<?xml version="1.0" encoding="us-ascii" standalone="no"?><svg xmlns="http://www.w3.org/2000/svg" xmlns:xlink="http://www.w3.org/1999/xlink" contentStyleType="text/css" height="922px" preserveAspectRatio="none" style="width:853px;height:922px;background:#FFFFFF;" version="1.1" viewBox="0 0 853 922" width="853px" zoomAndPan="magnify"><defs/><g><!--cluster Frameworks and Drivers Layer--><g id="cluster_Frameworks and Drivers Layer"><path d="M145.5,6 L390.5,6 A3.75,3.75 0 0 1 393,8.5 L400,28.2969 L417.5,28.2969 A2.5,2.5 0 0 1 420,30.7969 L420,102.5 A2.5,2.5 0 0 1 417.5,105 L145.5,105 A2.5,2.5 0 0 1 143,102.5 L143,8.5 A2.5,2.5 0 0 1 145.5,6 " fill="none" style="stroke:#000000;stroke-width:1.5;"/><line style="stroke:#000000;stroke-width:1.5;" x1="143" x2="400" y1="28.2969" y2="28.2969"/><text fill="#000000" font-family="sans-serif" font-size="14" font-weight="bold" lengthAdjust="spacing" textLength="244" x="147" y="20.9951">Frameworks and Drivers Layer</text></g><!--cluster Interface Adapters Layers--><g id="cluster_Interface Adapters Layers"><path d="M137.5,138 L344.5,138 A3.75,3.75 0 0 1 347,140.5 L354,160.2969 L654.5,160.2969 A2.5,2.5 0 0 1 657,162.7969 L657,283.5 A2.5,2.5 0 0 1 654.5,286 L137.5,286 A2.5,2.5 0 0 1 135,283.5 L135,140.5 A2.5,2.5 0 0 1 137.5,138 " fill="none" style="stroke:#000000;stroke-width:1.5;"/><line style="stroke:#000000;stroke-width:1.5;" x1="135" x2="354" y1="160.2969" y2="160.2969"/><text fill="#000000" font-family="sans-serif" font-size="14" font-weight="bold" lengthAdjust="spacing" textLength="206" x="139" y="152.9951">Interface Adapters Layers</text></g><!--cluster Application Services/Use Case Services--><g id="cluster_Application Services/Use Case Services"><path d="M218.5,319 L529.5,319 A3.75,3.75 0 0 1 532,321.5 L539,341.2969 L588.5,341.2969 A2.5,2.5 0 0 1 591,343.7969 L591,431.5 A2.5,2.5 0 0 1 588.5,434 L218.5,434 A2.5,2.5 0 0 1 216,431.5 L216,321.5 A2.5,2.5 0 0 1 218.5,319 " fill="none" style="stroke:#000000;stroke-width:1.5;"/><line style="stroke:#000000;stroke-width:1.5;" x1="216" x2="539" y1="341.2969" y2="341.2969"/><text fill="#000000" font-family="sans-serif" font-size="14" font-weight="bold" lengthAdjust="spacing" textLength="310" x="220" y="333.9951">Application Services/Use Case Services</text></g><!--cluster Model--><g id="cluster_Model"><path d="M133.5,625 L183.5,625 A3.75,3.75 0 0 1 186,627.5 L193,647.2969 L682.5,647.2969 A2.5,2.5 0 0 1 685,649.7969 L685,912.5 A2.5,2.5 0 0 1 682.5,915 L133.5,915 A2.5,2.5 0 0 1 131,912.5 L131,627.5 A2.5,2.5 0 0 1 133.5,625 " fill="none" style="stroke:#000000;stroke-width:1.5;"/><line style="stroke:#000000;stroke-width:1.5;" x1="131" x2="193" y1="647.2969" y2="647.2969"/><text fill="#000000" font-family="sans-serif" font-size="14" font-weight="bold" lengthAdjust="spacing" textLength="49" x="135" y="639.9951">Model</text></g><!--class RouteRobot--><g id="elem_RouteRobot"><rect codeLine="3" fill="#F1F1F1" height="48" id="RouteRobot" rx="2.5" ry="2.5" style="stroke:#181818;stroke-width:0.5;" width="116" x="288" y="41"/><ellipse cx="303" cy="57" fill="#ADD1B2" rx="11" ry="11" style="stroke:#181818;stroke-width:1.0;"/><path d="M305.9844,62.6406 Q305.4063,62.9375 304.7656,63.0781 Q304.125,63.2344 303.4219,63.2344 Q300.9063,63.2344 299.5781,61.5938 Q298.2656,59.9375 298.2656,56.8125 Q298.2656,53.6719 299.5781,52.0313 Q300.9063,50.375 303.4219,50.375 Q304.125,50.375 304.7656,50.5313 Q305.4219,50.6719 305.9844,50.9688 L305.9844,53.6875 Q305.3438,53.1094 304.75,52.8438 Q304.1563,52.5781 303.5313,52.5781 Q302.1875,52.5781 301.5,53.6406 Q300.8125,54.7031 300.8125,56.8125 Q300.8125,58.9063 301.5,59.9844 Q302.1875,61.0469 303.5313,61.0469 Q304.1563,61.0469 304.75,60.7813 Q305.3438,60.5 305.9844,59.9219 L305.9844,62.6406 Z " fill="#000000"/><text fill="#000000" font-family="sans-serif" font-size="14" lengthAdjust="spacing" textLength="84" x="317" y="61.8467">RouteRobot</text><line style="stroke:#181818;stroke-width:0.5;" x1="289" x2="403" y1="73" y2="73"/><line style="stroke:#181818;stroke-width:0.5;" x1="289" x2="403" y1="81" y2="81"/></g><!--class dbDriver--><g id="elem_dbDriver"><rect codeLine="4" fill="#F1F1F1" height="48" id="dbDriver" rx="2.5" ry="2.5" style="stroke:#181818;stroke-width:0.5;" width="94" x="159" y="41"/><ellipse cx="174" cy="57" fill="#ADD1B2" rx="11" ry="11" style="stroke:#181818;stroke-width:1.0;"/><path d="M176.9844,62.6406 Q176.4063,62.9375 175.7656,63.0781 Q175.125,63.2344 174.4219,63.2344 Q171.9063,63.2344 170.5781,61.5938 Q169.2656,59.9375 169.2656,56.8125 Q169.2656,53.6719 170.5781,52.0313 Q171.9063,50.375 174.4219,50.375 Q175.125,50.375 175.7656,50.5313 Q176.4219,50.6719 176.9844,50.9688 L176.9844,53.6875 Q176.3438,53.1094 175.75,52.8438 Q175.1563,52.5781 174.5313,52.5781 Q173.1875,52.5781 172.5,53.6406 Q171.8125,54.7031 171.8125,56.8125 Q171.8125,58.9063 172.5,59.9844 Q173.1875,61.0469 174.5313,61.0469 Q175.1563,61.0469 175.75,60.7813 Q176.3438,60.5 176.9844,59.9219 L176.9844,62.6406 Z " fill="#000000"/><text fill="#000000" font-family="sans-serif" font-size="14" lengthAdjust="spacing" textLength="62" x="188" y="61.8467">dbDriver</text><line style="stroke:#181818;stroke-width:0.5;" x1="160" x2="252" y1="73" y2="73"/><line style="stroke:#181818;stroke-width:0.5;" x1="160" x2="252" y1="81" y2="81"/></g><!--class IRobotController--><g id="elem_IRobotController"><rect codeLine="8" fill="#F1F1F1" height="64.2969" id="IRobotController" rx="2.5" ry="2.5" style="stroke:#181818;stroke-width:0.5;" width="153" x="296.5" y="189.5"/><ellipse cx="313.3" cy="205.5" fill="#B4A7E5" rx="11" ry="11" style="stroke:#181818;stroke-width:1.0;"/><path d="M309.2219,201.25 L309.2219,199.0938 L316.6125,199.0938 L316.6125,201.25 L314.1438,201.25 L314.1438,209.3438 L316.6125,209.3438 L316.6125,211.5 L309.2219,211.5 L309.2219,209.3438 L311.6906,209.3438 L311.6906,201.25 L309.2219,201.25 Z " fill="#000000"/><text fill="#000000" font-family="sans-serif" font-size="14" font-style="italic" lengthAdjust="spacing" textLength="117" x="327.7" y="210.3467">IRobotController</text><line style="stroke:#181818;stroke-width:0.5;" x1="297.5" x2="448.5" y1="221.5" y2="221.5"/><line style="stroke:#181818;stroke-width:0.5;" x1="297.5" x2="448.5" y1="229.5" y2="229.5"/><ellipse cx="307.5" cy="243.1484" fill="#84BE84" rx="3" ry="3" style="stroke:#038048;stroke-width:1.0;"/><text fill="#000000" font-family="sans-serif" font-size="14" lengthAdjust="spacing" textLength="127" x="316.5" y="246.4951">createRobot(json)</text></g><!--class RobotController--><g id="elem_RobotController"><rect codeLine="11" fill="#F1F1F1" height="96.8906" id="RobotController" rx="2.5" ry="2.5" style="stroke:#181818;stroke-width:0.5;" width="156" x="485" y="173"/><ellipse cx="504.95" cy="189" fill="#ADD1B2" rx="11" ry="11" style="stroke:#181818;stroke-width:1.0;"/><path d="M507.9344,194.6406 Q507.3563,194.9375 506.7156,195.0781 Q506.075,195.2344 505.3719,195.2344 Q502.8563,195.2344 501.5281,193.5938 Q500.2156,191.9375 500.2156,188.8125 Q500.2156,185.6719 501.5281,184.0313 Q502.8563,182.375 505.3719,182.375 Q506.075,182.375 506.7156,182.5313 Q507.3719,182.6719 507.9344,182.9688 L507.9344,185.6875 Q507.2938,185.1094 506.7,184.8438 Q506.1063,184.5781 505.4813,184.5781 Q504.1375,184.5781 503.45,185.6406 Q502.7625,186.7031 502.7625,188.8125 Q502.7625,190.9063 503.45,191.9844 Q504.1375,193.0469 505.4813,193.0469 Q506.1063,193.0469 506.7,192.7813 Q507.2938,192.5 507.9344,191.9219 L507.9344,194.6406 Z " fill="#000000"/><text fill="#000000" font-family="sans-serif" font-size="14" lengthAdjust="spacing" textLength="113" x="520.05" y="193.8467">RobotController</text><line style="stroke:#181818;stroke-width:0.5;" x1="486" x2="640" y1="205" y2="205"/><line style="stroke:#181818;stroke-width:0.5;" x1="486" x2="640" y1="213" y2="213"/><rect fill="#F24D5C" height="6" style="stroke:#C82930;stroke-width:1.0;" width="6" x="493" y="223.6484"/><text fill="#000000" font-family="sans-serif" font-size="14" lengthAdjust="spacing" textLength="126" x="505" y="229.9951">updateState(json)</text><rect fill="#F24D5C" height="6" style="stroke:#C82930;stroke-width:1.0;" width="6" x="493" y="239.9453"/><text fill="#000000" font-family="sans-serif" font-size="14" lengthAdjust="spacing" textLength="125" x="505" y="246.292">validateJson(json)</text><rect fill="#F24D5C" height="6" style="stroke:#C82930;stroke-width:1.0;" width="6" x="493" y="256.2422"/><text fill="#000000" font-family="sans-serif" font-size="14" lengthAdjust="spacing" textLength="130" x="505" y="262.5889">generateRes(json)</text></g><!--class RobotRepo--><g id="elem_RobotRepo"><rect codeLine="16" fill="#F1F1F1" height="64.2969" id="RobotRepo" rx="2.5" ry="2.5" style="stroke:#181818;stroke-width:0.5;" width="111" x="150.5" y="189.5"/><ellipse cx="165.5" cy="205.5" fill="#ADD1B2" rx="11" ry="11" style="stroke:#181818;stroke-width:1.0;"/><path d="M168.4844,211.1406 Q167.9063,211.4375 167.2656,211.5781 Q166.625,211.7344 165.9219,211.7344 Q163.4063,211.7344 162.0781,210.0938 Q160.7656,208.4375 160.7656,205.3125 Q160.7656,202.1719 162.0781,200.5313 Q163.4063,198.875 165.9219,198.875 Q166.625,198.875 167.2656,199.0313 Q167.9219,199.1719 168.4844,199.4688 L168.4844,202.1875 Q167.8438,201.6094 167.25,201.3438 Q166.6563,201.0781 166.0313,201.0781 Q164.6875,201.0781 164,202.1406 Q163.3125,203.2031 163.3125,205.3125 Q163.3125,207.4063 164,208.4844 Q164.6875,209.5469 166.0313,209.5469 Q166.6563,209.5469 167.25,209.2813 Q167.8438,209 168.4844,208.4219 L168.4844,211.1406 Z " fill="#000000"/><text fill="#000000" font-family="sans-serif" font-size="14" lengthAdjust="spacing" textLength="79" x="179.5" y="210.3467">RobotRepo</text><line style="stroke:#181818;stroke-width:0.5;" x1="151.5" x2="260.5" y1="221.5" y2="221.5"/><rect fill="none" height="6" style="stroke:#C82930;stroke-width:1.0;" width="6" x="158.5" y="232.1484"/><text fill="#000000" font-family="sans-serif" font-size="14" lengthAdjust="spacing" textLength="33" x="170.5" y="238.4951">save</text><line style="stroke:#181818;stroke-width:0.5;" x1="151.5" x2="260.5" y1="245.7969" y2="245.7969"/></g><!--class RobotService--><g id="elem_RobotService"><rect codeLine="24" fill="#F1F1F1" height="64.2969" id="RobotService" rx="2.5" ry="2.5" style="stroke:#181818;stroke-width:0.5;" width="192" x="383" y="354"/><ellipse cx="427.25" cy="370" fill="#ADD1B2" rx="11" ry="11" style="stroke:#181818;stroke-width:1.0;"/><path d="M430.2344,375.6406 Q429.6563,375.9375 429.0156,376.0781 Q428.375,376.2344 427.6719,376.2344 Q425.1563,376.2344 423.8281,374.5938 Q422.5156,372.9375 422.5156,369.8125 Q422.5156,366.6719 423.8281,365.0313 Q425.1563,363.375 427.6719,363.375 Q428.375,363.375 429.0156,363.5313 Q429.6719,363.6719 430.2344,363.9688 L430.2344,366.6875 Q429.5938,366.1094 429,365.8438 Q428.4063,365.5781 427.7813,365.5781 Q426.4375,365.5781 425.75,366.6406 Q425.0625,367.7031 425.0625,369.8125 Q425.0625,371.9063 425.75,372.9844 Q426.4375,374.0469 427.7813,374.0469 Q428.4063,374.0469 429,373.7813 Q429.5938,373.5 430.2344,372.9219 L430.2344,375.6406 Z " fill="#000000"/><text fill="#000000" font-family="sans-serif" font-size="14" lengthAdjust="spacing" textLength="95" x="447.75" y="374.8467">RobotService</text><line style="stroke:#181818;stroke-width:0.5;" x1="384" x2="574" y1="386" y2="386"/><line style="stroke:#181818;stroke-width:0.5;" x1="384" x2="574" y1="394" y2="394"/><rect fill="#F24D5C" height="6" style="stroke:#C82930;stroke-width:1.0;" width="6" x="391" y="404.6484"/><text fill="#000000" font-family="sans-serif" font-size="14" lengthAdjust="spacing" textLength="166" x="403" y="410.9951">updateState(robotDTO)</text></g><!--class IRobotRepo--><g id="elem_IRobotRepo"><rect codeLine="27" fill="#F1F1F1" height="64.2969" id="IRobotRepo" rx="2.5" ry="2.5" style="stroke:#181818;stroke-width:0.5;" width="115" x="232.5" y="354"/><ellipse cx="247.5" cy="370" fill="#B4A7E5" rx="11" ry="11" style="stroke:#181818;stroke-width:1.0;"/><path d="M243.4219,365.75 L243.4219,363.5938 L250.8125,363.5938 L250.8125,365.75 L248.3438,365.75 L248.3438,373.8438 L250.8125,373.8438 L250.8125,376 L243.4219,376 L243.4219,373.8438 L245.8906,373.8438 L245.8906,365.75 L243.4219,365.75 Z " fill="#000000"/><text fill="#000000" font-family="sans-serif" font-size="14" font-style="italic" lengthAdjust="spacing" textLength="83" x="261.5" y="374.8467">IRobotRepo</text><line style="stroke:#181818;stroke-width:0.5;" x1="233.5" x2="346.5" y1="386" y2="386"/><line style="stroke:#181818;stroke-width:0.5;" x1="233.5" x2="346.5" y1="394" y2="394"/><rect fill="#F24D5C" height="6" style="stroke:#C82930;stroke-width:1.0;" width="6" x="240.5" y="404.6484"/><text fill="#000000" font-family="sans-serif" font-size="14" lengthAdjust="spacing" textLength="81" x="252.5" y="410.9951">save(robot)</text></g><!--class Robot--><g id="elem_Robot"><rect codeLine="34" fill="#F1F1F1" height="80.5938" id="Robot" rx="2.5" ry="2.5" style="stroke:#181818;stroke-width:0.5;" width="139" x="316.5" y="660"/><ellipse cx="360.75" cy="676" fill="#ADD1B2" rx="11" ry="11" style="stroke:#181818;stroke-width:1.0;"/><path d="M363.7344,681.6406 Q363.1563,681.9375 362.5156,682.0781 Q361.875,682.2344 361.1719,682.2344 Q358.6563,682.2344 357.3281,680.5938 Q356.0156,678.9375 356.0156,675.8125 Q356.0156,672.6719 357.3281,671.0313 Q358.6563,669.375 361.1719,669.375 Q361.875,669.375 362.5156,669.5313 Q363.1719,669.6719 363.7344,669.9688 L363.7344,672.6875 Q363.0938,672.1094 362.5,671.8438 Q361.9063,671.5781 361.2813,671.5781 Q359.9375,671.5781 359.25,672.6406 Q358.5625,673.7031 358.5625,675.8125 Q358.5625,677.9063 359.25,678.9844 Q359.9375,680.0469 361.2813,680.0469 Q361.9063,680.0469 362.5,679.7813 Q363.0938,679.5 363.7344,678.9219 L363.7344,681.6406 Z " fill="#000000"/><text fill="#000000" font-family="sans-serif" font-size="14" lengthAdjust="spacing" textLength="42" x="381.25" y="680.8467">Robot</text><line style="stroke:#181818;stroke-width:0.5;" x1="317.5" x2="454.5" y1="692" y2="692"/><line style="stroke:#181818;stroke-width:0.5;" x1="317.5" x2="454.5" y1="700" y2="700"/><ellipse cx="327.5" cy="713.6484" fill="#84BE84" rx="3" ry="3" style="stroke:#038048;stroke-width:1.0;"/><text fill="#000000" font-family="sans-serif" font-size="14" lengthAdjust="spacing" textLength="108" x="336.5" y="716.9951">getrobotCode()</text><ellipse cx="327.5" cy="729.9453" fill="#84BE84" rx="3" ry="3" style="stroke:#038048;stroke-width:1.0;"/><text fill="#000000" font-family="sans-serif" font-size="14" lengthAdjust="spacing" textLength="113" x="336.5" y="733.292">getrobotName()</text></g><!--class RobotCode--><g id="elem_RobotCode"><rect codeLine="38" fill="#F1F1F1" height="80.5938" id="RobotCode" rx="2.5" ry="2.5" style="stroke:#181818;stroke-width:0.5;" width="134" x="147" y="818"/><ellipse cx="172.35" cy="834" fill="#ADD1B2" rx="11" ry="11" style="stroke:#181818;stroke-width:1.0;"/><path d="M175.3344,839.6406 Q174.7563,839.9375 174.1156,840.0781 Q173.475,840.2344 172.7719,840.2344 Q170.2563,840.2344 168.9281,838.5938 Q167.6156,836.9375 167.6156,833.8125 Q167.6156,830.6719 168.9281,829.0313 Q170.2563,827.375 172.7719,827.375 Q173.475,827.375 174.1156,827.5313 Q174.7719,827.6719 175.3344,827.9688 L175.3344,830.6875 Q174.6938,830.1094 174.1,829.8438 Q173.5063,829.5781 172.8813,829.5781 Q171.5375,829.5781 170.85,830.6406 Q170.1625,831.7031 170.1625,833.8125 Q170.1625,835.9063 170.85,836.9844 Q171.5375,838.0469 172.8813,838.0469 Q173.5063,838.0469 174.1,837.7813 Q174.6938,837.5 175.3344,836.9219 L175.3344,839.6406 Z " fill="#000000"/><text fill="#000000" font-family="sans-serif" font-size="14" lengthAdjust="spacing" textLength="79" x="188.65" y="838.8467">RobotCode</text><line style="stroke:#181818;stroke-width:0.5;" x1="148" x2="280" y1="850" y2="850"/><rect fill="none" height="6" style="stroke:#C82930;stroke-width:1.0;" width="6" x="155" y="860.6484"/><text fill="#000000" font-family="sans-serif" font-size="14" lengthAdjust="spacing" textLength="75" x="167" y="866.9951">robotCode</text><line style="stroke:#181818;stroke-width:0.5;" x1="148" x2="280" y1="874.2969" y2="874.2969"/><ellipse cx="158" cy="887.9453" fill="#84BE84" rx="3" ry="3" style="stroke:#038048;stroke-width:1.0;"/><text fill="#000000" font-family="sans-serif" font-size="14" lengthAdjust="spacing" textLength="108" x="167" y="891.292">getrobotCode()</text></g><!--class RobotName--><g id="elem_RobotName"><rect codeLine="42" fill="#F1F1F1" height="80.5938" id="RobotName" rx="2.5" ry="2.5" style="stroke:#181818;stroke-width:0.5;" width="139" x="316.5" y="818"/><ellipse cx="341.85" cy="834" fill="#ADD1B2" rx="11" ry="11" style="stroke:#181818;stroke-width:1.0;"/><path d="M344.8344,839.6406 Q344.2563,839.9375 343.6156,840.0781 Q342.975,840.2344 342.2719,840.2344 Q339.7563,840.2344 338.4281,838.5938 Q337.1156,836.9375 337.1156,833.8125 Q337.1156,830.6719 338.4281,829.0313 Q339.7563,827.375 342.2719,827.375 Q342.975,827.375 343.6156,827.5313 Q344.2719,827.6719 344.8344,827.9688 L344.8344,830.6875 Q344.1938,830.1094 343.6,829.8438 Q343.0063,829.5781 342.3813,829.5781 Q341.0375,829.5781 340.35,830.6406 Q339.6625,831.7031 339.6625,833.8125 Q339.6625,835.9063 340.35,836.9844 Q341.0375,838.0469 342.3813,838.0469 Q343.0063,838.0469 343.6,837.7813 Q344.1938,837.5 344.8344,836.9219 L344.8344,839.6406 Z " fill="#000000"/><text fill="#000000" font-family="sans-serif" font-size="14" lengthAdjust="spacing" textLength="84" x="358.15" y="838.8467">RobotName</text><line style="stroke:#181818;stroke-width:0.5;" x1="317.5" x2="454.5" y1="850" y2="850"/><rect fill="none" height="6" style="stroke:#C82930;stroke-width:1.0;" width="6" x="324.5" y="860.6484"/><text fill="#000000" font-family="sans-serif" font-size="14" lengthAdjust="spacing" textLength="80" x="336.5" y="866.9951">robotName</text><line style="stroke:#181818;stroke-width:0.5;" x1="317.5" x2="454.5" y1="874.2969" y2="874.2969"/><ellipse cx="327.5" cy="887.9453" fill="#84BE84" rx="3" ry="3" style="stroke:#038048;stroke-width:1.0;"/><text fill="#000000" font-family="sans-serif" font-size="14" lengthAdjust="spacing" textLength="113" x="336.5" y="891.292">getrobotName()</text></g><!--class RobotDescription--><g id="elem_RobotDescription"><rect codeLine="46" fill="#F1F1F1" height="80.5938" id="RobotDescription" rx="2.5" ry="2.5" style="stroke:#181818;stroke-width:0.5;" width="178" x="491" y="818"/><ellipse cx="516.35" cy="834" fill="#ADD1B2" rx="11" ry="11" style="stroke:#181818;stroke-width:1.0;"/><path d="M519.3344,839.6406 Q518.7563,839.9375 518.1156,840.0781 Q517.475,840.2344 516.7719,840.2344 Q514.2563,840.2344 512.9281,838.5938 Q511.6156,836.9375 511.6156,833.8125 Q511.6156,830.6719 512.9281,829.0313 Q514.2563,827.375 516.7719,827.375 Q517.475,827.375 518.1156,827.5313 Q518.7719,827.6719 519.3344,827.9688 L519.3344,830.6875 Q518.6938,830.1094 518.1,829.8438 Q517.5063,829.5781 516.8813,829.5781 Q515.5375,829.5781 514.85,830.6406 Q514.1625,831.7031 514.1625,833.8125 Q514.1625,835.9063 514.85,836.9844 Q515.5375,838.0469 516.8813,838.0469 Q517.5063,838.0469 518.1,837.7813 Q518.6938,837.5 519.3344,836.9219 L519.3344,839.6406 Z " fill="#000000"/><text fill="#000000" font-family="sans-serif" font-size="14" lengthAdjust="spacing" textLength="123" x="532.65" y="838.8467">RobotDescription</text><line style="stroke:#181818;stroke-width:0.5;" x1="492" x2="668" y1="850" y2="850"/><rect fill="none" height="6" style="stroke:#C82930;stroke-width:1.0;" width="6" x="499" y="860.6484"/><text fill="#000000" font-family="sans-serif" font-size="14" lengthAdjust="spacing" textLength="119" x="511" y="866.9951">robotDescription</text><line style="stroke:#181818;stroke-width:0.5;" x1="492" x2="668" y1="874.2969" y2="874.2969"/><ellipse cx="502" cy="887.9453" fill="#84BE84" rx="3" ry="3" style="stroke:#038048;stroke-width:1.0;"/><text fill="#000000" font-family="sans-serif" font-size="14" lengthAdjust="spacing" textLength="152" x="511" y="891.292">getrobotDescription()</text></g><!--class RobotMapper--><g id="elem_RobotMapper"><rect codeLine="51" fill="#F1F1F1" height="80.5938" id="RobotMapper" rx="2.5" ry="2.5" style="stroke:#181818;stroke-width:0.5;" width="128" x="439" y="497"/><ellipse cx="454" cy="513" fill="#ADD1B2" rx="11" ry="11" style="stroke:#181818;stroke-width:1.0;"/><path d="M456.9844,518.6406 Q456.4063,518.9375 455.7656,519.0781 Q455.125,519.2344 454.4219,519.2344 Q451.9063,519.2344 450.5781,517.5938 Q449.2656,515.9375 449.2656,512.8125 Q449.2656,509.6719 450.5781,508.0313 Q451.9063,506.375 454.4219,506.375 Q455.125,506.375 455.7656,506.5313 Q456.4219,506.6719 456.9844,506.9688 L456.9844,509.6875 Q456.3438,509.1094 455.75,508.8438 Q455.1563,508.5781 454.5313,508.5781 Q453.1875,508.5781 452.5,509.6406 Q451.8125,510.7031 451.8125,512.8125 Q451.8125,514.9063 452.5,515.9844 Q453.1875,517.0469 454.5313,517.0469 Q455.1563,517.0469 455.75,516.7813 Q456.3438,516.5 456.9844,515.9219 L456.9844,518.6406 Z " fill="#000000"/><text fill="#000000" font-family="sans-serif" font-size="14" lengthAdjust="spacing" textLength="96" x="468" y="517.8467">RobotMapper</text><line style="stroke:#181818;stroke-width:0.5;" x1="440" x2="566" y1="529" y2="529"/><line style="stroke:#181818;stroke-width:0.5;" x1="440" x2="566" y1="537" y2="537"/><rect fill="#F24D5C" height="6" style="stroke:#C82930;stroke-width:1.0;" width="6" x="447" y="547.6484"/><text fill="#000000" font-family="sans-serif" font-size="14" lengthAdjust="spacing" textLength="84" x="459" y="553.9951">toDTO(json)</text><rect fill="#F24D5C" height="6" style="stroke:#C82930;stroke-width:1.0;" width="6" x="447" y="563.9453"/><text fill="#000000" font-family="sans-serif" font-size="14" lengthAdjust="spacing" textLength="96" x="459" y="570.292">toData(robot)</text></g><!--class RobotDTO--><g id="elem_RobotDTO"><rect codeLine="55" fill="#F1F1F1" height="113.1875" id="RobotDTO" rx="2.5" ry="2.5" style="stroke:#181818;stroke-width:0.5;" width="145" x="701.5" y="644"/><ellipse cx="734.5" cy="660" fill="#ADD1B2" rx="11" ry="11" style="stroke:#181818;stroke-width:1.0;"/><path d="M737.4844,665.6406 Q736.9063,665.9375 736.2656,666.0781 Q735.625,666.2344 734.9219,666.2344 Q732.4063,666.2344 731.0781,664.5938 Q729.7656,662.9375 729.7656,659.8125 Q729.7656,656.6719 731.0781,655.0313 Q732.4063,653.375 734.9219,653.375 Q735.625,653.375 736.2656,653.5313 Q736.9219,653.6719 737.4844,653.9688 L737.4844,656.6875 Q736.8438,656.1094 736.25,655.8438 Q735.6563,655.5781 735.0313,655.5781 Q733.6875,655.5781 733,656.6406 Q732.3125,657.7031 732.3125,659.8125 Q732.3125,661.9063 733,662.9844 Q733.6875,664.0469 735.0313,664.0469 Q735.6563,664.0469 736.25,663.7813 Q736.8438,663.5 737.4844,662.9219 L737.4844,665.6406 Z " fill="#000000"/><text fill="#000000" font-family="sans-serif" font-size="14" lengthAdjust="spacing" textLength="73" x="752.5" y="664.8467">RobotDTO</text><line style="stroke:#181818;stroke-width:0.5;" x1="702.5" x2="845.5" y1="676" y2="676"/><rect fill="none" height="6" style="stroke:#C82930;stroke-width:1.0;" width="6" x="709.5" y="686.6484"/><text fill="#000000" font-family="sans-serif" font-size="14" lengthAdjust="spacing" textLength="75" x="721.5" y="692.9951">robotCode</text><rect fill="none" height="6" style="stroke:#C82930;stroke-width:1.0;" width="6" x="709.5" y="702.9453"/><text fill="#000000" font-family="sans-serif" font-size="14" lengthAdjust="spacing" textLength="80" x="721.5" y="709.292">robotName</text><rect fill="none" height="6" style="stroke:#C82930;stroke-width:1.0;" width="6" x="709.5" y="719.2422"/><text fill="#000000" font-family="sans-serif" font-size="14" lengthAdjust="spacing" textLength="119" x="721.5" y="725.5889">robotDescription</text><rect fill="none" height="6" style="stroke:#C82930;stroke-width:1.0;" width="6" x="709.5" y="735.5391"/><text fill="#000000" font-family="sans-serif" font-size="14" lengthAdjust="spacing" textLength="67" x="721.5" y="741.8857">robotSize</text><line style="stroke:#181818;stroke-width:0.5;" x1="702.5" x2="845.5" y1="749.1875" y2="749.1875"/></g><!--class DataRobot--><g id="elem_DataRobot"><rect codeLine="61" fill="#F1F1F1" height="48" id="DataRobot" rx="2.5" ry="2.5" style="stroke:#181818;stroke-width:0.5;" width="108" x="7" y="676.5"/><ellipse cx="22" cy="692.5" fill="#ADD1B2" rx="11" ry="11" style="stroke:#181818;stroke-width:1.0;"/><path d="M24.9844,698.1406 Q24.4063,698.4375 23.7656,698.5781 Q23.125,698.7344 22.4219,698.7344 Q19.9063,698.7344 18.5781,697.0938 Q17.2656,695.4375 17.2656,692.3125 Q17.2656,689.1719 18.5781,687.5313 Q19.9063,685.875 22.4219,685.875 Q23.125,685.875 23.7656,686.0313 Q24.4219,686.1719 24.9844,686.4688 L24.9844,689.1875 Q24.3438,688.6094 23.75,688.3438 Q23.1563,688.0781 22.5313,688.0781 Q21.1875,688.0781 20.5,689.1406 Q19.8125,690.2031 19.8125,692.3125 Q19.8125,694.4063 20.5,695.4844 Q21.1875,696.5469 22.5313,696.5469 Q23.1563,696.5469 23.75,696.2813 Q24.3438,696 24.9844,695.4219 L24.9844,698.1406 Z " fill="#000000"/><text fill="#000000" font-family="sans-serif" font-size="14" lengthAdjust="spacing" textLength="76" x="36" y="697.3467">DataRobot</text><line style="stroke:#181818;stroke-width:0.5;" x1="8" x2="114" y1="708.5" y2="708.5"/><line style="stroke:#181818;stroke-width:0.5;" x1="8" x2="114" y1="716.5" y2="716.5"/></g><!--link RobotController to RobotMapper--><g id="link_RobotController_RobotMapper"><path codeLine="21" d="M641.01,264.02 C651.25,274.94 657.25,287.95 654,303 C639.68,369.3 628.6,385.55 591,442 C578.07,461.4 565.3145,476.34 549.7445,492.34 " fill="none" id="RobotController-to-RobotMapper" style="stroke:#181818;stroke-width:1.0;"/><polygon fill="#181818" points="545.56,496.64,554.7034,492.9796,549.0471,493.0566,548.97,487.4003,545.56,496.64" style="stroke:#181818;stroke-width:1.0;"/><text fill="#000000" font-family="sans-serif" font-size="13" lengthAdjust="spacing" textLength="30" x="653" y="390.5814">uses</text></g><!--link RobotService to RobotMapper--><g id="link_RobotService_RobotMapper"><path codeLine="31" d="M484.03,418.34 C487.7,441.2 491.748,466.426 495.698,491.006 " fill="none" id="RobotService-to-RobotMapper" style="stroke:#181818;stroke-width:1.0;"/><polygon fill="#181818" points="496.65,496.93,499.1714,487.4093,495.8567,491.9933,491.2727,488.6787,496.65,496.93" style="stroke:#181818;stroke-width:1.0;"/><text fill="#000000" font-family="sans-serif" font-size="13" lengthAdjust="spacing" textLength="30" x="492" y="463.0814">uses</text></g><!--link RouteRobot to IRobotController--><g id="link_RouteRobot_IRobotController"><path codeLine="63" d="M350.04,89.13 C354.71,115.82 361.3551,153.9099 366.5451,183.5499 " fill="none" id="RouteRobot-to-IRobotController" style="stroke:#181818;stroke-width:1.0;stroke-dasharray:7.0,7.0;"/><polygon fill="#181818" points="367.58,189.46,369.9678,179.905,366.7176,184.5349,362.0877,181.2848,367.58,189.46" style="stroke:#181818;stroke-width:1.0;"/></g><!--link RobotController to IRobotController--><g id="link_RobotController_IRobotController"><path codeLine="64" d="M484.74,221.5 C473.1,221.5 479.46,221.5 467.82,221.5 " fill="none" id="RobotController-to-IRobotController" style="stroke:#181818;stroke-width:1.0;"/><polygon fill="none" points="449.82,221.5,467.82,227.5,467.82,215.5,449.82,221.5" style="stroke:#181818;stroke-width:1.0;"/></g><!--link RobotController to RobotService--><g id="link_RobotController_RobotService"><path codeLine="65" d="M538.25,270.38 C524.31,297.34 510.0652,324.91 497.8552,348.53 " fill="none" id="RobotController-to-RobotService" style="stroke:#181818;stroke-width:1.0;stroke-dasharray:7.0,7.0;"/><polygon fill="#181818" points="495.1,353.86,502.7862,347.7019,497.396,349.4184,495.6796,344.0282,495.1,353.86" style="stroke:#181818;stroke-width:1.0;"/></g><!--link RobotService to Robot--><g id="link_RobotService_Robot"><path codeLine="66" d="M459.64,418.12 C447.12,439.55 431.47,469.09 422,497 C403.42,551.78 394.5814,612.3544 390.1214,653.8344 " fill="none" id="RobotService-to-Robot" style="stroke:#181818;stroke-width:1.0;stroke-dasharray:7.0,7.0;"/><polygon fill="#181818" points="389.48,659.8,394.4192,651.2792,390.0145,654.8287,386.4651,650.424,389.48,659.8" style="stroke:#181818;stroke-width:1.0;"/></g><!--link RobotService to IRobotRepo--><g id="link_RobotService_IRobotRepo"><path codeLine="67" d="M382.75,386 C371.03,386 365.31,386 353.59,386 " fill="none" id="RobotService-to-IRobotRepo" style="stroke:#181818;stroke-width:1.0;stroke-dasharray:7.0,7.0;"/><polygon fill="#181818" points="347.59,386,356.59,390,352.59,386,356.59,382,347.59,386" style="stroke:#181818;stroke-width:1.0;"/></g><!--reverse link RobotRepo to IRobotRepo--><g id="link_RobotRepo_IRobotRepo"><path codeLine="68" d="M224.9542,259.1605 C239.8242,287.9405 258.99,325.02 273.85,353.76 " fill="none" id="RobotRepo-backto-IRobotRepo" style="stroke:#181818;stroke-width:1.0;stroke-dasharray:7.0,7.0;"/><polygon fill="#181818" points="222.2,253.83,222.7776,263.6619,224.4951,258.2721,229.8849,259.9897,222.2,253.83" style="stroke:#181818;stroke-width:1.0;"/></g><!--reverse link dbDriver to RobotRepo--><g id="link_dbDriver_RobotRepo"><path codeLine="69" d="M206,95.13 C206,121.82 206,159.82 206,189.46 " fill="none" id="dbDriver-backto-RobotRepo" style="stroke:#181818;stroke-width:1.0;stroke-dasharray:7.0,7.0;"/><polygon fill="#181818" points="206,89.13,202,98.13,206,94.13,210,98.13,206,89.13" style="stroke:#181818;stroke-width:1.0;"/></g><!--link RobotMapper to RobotDTO--><g id="link_RobotMapper_RobotDTO"><path codeLine="71" d="M547.94,578.02 C563.97,589.98 582.83,601.84 602,609 C636.72,621.97 651.19,601.83 685,617 C699.42,623.47 708.511,629.2716 720.551,639.8416 " fill="none" id="RobotMapper-to-RobotDTO" style="stroke:#181818;stroke-width:1.0;stroke-dasharray:7.0,7.0;"/><polygon fill="#181818" points="725.06,643.8,720.9355,634.8564,721.3025,640.5013,715.6576,640.8683,725.06,643.8" style="stroke:#181818;stroke-width:1.0;"/></g><!--link RobotMapper to Robot--><g id="link_RobotMapper_Robot"><path codeLine="72" d="M481.61,578.03 C475.6,588.33 468.84,599.27 462,609 C449.85,626.29 439.0791,639.7682 425.8791,655.1382 " fill="none" id="RobotMapper-to-Robot" style="stroke:#181818;stroke-width:1.0;stroke-dasharray:7.0,7.0;"/><polygon fill="#181818" points="421.97,659.69,430.8682,655.4684,425.2276,655.8969,424.7992,650.2562,421.97,659.69" style="stroke:#181818;stroke-width:1.0;"/></g><!--link RobotMapper to DataRobot--><g id="link_RobotMapper_DataRobot"><path codeLine="73" d="M438.92,539.62 C360.97,543.64 227.81,559.29 131,617 C106.8,631.43 90.201,652.24 77.891,671.17 " fill="none" id="RobotMapper-to-DataRobot" style="stroke:#181818;stroke-width:1.0;stroke-dasharray:7.0,7.0;"/><polygon fill="#181818" points="74.62,676.2,82.8798,670.8356,77.3458,672.0083,76.1731,666.4744,74.62,676.2" style="stroke:#181818;stroke-width:1.0;"/></g><!--link dbDriver to DataRobot--><g id="link_dbDriver_DataRobot"><path codeLine="75" d="M172.79,89.15 C138.2,116.27 89,164.65 89,220.5 C89,220.5 89,220.5 89,538.5 C89,588.15 77.4632,639.3518 69.1832,670.4618 " fill="none" id="dbDriver-to-DataRobot" style="stroke:#181818;stroke-width:1.0;stroke-dasharray:7.0,7.0;"/><polygon fill="#181818" points="67.64,676.26,73.8202,668.5916,68.926,671.4282,66.0894,666.534,67.64,676.26" style="stroke:#181818;stroke-width:1.0;"/></g><!--link RobotRepo to Robot--><g id="link_RobotRepo_Robot"><path codeLine="76" d="M202.34,253.6 C198.35,296.99 195.05,377.61 216,442 C243.92,527.84 304.8254,607.683 345.8654,655.353 " fill="none" id="RobotRepo-to-Robot" style="stroke:#181818;stroke-width:1.0;stroke-dasharray:7.0,7.0;"/><polygon fill="#181818" points="349.78,659.9,346.9394,650.4697,346.5178,656.1108,340.8767,655.6892,349.78,659.9" style="stroke:#181818;stroke-width:1.0;"/></g><!--link RobotRepo to RobotDTO--><g id="link_RobotRepo_RobotDTO"><path codeLine="77" d="M228.78,253.59 C241.68,268.63 259.19,285.28 279,294 C342.55,321.98 533.73,271.73 591,311 C643.66,347.11 623.03,384.12 650,442 C682.58,511.94 718.6966,586.5288 744.1066,638.5488 " fill="none" id="RobotRepo-to-RobotDTO" style="stroke:#181818;stroke-width:1.0;stroke-dasharray:7.0,7.0;"/><polygon fill="#181818" points="746.74,643.94,746.384,634.0976,744.5455,639.4473,739.1957,637.6088,746.74,643.94" style="stroke:#181818;stroke-width:1.0;"/></g><!--reverse link Robot to RobotCode--><g id="link_Robot_RobotCode"><path codeLine="79" d="M337.7055,745.3006 C311.8255,768.7706 283.63,794.35 257.77,817.8 " fill="none" id="Robot-backto-RobotCode" style="stroke:#181818;stroke-width:1.0;"/><polygon fill="#181818" points="342.15,741.27,332.7961,744.353,338.4462,744.6289,338.1703,750.279,342.15,741.27" style="stroke:#181818;stroke-width:1.0;"/></g><!--reverse link Robot to RobotName--><g id="link_Robot_RobotName"><path codeLine="80" d="M386,747.27 C386,770.74 386,794.35 386,817.8 " fill="none" id="Robot-backto-RobotName" style="stroke:#181818;stroke-width:1.0;"/><polygon fill="#181818" points="386,741.27,382,750.27,386,746.27,390,750.27,386,741.27" style="stroke:#181818;stroke-width:1.0;"/></g><!--reverse link Robot to RobotDescription--><g id="link_Robot_RobotDescription"><path codeLine="81" d="M439.8852,744.8306 C469.1752,768.3906 501.56,794.42 530.85,817.98 " fill="none" id="Robot-backto-RobotDescription" style="stroke:#181818;stroke-width:1.0;"/><polygon fill="#181818" points="435.21,741.07,439.7158,749.8277,439.106,744.2038,444.7299,743.5941,435.21,741.07" style="stroke:#181818;stroke-width:1.0;"/></g><!--SRC=[bLHTJyCW57tdLv0zTJ6TxyOiMRQOp3XDDlq1h5mNN2q4Q8tE_NUX7mneDxKF93tdtdC_GP1iJtQ0HtUIlCC7btk5IK7nGh8AfC8Fv1Fa2EC3mkRBSg8KNlDImvflkSQ7euVJRUDbqID2efDU5XhaAya0poWHsiagfykSnRBMdVD2IvxdLgisiDzL9e6qWPCtnOjnJHs3pCuvfwMWndcZpU4vrrH5ScR9UmF7t0uAa3Ogg4inro2u7qsH2bfBquauhJITDcuh8eJvly6b0kLrR2P4pZAY6I_m1cJ5Cb3NBmhmd9YZGqpxehaOoPOyLxgqDeld9x-EkFj3nJIEOrTJ4ElNUbQSGZuQoDOVxmwqR1f58HdtyKUpeCdPcTEWP2TqKRudOqFqP2pulsmMe3B9H3s-MCtZ-g8UcPnwxIct3Mv4KytD9Bsrj03Hf9jLu6aiExUmEL6Hmrasw8PzWLEraTmZWBmtOK8dqzuzxj-1xpyOrLB-geLxTw8ZNBeCx2uZRwqdPUTICn7HlM3jbMsxFUbSJ0-7YHxgceEGUnL3t8iSgeIO3TdW-3PDJyiUO_Ny8imV8le1]--></g></svg>