<?xml version="1.0" encoding="us-ascii" standalone="no"?><svg xmlns="http://www.w3.org/2000/svg" xmlns:xlink="http://www.w3.org/1999/xlink" contentStyleType="text/css" height="954px" preserveAspectRatio="none" style="width:1222px;height:954px;background:#FFFFFF;" version="1.1" viewBox="0 0 1222 954" width="1222px" zoomAndPan="magnify"><defs/><g><!--cluster Frameworks and Drivers Layer--><g id="cluster_Frameworks and Drivers Layer"><path d="M360.5,6 L605.5,6 A3.75,3.75 0 0 1 608,8.5 L615,28.2969 L676.5,28.2969 A2.5,2.5 0 0 1 679,30.7969 L679,102.5 A2.5,2.5 0 0 1 676.5,105 L360.5,105 A2.5,2.5 0 0 1 358,102.5 L358,8.5 A2.5,2.5 0 0 1 360.5,6 " fill="none" style="stroke:#000000;stroke-width:1.5;"/><line style="stroke:#000000;stroke-width:1.5;" x1="358" x2="615" y1="28.2969" y2="28.2969"/><text fill="#000000" font-family="sans-serif" font-size="14" font-weight="bold" lengthAdjust="spacing" textLength="244" x="362" y="20.9951">Frameworks and Drivers Layer</text></g><!--cluster Interface Adapters Layers--><g id="cluster_Interface Adapters Layers"><path d="M329.5,138 L536.5,138 A3.75,3.75 0 0 1 539,140.5 L546,160.2969 L976.5,160.2969 A2.5,2.5 0 0 1 979,162.7969 L979,283.5 A2.5,2.5 0 0 1 976.5,286 L329.5,286 A2.5,2.5 0 0 1 327,283.5 L327,140.5 A2.5,2.5 0 0 1 329.5,138 " fill="none" style="stroke:#000000;stroke-width:1.5;"/><line style="stroke:#000000;stroke-width:1.5;" x1="327" x2="546" y1="160.2969" y2="160.2969"/><text fill="#000000" font-family="sans-serif" font-size="14" font-weight="bold" lengthAdjust="spacing" textLength="206" x="331" y="152.9951">Interface Adapters Layers</text></g><!--cluster Application Services/Use Case Services--><g id="cluster_Application Services/Use Case Services"><path d="M418.5,319 L729.5,319 A3.75,3.75 0 0 1 732,321.5 L739,341.2969 L925.5,341.2969 A2.5,2.5 0 0 1 928,343.7969 L928,431.5 A2.5,2.5 0 0 1 925.5,434 L418.5,434 A2.5,2.5 0 0 1 416,431.5 L416,321.5 A2.5,2.5 0 0 1 418.5,319 " fill="none" style="stroke:#000000;stroke-width:1.5;"/><line style="stroke:#000000;stroke-width:1.5;" x1="416" x2="739" y1="341.2969" y2="341.2969"/><text fill="#000000" font-family="sans-serif" font-size="14" font-weight="bold" lengthAdjust="spacing" textLength="310" x="420" y="333.9951">Application Services/Use Case Services</text></g><!--cluster Model--><g id="cluster_Model"><path d="M177.5,625 L227.5,625 A3.75,3.75 0 0 1 230,627.5 L237,647.2969 L1048.5,647.2969 A2.5,2.5 0 0 1 1051,649.7969 L1051,945 A2.5,2.5 0 0 1 1048.5,947.5 L177.5,947.5 A2.5,2.5 0 0 1 175,945 L175,627.5 A2.5,2.5 0 0 1 177.5,625 " fill="none" style="stroke:#000000;stroke-width:1.5;"/><line style="stroke:#000000;stroke-width:1.5;" x1="175" x2="237" y1="647.2969" y2="647.2969"/><text fill="#000000" font-family="sans-serif" font-size="14" font-weight="bold" lengthAdjust="spacing" textLength="49" x="179" y="639.9951">Model</text></g><!--class RoutePassageway--><g id="elem_RoutePassageway"><rect codeLine="3" fill="#F1F1F1" height="48" id="RoutePassageway" rx="2.5" ry="2.5" style="stroke:#181818;stroke-width:0.5;" width="160" x="503" y="41"/><ellipse cx="518" cy="57" fill="#ADD1B2" rx="11" ry="11" style="stroke:#181818;stroke-width:1.0;"/><path d="M520.9844,62.6406 Q520.4063,62.9375 519.7656,63.0781 Q519.125,63.2344 518.4219,63.2344 Q515.9063,63.2344 514.5781,61.5938 Q513.2656,59.9375 513.2656,56.8125 Q513.2656,53.6719 514.5781,52.0313 Q515.9063,50.375 518.4219,50.375 Q519.125,50.375 519.7656,50.5313 Q520.4219,50.6719 520.9844,50.9688 L520.9844,53.6875 Q520.3438,53.1094 519.75,52.8438 Q519.1563,52.5781 518.5313,52.5781 Q517.1875,52.5781 516.5,53.6406 Q515.8125,54.7031 515.8125,56.8125 Q515.8125,58.9063 516.5,59.9844 Q517.1875,61.0469 518.5313,61.0469 Q519.1563,61.0469 519.75,60.7813 Q520.3438,60.5 520.9844,59.9219 L520.9844,62.6406 Z " fill="#000000"/><text fill="#000000" font-family="sans-serif" font-size="14" lengthAdjust="spacing" textLength="128" x="532" y="61.8467">RoutePassageway</text><line style="stroke:#181818;stroke-width:0.5;" x1="504" x2="662" y1="73" y2="73"/><line style="stroke:#181818;stroke-width:0.5;" x1="504" x2="662" y1="81" y2="81"/></g><!--class dbDriver--><g id="elem_dbDriver"><rect codeLine="4" fill="#F1F1F1" height="48" id="dbDriver" rx="2.5" ry="2.5" style="stroke:#181818;stroke-width:0.5;" width="94" x="374" y="41"/><ellipse cx="389" cy="57" fill="#ADD1B2" rx="11" ry="11" style="stroke:#181818;stroke-width:1.0;"/><path d="M391.9844,62.6406 Q391.4063,62.9375 390.7656,63.0781 Q390.125,63.2344 389.4219,63.2344 Q386.9063,63.2344 385.5781,61.5938 Q384.2656,59.9375 384.2656,56.8125 Q384.2656,53.6719 385.5781,52.0313 Q386.9063,50.375 389.4219,50.375 Q390.125,50.375 390.7656,50.5313 Q391.4219,50.6719 391.9844,50.9688 L391.9844,53.6875 Q391.3438,53.1094 390.75,52.8438 Q390.1563,52.5781 389.5313,52.5781 Q388.1875,52.5781 387.5,53.6406 Q386.8125,54.7031 386.8125,56.8125 Q386.8125,58.9063 387.5,59.9844 Q388.1875,61.0469 389.5313,61.0469 Q390.1563,61.0469 390.75,60.7813 Q391.3438,60.5 391.9844,59.9219 L391.9844,62.6406 Z " fill="#000000"/><text fill="#000000" font-family="sans-serif" font-size="14" lengthAdjust="spacing" textLength="62" x="403" y="61.8467">dbDriver</text><line style="stroke:#181818;stroke-width:0.5;" x1="375" x2="467" y1="73" y2="73"/><line style="stroke:#181818;stroke-width:0.5;" x1="375" x2="467" y1="81" y2="81"/></g><!--class IPassagewayController--><g id="elem_IPassagewayController"><rect codeLine="8" fill="#F1F1F1" height="64.2969" id="IPassagewayController" rx="2.5" ry="2.5" style="stroke:#181818;stroke-width:0.5;" width="197" x="533.5" y="189.5"/><ellipse cx="550.3" cy="205.5" fill="#B4A7E5" rx="11" ry="11" style="stroke:#181818;stroke-width:1.0;"/><path d="M546.2219,201.25 L546.2219,199.0938 L553.6125,199.0938 L553.6125,201.25 L551.1438,201.25 L551.1438,209.3438 L553.6125,209.3438 L553.6125,211.5 L546.2219,211.5 L546.2219,209.3438 L548.6906,209.3438 L548.6906,201.25 L546.2219,201.25 Z " fill="#000000"/><text fill="#000000" font-family="sans-serif" font-size="14" font-style="italic" lengthAdjust="spacing" textLength="161" x="564.7" y="210.3467">IPassagewayController</text><line style="stroke:#181818;stroke-width:0.5;" x1="534.5" x2="729.5" y1="221.5" y2="221.5"/><line style="stroke:#181818;stroke-width:0.5;" x1="534.5" x2="729.5" y1="229.5" y2="229.5"/><ellipse cx="544.5" cy="243.1484" fill="#84BE84" rx="3" ry="3" style="stroke:#038048;stroke-width:1.0;"/><text fill="#000000" font-family="sans-serif" font-size="14" lengthAdjust="spacing" textLength="171" x="553.5" y="246.4951">createPassageway(json)</text></g><!--class PassagewayController--><g id="elem_PassagewayController"><rect codeLine="11" fill="#F1F1F1" height="96.8906" id="PassagewayController" rx="2.5" ry="2.5" style="stroke:#181818;stroke-width:0.5;" width="197" x="765.5" y="173"/><ellipse cx="784.1" cy="189" fill="#ADD1B2" rx="11" ry="11" style="stroke:#181818;stroke-width:1.0;"/><path d="M787.0844,194.6406 Q786.5063,194.9375 785.8656,195.0781 Q785.225,195.2344 784.5219,195.2344 Q782.0063,195.2344 780.6781,193.5938 Q779.3656,191.9375 779.3656,188.8125 Q779.3656,185.6719 780.6781,184.0313 Q782.0063,182.375 784.5219,182.375 Q785.225,182.375 785.8656,182.5313 Q786.5219,182.6719 787.0844,182.9688 L787.0844,185.6875 Q786.4438,185.1094 785.85,184.8438 Q785.2563,184.5781 784.6313,184.5781 Q783.2875,184.5781 782.6,185.6406 Q781.9125,186.7031 781.9125,188.8125 Q781.9125,190.9063 782.6,191.9844 Q783.2875,193.0469 784.6313,193.0469 Q785.2563,193.0469 785.85,192.7813 Q786.4438,192.5 787.0844,191.9219 L787.0844,194.6406 Z " fill="#000000"/><text fill="#000000" font-family="sans-serif" font-size="14" lengthAdjust="spacing" textLength="157" x="798.9" y="193.8467">PassagewayController</text><line style="stroke:#181818;stroke-width:0.5;" x1="766.5" x2="961.5" y1="205" y2="205"/><line style="stroke:#181818;stroke-width:0.5;" x1="766.5" x2="961.5" y1="213" y2="213"/><rect fill="#F24D5C" height="6" style="stroke:#C82930;stroke-width:1.0;" width="6" x="773.5" y="223.6484"/><text fill="#000000" font-family="sans-serif" font-size="14" lengthAdjust="spacing" textLength="171" x="785.5" y="229.9951">createPassageway(json)</text><rect fill="#F24D5C" height="6" style="stroke:#C82930;stroke-width:1.0;" width="6" x="773.5" y="239.9453"/><text fill="#000000" font-family="sans-serif" font-size="14" lengthAdjust="spacing" textLength="125" x="785.5" y="246.292">validateJson(json)</text><rect fill="#F24D5C" height="6" style="stroke:#C82930;stroke-width:1.0;" width="6" x="773.5" y="256.2422"/><text fill="#000000" font-family="sans-serif" font-size="14" lengthAdjust="spacing" textLength="130" x="785.5" y="262.5889">generateRes(json)</text></g><!--class PassagewayRepo--><g id="elem_PassagewayRepo"><rect codeLine="16" fill="#F1F1F1" height="64.2969" id="PassagewayRepo" rx="2.5" ry="2.5" style="stroke:#181818;stroke-width:0.5;" width="155" x="343.5" y="189.5"/><ellipse cx="358.5" cy="205.5" fill="#ADD1B2" rx="11" ry="11" style="stroke:#181818;stroke-width:1.0;"/><path d="M361.4844,211.1406 Q360.9063,211.4375 360.2656,211.5781 Q359.625,211.7344 358.9219,211.7344 Q356.4063,211.7344 355.0781,210.0938 Q353.7656,208.4375 353.7656,205.3125 Q353.7656,202.1719 355.0781,200.5313 Q356.4063,198.875 358.9219,198.875 Q359.625,198.875 360.2656,199.0313 Q360.9219,199.1719 361.4844,199.4688 L361.4844,202.1875 Q360.8438,201.6094 360.25,201.3438 Q359.6563,201.0781 359.0313,201.0781 Q357.6875,201.0781 357,202.1406 Q356.3125,203.2031 356.3125,205.3125 Q356.3125,207.4063 357,208.4844 Q357.6875,209.5469 359.0313,209.5469 Q359.6563,209.5469 360.25,209.2813 Q360.8438,209 361.4844,208.4219 L361.4844,211.1406 Z " fill="#000000"/><text fill="#000000" font-family="sans-serif" font-size="14" lengthAdjust="spacing" textLength="123" x="372.5" y="210.3467">PassagewayRepo</text><line style="stroke:#181818;stroke-width:0.5;" x1="344.5" x2="497.5" y1="221.5" y2="221.5"/><rect fill="none" height="6" style="stroke:#C82930;stroke-width:1.0;" width="6" x="351.5" y="232.1484"/><text fill="#000000" font-family="sans-serif" font-size="14" lengthAdjust="spacing" textLength="33" x="363.5" y="238.4951">save</text><line style="stroke:#181818;stroke-width:0.5;" x1="344.5" x2="497.5" y1="245.7969" y2="245.7969"/></g><!--class PassagewayService--><g id="elem_PassagewayService"><rect codeLine="24" fill="#F1F1F1" height="64.2969" id="PassagewayService" rx="2.5" ry="2.5" style="stroke:#181818;stroke-width:0.5;" width="286" x="626" y="354"/><ellipse cx="695.25" cy="370" fill="#ADD1B2" rx="11" ry="11" style="stroke:#181818;stroke-width:1.0;"/><path d="M698.2344,375.6406 Q697.6563,375.9375 697.0156,376.0781 Q696.375,376.2344 695.6719,376.2344 Q693.1563,376.2344 691.8281,374.5938 Q690.5156,372.9375 690.5156,369.8125 Q690.5156,366.6719 691.8281,365.0313 Q693.1563,363.375 695.6719,363.375 Q696.375,363.375 697.0156,363.5313 Q697.6719,363.6719 698.2344,363.9688 L698.2344,366.6875 Q697.5938,366.1094 697,365.8438 Q696.4063,365.5781 695.7813,365.5781 Q694.4375,365.5781 693.75,366.6406 Q693.0625,367.7031 693.0625,369.8125 Q693.0625,371.9063 693.75,372.9844 Q694.4375,374.0469 695.7813,374.0469 Q696.4063,374.0469 697,373.7813 Q697.5938,373.5 698.2344,372.9219 L698.2344,375.6406 Z " fill="#000000"/><text fill="#000000" font-family="sans-serif" font-size="14" lengthAdjust="spacing" textLength="139" x="715.75" y="374.8467">PassagewayService</text><line style="stroke:#181818;stroke-width:0.5;" x1="627" x2="911" y1="386" y2="386"/><line style="stroke:#181818;stroke-width:0.5;" x1="627" x2="911" y1="394" y2="394"/><rect fill="#F24D5C" height="6" style="stroke:#C82930;stroke-width:1.0;" width="6" x="634" y="404.6484"/><text fill="#000000" font-family="sans-serif" font-size="14" lengthAdjust="spacing" textLength="260" x="646" y="410.9951">createPassageway(passagewayDTO)</text></g><!--class IPassagewayRepo--><g id="elem_IPassagewayRepo"><rect codeLine="27" fill="#F1F1F1" height="64.2969" id="IPassagewayRepo" rx="2.5" ry="2.5" style="stroke:#181818;stroke-width:0.5;" width="159" x="431.5" y="354"/><ellipse cx="446.5" cy="370" fill="#B4A7E5" rx="11" ry="11" style="stroke:#181818;stroke-width:1.0;"/><path d="M442.4219,365.75 L442.4219,363.5938 L449.8125,363.5938 L449.8125,365.75 L447.3438,365.75 L447.3438,373.8438 L449.8125,373.8438 L449.8125,376 L442.4219,376 L442.4219,373.8438 L444.8906,373.8438 L444.8906,365.75 L442.4219,365.75 Z " fill="#000000"/><text fill="#000000" font-family="sans-serif" font-size="14" font-style="italic" lengthAdjust="spacing" textLength="127" x="460.5" y="374.8467">IPassagewayRepo</text><line style="stroke:#181818;stroke-width:0.5;" x1="432.5" x2="589.5" y1="386" y2="386"/><line style="stroke:#181818;stroke-width:0.5;" x1="432.5" x2="589.5" y1="394" y2="394"/><rect fill="#F24D5C" height="6" style="stroke:#C82930;stroke-width:1.0;" width="6" x="439.5" y="404.6484"/><text fill="#000000" font-family="sans-serif" font-size="14" lengthAdjust="spacing" textLength="130" x="451.5" y="410.9951">save(passageway)</text></g><!--class Passageway--><g id="elem_Passageway"><rect codeLine="34" fill="#F1F1F1" height="113.1875" id="Passageway" rx="2.5" ry="2.5" style="stroke:#181818;stroke-width:0.5;" width="164" x="577" y="660"/><ellipse cx="612.7" cy="676" fill="#ADD1B2" rx="11" ry="11" style="stroke:#181818;stroke-width:1.0;"/><path d="M615.6844,681.6406 Q615.1063,681.9375 614.4656,682.0781 Q613.825,682.2344 613.1219,682.2344 Q610.6063,682.2344 609.2781,680.5938 Q607.9656,678.9375 607.9656,675.8125 Q607.9656,672.6719 609.2781,671.0313 Q610.6063,669.375 613.1219,669.375 Q613.825,669.375 614.4656,669.5313 Q615.1219,669.6719 615.6844,669.9688 L615.6844,672.6875 Q615.0438,672.1094 614.45,671.8438 Q613.8563,671.5781 613.2313,671.5781 Q611.8875,671.5781 611.2,672.6406 Q610.5125,673.7031 610.5125,675.8125 Q610.5125,677.9063 611.2,678.9844 Q611.8875,680.0469 613.2313,680.0469 Q613.8563,680.0469 614.45,679.7813 Q615.0438,679.5 615.6844,678.9219 L615.6844,681.6406 Z " fill="#000000"/><text fill="#000000" font-family="sans-serif" font-size="14" lengthAdjust="spacing" textLength="86" x="631.3" y="680.8467">Passageway</text><line style="stroke:#181818;stroke-width:0.5;" x1="578" x2="740" y1="692" y2="692"/><line style="stroke:#181818;stroke-width:0.5;" x1="578" x2="740" y1="700" y2="700"/><ellipse cx="588" cy="713.6484" fill="#84BE84" rx="3" ry="3" style="stroke:#038048;stroke-width:1.0;"/><text fill="#000000" font-family="sans-serif" font-size="14" lengthAdjust="spacing" textLength="138" x="597" y="716.9951">getBuildingCodeA()</text><ellipse cx="588" cy="729.9453" fill="#84BE84" rx="3" ry="3" style="stroke:#038048;stroke-width:1.0;"/><text fill="#000000" font-family="sans-serif" font-size="14" lengthAdjust="spacing" textLength="138" x="597" y="733.292">getBuildingCodeB()</text><ellipse cx="588" cy="746.2422" fill="#84BE84" rx="3" ry="3" style="stroke:#038048;stroke-width:1.0;"/><text fill="#000000" font-family="sans-serif" font-size="14" lengthAdjust="spacing" textLength="116" x="597" y="749.5889">getFloorCodeA()</text><ellipse cx="588" cy="762.5391" fill="#84BE84" rx="3" ry="3" style="stroke:#038048;stroke-width:1.0;"/><text fill="#000000" font-family="sans-serif" font-size="14" lengthAdjust="spacing" textLength="116" x="597" y="765.8857">getFloorCodeB()</text></g><!--class BuildingCodeA--><g id="elem_BuildingCodeA"><rect codeLine="40" fill="#F1F1F1" height="80.5938" id="BuildingCodeA" rx="2.5" ry="2.5" style="stroke:#181818;stroke-width:0.5;" width="163" x="191.5" y="850.5"/><ellipse cx="218.2" cy="866.5" fill="#ADD1B2" rx="11" ry="11" style="stroke:#181818;stroke-width:1.0;"/><path d="M221.1844,872.1406 Q220.6063,872.4375 219.9656,872.5781 Q219.325,872.7344 218.6219,872.7344 Q216.1063,872.7344 214.7781,871.0938 Q213.4656,869.4375 213.4656,866.3125 Q213.4656,863.1719 214.7781,861.5313 Q216.1063,859.875 218.6219,859.875 Q219.325,859.875 219.9656,860.0313 Q220.6219,860.1719 221.1844,860.4688 L221.1844,863.1875 Q220.5438,862.6094 219.95,862.3438 Q219.3563,862.0781 218.7313,862.0781 Q217.3875,862.0781 216.7,863.1406 Q216.0125,864.2031 216.0125,866.3125 Q216.0125,868.4063 216.7,869.4844 Q217.3875,870.5469 218.7313,870.5469 Q219.3563,870.5469 219.95,870.2813 Q220.5438,870 221.1844,869.4219 L221.1844,872.1406 Z " fill="#000000"/><text fill="#000000" font-family="sans-serif" font-size="14" lengthAdjust="spacing" textLength="105" x="234.8" y="871.3467">BuildingCodeA</text><line style="stroke:#181818;stroke-width:0.5;" x1="192.5" x2="353.5" y1="882.5" y2="882.5"/><rect fill="none" height="6" style="stroke:#C82930;stroke-width:1.0;" width="6" x="199.5" y="893.1484"/><text fill="#000000" font-family="sans-serif" font-size="14" lengthAdjust="spacing" textLength="104" x="211.5" y="899.4951">buildingCodeA</text><line style="stroke:#181818;stroke-width:0.5;" x1="192.5" x2="353.5" y1="906.7969" y2="906.7969"/><ellipse cx="202.5" cy="920.4453" fill="#84BE84" rx="3" ry="3" style="stroke:#038048;stroke-width:1.0;"/><text fill="#000000" font-family="sans-serif" font-size="14" lengthAdjust="spacing" textLength="137" x="211.5" y="923.792">getbuildingCodeA()</text></g><!--class BuildingCodeB--><g id="elem_BuildingCodeB"><rect codeLine="44" fill="#F1F1F1" height="80.5938" id="BuildingCodeB" rx="2.5" ry="2.5" style="stroke:#181818;stroke-width:0.5;" width="163" x="389.5" y="850.5"/><ellipse cx="416.2" cy="866.5" fill="#ADD1B2" rx="11" ry="11" style="stroke:#181818;stroke-width:1.0;"/><path d="M419.1844,872.1406 Q418.6063,872.4375 417.9656,872.5781 Q417.325,872.7344 416.6219,872.7344 Q414.1063,872.7344 412.7781,871.0938 Q411.4656,869.4375 411.4656,866.3125 Q411.4656,863.1719 412.7781,861.5313 Q414.1063,859.875 416.6219,859.875 Q417.325,859.875 417.9656,860.0313 Q418.6219,860.1719 419.1844,860.4688 L419.1844,863.1875 Q418.5438,862.6094 417.95,862.3438 Q417.3563,862.0781 416.7313,862.0781 Q415.3875,862.0781 414.7,863.1406 Q414.0125,864.2031 414.0125,866.3125 Q414.0125,868.4063 414.7,869.4844 Q415.3875,870.5469 416.7313,870.5469 Q417.3563,870.5469 417.95,870.2813 Q418.5438,870 419.1844,869.4219 L419.1844,872.1406 Z " fill="#000000"/><text fill="#000000" font-family="sans-serif" font-size="14" lengthAdjust="spacing" textLength="105" x="432.8" y="871.3467">BuildingCodeB</text><line style="stroke:#181818;stroke-width:0.5;" x1="390.5" x2="551.5" y1="882.5" y2="882.5"/><rect fill="none" height="6" style="stroke:#C82930;stroke-width:1.0;" width="6" x="397.5" y="893.1484"/><text fill="#000000" font-family="sans-serif" font-size="14" lengthAdjust="spacing" textLength="104" x="409.5" y="899.4951">buildingCodeB</text><line style="stroke:#181818;stroke-width:0.5;" x1="390.5" x2="551.5" y1="906.7969" y2="906.7969"/><ellipse cx="400.5" cy="920.4453" fill="#84BE84" rx="3" ry="3" style="stroke:#038048;stroke-width:1.0;"/><text fill="#000000" font-family="sans-serif" font-size="14" lengthAdjust="spacing" textLength="137" x="409.5" y="923.792">getbuildingCodeB()</text></g><!--class FloorCodeA--><g id="elem_FloorCodeA"><rect codeLine="48" fill="#F1F1F1" height="80.5938" id="FloorCodeA" rx="2.5" ry="2.5" style="stroke:#181818;stroke-width:0.5;" width="142" x="588" y="850.5"/><ellipse cx="615.15" cy="866.5" fill="#ADD1B2" rx="11" ry="11" style="stroke:#181818;stroke-width:1.0;"/><path d="M618.1344,872.1406 Q617.5563,872.4375 616.9156,872.5781 Q616.275,872.7344 615.5719,872.7344 Q613.0563,872.7344 611.7281,871.0938 Q610.4156,869.4375 610.4156,866.3125 Q610.4156,863.1719 611.7281,861.5313 Q613.0563,859.875 615.5719,859.875 Q616.275,859.875 616.9156,860.0313 Q617.5719,860.1719 618.1344,860.4688 L618.1344,863.1875 Q617.4938,862.6094 616.9,862.3438 Q616.3063,862.0781 615.6813,862.0781 Q614.3375,862.0781 613.65,863.1406 Q612.9625,864.2031 612.9625,866.3125 Q612.9625,868.4063 613.65,869.4844 Q614.3375,870.5469 615.6813,870.5469 Q616.3063,870.5469 616.9,870.2813 Q617.4938,870 618.1344,869.4219 L618.1344,872.1406 Z " fill="#000000"/><text fill="#000000" font-family="sans-serif" font-size="14" lengthAdjust="spacing" textLength="83" x="631.85" y="871.3467">FloorCodeA</text><line style="stroke:#181818;stroke-width:0.5;" x1="589" x2="729" y1="882.5" y2="882.5"/><rect fill="none" height="6" style="stroke:#C82930;stroke-width:1.0;" width="6" x="596" y="893.1484"/><text fill="#000000" font-family="sans-serif" font-size="14" lengthAdjust="spacing" textLength="80" x="608" y="899.4951">floorCodeA</text><line style="stroke:#181818;stroke-width:0.5;" x1="589" x2="729" y1="906.7969" y2="906.7969"/><ellipse cx="599" cy="920.4453" fill="#84BE84" rx="3" ry="3" style="stroke:#038048;stroke-width:1.0;"/><text fill="#000000" font-family="sans-serif" font-size="14" lengthAdjust="spacing" textLength="116" x="608" y="923.792">getFloorCodeA()</text></g><!--class FloorCodeB--><g id="elem_FloorCodeB"><rect codeLine="52" fill="#F1F1F1" height="80.5938" id="FloorCodeB" rx="2.5" ry="2.5" style="stroke:#181818;stroke-width:0.5;" width="142" x="765" y="850.5"/><ellipse cx="792.15" cy="866.5" fill="#ADD1B2" rx="11" ry="11" style="stroke:#181818;stroke-width:1.0;"/><path d="M795.1344,872.1406 Q794.5563,872.4375 793.9156,872.5781 Q793.275,872.7344 792.5719,872.7344 Q790.0563,872.7344 788.7281,871.0938 Q787.4156,869.4375 787.4156,866.3125 Q787.4156,863.1719 788.7281,861.5313 Q790.0563,859.875 792.5719,859.875 Q793.275,859.875 793.9156,860.0313 Q794.5719,860.1719 795.1344,860.4688 L795.1344,863.1875 Q794.4938,862.6094 793.9,862.3438 Q793.3063,862.0781 792.6813,862.0781 Q791.3375,862.0781 790.65,863.1406 Q789.9625,864.2031 789.9625,866.3125 Q789.9625,868.4063 790.65,869.4844 Q791.3375,870.5469 792.6813,870.5469 Q793.3063,870.5469 793.9,870.2813 Q794.4938,870 795.1344,869.4219 L795.1344,872.1406 Z " fill="#000000"/><text fill="#000000" font-family="sans-serif" font-size="14" lengthAdjust="spacing" textLength="83" x="808.85" y="871.3467">FloorCodeB</text><line style="stroke:#181818;stroke-width:0.5;" x1="766" x2="906" y1="882.5" y2="882.5"/><rect fill="none" height="6" style="stroke:#C82930;stroke-width:1.0;" width="6" x="773" y="893.1484"/><text fill="#000000" font-family="sans-serif" font-size="14" lengthAdjust="spacing" textLength="80" x="785" y="899.4951">floorCodeB</text><line style="stroke:#181818;stroke-width:0.5;" x1="766" x2="906" y1="906.7969" y2="906.7969"/><ellipse cx="776" cy="920.4453" fill="#84BE84" rx="3" ry="3" style="stroke:#038048;stroke-width:1.0;"/><text fill="#000000" font-family="sans-serif" font-size="14" lengthAdjust="spacing" textLength="116" x="785" y="923.792">getFloorCodeB()</text></g><!--class Location--><g id="elem_Location"><rect codeLine="56" fill="#F1F1F1" height="80.5938" id="Location" rx="2.5" ry="2.5" style="stroke:#181818;stroke-width:0.5;" width="93" x="942.5" y="850.5"/><ellipse cx="957.5" cy="866.5" fill="#ADD1B2" rx="11" ry="11" style="stroke:#181818;stroke-width:1.0;"/><path d="M960.4844,872.1406 Q959.9063,872.4375 959.2656,872.5781 Q958.625,872.7344 957.9219,872.7344 Q955.4063,872.7344 954.0781,871.0938 Q952.7656,869.4375 952.7656,866.3125 Q952.7656,863.1719 954.0781,861.5313 Q955.4063,859.875 957.9219,859.875 Q958.625,859.875 959.2656,860.0313 Q959.9219,860.1719 960.4844,860.4688 L960.4844,863.1875 Q959.8438,862.6094 959.25,862.3438 Q958.6563,862.0781 958.0313,862.0781 Q956.6875,862.0781 956,863.1406 Q955.3125,864.2031 955.3125,866.3125 Q955.3125,868.4063 956,869.4844 Q956.6875,870.5469 958.0313,870.5469 Q958.6563,870.5469 959.25,870.2813 Q959.8438,870 960.4844,869.4219 L960.4844,872.1406 Z " fill="#000000"/><text fill="#000000" font-family="sans-serif" font-size="14" lengthAdjust="spacing" textLength="61" x="971.5" y="871.3467">Location</text><line style="stroke:#181818;stroke-width:0.5;" x1="943.5" x2="1034.5" y1="882.5" y2="882.5"/><rect fill="none" height="6" style="stroke:#C82930;stroke-width:1.0;" width="6" x="950.5" y="893.1484"/><text fill="#000000" font-family="sans-serif" font-size="14" lengthAdjust="spacing" textLength="67" x="962.5" y="899.4951">locationA</text><rect fill="none" height="6" style="stroke:#C82930;stroke-width:1.0;" width="6" x="950.5" y="909.4453"/><text fill="#000000" font-family="sans-serif" font-size="14" lengthAdjust="spacing" textLength="67" x="962.5" y="915.792">locationB</text><line style="stroke:#181818;stroke-width:0.5;" x1="943.5" x2="1034.5" y1="923.0938" y2="923.0938"/></g><!--class PassagewayMapper--><g id="elem_PassagewayMapper"><rect codeLine="61" fill="#F1F1F1" height="80.5938" id="PassagewayMapper" rx="2.5" ry="2.5" style="stroke:#181818;stroke-width:0.5;" width="172" x="712" y="497"/><ellipse cx="727" cy="513" fill="#ADD1B2" rx="11" ry="11" style="stroke:#181818;stroke-width:1.0;"/><path d="M729.9844,518.6406 Q729.4063,518.9375 728.7656,519.0781 Q728.125,519.2344 727.4219,519.2344 Q724.9063,519.2344 723.5781,517.5938 Q722.2656,515.9375 722.2656,512.8125 Q722.2656,509.6719 723.5781,508.0313 Q724.9063,506.375 727.4219,506.375 Q728.125,506.375 728.7656,506.5313 Q729.4219,506.6719 729.9844,506.9688 L729.9844,509.6875 Q729.3438,509.1094 728.75,508.8438 Q728.1563,508.5781 727.5313,508.5781 Q726.1875,508.5781 725.5,509.6406 Q724.8125,510.7031 724.8125,512.8125 Q724.8125,514.9063 725.5,515.9844 Q726.1875,517.0469 727.5313,517.0469 Q728.1563,517.0469 728.75,516.7813 Q729.3438,516.5 729.9844,515.9219 L729.9844,518.6406 Z " fill="#000000"/><text fill="#000000" font-family="sans-serif" font-size="14" lengthAdjust="spacing" textLength="140" x="741" y="517.8467">PassagewayMapper</text><line style="stroke:#181818;stroke-width:0.5;" x1="713" x2="883" y1="529" y2="529"/><line style="stroke:#181818;stroke-width:0.5;" x1="713" x2="883" y1="537" y2="537"/><rect fill="#F24D5C" height="6" style="stroke:#C82930;stroke-width:1.0;" width="6" x="720" y="547.6484"/><text fill="#000000" font-family="sans-serif" font-size="14" lengthAdjust="spacing" textLength="84" x="732" y="553.9951">toDTO(json)</text><rect fill="#F24D5C" height="6" style="stroke:#C82930;stroke-width:1.0;" width="6" x="720" y="563.9453"/><text fill="#000000" font-family="sans-serif" font-size="14" lengthAdjust="spacing" textLength="145" x="732" y="570.292">toData(passageway)</text></g><!--class PassagewayDTO--><g id="elem_PassagewayDTO"><rect codeLine="65" fill="#F1F1F1" height="145.7813" id="PassagewayDTO" rx="2.5" ry="2.5" style="stroke:#181818;stroke-width:0.5;" width="149" x="1066.5" y="643.5"/><ellipse cx="1081.5" cy="659.5" fill="#ADD1B2" rx="11" ry="11" style="stroke:#181818;stroke-width:1.0;"/><path d="M1084.4844,665.1406 Q1083.9063,665.4375 1083.2656,665.5781 Q1082.625,665.7344 1081.9219,665.7344 Q1079.4063,665.7344 1078.0781,664.0938 Q1076.7656,662.4375 1076.7656,659.3125 Q1076.7656,656.1719 1078.0781,654.5313 Q1079.4063,652.875 1081.9219,652.875 Q1082.625,652.875 1083.2656,653.0313 Q1083.9219,653.1719 1084.4844,653.4688 L1084.4844,656.1875 Q1083.8438,655.6094 1083.25,655.3438 Q1082.6563,655.0781 1082.0313,655.0781 Q1080.6875,655.0781 1080,656.1406 Q1079.3125,657.2031 1079.3125,659.3125 Q1079.3125,661.4063 1080,662.4844 Q1080.6875,663.5469 1082.0313,663.5469 Q1082.6563,663.5469 1083.25,663.2813 Q1083.8438,663 1084.4844,662.4219 L1084.4844,665.1406 Z " fill="#000000"/><text fill="#000000" font-family="sans-serif" font-size="14" lengthAdjust="spacing" textLength="117" x="1095.5" y="664.3467">PassagewayDTO</text><line style="stroke:#181818;stroke-width:0.5;" x1="1067.5" x2="1214.5" y1="675.5" y2="675.5"/><rect fill="none" height="6" style="stroke:#C82930;stroke-width:1.0;" width="6" x="1074.5" y="686.1484"/><text fill="#000000" font-family="sans-serif" font-size="14" lengthAdjust="spacing" textLength="104" x="1086.5" y="692.4951">buildingCodeA</text><rect fill="none" height="6" style="stroke:#C82930;stroke-width:1.0;" width="6" x="1074.5" y="702.4453"/><text fill="#000000" font-family="sans-serif" font-size="14" lengthAdjust="spacing" textLength="104" x="1086.5" y="708.792">buildingCodeB</text><rect fill="none" height="6" style="stroke:#C82930;stroke-width:1.0;" width="6" x="1074.5" y="718.7422"/><text fill="#000000" font-family="sans-serif" font-size="14" lengthAdjust="spacing" textLength="80" x="1086.5" y="725.0889">floorCodeA</text><rect fill="none" height="6" style="stroke:#C82930;stroke-width:1.0;" width="6" x="1074.5" y="735.0391"/><text fill="#000000" font-family="sans-serif" font-size="14" lengthAdjust="spacing" textLength="80" x="1086.5" y="741.3857">floorCodeB</text><rect fill="none" height="6" style="stroke:#C82930;stroke-width:1.0;" width="6" x="1074.5" y="751.3359"/><text fill="#000000" font-family="sans-serif" font-size="14" lengthAdjust="spacing" textLength="67" x="1086.5" y="757.6826">locationA</text><rect fill="none" height="6" style="stroke:#C82930;stroke-width:1.0;" width="6" x="1074.5" y="767.6328"/><text fill="#000000" font-family="sans-serif" font-size="14" lengthAdjust="spacing" textLength="67" x="1086.5" y="773.9795">locationB</text><line style="stroke:#181818;stroke-width:0.5;" x1="1067.5" x2="1214.5" y1="781.2813" y2="781.2813"/></g><!--class DataPassageway--><g id="elem_DataPassageway"><rect codeLine="73" fill="#F1F1F1" height="48" id="DataPassageway" rx="2.5" ry="2.5" style="stroke:#181818;stroke-width:0.5;" width="152" x="7" y="692.5"/><ellipse cx="22" cy="708.5" fill="#ADD1B2" rx="11" ry="11" style="stroke:#181818;stroke-width:1.0;"/><path d="M24.9844,714.1406 Q24.4063,714.4375 23.7656,714.5781 Q23.125,714.7344 22.4219,714.7344 Q19.9063,714.7344 18.5781,713.0938 Q17.2656,711.4375 17.2656,708.3125 Q17.2656,705.1719 18.5781,703.5313 Q19.9063,701.875 22.4219,701.875 Q23.125,701.875 23.7656,702.0313 Q24.4219,702.1719 24.9844,702.4688 L24.9844,705.1875 Q24.3438,704.6094 23.75,704.3438 Q23.1563,704.0781 22.5313,704.0781 Q21.1875,704.0781 20.5,705.1406 Q19.8125,706.2031 19.8125,708.3125 Q19.8125,710.4063 20.5,711.4844 Q21.1875,712.5469 22.5313,712.5469 Q23.1563,712.5469 23.75,712.2813 Q24.3438,712 24.9844,711.4219 L24.9844,714.1406 Z " fill="#000000"/><text fill="#000000" font-family="sans-serif" font-size="14" lengthAdjust="spacing" textLength="120" x="36" y="713.3467">DataPassageway</text><line style="stroke:#181818;stroke-width:0.5;" x1="8" x2="158" y1="724.5" y2="724.5"/><line style="stroke:#181818;stroke-width:0.5;" x1="8" x2="158" y1="732.5" y2="732.5"/></g><!--link PassagewayController to PassagewayMapper--><g id="link_PassagewayController_PassagewayMapper"><path codeLine="21" d="M962.56,251.99 C982.36,264.02 995.85,280.55 991,303 C976.68,369.3 970.85,389.43 928,442 C910.81,463.09 892.7935,478.4052 870.9635,493.5152 " fill="none" id="PassagewayController-to-PassagewayMapper" style="stroke:#181818;stroke-width:1.0;"/><polygon fill="#181818" points="866.03,496.93,875.7067,495.0968,870.1412,494.0843,871.1537,488.5188,866.03,496.93" style="stroke:#181818;stroke-width:1.0;"/><text fill="#000000" font-family="sans-serif" font-size="13" lengthAdjust="spacing" textLength="30" x="990" y="390.5814">uses</text></g><!--link PassagewayService to PassagewayMapper--><g id="link_PassagewayService_PassagewayMapper"><path codeLine="31" d="M775.08,418.34 C779.51,441.2 784.4193,466.4594 789.1793,491.0394 " fill="none" id="PassagewayService-to-PassagewayMapper" style="stroke:#181818;stroke-width:1.0;"/><polygon fill="#181818" points="790.32,496.93,792.536,487.3337,789.3694,492.0212,784.6819,488.8546,790.32,496.93" style="stroke:#181818;stroke-width:1.0;"/><text fill="#000000" font-family="sans-serif" font-size="13" lengthAdjust="spacing" textLength="30" x="785" y="463.0814">uses</text></g><!--link RoutePassageway to IPassagewayController--><g id="link_RoutePassageway_IPassagewayController"><path codeLine="77" d="M590.34,89.13 C598.8,115.82 610.9344,154.1013 620.3444,183.7413 " fill="none" id="RoutePassageway-to-IPassagewayController" style="stroke:#181818;stroke-width:1.0;stroke-dasharray:7.0,7.0;"/><polygon fill="#181818" points="622.16,189.46,623.2491,179.6715,620.647,184.6944,615.6242,182.0923,622.16,189.46" style="stroke:#181818;stroke-width:1.0;"/></g><!--link PassagewayController to IPassagewayController--><g id="link_PassagewayController_IPassagewayController"><path codeLine="78" d="M765.39,221.5 C753.85,221.5 760.32,221.5 748.78,221.5 " fill="none" id="PassagewayController-to-IPassagewayController" style="stroke:#181818;stroke-width:1.0;"/><polygon fill="none" points="730.78,221.5,748.78,227.5,748.78,215.5,730.78,221.5" style="stroke:#181818;stroke-width:1.0;"/></g><!--link PassagewayController to PassagewayService--><g id="link_PassagewayController_PassagewayService"><path codeLine="79" d="M836.01,270.38 C820.25,297.34 804.05,325.0613 790.23,348.6813 " fill="none" id="PassagewayController-to-PassagewayService" style="stroke:#181818;stroke-width:1.0;stroke-dasharray:7.0,7.0;"/><polygon fill="#181818" points="787.2,353.86,795.1975,348.112,789.725,349.5444,788.2926,344.0719,787.2,353.86" style="stroke:#181818;stroke-width:1.0;"/></g><!--link PassagewayService to Passageway--><g id="link_PassagewayService_Passageway"><path codeLine="80" d="M742.71,418.14 C726.41,439.11 706.46,468.12 695,497 C674.01,549.89 665.7425,608.6694 662.0925,653.9094 " fill="none" id="PassagewayService-to-Passageway" style="stroke:#181818;stroke-width:1.0;stroke-dasharray:7.0,7.0;"/><polygon fill="#181818" points="661.61,659.89,666.3208,651.2408,662.0121,654.9062,658.3467,650.5975,661.61,659.89" style="stroke:#181818;stroke-width:1.0;"/></g><!--link PassagewayService to IPassagewayRepo--><g id="link_PassagewayService_IPassagewayRepo"><path codeLine="81" d="M625.81,386 C614.08,386 608.35,386 596.62,386 " fill="none" id="PassagewayService-to-IPassagewayRepo" style="stroke:#181818;stroke-width:1.0;stroke-dasharray:7.0,7.0;"/><polygon fill="#181818" points="590.62,386,599.62,390,595.62,386,599.62,382,590.62,386" style="stroke:#181818;stroke-width:1.0;"/></g><!--reverse link PassagewayRepo to IPassagewayRepo--><g id="link_PassagewayRepo_IPassagewayRepo"><path codeLine="82" d="M441.257,259.0787 C457.197,287.8587 477.78,325.02 493.7,353.76 " fill="none" id="PassagewayRepo-backto-IPassagewayRepo" style="stroke:#181818;stroke-width:1.0;stroke-dasharray:7.0,7.0;"/><polygon fill="#181818" points="438.35,253.83,439.2114,263.6411,440.7725,258.2039,446.2097,259.7651,438.35,253.83" style="stroke:#181818;stroke-width:1.0;"/></g><!--reverse link dbDriver to PassagewayRepo--><g id="link_dbDriver_PassagewayRepo"><path codeLine="83" d="M421,95.13 C421,121.82 421,159.82 421,189.46 " fill="none" id="dbDriver-backto-PassagewayRepo" style="stroke:#181818;stroke-width:1.0;stroke-dasharray:7.0,7.0;"/><polygon fill="#181818" points="421,89.13,417,98.13,421,94.13,425,98.13,421,89.13" style="stroke:#181818;stroke-width:1.0;"/></g><!--link PassagewayMapper to PassagewayDTO--><g id="link_PassagewayMapper_PassagewayDTO"><path codeLine="85" d="M863.63,578 C886.68,590.04 913.26,601.95 939,609 C963.07,615.59 1028.54,606.13 1051,617 C1064.34,623.46 1072.2993,628.7077 1083.2393,639.1477 " fill="none" id="PassagewayMapper-to-PassagewayDTO" style="stroke:#181818;stroke-width:1.0;stroke-dasharray:7.0,7.0;"/><polygon fill="#181818" points="1087.58,643.29,1083.8305,634.1828,1083.9628,639.8381,1078.3075,639.9704,1087.58,643.29" style="stroke:#181818;stroke-width:1.0;"/></g><!--link PassagewayMapper to Passageway--><g id="link_PassagewayMapper_Passageway"><path codeLine="86" d="M773.4,578.32 C766.73,588.52 759.32,599.33 752,609 C739.11,626.03 728.1898,639.2635 714.1798,655.2835 " fill="none" id="PassagewayMapper-to-Passageway" style="stroke:#181818;stroke-width:1.0;stroke-dasharray:7.0,7.0;"/><polygon fill="#181818" points="710.23,659.8,719.1658,655.6585,713.5215,656.0362,713.1437,650.392,710.23,659.8" style="stroke:#181818;stroke-width:1.0;"/></g><!--link PassagewayMapper to DataPassageway--><g id="link_PassagewayMapper_DataPassageway"><path codeLine="87" d="M711.85,550.04 C603.62,564.42 412.18,589.48 248,609 C231.79,610.93 189.59,609.69 175,617 C141.11,633.98 116.6422,663.9473 100.7622,687.3173 " fill="none" id="PassagewayMapper-to-DataPassageway" style="stroke:#181818;stroke-width:1.0;stroke-dasharray:7.0,7.0;"/><polygon fill="#181818" points="97.39,692.28,105.7567,687.0841,100.2001,688.1444,99.1398,682.5878,97.39,692.28" style="stroke:#181818;stroke-width:1.0;"/></g><!--link dbDriver to DataPassageway--><g id="link_dbDriver_DataPassageway"><path codeLine="89" d="M373.84,79.63 C314.99,99.86 222,143.96 222,220.5 C222,220.5 222,220.5 222,538.5 C222,557.4 146.5812,644.37 107.8012,687.9 " fill="none" id="dbDriver-to-DataPassageway" style="stroke:#181818;stroke-width:1.0;stroke-dasharray:7.0,7.0;"/><polygon fill="#181818" points="103.81,692.38,112.7834,688.3207,107.136,688.6466,106.8101,682.9992,103.81,692.38" style="stroke:#181818;stroke-width:1.0;"/></g><!--link PassagewayRepo to Passageway--><g id="link_PassagewayRepo_Passageway"><path codeLine="90" d="M413.18,253.55 C403.73,297.23 391.89,378.58 416,442 C449.96,531.36 523.4095,606.2928 581.9395,656.0728 " fill="none" id="PassagewayRepo-to-Passageway" style="stroke:#181818;stroke-width:1.0;stroke-dasharray:7.0,7.0;"/><polygon fill="#181818" points="586.51,659.96,582.2457,651.0822,582.7013,656.7206,577.0628,657.1762,586.51,659.96" style="stroke:#181818;stroke-width:1.0;"/></g><!--link PassagewayRepo to PassagewayDTO--><g id="link_PassagewayRepo_PassagewayDTO"><path codeLine="91" d="M452.34,253.8 C469.6,268.89 492.29,285.53 516,294 C559.14,309.42 890.04,285.34 928,311 C980.9,346.76 958.2,385.01 987,442 C1022.15,511.55 1063.0504,583.551 1094.9904,638.151 " fill="none" id="PassagewayRepo-to-PassagewayDTO" style="stroke:#181818;stroke-width:1.0;stroke-dasharray:7.0,7.0;"/><polygon fill="#181818" points="1098.02,643.33,1096.9282,633.5418,1095.4953,639.0142,1090.023,637.5813,1098.02,643.33" style="stroke:#181818;stroke-width:1.0;"/></g><!--reverse link Passageway to BuildingCodeA--><g id="link_Passageway_BuildingCodeA"><path codeLine="93" d="M571.1921,756.7381 C505.6521,786.0281 419.87,824.36 354.54,853.56 " fill="none" id="Passageway-backto-BuildingCodeA" style="stroke:#181818;stroke-width:1.0;"/><polygon fill="#181818" points="576.67,754.29,566.8212,754.3102,572.1051,756.3301,570.0853,761.614,576.67,754.29" style="stroke:#181818;stroke-width:1.0;"/></g><!--reverse link Passageway to BuildingCodeB--><g id="link_Passageway_BuildingCodeB"><path codeLine="94" d="M594.0587,777.0861 C566.5787,802.2961 539.13,827.49 514.13,850.43 " fill="none" id="Passageway-backto-BuildingCodeB" style="stroke:#181818;stroke-width:1.0;"/><polygon fill="#181818" points="598.48,773.03,589.144,776.1666,594.7956,776.4101,594.5521,782.0617,598.48,773.03" style="stroke:#181818;stroke-width:1.0;"/></g><!--reverse link Passageway to FloorCodeA--><g id="link_Passageway_FloorCodeA"><path codeLine="95" d="M659,779.03 C659,804.24 659,827.49 659,850.43 " fill="none" id="Passageway-backto-FloorCodeA" style="stroke:#181818;stroke-width:1.0;"/><polygon fill="#181818" points="659,773.03,655,782.03,659,778.03,663,782.03,659,773.03" style="stroke:#181818;stroke-width:1.0;"/></g><!--reverse link Passageway to FloorCodeB--><g id="link_Passageway_FloorCodeB"><path codeLine="96" d="M720.2771,777.2175 C746.1471,802.4275 771.86,827.49 795.39,850.43 " fill="none" id="Passageway-backto-FloorCodeB" style="stroke:#181818;stroke-width:1.0;"/><polygon fill="#181818" points="715.98,773.03,719.634,782.1759,719.5609,776.5196,725.2173,776.4465,715.98,773.03" style="stroke:#181818;stroke-width:1.0;"/></g><!--reverse link Passageway to Location--><g id="link_Passageway_Location"><path codeLine="97" d="M746.5841,758.8468 C799.6541,784.4468 864.45,816.76 925,850.5 C930.7,853.68 936.62,857.12 942.45,860.6 " fill="none" id="Passageway-backto-Location" style="stroke:#181818;stroke-width:1.0;"/><polygon fill="#181818" points="741.18,756.24,747.5483,763.753,745.6834,758.4124,751.0241,756.5475,741.18,756.24" style="stroke:#181818;stroke-width:1.0;"/></g><!--SRC=[bLLTJy8m57tVhsXuafZXkp4a34EYaMXGVy1bkv9fNPjsG0Zot-tcLcwx3d0FotBFkQVtgtSIqYzO8HlC57pZLgWlpQ38sBtADwWqUu8TgW5Z-uYP9-MWDLk8TOalviiuRc77zWS2Pii_ryfwY2BPwZyK9QeFI95DCf2brTPMFBUCXwFuL1Ib4fnNWZMhUgvJXK13kFhKeXZME8tbZ4nyGgR6Dy3pp30UZTd7LbYWCjW2zTdJ5oW5FLV31XkwAL4moZWU4u4vI6cCjsojKPEYJgJaUGfbBWhsYcgJfwXltZMoAPXNQp4LTlftr6qO9siYxUVzspFDCjYlKAf4OcZJxWPnMSfpaI4Vz2L4XsI5PRBEUPONgwbncbmDUx74msPS21Loia3hGHlkd4QBiAI0exSC1DWdcVH99hsIeIYFkL6z3sizNOYWKX9KIYwlt9DeXfZeyCOswPeIEqL-_vkf-PE9Is56bjpEoW0bEFFOrJ0-hK2tSO72-xNpA-1bGh9epww2SlUfUVmjEyf6u_1cxDaWF_-Yr_ATIncufXunn51kfDLEYFmTCLexCZKdH6d_9tHFDbqUEGgcRUSeOTojVXJPFrW0z2Fiam-WLNo4mUxYsDqOfy341uyNinVf-BItB8f-0G00]--></g></svg>