<?xml version="1.0" encoding="us-ascii" standalone="no"?><svg xmlns="http://www.w3.org/2000/svg" xmlns:xlink="http://www.w3.org/1999/xlink" contentStyleType="text/css" height="248px" preserveAspectRatio="none" style="width:484px;height:248px;background:#FFFFFF;" version="1.1" viewBox="0 0 484 248" width="484px" zoomAndPan="magnify"><defs/><g><!--entity CampusManager--><g id="elem_CampusManager"><ellipse cx="242" cy="22" fill="#F1F1F1" rx="16" ry="16" style="stroke:#181818;stroke-width:1.5;"/><path d="M242,42 C246,42 249,42 253,38 C261,38 269,46 269,54 L269,58 C269,62 265,66 261,66 L223,66 C219,66 215,62 215,58 L215,54 C215,46 223,38 231,38 C235,42 238,42 242,42 " fill="#F1F1F1" style="stroke:#181818;stroke-width:1.5;"/><text fill="#000000" font-family="sans-serif" font-size="14" lengthAdjust="spacing" textLength="121" x="181.5" y="80.4951">CampusManager</text></g><g id="elem_Use"><ellipse cx="242.0883" cy="193.1177" fill="#F1F1F1" rx="236.0883" ry="49.6177" style="stroke:#181818;stroke-width:0.5;"/><text fill="#000000" font-family="sans-serif" font-size="14" lengthAdjust="spacing" textLength="443" x="18.5883" y="195.9643">List floors from a building with passageway to another building</text></g><!--link CampusManager to Use--><g id="link_CampusManager_Use"><path d="M242,83.62 C242,101.91 242,117.95 242,137.37 " fill="none" id="CampusManager-to-Use" style="stroke:#181818;stroke-width:1.0;"/><polygon fill="#181818" points="242,143.37,246,134.37,242,138.37,238,134.37,242,143.37" style="stroke:#181818;stroke-width:1.0;"/></g><!--SRC=[HSmn3eCm34RXFQVunTGEN82XIzTsgde0bng8ciIHRHHn-p8WiR_lsI-MIaePDBheoxV4eCOccSDmfrnNUrAXcNL0tzzmUHjVG-WUqHnJ4b73fB9xVDQOlh7CQD4NL3BRMQCDBg0Ylh2UJGUoO_O7]--></g></svg>