<?xml version="1.0" encoding="us-ascii" standalone="no"?><svg xmlns="http://www.w3.org/2000/svg" xmlns:xlink="http://www.w3.org/1999/xlink" contentStyleType="text/css" height="189px" preserveAspectRatio="none" style="width:188px;height:189px;background:#FFFFFF;" version="1.1" viewBox="0 0 188 189" width="188px" zoomAndPan="magnify"><defs/><g><!--entity Fleet Manager--><g id="elem_Fleet Manager"><ellipse cx="94.5" cy="22" fill="#F1F1F1" rx="16" ry="16" style="stroke:#181818;stroke-width:1.5;"/><path d="M94.5,42 C98.5,42 101.5,42 105.5,38 C113.5,38 121.5,46 121.5,54 L121.5,58 C121.5,62 117.5,66 113.5,66 L75.5,66 C71.5,66 67.5,62 67.5,58 L67.5,54 C67.5,46 75.5,38 83.5,38 C87.5,42 90.5,42 94.5,42 " fill="#F1F1F1" style="stroke:#181818;stroke-width:1.5;"/><text fill="#000000" font-family="sans-serif" font-size="14" lengthAdjust="spacing" textLength="102" x="43.5" y="80.4951">Fleet Manager</text></g><g id="elem_Use"><ellipse cx="94.3518" cy="163.5704" fill="#F1F1F1" rx="88.3518" ry="20.0704" style="stroke:#181818;stroke-width:0.5;"/><text fill="#000000" font-family="sans-serif" font-size="14" lengthAdjust="spacing" textLength="138" x="25.3518" y="166.417">Create a robot type</text></g><!--link Fleet Manager to Use--><g id="link_Fleet Manager_Use"><path d="M94.5,83.8 C94.5,103.72 94.5,121.11 94.5,137.19 " fill="none" id="Fleet Manager-to-Use" style="stroke:#181818;stroke-width:1.0;"/><polygon fill="#181818" points="94.5,143.19,98.5,134.19,94.5,138.19,90.5,134.19,94.5,143.19" style="stroke:#181818;stroke-width:1.0;"/></g><!--SRC=[AyxEp2j8B4hCLKXCBial2Ywfp4bLI2nFBSxFJUMoSij9JIrHy4tCIqnFBR9IqDMrKz08BKxLvE9ISYvAJIm1AbKeoa_ABr4egIn8LL98B8RA0m00]--></g></svg>