<?xml version="1.0" encoding="us-ascii" standalone="no"?><svg xmlns="http://www.w3.org/2000/svg" xmlns:xlink="http://www.w3.org/1999/xlink" contentStyleType="text/css" height="922px" preserveAspectRatio="none" style="width:1107px;height:922px;background:#FFFFFF;" version="1.1" viewBox="0 0 1107 922" width="1107px" zoomAndPan="magnify"><defs/><g><!--cluster Frameworks and Drivers Layer--><g id="cluster_Frameworks and Drivers Layer"><path d="M327,6 L547,6 A3.75,3.75 0 0 1 549.5,8.5 L556.5,28.4883 L609,28.4883 A2.5,2.5 0 0 1 611.5,30.9883 L611.5,102.5 A2.5,2.5 0 0 1 609,105 L327,105 A2.5,2.5 0 0 1 324.5,102.5 L324.5,8.5 A2.5,2.5 0 0 1 327,6 " fill="none" style="stroke:#000000;stroke-width:1.5;"/><line style="stroke:#000000;stroke-width:1.5;" x1="324.5" x2="556.5" y1="28.4883" y2="28.4883"/><text fill="#000000" font-family="sans-serif" font-size="14" font-weight="bold" lengthAdjust="spacing" textLength="219" x="328.5" y="21.5352">Frameworks and Drivers Layer</text></g><!--cluster Interface Adapters Layers--><g id="cluster_Interface Adapters Layers"><path d="M307,138 L491,138 A3.75,3.75 0 0 1 493.5,140.5 L500.5,160.4883 L860,160.4883 A2.5,2.5 0 0 1 862.5,162.9883 L862.5,283.5 A2.5,2.5 0 0 1 860,286 L307,286 A2.5,2.5 0 0 1 304.5,283.5 L304.5,140.5 A2.5,2.5 0 0 1 307,138 " fill="none" style="stroke:#000000;stroke-width:1.5;"/><line style="stroke:#000000;stroke-width:1.5;" x1="304.5" x2="500.5" y1="160.4883" y2="160.4883"/><text fill="#000000" font-family="sans-serif" font-size="14" font-weight="bold" lengthAdjust="spacing" textLength="183" x="308.5" y="153.5352">Interface Adapters Layers</text></g><!--cluster Application Services/Use Case Services--><g id="cluster_Application Services/Use Case Services"><path d="M402,319 L684,319 A3.75,3.75 0 0 1 686.5,321.5 L693.5,341.4883 L732,341.4883 A2.5,2.5 0 0 1 734.5,343.9883 L734.5,431.5 A2.5,2.5 0 0 1 732,434 L402,434 A2.5,2.5 0 0 1 399.5,431.5 L399.5,321.5 A2.5,2.5 0 0 1 402,319 " fill="none" style="stroke:#000000;stroke-width:1.5;"/><line style="stroke:#000000;stroke-width:1.5;" x1="399.5" x2="693.5" y1="341.4883" y2="341.4883"/><text fill="#000000" font-family="sans-serif" font-size="14" font-weight="bold" lengthAdjust="spacing" textLength="281" x="403.5" y="334.5352">Application Services/Use Case Services</text></g><!--cluster Model--><g id="cluster_Model"><path d="M145,625 L190,625 A3.75,3.75 0 0 1 192.5,627.5 L199.5,647.4883 L920,647.4883 A2.5,2.5 0 0 1 922.5,649.9883 L922.5,913 A2.5,2.5 0 0 1 920,915.5 L145,915.5 A2.5,2.5 0 0 1 142.5,913 L142.5,627.5 A2.5,2.5 0 0 1 145,625 " fill="none" style="stroke:#000000;stroke-width:1.5;"/><line style="stroke:#000000;stroke-width:1.5;" x1="142.5" x2="199.5" y1="647.4883" y2="647.4883"/><text fill="#000000" font-family="sans-serif" font-size="14" font-weight="bold" lengthAdjust="spacing" textLength="44" x="146.5" y="640.5352">Model</text></g><!--class RouteBuilding--><g id="elem_RouteBuilding"><rect codeLine="3" fill="#F1F1F1" height="48" id="RouteBuilding" rx="2.5" ry="2.5" style="stroke:#181818;stroke-width:0.5;" width="128" x="467.5" y="41"/><ellipse cx="482.5" cy="57" fill="#ADD1B2" rx="11" ry="11" style="stroke:#181818;stroke-width:1.0;"/><path d="M485.4731,62.6431 Q484.8921,62.9419 484.2529,63.0913 Q483.6138,63.2407 482.9082,63.2407 Q480.4014,63.2407 479.0815,61.5889 Q477.7617,59.937 477.7617,56.8159 Q477.7617,53.6865 479.0815,52.0347 Q480.4014,50.3828 482.9082,50.3828 Q483.6138,50.3828 484.2612,50.5322 Q484.9087,50.6816 485.4731,50.9805 L485.4731,53.7031 Q484.8423,53.1221 484.2488,52.8523 Q483.6553,52.5825 483.0244,52.5825 Q481.6797,52.5825 480.9949,53.6492 Q480.3101,54.7158 480.3101,56.8159 Q480.3101,58.9077 480.9949,59.9744 Q481.6797,61.041 483.0244,61.041 Q483.6553,61.041 484.2488,60.7712 Q484.8423,60.5015 485.4731,59.9204 Z " fill="#000000"/><text fill="#000000" font-family="sans-serif" font-size="14" lengthAdjust="spacing" textLength="96" x="496.5" y="62.291">RouteBuilding</text><line style="stroke:#181818;stroke-width:0.5;" x1="468.5" x2="594.5" y1="73" y2="73"/><line style="stroke:#181818;stroke-width:0.5;" x1="468.5" x2="594.5" y1="81" y2="81"/></g><!--class dbDriver--><g id="elem_dbDriver"><rect codeLine="4" fill="#F1F1F1" height="48" id="dbDriver" rx="2.5" ry="2.5" style="stroke:#181818;stroke-width:0.5;" width="91" x="341" y="41"/><ellipse cx="356" cy="57" fill="#ADD1B2" rx="11" ry="11" style="stroke:#181818;stroke-width:1.0;"/><path d="M358.9731,62.6431 Q358.3921,62.9419 357.7529,63.0913 Q357.1138,63.2407 356.4082,63.2407 Q353.9014,63.2407 352.5815,61.5889 Q351.2617,59.937 351.2617,56.8159 Q351.2617,53.6865 352.5815,52.0347 Q353.9014,50.3828 356.4082,50.3828 Q357.1138,50.3828 357.7612,50.5322 Q358.4087,50.6816 358.9731,50.9805 L358.9731,53.7031 Q358.3423,53.1221 357.7488,52.8523 Q357.1553,52.5825 356.5244,52.5825 Q355.1797,52.5825 354.4949,53.6492 Q353.8101,54.7158 353.8101,56.8159 Q353.8101,58.9077 354.4949,59.9744 Q355.1797,61.041 356.5244,61.041 Q357.1553,61.041 357.7488,60.7712 Q358.3423,60.5015 358.9731,59.9204 Z " fill="#000000"/><text fill="#000000" font-family="sans-serif" font-size="14" lengthAdjust="spacing" textLength="59" x="370" y="62.291">dbDriver</text><line style="stroke:#181818;stroke-width:0.5;" x1="342" x2="431" y1="73" y2="73"/><line style="stroke:#181818;stroke-width:0.5;" x1="342" x2="431" y1="81" y2="81"/></g><!--class IBuildingController--><g id="elem_IBuildingController"><rect codeLine="8" fill="#F1F1F1" height="64.4883" id="IBuildingController" rx="2.5" ry="2.5" style="stroke:#181818;stroke-width:0.5;" width="162" x="487.5" y="189.5"/><ellipse cx="502.5" cy="205.5" fill="#B4A7E5" rx="11" ry="11" style="stroke:#181818;stroke-width:1.0;"/><path d="M498.4277,201.2651 L498.4277,199.1069 L505.8071,199.1069 L505.8071,201.2651 L503.3418,201.2651 L503.3418,209.3418 L505.8071,209.3418 L505.8071,211.5 L498.4277,211.5 L498.4277,209.3418 L500.8931,209.3418 L500.8931,201.2651 Z " fill="#000000"/><text fill="#000000" font-family="sans-serif" font-size="14" font-style="italic" lengthAdjust="spacing" textLength="130" x="516.5" y="210.791">IBuildingController</text><line style="stroke:#181818;stroke-width:0.5;" x1="488.5" x2="648.5" y1="221.5" y2="221.5"/><line style="stroke:#181818;stroke-width:0.5;" x1="488.5" x2="648.5" y1="229.5" y2="229.5"/><ellipse cx="498.5" cy="243.2441" fill="#84BE84" rx="3" ry="3" style="stroke:#038048;stroke-width:1.0;"/><text fill="#000000" font-family="sans-serif" font-size="14" lengthAdjust="spacing" textLength="135" x="507.5" y="247.0352">getAllBuilding(json)</text></g><!--class BuildingController--><g id="elem_BuildingController"><rect codeLine="11" fill="#F1F1F1" height="97.4648" id="BuildingController" rx="2.5" ry="2.5" style="stroke:#181818;stroke-width:0.5;" width="161" x="685" y="173"/><ellipse cx="701.35" cy="189" fill="#ADD1B2" rx="11" ry="11" style="stroke:#181818;stroke-width:1.0;"/><path d="M704.3231,194.6431 Q703.7421,194.9419 703.1029,195.0913 Q702.4638,195.2407 701.7582,195.2407 Q699.2514,195.2407 697.9315,193.5889 Q696.6117,191.937 696.6117,188.8159 Q696.6117,185.6865 697.9315,184.0347 Q699.2514,182.3828 701.7582,182.3828 Q702.4638,182.3828 703.1112,182.5322 Q703.7587,182.6816 704.3231,182.9805 L704.3231,185.7031 Q703.6923,185.1221 703.0988,184.8523 Q702.5053,184.5825 701.8744,184.5825 Q700.5297,184.5825 699.8449,185.6492 Q699.1601,186.7158 699.1601,188.8159 Q699.1601,190.9077 699.8449,191.9744 Q700.5297,193.041 701.8744,193.041 Q702.5053,193.041 703.0988,192.7712 Q703.6923,192.5015 704.3231,191.9204 Z " fill="#000000"/><text fill="#000000" font-family="sans-serif" font-size="14" lengthAdjust="spacing" textLength="126" x="715.65" y="194.291">BuildingController</text><line style="stroke:#181818;stroke-width:0.5;" x1="686" x2="845" y1="205" y2="205"/><line style="stroke:#181818;stroke-width:0.5;" x1="686" x2="845" y1="213" y2="213"/><rect fill="#F24D5C" height="6" style="stroke:#C82930;stroke-width:1.0;" width="6" x="693" y="223.7441"/><text fill="#000000" font-family="sans-serif" font-size="14" lengthAdjust="spacing" textLength="135" x="705" y="230.5352">getAllBuilding(json)</text><rect fill="#F24D5C" height="6" style="stroke:#C82930;stroke-width:1.0;" width="6" x="693" y="240.2324"/><text fill="#000000" font-family="sans-serif" font-size="14" lengthAdjust="spacing" textLength="121" x="705" y="247.0234">validateJson(json)</text><rect fill="#F24D5C" height="6" style="stroke:#C82930;stroke-width:1.0;" width="6" x="693" y="256.7207"/><text fill="#000000" font-family="sans-serif" font-size="14" lengthAdjust="spacing" textLength="124" x="705" y="263.5117">generateRes(json)</text></g><!--class BuildingRepo--><g id="elem_BuildingRepo"><rect codeLine="16" fill="#F1F1F1" height="64.4883" id="BuildingRepo" rx="2.5" ry="2.5" style="stroke:#181818;stroke-width:0.5;" width="132" x="320.5" y="189.5"/><ellipse cx="339.55" cy="205.5" fill="#ADD1B2" rx="11" ry="11" style="stroke:#181818;stroke-width:1.0;"/><path d="M342.5231,211.1431 Q341.9421,211.4419 341.3029,211.5913 Q340.6638,211.7407 339.9582,211.7407 Q337.4514,211.7407 336.1315,210.0889 Q334.8117,208.437 334.8117,205.3159 Q334.8117,202.1865 336.1315,200.5347 Q337.4514,198.8828 339.9582,198.8828 Q340.6638,198.8828 341.3112,199.0322 Q341.9587,199.1816 342.5231,199.4805 L342.5231,202.2031 Q341.8923,201.6221 341.2988,201.3523 Q340.7053,201.0825 340.0744,201.0825 Q338.7297,201.0825 338.0449,202.1492 Q337.3601,203.2158 337.3601,205.3159 Q337.3601,207.4077 338.0449,208.4744 Q338.7297,209.541 340.0744,209.541 Q340.7053,209.541 341.2988,209.2712 Q341.8923,209.0015 342.5231,208.4204 Z " fill="#000000"/><text fill="#000000" font-family="sans-serif" font-size="14" lengthAdjust="spacing" textLength="91" x="354.45" y="210.791">BuildingRepo</text><line style="stroke:#181818;stroke-width:0.5;" x1="321.5" x2="451.5" y1="221.5" y2="221.5"/><line style="stroke:#181818;stroke-width:0.5;" x1="321.5" x2="451.5" y1="229.5" y2="229.5"/><rect fill="#F24D5C" height="6" style="stroke:#C82930;stroke-width:1.0;" width="6" x="328.5" y="240.2441"/><text fill="#000000" font-family="sans-serif" font-size="14" lengthAdjust="spacing" textLength="106" x="340.5" y="247.0352">getAllBuilding()</text></g><!--class BuildingService--><g id="elem_BuildingService"><rect codeLine="24" fill="#F1F1F1" height="64.4883" id="BuildingService" rx="2.5" ry="2.5" style="stroke:#181818;stroke-width:0.5;" width="136" x="582.5" y="354"/><ellipse cx="597.5" cy="370" fill="#ADD1B2" rx="11" ry="11" style="stroke:#181818;stroke-width:1.0;"/><path d="M600.4731,375.6431 Q599.8921,375.9419 599.2529,376.0913 Q598.6138,376.2407 597.9082,376.2407 Q595.4014,376.2407 594.0815,374.5889 Q592.7617,372.937 592.7617,369.8159 Q592.7617,366.6865 594.0815,365.0347 Q595.4014,363.3828 597.9082,363.3828 Q598.6138,363.3828 599.2612,363.5322 Q599.9087,363.6816 600.4731,363.9805 L600.4731,366.7031 Q599.8423,366.1221 599.2488,365.8523 Q598.6553,365.5825 598.0244,365.5825 Q596.6797,365.5825 595.9949,366.6492 Q595.3101,367.7158 595.3101,369.8159 Q595.3101,371.9077 595.9949,372.9744 Q596.6797,374.041 598.0244,374.041 Q598.6553,374.041 599.2488,373.7712 Q599.8423,373.5015 600.4731,372.9204 Z " fill="#000000"/><text fill="#000000" font-family="sans-serif" font-size="14" lengthAdjust="spacing" textLength="104" x="611.5" y="375.291">BuildingService</text><line style="stroke:#181818;stroke-width:0.5;" x1="583.5" x2="717.5" y1="386" y2="386"/><line style="stroke:#181818;stroke-width:0.5;" x1="583.5" x2="717.5" y1="394" y2="394"/><rect fill="#F24D5C" height="6" style="stroke:#C82930;stroke-width:1.0;" width="6" x="590.5" y="404.7441"/><text fill="#000000" font-family="sans-serif" font-size="14" lengthAdjust="spacing" textLength="106" x="602.5" y="411.5352">getAllBuilding()</text></g><!--class IBuildingRepo--><g id="elem_IBuildingRepo"><rect codeLine="27" fill="#F1F1F1" height="64.4883" id="IBuildingRepo" rx="2.5" ry="2.5" style="stroke:#181818;stroke-width:0.5;" width="132" x="415.5" y="354"/><ellipse cx="432.75" cy="370" fill="#B4A7E5" rx="11" ry="11" style="stroke:#181818;stroke-width:1.0;"/><path d="M428.6777,365.7651 L428.6777,363.6069 L436.0571,363.6069 L436.0571,365.7651 L433.5918,365.7651 L433.5918,373.8418 L436.0571,373.8418 L436.0571,376 L428.6777,376 L428.6777,373.8418 L431.1431,373.8418 L431.1431,365.7651 Z " fill="#000000"/><text fill="#000000" font-family="sans-serif" font-size="14" font-style="italic" lengthAdjust="spacing" textLength="95" x="447.25" y="375.291">IBuildingRepo</text><line style="stroke:#181818;stroke-width:0.5;" x1="416.5" x2="546.5" y1="386" y2="386"/><line style="stroke:#181818;stroke-width:0.5;" x1="416.5" x2="546.5" y1="394" y2="394"/><rect fill="#F24D5C" height="6" style="stroke:#C82930;stroke-width:1.0;" width="6" x="423.5" y="404.7441"/><text fill="#000000" font-family="sans-serif" font-size="14" lengthAdjust="spacing" textLength="106" x="435.5" y="411.5352">getAllBuilding()</text></g><!--class Building--><g id="elem_Building"><rect codeLine="34" fill="#F1F1F1" height="80.9766" id="Building" rx="2.5" ry="2.5" style="stroke:#181818;stroke-width:0.5;" width="154" x="449.5" y="660"/><ellipse cx="494.25" cy="676" fill="#ADD1B2" rx="11" ry="11" style="stroke:#181818;stroke-width:1.0;"/><path d="M497.2231,681.6431 Q496.6421,681.9419 496.0029,682.0913 Q495.3638,682.2407 494.6582,682.2407 Q492.1514,682.2407 490.8315,680.5889 Q489.5117,678.937 489.5117,675.8159 Q489.5117,672.6865 490.8315,671.0347 Q492.1514,669.3828 494.6582,669.3828 Q495.3638,669.3828 496.0112,669.5322 Q496.6587,669.6816 497.2231,669.9805 L497.2231,672.7031 Q496.5923,672.1221 495.9988,671.8523 Q495.4053,671.5825 494.7744,671.5825 Q493.4297,671.5825 492.7449,672.6492 Q492.0601,673.7158 492.0601,675.8159 Q492.0601,677.9077 492.7449,678.9744 Q493.4297,680.041 494.7744,680.041 Q495.4053,680.041 495.9988,679.7712 Q496.5923,679.5015 497.2231,678.9204 Z " fill="#000000"/><text fill="#000000" font-family="sans-serif" font-size="14" lengthAdjust="spacing" textLength="56" x="514.75" y="681.291">Building</text><line style="stroke:#181818;stroke-width:0.5;" x1="450.5" x2="602.5" y1="692" y2="692"/><line style="stroke:#181818;stroke-width:0.5;" x1="450.5" x2="602.5" y1="700" y2="700"/><ellipse cx="460.5" cy="713.7441" fill="#84BE84" rx="3" ry="3" style="stroke:#038048;stroke-width:1.0;"/><text fill="#000000" font-family="sans-serif" font-size="14" lengthAdjust="spacing" textLength="125" x="469.5" y="717.5352">getbuildingCode()</text><ellipse cx="460.5" cy="730.2324" fill="#84BE84" rx="3" ry="3" style="stroke:#038048;stroke-width:1.0;"/><text fill="#000000" font-family="sans-serif" font-size="14" lengthAdjust="spacing" textLength="128" x="469.5" y="734.0234">getbuildingName()</text></g><!--class BuildingCode--><g id="elem_BuildingCode"><rect codeLine="38" fill="#F1F1F1" height="80.9766" id="BuildingCode" rx="2.5" ry="2.5" style="stroke:#181818;stroke-width:0.5;" width="151" x="159" y="818.5"/><ellipse cx="186.15" cy="834.5" fill="#ADD1B2" rx="11" ry="11" style="stroke:#181818;stroke-width:1.0;"/><path d="M189.1231,840.1431 Q188.5421,840.4419 187.9029,840.5913 Q187.2638,840.7407 186.5582,840.7407 Q184.0514,840.7407 182.7315,839.0889 Q181.4117,837.437 181.4117,834.3159 Q181.4117,831.1865 182.7315,829.5347 Q184.0514,827.8828 186.5582,827.8828 Q187.2638,827.8828 187.9112,828.0322 Q188.5587,828.1816 189.1231,828.4805 L189.1231,831.2031 Q188.4923,830.6221 187.8988,830.3523 Q187.3053,830.0825 186.6744,830.0825 Q185.3297,830.0825 184.6449,831.1492 Q183.9601,832.2158 183.9601,834.3159 Q183.9601,836.4077 184.6449,837.4744 Q185.3297,838.541 186.6744,838.541 Q187.3053,838.541 187.8988,838.2712 Q188.4923,838.0015 189.1231,837.4204 Z " fill="#000000"/><text fill="#000000" font-family="sans-serif" font-size="14" lengthAdjust="spacing" textLength="92" x="202.85" y="839.791">BuildingCode</text><line style="stroke:#181818;stroke-width:0.5;" x1="160" x2="309" y1="850.5" y2="850.5"/><rect fill="none" height="6" style="stroke:#C82930;stroke-width:1.0;" width="6" x="167" y="861.2441"/><text fill="#000000" font-family="sans-serif" font-size="14" lengthAdjust="spacing" textLength="93" x="179" y="868.0352">buildingCode</text><line style="stroke:#181818;stroke-width:0.5;" x1="160" x2="309" y1="874.9883" y2="874.9883"/><ellipse cx="170" cy="888.7324" fill="#84BE84" rx="3" ry="3" style="stroke:#038048;stroke-width:1.0;"/><text fill="#000000" font-family="sans-serif" font-size="14" lengthAdjust="spacing" textLength="125" x="179" y="892.5234">getbuildingCode()</text></g><!--class BuildingName--><g id="elem_BuildingName"><rect codeLine="42" fill="#F1F1F1" height="80.9766" id="BuildingName" rx="2.5" ry="2.5" style="stroke:#181818;stroke-width:0.5;" width="154" x="345.5" y="818.5"/><ellipse cx="372.65" cy="834.5" fill="#ADD1B2" rx="11" ry="11" style="stroke:#181818;stroke-width:1.0;"/><path d="M375.6231,840.1431 Q375.0421,840.4419 374.4029,840.5913 Q373.7638,840.7407 373.0582,840.7407 Q370.5514,840.7407 369.2315,839.0889 Q367.9117,837.437 367.9117,834.3159 Q367.9117,831.1865 369.2315,829.5347 Q370.5514,827.8828 373.0582,827.8828 Q373.7638,827.8828 374.4112,828.0322 Q375.0587,828.1816 375.6231,828.4805 L375.6231,831.2031 Q374.9923,830.6221 374.3988,830.3523 Q373.8053,830.0825 373.1744,830.0825 Q371.8297,830.0825 371.1449,831.1492 Q370.4601,832.2158 370.4601,834.3159 Q370.4601,836.4077 371.1449,837.4744 Q371.8297,838.541 373.1744,838.541 Q373.8053,838.541 374.3988,838.2712 Q374.9923,838.0015 375.6231,837.4204 Z " fill="#000000"/><text fill="#000000" font-family="sans-serif" font-size="14" lengthAdjust="spacing" textLength="95" x="389.35" y="839.791">BuildingName</text><line style="stroke:#181818;stroke-width:0.5;" x1="346.5" x2="498.5" y1="850.5" y2="850.5"/><rect fill="none" height="6" style="stroke:#C82930;stroke-width:1.0;" width="6" x="353.5" y="861.2441"/><text fill="#000000" font-family="sans-serif" font-size="14" lengthAdjust="spacing" textLength="96" x="365.5" y="868.0352">buildingName</text><line style="stroke:#181818;stroke-width:0.5;" x1="346.5" x2="498.5" y1="874.9883" y2="874.9883"/><ellipse cx="356.5" cy="888.7324" fill="#84BE84" rx="3" ry="3" style="stroke:#038048;stroke-width:1.0;"/><text fill="#000000" font-family="sans-serif" font-size="14" lengthAdjust="spacing" textLength="128" x="365.5" y="892.5234">getbuildingName()</text></g><!--class BuildingDescription--><g id="elem_BuildingDescription"><rect codeLine="46" fill="#F1F1F1" height="80.9766" id="BuildingDescription" rx="2.5" ry="2.5" style="stroke:#181818;stroke-width:0.5;" width="193" x="535" y="818.5"/><ellipse cx="562.15" cy="834.5" fill="#ADD1B2" rx="11" ry="11" style="stroke:#181818;stroke-width:1.0;"/><path d="M565.1231,840.1431 Q564.5421,840.4419 563.9029,840.5913 Q563.2638,840.7407 562.5582,840.7407 Q560.0514,840.7407 558.7315,839.0889 Q557.4117,837.437 557.4117,834.3159 Q557.4117,831.1865 558.7315,829.5347 Q560.0514,827.8828 562.5582,827.8828 Q563.2638,827.8828 563.9112,828.0322 Q564.5587,828.1816 565.1231,828.4805 L565.1231,831.2031 Q564.4923,830.6221 563.8988,830.3523 Q563.3053,830.0825 562.6744,830.0825 Q561.3297,830.0825 560.6449,831.1492 Q559.9601,832.2158 559.9601,834.3159 Q559.9601,836.4077 560.6449,837.4744 Q561.3297,838.541 562.6744,838.541 Q563.3053,838.541 563.8988,838.2712 Q564.4923,838.0015 565.1231,837.4204 Z " fill="#000000"/><text fill="#000000" font-family="sans-serif" font-size="14" lengthAdjust="spacing" textLength="134" x="578.85" y="839.791">BuildingDescription</text><line style="stroke:#181818;stroke-width:0.5;" x1="536" x2="727" y1="850.5" y2="850.5"/><rect fill="none" height="6" style="stroke:#C82930;stroke-width:1.0;" width="6" x="543" y="861.2441"/><text fill="#000000" font-family="sans-serif" font-size="14" lengthAdjust="spacing" textLength="135" x="555" y="868.0352">buildingDescription</text><line style="stroke:#181818;stroke-width:0.5;" x1="536" x2="727" y1="874.9883" y2="874.9883"/><ellipse cx="546" cy="888.7324" fill="#84BE84" rx="3" ry="3" style="stroke:#038048;stroke-width:1.0;"/><text fill="#000000" font-family="sans-serif" font-size="14" lengthAdjust="spacing" textLength="167" x="555" y="892.5234">getbuildingDescription()</text></g><!--class BuildingSize--><g id="elem_BuildingSize"><rect codeLine="50" fill="#F1F1F1" height="80.9766" id="BuildingSize" rx="2.5" ry="2.5" style="stroke:#181818;stroke-width:0.5;" width="143" x="763" y="818.5"/><ellipse cx="790.15" cy="834.5" fill="#ADD1B2" rx="11" ry="11" style="stroke:#181818;stroke-width:1.0;"/><path d="M793.1231,840.1431 Q792.5421,840.4419 791.9029,840.5913 Q791.2638,840.7407 790.5582,840.7407 Q788.0514,840.7407 786.7315,839.0889 Q785.4117,837.437 785.4117,834.3159 Q785.4117,831.1865 786.7315,829.5347 Q788.0514,827.8828 790.5582,827.8828 Q791.2638,827.8828 791.9112,828.0322 Q792.5587,828.1816 793.1231,828.4805 L793.1231,831.2031 Q792.4923,830.6221 791.8988,830.3523 Q791.3053,830.0825 790.6744,830.0825 Q789.3297,830.0825 788.6449,831.1492 Q787.9601,832.2158 787.9601,834.3159 Q787.9601,836.4077 788.6449,837.4744 Q789.3297,838.541 790.6744,838.541 Q791.3053,838.541 791.8988,838.2712 Q792.4923,838.0015 793.1231,837.4204 Z " fill="#000000"/><text fill="#000000" font-family="sans-serif" font-size="14" lengthAdjust="spacing" textLength="84" x="806.85" y="839.791">BuildingSize</text><line style="stroke:#181818;stroke-width:0.5;" x1="764" x2="905" y1="850.5" y2="850.5"/><rect fill="none" height="6" style="stroke:#C82930;stroke-width:1.0;" width="6" x="771" y="861.2441"/><text fill="#000000" font-family="sans-serif" font-size="14" lengthAdjust="spacing" textLength="85" x="783" y="868.0352">buildingSize</text><line style="stroke:#181818;stroke-width:0.5;" x1="764" x2="905" y1="874.9883" y2="874.9883"/><ellipse cx="774" cy="888.7324" fill="#84BE84" rx="3" ry="3" style="stroke:#038048;stroke-width:1.0;"/><text fill="#000000" font-family="sans-serif" font-size="14" lengthAdjust="spacing" textLength="117" x="783" y="892.5234">getbuildingSize()</text></g><!--class BuildingMapper--><g id="elem_BuildingMapper"><rect codeLine="55" fill="#F1F1F1" height="80.9766" id="BuildingMapper" rx="2.5" ry="2.5" style="stroke:#181818;stroke-width:0.5;" width="140" x="579.5" y="497"/><ellipse cx="594.5" cy="513" fill="#ADD1B2" rx="11" ry="11" style="stroke:#181818;stroke-width:1.0;"/><path d="M597.4731,518.6431 Q596.8921,518.9419 596.2529,519.0913 Q595.6138,519.2407 594.9082,519.2407 Q592.4014,519.2407 591.0815,517.5889 Q589.7617,515.937 589.7617,512.8159 Q589.7617,509.6865 591.0815,508.0347 Q592.4014,506.3828 594.9082,506.3828 Q595.6138,506.3828 596.2612,506.5322 Q596.9087,506.6816 597.4731,506.9805 L597.4731,509.7031 Q596.8423,509.1221 596.2488,508.8523 Q595.6553,508.5825 595.0244,508.5825 Q593.6797,508.5825 592.9949,509.6492 Q592.3101,510.7158 592.3101,512.8159 Q592.3101,514.9077 592.9949,515.9744 Q593.6797,517.041 595.0244,517.041 Q595.6553,517.041 596.2488,516.7712 Q596.8423,516.5015 597.4731,515.9204 Z " fill="#000000"/><text fill="#000000" font-family="sans-serif" font-size="14" lengthAdjust="spacing" textLength="108" x="608.5" y="518.291">BuildingMapper</text><line style="stroke:#181818;stroke-width:0.5;" x1="580.5" x2="718.5" y1="529" y2="529"/><line style="stroke:#181818;stroke-width:0.5;" x1="580.5" x2="718.5" y1="537" y2="537"/><rect fill="#F24D5C" height="6" style="stroke:#C82930;stroke-width:1.0;" width="6" x="587.5" y="547.7441"/><text fill="#000000" font-family="sans-serif" font-size="14" lengthAdjust="spacing" textLength="83" x="599.5" y="554.5352">toDTO(json)</text><rect fill="#F24D5C" height="6" style="stroke:#C82930;stroke-width:1.0;" width="6" x="587.5" y="564.2324"/><text fill="#000000" font-family="sans-serif" font-size="14" lengthAdjust="spacing" textLength="112" x="599.5" y="571.0234">toData(building)</text></g><!--class BuildingDTO--><g id="elem_BuildingDTO"><rect codeLine="59" fill="#F1F1F1" height="113.9531" id="BuildingDTO" rx="2.5" ry="2.5" style="stroke:#181818;stroke-width:0.5;" width="161" x="939" y="643.5"/><ellipse cx="973.35" cy="659.5" fill="#ADD1B2" rx="11" ry="11" style="stroke:#181818;stroke-width:1.0;"/><path d="M976.3231,665.1431 Q975.7421,665.4419 975.1029,665.5913 Q974.4638,665.7407 973.7582,665.7407 Q971.2514,665.7407 969.9315,664.0889 Q968.6117,662.437 968.6117,659.3159 Q968.6117,656.1865 969.9315,654.5347 Q971.2514,652.8828 973.7582,652.8828 Q974.4638,652.8828 975.1112,653.0322 Q975.7587,653.1816 976.3231,653.4805 L976.3231,656.2031 Q975.6923,655.6221 975.0988,655.3523 Q974.5053,655.0825 973.8744,655.0825 Q972.5297,655.0825 971.8449,656.1492 Q971.1601,657.2158 971.1601,659.3159 Q971.1601,661.4077 971.8449,662.4744 Q972.5297,663.541 973.8744,663.541 Q974.5053,663.541 975.0988,663.2712 Q975.6923,663.0015 976.3231,662.4204 Z " fill="#000000"/><text fill="#000000" font-family="sans-serif" font-size="14" lengthAdjust="spacing" textLength="86" x="991.65" y="664.791">BuildingDTO</text><line style="stroke:#181818;stroke-width:0.5;" x1="940" x2="1099" y1="675.5" y2="675.5"/><rect fill="none" height="6" style="stroke:#C82930;stroke-width:1.0;" width="6" x="947" y="686.2441"/><text fill="#000000" font-family="sans-serif" font-size="14" lengthAdjust="spacing" textLength="93" x="959" y="693.0352">buildingCode</text><rect fill="none" height="6" style="stroke:#C82930;stroke-width:1.0;" width="6" x="947" y="702.7324"/><text fill="#000000" font-family="sans-serif" font-size="14" lengthAdjust="spacing" textLength="96" x="959" y="709.5234">buildingName</text><rect fill="none" height="6" style="stroke:#C82930;stroke-width:1.0;" width="6" x="947" y="719.2207"/><text fill="#000000" font-family="sans-serif" font-size="14" lengthAdjust="spacing" textLength="135" x="959" y="726.0117">buildingDescription</text><rect fill="none" height="6" style="stroke:#C82930;stroke-width:1.0;" width="6" x="947" y="735.709"/><text fill="#000000" font-family="sans-serif" font-size="14" lengthAdjust="spacing" textLength="85" x="959" y="742.5">buildingSize</text><line style="stroke:#181818;stroke-width:0.5;" x1="940" x2="1099" y1="749.4531" y2="749.4531"/></g><!--class DataBuilding--><g id="elem_DataBuilding"><rect codeLine="65" fill="#F1F1F1" height="48" id="DataBuilding" rx="2.5" ry="2.5" style="stroke:#181818;stroke-width:0.5;" width="119" x="7" y="676.5"/><ellipse cx="22" cy="692.5" fill="#ADD1B2" rx="11" ry="11" style="stroke:#181818;stroke-width:1.0;"/><path d="M24.9731,698.1431 Q24.3921,698.4419 23.7529,698.5913 Q23.1138,698.7407 22.4082,698.7407 Q19.9014,698.7407 18.5815,697.0889 Q17.2617,695.437 17.2617,692.3159 Q17.2617,689.1865 18.5815,687.5347 Q19.9014,685.8828 22.4082,685.8828 Q23.1138,685.8828 23.7612,686.0322 Q24.4087,686.1816 24.9731,686.4805 L24.9731,689.2031 Q24.3423,688.6221 23.7488,688.3523 Q23.1553,688.0825 22.5244,688.0825 Q21.1797,688.0825 20.4949,689.1492 Q19.8101,690.2158 19.8101,692.3159 Q19.8101,694.4077 20.4949,695.4744 Q21.1797,696.541 22.5244,696.541 Q23.1553,696.541 23.7488,696.2712 Q24.3423,696.0015 24.9731,695.4204 Z " fill="#000000"/><text fill="#000000" font-family="sans-serif" font-size="14" lengthAdjust="spacing" textLength="87" x="36" y="697.791">DataBuilding</text><line style="stroke:#181818;stroke-width:0.5;" x1="8" x2="125" y1="708.5" y2="708.5"/><line style="stroke:#181818;stroke-width:0.5;" x1="8" x2="125" y1="716.5" y2="716.5"/></g><!--link BuildingController to BuildingMapper--><g id="link_BuildingController_BuildingMapper"><path codeLine="21" d="M795.45,270.154 C799.145,280.749 800.893,292.082 798.5,303 C783.94,369.435 771.886,385.186 734.5,442 C721.763,461.355 709.2818,476.3567 694.1448,492.4797 " fill="none" id="BuildingController-to-BuildingMapper" style="stroke:#181818;stroke-width:1.0;"/><polygon fill="#181818" points="690.038,496.854,699.1144,493.0304,693.4603,493.2088,693.282,487.5547,690.038,496.854" style="stroke:#181818;stroke-width:1.0;"/><text fill="#000000" font-family="sans-serif" font-size="13" lengthAdjust="spacing" textLength="29" x="797.5" y="391.0684">uses</text></g><!--link BuildingService to BuildingMapper--><g id="link_BuildingService_BuildingMapper"><path codeLine="31" d="M650.29,418.34 C650.137,441.201 649.969,466.3521 649.805,490.9291 " fill="none" id="BuildingService-to-BuildingMapper" style="stroke:#181818;stroke-width:1.0;"/><polygon fill="#181818" points="649.765,496.929,653.825,487.9559,649.7984,491.9291,645.8251,487.9025,649.765,496.929" style="stroke:#181818;stroke-width:1.0;"/><text fill="#000000" font-family="sans-serif" font-size="13" lengthAdjust="spacing" textLength="29" x="650.5" y="463.5684">uses</text></g><!--link RouteBuilding to IBuildingController--><g id="link_RouteBuilding_IBuildingController"><path codeLine="69" d="M537.039,89.13 C543.43,115.815 552.5695,153.98 559.6695,183.625 " fill="none" id="RouteBuilding-to-IBuildingController" style="stroke:#181818;stroke-width:1.0;stroke-dasharray:7.0,7.0;"/><polygon fill="#181818" points="561.067,189.46,562.8608,179.7759,559.9024,184.5975,555.0808,181.6392,561.067,189.46" style="stroke:#181818;stroke-width:1.0;"/></g><!--link BuildingController to IBuildingController--><g id="link_BuildingController_IBuildingController"><path codeLine="70" d="M684.973,221.5 C673.21,221.5 679.448,221.5 667.686,221.5 " fill="none" id="BuildingController-to-IBuildingController" style="stroke:#181818;stroke-width:1.0;"/><polygon fill="none" points="649.686,221.5,667.686,227.5,667.686,215.5,649.686,221.5" style="stroke:#181818;stroke-width:1.0;"/></g><!--link BuildingController to BuildingService--><g id="link_BuildingController_BuildingService"><path codeLine="71" d="M731.618,270.376 C712.537,297.339 692.722,325.3384 676.003,348.9634 " fill="none" id="BuildingController-to-BuildingService" style="stroke:#181818;stroke-width:1.0;stroke-dasharray:7.0,7.0;"/><polygon fill="#181818" points="672.537,353.861,681.0011,348.8252,675.4253,349.7796,674.4709,344.2039,672.537,353.861" style="stroke:#181818;stroke-width:1.0;"/></g><!--link BuildingService to Building--><g id="link_BuildingService_Building"><path codeLine="72" d="M618.372,418.26 C599.15,438.838 575.922,467.371 562.5,497 C538.484,550.017 530.8346,611.628 528.1716,653.746 " fill="none" id="BuildingService-to-Building" style="stroke:#181818;stroke-width:1.0;stroke-dasharray:7.0,7.0;"/><polygon fill="#181818" points="527.793,659.734,532.3529,651.0043,528.1085,654.744,524.3689,650.4995,527.793,659.734" style="stroke:#181818;stroke-width:1.0;"/></g><!--link BuildingService to IBuildingRepo--><g id="link_BuildingService_IBuildingRepo"><path codeLine="73" d="M582.112,386 C570.58,386 565.048,386 553.516,386 " fill="none" id="BuildingService-to-IBuildingRepo" style="stroke:#181818;stroke-width:1.0;stroke-dasharray:7.0,7.0;"/><polygon fill="#181818" points="547.516,386,556.516,390,552.516,386,556.516,382,547.516,386" style="stroke:#181818;stroke-width:1.0;"/></g><!--reverse link BuildingRepo to IBuildingRepo--><g id="link_BuildingRepo_IBuildingRepo"><path codeLine="74" d="M407.8451,259.0118 C424.6671,287.7868 446.435,325.02 463.239,353.765 " fill="none" id="BuildingRepo-backto-IBuildingRepo" style="stroke:#181818;stroke-width:1.0;stroke-dasharray:7.0,7.0;"/><polygon fill="#181818" points="404.817,253.832,405.906,263.6205,407.3404,258.1485,412.8124,259.5829,404.817,253.832" style="stroke:#181818;stroke-width:1.0;"/></g><!--reverse link dbDriver to BuildingRepo--><g id="link_dbDriver_BuildingRepo"><path codeLine="75" d="M386.5,95.13 C386.5,121.815 386.5,159.815 386.5,189.46 " fill="none" id="dbDriver-backto-BuildingRepo" style="stroke:#181818;stroke-width:1.0;stroke-dasharray:7.0,7.0;"/><polygon fill="#181818" points="386.5,89.13,382.5,98.13,386.5,94.13,390.5,98.13,386.5,89.13" style="stroke:#181818;stroke-width:1.0;"/></g><!--link BuildingMapper to BuildingDTO--><g id="link_BuildingMapper_BuildingDTO"><path codeLine="77" d="M692.735,578.207 C708.518,590.342 727.245,602.255 746.5,609 C783.45,621.944 886.071,602.656 922.5,617 C938.031,623.115 948.1682,629.0316 961.3272,639.6476 " fill="none" id="BuildingMapper-to-BuildingDTO" style="stroke:#181818;stroke-width:1.0;stroke-dasharray:7.0,7.0;"/><polygon fill="#181818" points="965.997,643.415,961.5039,634.6508,962.1055,640.2755,956.4807,640.8772,965.997,643.415" style="stroke:#181818;stroke-width:1.0;"/></g><!--link BuildingMapper to Building--><g id="link_BuildingMapper_Building"><path codeLine="78" d="M631.842,578.108 C626.522,588.517 620.277,599.485 613.5,609 C600.73,626.929 588.7245,640.5432 573.7455,655.6082 " fill="none" id="BuildingMapper-to-Building" style="stroke:#181818;stroke-width:1.0;stroke-dasharray:7.0,7.0;"/><polygon fill="#181818" points="569.515,659.863,578.6972,656.3012,573.0404,656.3174,573.0242,650.6605,569.515,659.863" style="stroke:#181818;stroke-width:1.0;"/></g><!--link BuildingMapper to DataBuilding--><g id="link_BuildingMapper_DataBuilding"><path codeLine="79" d="M579.32,549.347 C440.214,570.851 142.801,616.839 142.5,617 C116.554,630.839 98.2287,652.1488 84.7275,671.3268 " fill="none" id="BuildingMapper-to-DataBuilding" style="stroke:#181818;stroke-width:1.0;stroke-dasharray:7.0,7.0;"/><polygon fill="#181818" points="81.2736,676.233,89.7252,671.1764,84.1519,672.1445,83.1837,666.5711,81.2736,676.233" style="stroke:#181818;stroke-width:1.0;"/></g><!--link dbDriver to DataBuilding--><g id="link_dbDriver_DataBuilding"><path codeLine="81" d="M340.857,76.4 C276.674,94.036 167.5,136.397 167.5,220.5 C167.5,220.5 167.5,220.5 167.5,538.5 C167.5,594.758 127.0113,643.3232 97.0852,672.2742 " fill="none" id="dbDriver-to-DataBuilding" style="stroke:#181818;stroke-width:1.0;stroke-dasharray:7.0,7.0;"/><polygon fill="#181818" points="92.7729,676.446,102.0226,673.0632,96.3665,672.9695,96.4602,667.3134,92.7729,676.446" style="stroke:#181818;stroke-width:1.0;"/></g><!--link BuildingRepo to Building--><g id="link_BuildingRepo_Building"><path codeLine="82" d="M384.512,253.646 C382.618,296.755 382.216,376.679 399.5,442 C421.176,523.92 466.9041,605.494 497.3071,654.482 " fill="none" id="BuildingRepo-to-Building" style="stroke:#181818;stroke-width:1.0;stroke-dasharray:7.0,7.0;"/><polygon fill="#181818" points="500.471,659.58,499.1238,649.8237,497.8344,655.3317,492.3264,654.0423,500.471,659.58" style="stroke:#181818;stroke-width:1.0;"/></g><!--link BuildingRepo to BuildingDTO--><g id="link_BuildingRepo_BuildingDTO"><path codeLine="83" d="M413.65,253.554 C428.751,268.581 448.844,285.231 470.5,294 C524.99,316.065 686.073,277.67 734.5,311 C787.252,347.307 759.737,388.218 794.5,442 C843.163,517.286 908.4951,589.066 957.3501,638.794 " fill="none" id="BuildingRepo-to-BuildingDTO" style="stroke:#181818;stroke-width:1.0;stroke-dasharray:7.0,7.0;"/><polygon fill="#181818" points="961.555,643.074,958.101,633.8507,958.0509,639.5073,952.3943,639.4572,961.555,643.074" style="stroke:#181818;stroke-width:1.0;"/></g><!--reverse link Building to BuildingCode--><g id="link_Building_BuildingCode"><path codeLine="85" d="M447.1506,744.0283 C402.9666,767.7083 352.354,794.835 308.229,818.484 " fill="none" id="Building-backto-BuildingCode" style="stroke:#181818;stroke-width:1.0;"/><polygon fill="#181818" points="452.439,741.194,442.6169,741.9198,448.032,743.5559,446.3959,748.971,452.439,741.194" style="stroke:#181818;stroke-width:1.0;"/></g><!--reverse link Building to BuildingName--><g id="link_Building_BuildingName"><path codeLine="86" d="M496.6663,746.3933 C480.9593,770.0303 464.451,794.872 448.784,818.448 " fill="none" id="Building-backto-BuildingName" style="stroke:#181818;stroke-width:1.0;"/><polygon fill="#181818" points="499.987,741.396,491.6744,746.6781,497.2197,745.5604,498.3374,751.1057,499.987,741.396" style="stroke:#181818;stroke-width:1.0;"/></g><!--reverse link Building to BuildingDescription--><g id="link_Building_BuildingDescription"><path codeLine="87" d="M556.6108,746.3786 C572.4688,770.0156 589.146,794.872 604.963,818.448 " fill="none" id="Building-backto-BuildingDescription" style="stroke:#181818;stroke-width:1.0;"/><polygon fill="#181818" points="553.268,741.396,554.9605,751.0983,556.0537,745.5481,561.6039,746.6413,553.268,741.396" style="stroke:#181818;stroke-width:1.0;"/></g><!--reverse link Building to BuildingSize--><g id="link_Building_BuildingSize"><path codeLine="88" d="M609.1731,743.5079 C657.9981,768.3159 715.28,797.422 762.957,821.648 " fill="none" id="Building-backto-BuildingSize" style="stroke:#181818;stroke-width:1.0;"/><polygon fill="#181818" points="603.824,740.79,610.0358,748.4329,608.2816,743.0549,613.6596,741.3008,603.824,740.79" style="stroke:#181818;stroke-width:1.0;"/></g><!--SRC=[dLLDJm8n4BtlhsWuGSokTsD846A24Kr0Vq3PZgHIjqrRC8hyTzk5hkssBCGUzZ1lvithV7G5BjTu1QXtB_47V7AvLWXN14qatO9Kw15_WUmXjCkGEIN3Ig4vtsYusr16QBL2kxq7aUKXq5htMIOS-xJI8Dzm2MX4iD0DisgeQUCnTTHZNcd96RDqjOyzLolG8yQSJ_zTyMfGexwEJehy94MDRZ6Z16juCEOsje8AfC7ceCvadeFW7JbTe2bIGckU3nkY6HR2c6xGHe7oIZeIWj4IQyehj02vfIMewrS5Q8pDnrbCVOFUETOZVe724ysv-7xjZ9VSRSO9i5vQUMiMbatr2FG7IUZ9J7Q_QqP8K0UVyLog59zDb-Apzl_ecu0g9HLrenEq7fnaz_2E90lwdHHjxKbQ2tXT3jcEVJtmvPfFNfwzTR46h77VKGsYUEFlWgDknFKyMOhm5Yw9pUs_NkQ4Brf1Yc7g5Kfkwi_5hZLjQnkYxGYSObJwokmAPk525XillCPZsBtHVo_FiLs55siwq0MdCB-kMTRy2I8eL9GYZH2hfa7HRPu7ovj6wl588lwO91tgSSb-0G00]--></g></svg>