<?xml version="1.0" encoding="us-ascii" standalone="no"?><svg xmlns="http://www.w3.org/2000/svg" xmlns:xlink="http://www.w3.org/1999/xlink" contentStyleType="text/css" height="1546px" preserveAspectRatio="none" style="width:2193px;height:1546px;background:#FFFFFF;" version="1.1" viewBox="0 0 2193 1546" width="2193px" zoomAndPan="magnify"><defs/><g><rect fill="#FFFFFF" height="1319.2543" style="stroke:#181818;stroke-width:1.0;" width="10" x="161.5" y="114.7448"/><rect fill="#FFFFFF" height="1260.9523" style="stroke:#181818;stroke-width:1.0;" width="10" x="306.5" y="143.8958"/><rect fill="#FFFFFF" height="28" style="stroke:#181818;stroke-width:1.0;" width="10" x="311.5" y="181.0468"/><rect fill="#FFFFFF" height="28" style="stroke:#181818;stroke-width:1.0;" width="10" x="311.5" y="1340.697"/><rect fill="#FFFFFF" height="29.151" style="stroke:#181818;stroke-width:1.0;" width="10" x="449.5" y="245.1978"/><rect fill="#FFFFFF" height="354.906" style="stroke:#181818;stroke-width:1.0;" width="10" x="449.5" y="948.64"/><rect fill="#FFFFFF" height="971.6035" style="stroke:#181818;stroke-width:1.0;" width="10" x="708" y="331.9425"/><rect fill="#FFFFFF" height="30" style="stroke:#181818;stroke-width:1.0;" width="10" x="939" y="476.9893"/><rect fill="#FFFFFF" height="30" style="stroke:#181818;stroke-width:1.0;" width="10" x="939" y="536.1403"/><rect fill="#FFFFFF" height="30" style="stroke:#181818;stroke-width:1.0;" width="10" x="939" y="595.2913"/><rect fill="#FFFFFF" height="30" style="stroke:#181818;stroke-width:1.0;" width="10" x="939" y="654.4423"/><rect fill="#FFFFFF" height="30" style="stroke:#181818;stroke-width:1.0;" width="10" x="939" y="713.5933"/><rect fill="#FFFFFF" height="30" style="stroke:#181818;stroke-width:1.0;" width="10" x="939" y="772.7443"/><rect fill="#FFFFFF" height="30" style="stroke:#181818;stroke-width:1.0;" width="10" x="939" y="977.791"/><rect fill="#FFFFFF" height="30" style="stroke:#181818;stroke-width:1.0;" width="10" x="939" y="1036.942"/><rect fill="#FFFFFF" height="30" style="stroke:#181818;stroke-width:1.0;" width="10" x="939" y="1096.093"/><rect fill="#FFFFFF" height="30" style="stroke:#181818;stroke-width:1.0;" width="10" x="939" y="1155.244"/><rect fill="#FFFFFF" height="30" style="stroke:#181818;stroke-width:1.0;" width="10" x="939" y="1214.395"/><rect fill="#FFFFFF" height="30" style="stroke:#181818;stroke-width:1.0;" width="10" x="939" y="1273.546"/><rect fill="#FFFFFF" height="500.8018" style="stroke:#181818;stroke-width:1.0;" width="10" x="1083" y="418.6873"/><rect fill="#FFFFFF" height="384.057" style="stroke:#181818;stroke-width:1.0;" width="10" x="1286" y="447.8383"/><rect fill="#FFFFFF" height="30" style="stroke:#181818;stroke-width:1.0;" width="10" x="2141" y="889.489"/><line style="stroke:#181818;stroke-width:0.5;stroke-dasharray:5.0,5.0;" x1="29" x2="29" y1="83.5938" y2="1451.999"/><line style="stroke:#181818;stroke-width:0.5;stroke-dasharray:5.0,5.0;" x1="166" x2="166" y1="83.5938" y2="1451.999"/><line style="stroke:#181818;stroke-width:0.5;stroke-dasharray:5.0,5.0;" x1="311" x2="311" y1="83.5938" y2="1451.999"/><line style="stroke:#181818;stroke-width:0.5;stroke-dasharray:5.0,5.0;" x1="454.5" x2="454.5" y1="83.5938" y2="1451.999"/><line style="stroke:#181818;stroke-width:0.5;stroke-dasharray:5.0,5.0;" x1="604.5" x2="604.5" y1="291.9946" y2="1451.999"/><line style="stroke:#181818;stroke-width:0.5;stroke-dasharray:5.0,5.0;" x1="712.5" x2="712.5" y1="83.5938" y2="1451.999"/><line style="stroke:#181818;stroke-width:0.5;stroke-dasharray:5.0,5.0;" x1="944" x2="944" y1="378.7394" y2="1451.999"/><line style="stroke:#181818;stroke-width:0.5;stroke-dasharray:5.0,5.0;" x1="1088" x2="1088" y1="83.5938" y2="1451.999"/><line style="stroke:#181818;stroke-width:0.5;stroke-dasharray:5.0,5.0;" x1="1290.5" x2="1290.5" y1="83.5938" y2="1451.999"/><line style="stroke:#181818;stroke-width:0.5;stroke-dasharray:5.0,5.0;" x1="2033" x2="2033" y1="849.5411" y2="1451.999"/><line style="stroke:#181818;stroke-width:0.5;stroke-dasharray:5.0,5.0;" x1="2146" x2="2146" y1="83.5938" y2="1451.999"/><text fill="#000000" font-family="sans-serif" font-size="14" lengthAdjust="spacing" textLength="10" x="21.5" y="80.292">X</text><path d="M9,39.2969 L9,63.2969 M9,51.2969 L26,51.2969 " fill="none" style="stroke:#181818;stroke-width:0.5;"/><ellipse cx="38" cy="51.2969" fill="#E2E2F0" rx="12" ry="12" style="stroke:#181818;stroke-width:0.5;"/><text fill="#000000" font-family="sans-serif" font-size="14" lengthAdjust="spacing" textLength="10" x="21.5" y="1463.9941">X</text><path d="M9,1471.2959 L9,1495.2959 M9,1483.2959 L26,1483.2959 " fill="none" style="stroke:#181818;stroke-width:0.5;"/><ellipse cx="38" cy="1483.2959" fill="#E2E2F0" rx="12" ry="12" style="stroke:#181818;stroke-width:0.5;"/><rect fill="#E2E2F0" height="30.2969" rx="2.5" ry="2.5" style="stroke:#181818;stroke-width:0.5;" width="103" x="115" y="52.2969"/><text fill="#000000" font-family="sans-serif" font-size="14" lengthAdjust="spacing" textLength="89" x="122" y="72.292">:RouteRobot</text><rect fill="#E2E2F0" height="30.2969" rx="2.5" ry="2.5" style="stroke:#181818;stroke-width:0.5;" width="103" x="115" y="1450.999"/><text fill="#000000" font-family="sans-serif" font-size="14" lengthAdjust="spacing" textLength="89" x="122" y="1470.9941">:RouteRobot</text><rect fill="#E2E2F0" height="46.5938" rx="2.5" ry="2.5" style="stroke:#181818;stroke-width:0.5;" width="127" x="248" y="36"/><text fill="#000000" font-family="sans-serif" font-size="14" lengthAdjust="spacing" textLength="113" x="255" y="55.9951">RobotController</text><text fill="#000000" font-family="sans-serif" font-size="14" lengthAdjust="spacing" textLength="89" x="267" y="72.292">&#171;Controller&#187;</text><rect fill="#E2E2F0" height="46.5938" rx="2.5" ry="2.5" style="stroke:#181818;stroke-width:0.5;" width="127" x="248" y="1450.999"/><text fill="#000000" font-family="sans-serif" font-size="14" lengthAdjust="spacing" textLength="113" x="255" y="1470.9941">RobotController</text><text fill="#000000" font-family="sans-serif" font-size="14" lengthAdjust="spacing" textLength="89" x="267" y="1487.291">&#171;Controller&#187;</text><rect fill="#E2E2F0" height="46.5938" rx="2.5" ry="2.5" style="stroke:#181818;stroke-width:0.5;" width="110" x="399.5" y="36"/><text fill="#000000" font-family="sans-serif" font-size="14" lengthAdjust="spacing" textLength="96" x="406.5" y="55.9951">RobotMapper</text><text fill="#000000" font-family="sans-serif" font-size="14" lengthAdjust="spacing" textLength="87" x="411" y="72.292">&#171;Json2DTO&#187;</text><rect fill="#E2E2F0" height="46.5938" rx="2.5" ry="2.5" style="stroke:#181818;stroke-width:0.5;" width="110" x="399.5" y="1450.999"/><text fill="#000000" font-family="sans-serif" font-size="14" lengthAdjust="spacing" textLength="96" x="406.5" y="1470.9941">RobotMapper</text><text fill="#000000" font-family="sans-serif" font-size="14" lengthAdjust="spacing" textLength="87" x="411" y="1487.291">&#171;Json2DTO&#187;</text><rect fill="#E2E2F0" height="46.5938" rx="2.5" ry="2.5" style="stroke:#181818;stroke-width:0.5;" width="87" x="561.5" y="1450.999"/><text fill="#000000" font-family="sans-serif" font-size="14" lengthAdjust="spacing" textLength="73" x="568.5" y="1470.9941">RobotDTO</text><text fill="#000000" font-family="sans-serif" font-size="14" lengthAdjust="spacing" textLength="49" x="580.5" y="1487.291">&#171;DTO&#187;</text><rect fill="#E2E2F0" height="46.5938" rx="2.5" ry="2.5" style="stroke:#181818;stroke-width:0.5;" width="109" x="658.5" y="36"/><text fill="#000000" font-family="sans-serif" font-size="14" lengthAdjust="spacing" textLength="95" x="665.5" y="55.9951">RobotService</text><text fill="#000000" font-family="sans-serif" font-size="14" lengthAdjust="spacing" textLength="71" x="677.5" y="72.292">&#171;Service&#187;</text><rect fill="#E2E2F0" height="46.5938" rx="2.5" ry="2.5" style="stroke:#181818;stroke-width:0.5;" width="109" x="658.5" y="1450.999"/><text fill="#000000" font-family="sans-serif" font-size="14" lengthAdjust="spacing" textLength="95" x="665.5" y="1470.9941">RobotService</text><text fill="#000000" font-family="sans-serif" font-size="14" lengthAdjust="spacing" textLength="71" x="677.5" y="1487.291">&#171;Service&#187;</text><rect fill="#E2E2F0" height="46.5938" rx="2.5" ry="2.5" style="stroke:#181818;stroke-width:0.5;" width="72" x="908" y="1450.999"/><text fill="#000000" font-family="sans-serif" font-size="14" lengthAdjust="spacing" textLength="42" x="923" y="1470.9941">Robot</text><text fill="#000000" font-family="sans-serif" font-size="14" lengthAdjust="spacing" textLength="58" x="915" y="1487.291">&#171;Entity&#187;</text><rect fill="#E2E2F0" height="46.5938" rx="2.5" ry="2.5" style="stroke:#181818;stroke-width:0.5;" width="196" x="990" y="36"/><text fill="#000000" font-family="sans-serif" font-size="14" lengthAdjust="spacing" textLength="79" x="1048.5" y="55.9951">RobotRepo</text><text fill="#000000" font-family="sans-serif" font-size="14" lengthAdjust="spacing" textLength="182" x="997" y="72.292">:IRobotRepo&#171;Repository&#187;</text><rect fill="#E2E2F0" height="46.5938" rx="2.5" ry="2.5" style="stroke:#181818;stroke-width:0.5;" width="196" x="990" y="1450.999"/><text fill="#000000" font-family="sans-serif" font-size="14" lengthAdjust="spacing" textLength="79" x="1048.5" y="1470.9941">RobotRepo</text><text fill="#000000" font-family="sans-serif" font-size="14" lengthAdjust="spacing" textLength="182" x="997" y="1487.291">:IRobotRepo&#171;Repository&#187;</text><rect fill="#E2E2F0" height="46.5938" rx="2.5" ry="2.5" style="stroke:#181818;stroke-width:0.5;" width="131" x="1225.5" y="36"/><text fill="#000000" font-family="sans-serif" font-size="14" lengthAdjust="spacing" textLength="72" x="1255" y="55.9951">RobotMap</text><text fill="#000000" font-family="sans-serif" font-size="14" lengthAdjust="spacing" textLength="117" x="1232.5" y="72.292">&#171;Domain2Data&#187;</text><rect fill="#E2E2F0" height="46.5938" rx="2.5" ry="2.5" style="stroke:#181818;stroke-width:0.5;" width="131" x="1225.5" y="1450.999"/><text fill="#000000" font-family="sans-serif" font-size="14" lengthAdjust="spacing" textLength="72" x="1255" y="1470.9941">RobotMap</text><text fill="#000000" font-family="sans-serif" font-size="14" lengthAdjust="spacing" textLength="117" x="1232.5" y="1487.291">&#171;Domain2Data&#187;</text><rect fill="#E2E2F0" height="46.5938" rx="2.5" ry="2.5" style="stroke:#181818;stroke-width:0.5;" width="114" x="1976" y="1450.999"/><text fill="#000000" font-family="sans-serif" font-size="14" lengthAdjust="spacing" textLength="100" x="1983" y="1470.9941">DataRobot&lt;&lt;</text><text fill="#000000" font-family="sans-serif" font-size="14" lengthAdjust="spacing" textLength="52" x="2007" y="1487.291">&#171;Data&#187;</text><text fill="#000000" font-family="sans-serif" font-size="14" lengthAdjust="spacing" textLength="62" x="2112" y="63.9951">dbDriver</text><text fill="#000000" font-family="sans-serif" font-size="14" lengthAdjust="spacing" textLength="86" x="2100" y="80.292">&#171;Database&#187;</text><path d="M2128,15 C2128,5 2146,5 2146,5 C2146,5 2164,5 2164,15 L2164,41 C2164,51 2146,51 2146,51 C2146,51 2128,51 2128,41 L2128,15 " fill="#E2E2F0" style="stroke:#181818;stroke-width:1.5;"/><path d="M2128,15 C2128,25 2146,25 2146,25 C2146,25 2164,25 2164,15 " fill="none" style="stroke:#181818;stroke-width:1.5;"/><text fill="#000000" font-family="sans-serif" font-size="14" lengthAdjust="spacing" textLength="62" x="2112" y="1463.9941">dbDriver</text><text fill="#000000" font-family="sans-serif" font-size="14" lengthAdjust="spacing" textLength="86" x="2100" y="1480.291">&#171;Database&#187;</text><path d="M2128,1493.5928 C2128,1483.5928 2146,1483.5928 2146,1483.5928 C2146,1483.5928 2164,1483.5928 2164,1493.5928 L2164,1519.5928 C2164,1529.5928 2146,1529.5928 2146,1529.5928 C2146,1529.5928 2128,1529.5928 2128,1519.5928 L2128,1493.5928 " fill="#E2E2F0" style="stroke:#181818;stroke-width:1.5;"/><path d="M2128,1493.5928 C2128,1503.5928 2146,1503.5928 2146,1503.5928 C2146,1503.5928 2164,1503.5928 2164,1493.5928 " fill="none" style="stroke:#181818;stroke-width:1.5;"/><rect fill="#FFFFFF" height="1319.2543" style="stroke:#181818;stroke-width:1.0;" width="10" x="161.5" y="114.7448"/><rect fill="#FFFFFF" height="1260.9523" style="stroke:#181818;stroke-width:1.0;" width="10" x="306.5" y="143.8958"/><rect fill="#FFFFFF" height="28" style="stroke:#181818;stroke-width:1.0;" width="10" x="311.5" y="181.0468"/><rect fill="#FFFFFF" height="28" style="stroke:#181818;stroke-width:1.0;" width="10" x="311.5" y="1340.697"/><rect fill="#FFFFFF" height="29.151" style="stroke:#181818;stroke-width:1.0;" width="10" x="449.5" y="245.1978"/><rect fill="#FFFFFF" height="354.906" style="stroke:#181818;stroke-width:1.0;" width="10" x="449.5" y="948.64"/><rect fill="#FFFFFF" height="971.6035" style="stroke:#181818;stroke-width:1.0;" width="10" x="708" y="331.9425"/><rect fill="#FFFFFF" height="30" style="stroke:#181818;stroke-width:1.0;" width="10" x="939" y="476.9893"/><rect fill="#FFFFFF" height="30" style="stroke:#181818;stroke-width:1.0;" width="10" x="939" y="536.1403"/><rect fill="#FFFFFF" height="30" style="stroke:#181818;stroke-width:1.0;" width="10" x="939" y="595.2913"/><rect fill="#FFFFFF" height="30" style="stroke:#181818;stroke-width:1.0;" width="10" x="939" y="654.4423"/><rect fill="#FFFFFF" height="30" style="stroke:#181818;stroke-width:1.0;" width="10" x="939" y="713.5933"/><rect fill="#FFFFFF" height="30" style="stroke:#181818;stroke-width:1.0;" width="10" x="939" y="772.7443"/><rect fill="#FFFFFF" height="30" style="stroke:#181818;stroke-width:1.0;" width="10" x="939" y="977.791"/><rect fill="#FFFFFF" height="30" style="stroke:#181818;stroke-width:1.0;" width="10" x="939" y="1036.942"/><rect fill="#FFFFFF" height="30" style="stroke:#181818;stroke-width:1.0;" width="10" x="939" y="1096.093"/><rect fill="#FFFFFF" height="30" style="stroke:#181818;stroke-width:1.0;" width="10" x="939" y="1155.244"/><rect fill="#FFFFFF" height="30" style="stroke:#181818;stroke-width:1.0;" width="10" x="939" y="1214.395"/><rect fill="#FFFFFF" height="30" style="stroke:#181818;stroke-width:1.0;" width="10" x="939" y="1273.546"/><rect fill="#FFFFFF" height="500.8018" style="stroke:#181818;stroke-width:1.0;" width="10" x="1083" y="418.6873"/><rect fill="#FFFFFF" height="384.057" style="stroke:#181818;stroke-width:1.0;" width="10" x="1286" y="447.8383"/><rect fill="#FFFFFF" height="30" style="stroke:#181818;stroke-width:1.0;" width="10" x="2141" y="889.489"/><polygon fill="#181818" points="149.5,110.7448,159.5,114.7448,149.5,118.7448,153.5,114.7448" style="stroke:#181818;stroke-width:1.0;"/><line style="stroke:#181818;stroke-width:1.0;" x1="29.5" x2="155.5" y1="114.7448" y2="114.7448"/><text fill="#000000" font-family="sans-serif" font-size="13" lengthAdjust="spacing" textLength="113" x="36.5" y="109.6751">POST /robot(json)</text><polygon fill="#181818" points="294.5,139.8958,304.5,143.8958,294.5,147.8958,298.5,143.8958" style="stroke:#181818;stroke-width:1.0;"/><line style="stroke:#181818;stroke-width:1.0;" x1="171.5" x2="300.5" y1="143.8958" y2="143.8958"/><text fill="#000000" font-family="sans-serif" font-size="13" lengthAdjust="spacing" textLength="116" x="178.5" y="138.8261">createRobot(json)</text><line style="stroke:#181818;stroke-width:1.0;" x1="321.5" x2="363.5" y1="173.0468" y2="173.0468"/><line style="stroke:#181818;stroke-width:1.0;" x1="363.5" x2="363.5" y1="173.0468" y2="186.0468"/><line style="stroke:#181818;stroke-width:1.0;" x1="322.5" x2="363.5" y1="186.0468" y2="186.0468"/><polygon fill="#181818" points="332.5,182.0468,322.5,186.0468,332.5,190.0468,328.5,186.0468" style="stroke:#181818;stroke-width:1.0;"/><text fill="#000000" font-family="sans-serif" font-size="13" lengthAdjust="spacing" textLength="90" x="328.5" y="167.9771">validateJson()</text><polygon fill="#181818" points="437.5,241.1978,447.5,245.1978,437.5,249.1978,441.5,245.1978" style="stroke:#181818;stroke-width:1.0;"/><line style="stroke:#181818;stroke-width:1.0;" x1="316.5" x2="443.5" y1="245.1978" y2="245.1978"/><text fill="#000000" font-family="sans-serif" font-size="13" lengthAdjust="spacing" textLength="78" x="323.5" y="240.1282">toDTO(json)</text><polygon fill="#181818" points="549.5,270.3488,559.5,274.3488,549.5,278.3488,553.5,274.3488" style="stroke:#181818;stroke-width:1.0;"/><line style="stroke:#181818;stroke-width:1.0;" x1="454.5" x2="555.5" y1="274.3488" y2="274.3488"/><text fill="#000000" font-family="sans-serif" font-size="13" lengthAdjust="spacing" textLength="78" x="461.5" y="269.2792">create(json)</text><rect fill="#E2E2F0" height="46.5938" rx="2.5" ry="2.5" style="stroke:#181818;stroke-width:0.5;" width="87" x="561.5" y="253.1978"/><text fill="#000000" font-family="sans-serif" font-size="14" lengthAdjust="spacing" textLength="73" x="568.5" y="273.1929">RobotDTO</text><text fill="#000000" font-family="sans-serif" font-size="14" lengthAdjust="spacing" textLength="49" x="580.5" y="289.4897">&#171;DTO&#187;</text><polygon fill="#181818" points="696,327.9425,706,331.9425,696,335.9425,700,331.9425" style="stroke:#181818;stroke-width:1.0;"/><line style="stroke:#181818;stroke-width:1.0;" x1="316.5" x2="702" y1="331.9425" y2="331.9425"/><text fill="#000000" font-family="sans-serif" font-size="13" lengthAdjust="spacing" textLength="232" x="323.5" y="326.8729">robotDTO = createRobot(robotDTO)</text><polygon fill="#181818" points="896,357.0935,906,361.0935,896,365.0935,900,361.0935" style="stroke:#181818;stroke-width:1.0;"/><line style="stroke:#181818;stroke-width:1.0;" x1="718" x2="902" y1="361.0935" y2="361.0935"/><text fill="#000000" font-family="sans-serif" font-size="13" lengthAdjust="spacing" textLength="166" x="725" y="356.0239">robot = create(robotDTO)</text><rect fill="#E2E2F0" height="46.5938" rx="2.5" ry="2.5" style="stroke:#181818;stroke-width:0.5;" width="72" x="908" y="339.9425"/><text fill="#000000" font-family="sans-serif" font-size="14" lengthAdjust="spacing" textLength="42" x="923" y="359.9376">Robot</text><text fill="#000000" font-family="sans-serif" font-size="14" lengthAdjust="spacing" textLength="58" x="915" y="376.2345">&#171;Entity&#187;</text><polygon fill="#181818" points="1071,414.6873,1081,418.6873,1071,422.6873,1075,418.6873" style="stroke:#181818;stroke-width:1.0;"/><line style="stroke:#181818;stroke-width:1.0;" x1="718" x2="1077" y1="418.6873" y2="418.6873"/><text fill="#000000" font-family="sans-serif" font-size="13" lengthAdjust="spacing" textLength="75" x="725" y="413.6177">save(robot)</text><polygon fill="#181818" points="1274,443.8383,1284,447.8383,1274,451.8383,1278,447.8383" style="stroke:#181818;stroke-width:1.0;"/><line style="stroke:#181818;stroke-width:1.0;" x1="1093" x2="1280" y1="447.8383" y2="447.8383"/><text fill="#000000" font-family="sans-serif" font-size="13" lengthAdjust="spacing" textLength="174" x="1100" y="442.7687">dataRobot = toData(robot)</text><polygon fill="#181818" points="960,472.9893,950,476.9893,960,480.9893,956,476.9893" style="stroke:#181818;stroke-width:1.0;"/><line style="stroke:#181818;stroke-width:1.0;" x1="954" x2="1285" y1="476.9893" y2="476.9893"/><text fill="#000000" font-family="sans-serif" font-size="13" lengthAdjust="spacing" textLength="64" x="966" y="471.9197">getCode()</text><polygon fill="#181818" points="960,532.1403,950,536.1403,960,540.1403,956,536.1403" style="stroke:#181818;stroke-width:1.0;"/><line style="stroke:#181818;stroke-width:1.0;" x1="954" x2="1285" y1="536.1403" y2="536.1403"/><text fill="#000000" font-family="sans-serif" font-size="13" lengthAdjust="spacing" textLength="97" x="966" y="531.0707">getNickname()</text><polygon fill="#181818" points="960,591.2913,950,595.2913,960,599.2913,956,595.2913" style="stroke:#181818;stroke-width:1.0;"/><line style="stroke:#181818;stroke-width:1.0;" x1="954" x2="1285" y1="595.2913" y2="595.2913"/><text fill="#000000" font-family="sans-serif" font-size="13" lengthAdjust="spacing" textLength="120" x="966" y="590.2217">getSerialNumber()</text><polygon fill="#181818" points="960,650.4423,950,654.4423,960,658.4423,956,654.4423" style="stroke:#181818;stroke-width:1.0;"/><line style="stroke:#181818;stroke-width:1.0;" x1="954" x2="1285" y1="654.4423" y2="654.4423"/><text fill="#000000" font-family="sans-serif" font-size="13" lengthAdjust="spacing" textLength="105" x="966" y="649.3727">getDescription()</text><polygon fill="#181818" points="960,709.5933,950,713.5933,960,717.5933,956,713.5933" style="stroke:#181818;stroke-width:1.0;"/><line style="stroke:#181818;stroke-width:1.0;" x1="954" x2="1285" y1="713.5933" y2="713.5933"/><text fill="#000000" font-family="sans-serif" font-size="13" lengthAdjust="spacing" textLength="140" x="966" y="708.5237">getRobotTypeName()</text><polygon fill="#181818" points="960,768.7443,950,772.7443,960,776.7443,956,772.7443" style="stroke:#181818;stroke-width:1.0;"/><line style="stroke:#181818;stroke-width:1.0;" x1="954" x2="1285" y1="772.7443" y2="772.7443"/><text fill="#000000" font-family="sans-serif" font-size="13" lengthAdjust="spacing" textLength="83" x="966" y="767.6747">getEnabled()</text><polygon fill="#181818" points="1964,827.8953,1974,831.8953,1964,835.8953,1968,831.8953" style="stroke:#181818;stroke-width:1.0;"/><line style="stroke:#181818;stroke-width:1.0;" x1="1291" x2="1970" y1="831.8953" y2="831.8953"/><text fill="#000000" font-family="sans-serif" font-size="13" lengthAdjust="spacing" textLength="656" x="1298" y="826.8257">dataRobot = create(robotCode, robotNickname, serialNumber, description, robotTypeNane, enabled)</text><rect fill="#E2E2F0" height="46.5938" rx="2.5" ry="2.5" style="stroke:#181818;stroke-width:0.5;" width="114" x="1976" y="810.7443"/><text fill="#000000" font-family="sans-serif" font-size="14" lengthAdjust="spacing" textLength="100" x="1983" y="830.7394">DataRobot&lt;&lt;</text><text fill="#000000" font-family="sans-serif" font-size="14" lengthAdjust="spacing" textLength="52" x="2007" y="847.0363">&#171;Data&#187;</text><polygon fill="#181818" points="2129,885.489,2139,889.489,2129,893.489,2133,889.489" style="stroke:#181818;stroke-width:1.0;"/><line style="stroke:#181818;stroke-width:1.0;" x1="1093" x2="2135" y1="889.489" y2="889.489"/><text fill="#000000" font-family="sans-serif" font-size="13" lengthAdjust="spacing" textLength="108" x="1100" y="884.4194">save(dataRobot)</text><polygon fill="#181818" points="470.5,944.64,460.5,948.64,470.5,952.64,466.5,948.64" style="stroke:#181818;stroke-width:1.0;"/><line style="stroke:#181818;stroke-width:1.0;" x1="464.5" x2="707" y1="948.64" y2="948.64"/><text fill="#000000" font-family="sans-serif" font-size="13" lengthAdjust="spacing" textLength="85" x="476.5" y="943.5704">toDTO(robot)</text><polygon fill="#181818" points="927,973.791,937,977.791,927,981.791,931,977.791" style="stroke:#181818;stroke-width:1.0;"/><line style="stroke:#181818;stroke-width:1.0;" x1="459.5" x2="933" y1="977.791" y2="977.791"/><text fill="#000000" font-family="sans-serif" font-size="13" lengthAdjust="spacing" textLength="64" x="466.5" y="972.7214">getCode()</text><polygon fill="#181818" points="927,1032.942,937,1036.942,927,1040.942,931,1036.942" style="stroke:#181818;stroke-width:1.0;"/><line style="stroke:#181818;stroke-width:1.0;" x1="459.5" x2="933" y1="1036.942" y2="1036.942"/><text fill="#000000" font-family="sans-serif" font-size="13" lengthAdjust="spacing" textLength="97" x="466.5" y="1031.8724">getNickname()</text><polygon fill="#181818" points="927,1092.093,937,1096.093,927,1100.093,931,1096.093" style="stroke:#181818;stroke-width:1.0;"/><line style="stroke:#181818;stroke-width:1.0;" x1="459.5" x2="933" y1="1096.093" y2="1096.093"/><text fill="#000000" font-family="sans-serif" font-size="13" lengthAdjust="spacing" textLength="120" x="466.5" y="1091.0234">getSerialNumber()</text><polygon fill="#181818" points="927,1151.244,937,1155.244,927,1159.244,931,1155.244" style="stroke:#181818;stroke-width:1.0;"/><line style="stroke:#181818;stroke-width:1.0;" x1="459.5" x2="933" y1="1155.244" y2="1155.244"/><text fill="#000000" font-family="sans-serif" font-size="13" lengthAdjust="spacing" textLength="105" x="466.5" y="1150.1744">getDescription()</text><polygon fill="#181818" points="927,1210.395,937,1214.395,927,1218.395,931,1214.395" style="stroke:#181818;stroke-width:1.0;"/><line style="stroke:#181818;stroke-width:1.0;" x1="459.5" x2="933" y1="1214.395" y2="1214.395"/><text fill="#000000" font-family="sans-serif" font-size="13" lengthAdjust="spacing" textLength="140" x="466.5" y="1209.3254">getRobotTypeName()</text><polygon fill="#181818" points="927,1269.546,937,1273.546,927,1277.546,931,1273.546" style="stroke:#181818;stroke-width:1.0;"/><line style="stroke:#181818;stroke-width:1.0;" x1="459.5" x2="933" y1="1273.546" y2="1273.546"/><text fill="#000000" font-family="sans-serif" font-size="13" lengthAdjust="spacing" textLength="83" x="466.5" y="1268.4764">getEnabled()</text><line style="stroke:#181818;stroke-width:1.0;" x1="321.5" x2="363.5" y1="1332.697" y2="1332.697"/><line style="stroke:#181818;stroke-width:1.0;" x1="363.5" x2="363.5" y1="1332.697" y2="1345.697"/><line style="stroke:#181818;stroke-width:1.0;" x1="322.5" x2="363.5" y1="1345.697" y2="1345.697"/><polygon fill="#181818" points="332.5,1341.697,322.5,1345.697,332.5,1349.697,328.5,1345.697" style="stroke:#181818;stroke-width:1.0;"/><text fill="#000000" font-family="sans-serif" font-size="13" lengthAdjust="spacing" textLength="119" x="328.5" y="1327.6274">generateRes(json)</text><polygon fill="#181818" points="182.5,1400.848,172.5,1404.848,182.5,1408.848,178.5,1404.848" style="stroke:#181818;stroke-width:1.0;"/><line style="stroke:#181818;stroke-width:1.0;stroke-dasharray:2.0,2.0;" x1="176.5" x2="310.5" y1="1404.848" y2="1404.848"/><text fill="#000000" font-family="sans-serif" font-size="13" lengthAdjust="spacing" textLength="59" x="188.5" y="1399.7784">response</text><polygon fill="#181818" points="40.5,1429.999,30.5,1433.999,40.5,1437.999,36.5,1433.999" style="stroke:#181818;stroke-width:1.0;"/><line style="stroke:#181818;stroke-width:1.0;" x1="34.5" x2="165.5" y1="1433.999" y2="1433.999"/><text fill="#000000" font-family="sans-serif" font-size="13" lengthAdjust="spacing" textLength="59" x="46.5" y="1428.9294">response</text><!--SRC=[nLPDZzem4BtdLrYSw8gg4aUK8h6R7BRg0WffnKfxSPBHoYtOaMEG-FSTEqvmWeDw8ZcWn7vlnfwFnsJYn0igBsGVb5GgbhEISaKcYqIS52GY4sf2Q4MIpQyqxaBCvelWIeh30UG73yFhrt9fQ2zfyjF3UgDbMJD-L8BFetHZyM-hxJPEF0o4QFWLYMyUs0xacUMWeVRLmdV9RmzSusAkcBfOMBnENzDt3pA1KdpmnMlx4ORwjs9Ao8QSnDkD_xBcwE986TwLAjgvxBnBqVk65eQ6TOL7gtGL5FYTqGh8fCWYoSvr52ExsY2VWs1FlYxhh945sMvsAVacjTdf7upubu3cYfsf0flO6eWCdJ0av1AeJRyb47nQaachNZ7mA-rC3mnF23ghqvhZv-cdW65xTMZGeXAOQES87NEsMffrIq8wSfwUsclqw8vVnq3Z6Gi5YTBM7FdU2KMpx3cBBh1cKTj0KtKncOCOOclCOyTIT0aXlA9d2xeYEjvCgRaxXjW6ReusYgQGq2r64Rzy5ZtndDy06gFjdT3y9s3l5p2zDTSnQHlAXt7oC80QyBjc-LzEZwFuHbLXzB0-7JEGO_YFeCebAnNhDDZ3t9k2IYybh4UAVynfTe3YKQwrvfe6Thl9RMBT0xEwlPkod97AAP8PEcnJPf5r03aYeRxExMrkH6hkRVVekL6Bze1t-Xl_5-xuwUqwEnsriKhLK-XxOjMJwLkv7a5KHjIKaILbN4KPMr0UhIV-OQEtqymElMdg4pX8FNj0DJG1_UT0vOo24gfIy0g28KOx2kvTjAi6PcBy1m00]--></g></svg>