<?xml version="1.0" encoding="us-ascii" standalone="no"?><svg xmlns="http://www.w3.org/2000/svg" xmlns:xlink="http://www.w3.org/1999/xlink" contentStyleType="text/css" height="196px" preserveAspectRatio="none" style="width:221px;height:196px;background:#FFFFFF;" version="1.1" viewBox="0 0 221 196" width="221px" zoomAndPan="magnify"><defs/><g><!--entity FleetManager--><g id="elem_FleetManager"><ellipse cx="110.5" cy="22" fill="#F1F1F1" rx="16" ry="16" style="stroke:#181818;stroke-width:1.5;"/><path d="M110.5,42 C114.5,42 117.5,42 121.5,38 C129.5,38 137.5,46 137.5,54 L137.5,58 C137.5,62 133.5,66 129.5,66 L91.5,66 C87.5,66 83.5,62 83.5,58 L83.5,54 C83.5,46 91.5,38 99.5,38 C103.5,42 106.5,42 110.5,42 " fill="#F1F1F1" style="stroke:#181818;stroke-width:1.5;"/><text fill="#000000" font-family="sans-serif" font-size="14" lengthAdjust="spacing" textLength="98" x="61.5" y="80.4951">FleetManager</text></g><g id="elem_Use"><ellipse cx="110.5329" cy="166.8066" fill="#F1F1F1" rx="104.5329" ry="23.3066" style="stroke:#181818;stroke-width:0.5;"/><text fill="#000000" font-family="sans-serif" font-size="14" lengthAdjust="spacing" textLength="174" x="23.5329" y="169.6533">List all robots in the fleet</text></g><!--link FleetManager to Use--><g id="link_FleetManager_Use"><path d="M110.5,83.62 C110.5,103.26 110.5,120.46 110.5,137.23 " fill="none" id="FleetManager-to-Use" style="stroke:#181818;stroke-width:1.0;"/><polygon fill="#181818" points="110.5,143.23,114.5,134.23,110.5,138.23,106.5,134.23,110.5,143.23" style="stroke:#181818;stroke-width:1.0;"/></g><!--SRC=[BSix2e0m40N0FgTufD8Y5qXXQQMLU81LLWtc8za5yVOYsC_86V95bH9erL8dVIA3RfQIsFW-Ckj8cNQk7ivrQ6RXrXWx155GZAXbAIe86NemjYzOaFpm1G00]--></g></svg>