<?xml version="1.0" encoding="UTF-8" standalone="no"?><svg xmlns="http://www.w3.org/2000/svg" xmlns:xlink="http://www.w3.org/1999/xlink" contentStyleType="text/css" height="926px" preserveAspectRatio="none" style="width:1081px;height:926px;background:#FFFFFF;" version="1.1" viewBox="0 0 1081 926" width="1081px" zoomAndPan="magnify"><defs/><g><!--MD5=[8fe2aa05149244fadf4a48c5c523dd2e]
cluster Frameworks and Drivers Layer--><g id="cluster_Frameworks and Drivers Layer"><path d="M546.5,6 L790.5,6 A3.75,3.75 0 0 1 793,8.5 L800,28.2969 L848.5,28.2969 A2.5,2.5 0 0 1 851,30.7969 L851,102.5 A2.5,2.5 0 0 1 848.5,105 L546.5,105 A2.5,2.5 0 0 1 544,102.5 L544,8.5 A2.5,2.5 0 0 1 546.5,6 " fill="none" style="stroke:#000000;stroke-width:1.5;"/><line style="stroke:#000000;stroke-width:1.5;" x1="544" x2="800" y1="28.2969" y2="28.2969"/><text fill="#000000" font-family="sans-serif" font-size="14" font-weight="bold" lengthAdjust="spacing" textLength="243" x="548" y="20.9951">Frameworks and Drivers Layer</text></g><!--MD5=[9ec15cae0890fc5cba79ef3d85b6c62b]
cluster Interface Adapters Layers--><g id="cluster_Interface Adapters Layers"><path d="M353.5,160.5 L560.5,160.5 A3.75,3.75 0 0 1 563,163 L570,182.7969 L965.5,182.7969 A2.5,2.5 0 0 1 968,185.2969 L968,273 A2.5,2.5 0 0 1 965.5,275.5 L353.5,275.5 A2.5,2.5 0 0 1 351,273 L351,163 A2.5,2.5 0 0 1 353.5,160.5 " fill="none" style="stroke:#000000;stroke-width:1.5;"/><line style="stroke:#000000;stroke-width:1.5;" x1="351" x2="570" y1="182.7969" y2="182.7969"/><text fill="#000000" font-family="sans-serif" font-size="14" font-weight="bold" lengthAdjust="spacing" textLength="206" x="355" y="175.4951">Interface Adapters Layers</text></g><!--MD5=[7c0646dd66f54600f7696c15361c9e62]
cluster Application Services/Use Case Services--><g id="cluster_Application Services/Use Case Services"><path d="M91.5,308.5 L404.5,308.5 A3.75,3.75 0 0 1 407,311 L414,330.7969 L559.5,330.7969 A2.5,2.5 0 0 1 562,333.2969 L562,421 A2.5,2.5 0 0 1 559.5,423.5 L91.5,423.5 A2.5,2.5 0 0 1 89,421 L89,311 A2.5,2.5 0 0 1 91.5,308.5 " fill="none" style="stroke:#000000;stroke-width:1.5;"/><line style="stroke:#000000;stroke-width:1.5;" x1="89" x2="414" y1="330.7969" y2="330.7969"/><text fill="#000000" font-family="sans-serif" font-size="14" font-weight="bold" lengthAdjust="spacing" textLength="312" x="93" y="323.4951">Application Services/Use Case Services</text></g><!--MD5=[15636c1ca4a123c16a2a1a8e90aca7a9]
cluster Model--><g id="cluster_Model"><path d="M8.5,581.5 L56.5,581.5 A3.75,3.75 0 0 1 59,584 L66,603.7969 L493.5,603.7969 A2.5,2.5 0 0 1 496,606.2969 L496,917 A2.5,2.5 0 0 1 493.5,919.5 L8.5,919.5 A2.5,2.5 0 0 1 6,917 L6,584 A2.5,2.5 0 0 1 8.5,581.5 " fill="none" style="stroke:#000000;stroke-width:1.5;"/><line style="stroke:#000000;stroke-width:1.5;" x1="6" x2="66" y1="603.7969" y2="603.7969"/><text fill="#000000" font-family="sans-serif" font-size="14" font-weight="bold" lengthAdjust="spacing" textLength="47" x="10" y="596.4951">Model</text></g><!--MD5=[42657e9118602fbae070eac24bbe731e]
class RouteRobotType--><g id="elem_RouteRobotType"><rect codeLine="3" fill="#F1F1F1" height="48" id="RouteRobotType" rx="2.5" ry="2.5" style="stroke:#181818;stroke-width:0.5;" width="150" x="685" y="41"/><ellipse cx="700" cy="57" fill="#ADD1B2" rx="11" ry="11" style="stroke:#181818;stroke-width:1.0;"/><path d="M702.9688,62.6406 Q702.3906,62.9375 701.75,63.0781 Q701.1094,63.2344 700.4063,63.2344 Q697.9063,63.2344 696.5781,61.5938 Q695.2656,59.9375 695.2656,56.8125 Q695.2656,53.6875 696.5781,52.0313 Q697.9063,50.375 700.4063,50.375 Q701.1094,50.375 701.75,50.5313 Q702.4063,50.6875 702.9688,50.9844 L702.9688,53.7031 Q702.3438,53.125 701.75,52.8594 Q701.1563,52.5781 700.5313,52.5781 Q699.1875,52.5781 698.5,53.6563 Q697.8125,54.7188 697.8125,56.8125 Q697.8125,58.9063 698.5,59.9844 Q699.1875,61.0469 700.5313,61.0469 Q701.1563,61.0469 701.75,60.7813 Q702.3438,60.5 702.9688,59.9219 L702.9688,62.6406 Z " fill="#000000"/><text fill="#000000" font-family="sans-serif" font-size="14" lengthAdjust="spacing" textLength="118" x="714" y="61.8467">RouteRobotType</text><line style="stroke:#181818;stroke-width:0.5;" x1="686" x2="834" y1="73" y2="73"/><line style="stroke:#181818;stroke-width:0.5;" x1="686" x2="834" y1="81" y2="81"/></g><!--MD5=[b933e96eb70e6d3a959554930f048d31]
class dbDriver--><g id="elem_dbDriver"><rect codeLine="4" fill="#F1F1F1" height="48" id="dbDriver" rx="2.5" ry="2.5" style="stroke:#181818;stroke-width:0.5;" width="90" x="560" y="41"/><ellipse cx="575" cy="57" fill="#ADD1B2" rx="11" ry="11" style="stroke:#181818;stroke-width:1.0;"/><path d="M577.9688,62.6406 Q577.3906,62.9375 576.75,63.0781 Q576.1094,63.2344 575.4063,63.2344 Q572.9063,63.2344 571.5781,61.5938 Q570.2656,59.9375 570.2656,56.8125 Q570.2656,53.6875 571.5781,52.0313 Q572.9063,50.375 575.4063,50.375 Q576.1094,50.375 576.75,50.5313 Q577.4063,50.6875 577.9688,50.9844 L577.9688,53.7031 Q577.3438,53.125 576.75,52.8594 Q576.1563,52.5781 575.5313,52.5781 Q574.1875,52.5781 573.5,53.6563 Q572.8125,54.7188 572.8125,56.8125 Q572.8125,58.9063 573.5,59.9844 Q574.1875,61.0469 575.5313,61.0469 Q576.1563,61.0469 576.75,60.7813 Q577.3438,60.5 577.9688,59.9219 L577.9688,62.6406 Z " fill="#000000"/><text fill="#000000" font-family="sans-serif" font-size="14" lengthAdjust="spacing" textLength="58" x="589" y="61.8467">dbDriver</text><line style="stroke:#181818;stroke-width:0.5;" x1="561" x2="649" y1="73" y2="73"/><line style="stroke:#181818;stroke-width:0.5;" x1="561" x2="649" y1="81" y2="81"/></g><!--MD5=[141065bfbc26fe05c1155424ef5477aa]
class IRobotTypeController--><g id="elem_IRobotTypeController"><rect codeLine="8" fill="#F1F1F1" height="64.2969" id="IRobotTypeController" rx="2.5" ry="2.5" style="stroke:#181818;stroke-width:0.5;" width="185" x="767.5" y="195.5"/><ellipse cx="785.65" cy="211.5" fill="#B4A7E5" rx="11" ry="11" style="stroke:#181818;stroke-width:1.0;"/><path d="M781.5719,207.2656 L781.5719,205.1094 L788.9625,205.1094 L788.9625,207.2656 L786.4938,207.2656 L786.4938,215.3438 L788.9625,215.3438 L788.9625,217.5 L781.5719,217.5 L781.5719,215.3438 L784.0406,215.3438 L784.0406,207.2656 L781.5719,207.2656 Z " fill="#000000"/><text fill="#000000" font-family="sans-serif" font-size="14" font-style="italic" lengthAdjust="spacing" textLength="146" x="800.35" y="216.3467">IRobotTypeController</text><line style="stroke:#181818;stroke-width:0.5;" x1="768.5" x2="951.5" y1="227.5" y2="227.5"/><line style="stroke:#181818;stroke-width:0.5;" x1="768.5" x2="951.5" y1="235.5" y2="235.5"/><ellipse cx="778.5" cy="249.1484" fill="#84BE84" rx="3" ry="3" style="stroke:#038048;stroke-width:1.0;"/><text fill="#000000" font-family="sans-serif" font-size="14" lengthAdjust="spacing" textLength="159" x="787.5" y="252.4951">createRobotType(json)</text></g><!--MD5=[98bce85c503e99236d6e5e56eeffecd4]
class RobotTypeController--><g id="elem_RobotTypeController"><rect codeLine="11" fill="#F1F1F1" height="64.2969" id="RobotTypeController" rx="2.5" ry="2.5" style="stroke:#181818;stroke-width:0.5;" width="185" x="547.5" y="195.5"/><ellipse cx="567" cy="211.5" fill="#ADD1B2" rx="11" ry="11" style="stroke:#181818;stroke-width:1.0;"/><path d="M569.9688,217.1406 Q569.3906,217.4375 568.75,217.5781 Q568.1094,217.7344 567.4063,217.7344 Q564.9063,217.7344 563.5781,216.0938 Q562.2656,214.4375 562.2656,211.3125 Q562.2656,208.1875 563.5781,206.5313 Q564.9063,204.875 567.4063,204.875 Q568.1094,204.875 568.75,205.0313 Q569.4063,205.1875 569.9688,205.4844 L569.9688,208.2031 Q569.3438,207.625 568.75,207.3594 Q568.1563,207.0781 567.5313,207.0781 Q566.1875,207.0781 565.5,208.1563 Q564.8125,209.2188 564.8125,211.3125 Q564.8125,213.4063 565.5,214.4844 Q566.1875,215.5469 567.5313,215.5469 Q568.1563,215.5469 568.75,215.2813 Q569.3438,215 569.9688,214.4219 L569.9688,217.1406 Z " fill="#000000"/><text fill="#000000" font-family="sans-serif" font-size="14" lengthAdjust="spacing" textLength="143" x="582" y="216.3467">RobotTypeController</text><line style="stroke:#181818;stroke-width:0.5;" x1="548.5" x2="731.5" y1="227.5" y2="227.5"/><line style="stroke:#181818;stroke-width:0.5;" x1="548.5" x2="731.5" y1="235.5" y2="235.5"/><rect fill="#F24D5C" height="6" style="stroke:#C82930;stroke-width:1.0;" width="6" x="555.5" y="246.1484"/><text fill="#000000" font-family="sans-serif" font-size="14" lengthAdjust="spacing" textLength="159" x="567.5" y="252.4951">createRobotType(json)</text></g><!--MD5=[09acbce9c0284c8f7b5afc294d69ce27]
class RobotTypeRepo--><g id="elem_RobotTypeRepo"><rect codeLine="14" fill="#F1F1F1" height="64.2969" id="RobotTypeRepo" rx="2.5" ry="2.5" style="stroke:#181818;stroke-width:0.5;" width="145" x="367.5" y="195.5"/><ellipse cx="382.5" cy="211.5" fill="#ADD1B2" rx="11" ry="11" style="stroke:#181818;stroke-width:1.0;"/><path d="M385.4688,217.1406 Q384.8906,217.4375 384.25,217.5781 Q383.6094,217.7344 382.9063,217.7344 Q380.4063,217.7344 379.0781,216.0938 Q377.7656,214.4375 377.7656,211.3125 Q377.7656,208.1875 379.0781,206.5313 Q380.4063,204.875 382.9063,204.875 Q383.6094,204.875 384.25,205.0313 Q384.9063,205.1875 385.4688,205.4844 L385.4688,208.2031 Q384.8438,207.625 384.25,207.3594 Q383.6563,207.0781 383.0313,207.0781 Q381.6875,207.0781 381,208.1563 Q380.3125,209.2188 380.3125,211.3125 Q380.3125,213.4063 381,214.4844 Q381.6875,215.5469 383.0313,215.5469 Q383.6563,215.5469 384.25,215.2813 Q384.8438,215 385.4688,214.4219 L385.4688,217.1406 Z " fill="#000000"/><text fill="#000000" font-family="sans-serif" font-size="14" lengthAdjust="spacing" textLength="113" x="396.5" y="216.3467">RobotTypeRepo</text><line style="stroke:#181818;stroke-width:0.5;" x1="368.5" x2="511.5" y1="227.5" y2="227.5"/><rect fill="none" height="6" style="stroke:#C82930;stroke-width:1.0;" width="6" x="375.5" y="238.1484"/><text fill="#000000" font-family="sans-serif" font-size="14" lengthAdjust="spacing" textLength="32" x="387.5" y="244.4951">save</text><line style="stroke:#181818;stroke-width:0.5;" x1="368.5" x2="511.5" y1="251.7969" y2="251.7969"/></g><!--MD5=[0427b32cafd1a144910eea11e58c1066]
class RobotTypeService--><g id="elem_RobotTypeService"><rect codeLine="22" fill="#F1F1F1" height="64.2969" id="RobotTypeService" rx="2.5" ry="2.5" style="stroke:#181818;stroke-width:0.5;" width="258" x="288" y="343.5"/><ellipse cx="349.75" cy="359.5" fill="#ADD1B2" rx="11" ry="11" style="stroke:#181818;stroke-width:1.0;"/><path d="M352.7188,365.1406 Q352.1406,365.4375 351.5,365.5781 Q350.8594,365.7344 350.1563,365.7344 Q347.6563,365.7344 346.3281,364.0938 Q345.0156,362.4375 345.0156,359.3125 Q345.0156,356.1875 346.3281,354.5313 Q347.6563,352.875 350.1563,352.875 Q350.8594,352.875 351.5,353.0313 Q352.1563,353.1875 352.7188,353.4844 L352.7188,356.2031 Q352.0938,355.625 351.5,355.3594 Q350.9063,355.0781 350.2813,355.0781 Q348.9375,355.0781 348.25,356.1563 Q347.5625,357.2188 347.5625,359.3125 Q347.5625,361.4063 348.25,362.4844 Q348.9375,363.5469 350.2813,363.5469 Q350.9063,363.5469 351.5,363.2813 Q352.0938,363 352.7188,362.4219 L352.7188,365.1406 Z " fill="#000000"/><text fill="#000000" font-family="sans-serif" font-size="14" lengthAdjust="spacing" textLength="126" x="370.25" y="364.3467">RobotTypeService</text><line style="stroke:#181818;stroke-width:0.5;" x1="289" x2="545" y1="375.5" y2="375.5"/><line style="stroke:#181818;stroke-width:0.5;" x1="289" x2="545" y1="383.5" y2="383.5"/><rect fill="#F24D5C" height="6" style="stroke:#C82930;stroke-width:1.0;" width="6" x="296" y="394.1484"/><text fill="#000000" font-family="sans-serif" font-size="14" lengthAdjust="spacing" textLength="232" x="308" y="400.4951">createRobotType(robotTypeDTO)</text></g><!--MD5=[c591fc91b829eaa21c178748d834c3af]
class IRobotTypeRepo--><g id="elem_IRobotTypeRepo"><rect codeLine="25" fill="#F1F1F1" height="64.2969" id="IRobotTypeRepo" rx="2.5" ry="2.5" style="stroke:#181818;stroke-width:0.5;" width="148" x="105" y="343.5"/><ellipse cx="120" cy="359.5" fill="#B4A7E5" rx="11" ry="11" style="stroke:#181818;stroke-width:1.0;"/><path d="M115.9219,355.2656 L115.9219,353.1094 L123.3125,353.1094 L123.3125,355.2656 L120.8438,355.2656 L120.8438,363.3438 L123.3125,363.3438 L123.3125,365.5 L115.9219,365.5 L115.9219,363.3438 L118.3906,363.3438 L118.3906,355.2656 L115.9219,355.2656 Z " fill="#000000"/><text fill="#000000" font-family="sans-serif" font-size="14" font-style="italic" lengthAdjust="spacing" textLength="116" x="134" y="364.3467">IRobotTypeRepo</text><line style="stroke:#181818;stroke-width:0.5;" x1="106" x2="252" y1="375.5" y2="375.5"/><line style="stroke:#181818;stroke-width:0.5;" x1="106" x2="252" y1="383.5" y2="383.5"/><rect fill="#F24D5C" height="6" style="stroke:#C82930;stroke-width:1.0;" width="6" x="113" y="394.1484"/><text fill="#000000" font-family="sans-serif" font-size="14" lengthAdjust="spacing" textLength="113" x="125" y="400.4951">save(robotType)</text></g><!--MD5=[ccfa383e5efe879a22324d26e60c61a8]
class RobotType--><g id="elem_RobotType"><rect codeLine="32" fill="#F1F1F1" height="129.4844" id="RobotType" rx="2.5" ry="2.5" style="stroke:#181818;stroke-width:0.5;" width="175" x="208.5" y="616.5"/><ellipse cx="253.75" cy="632.5" fill="#ADD1B2" rx="11" ry="11" style="stroke:#181818;stroke-width:1.0;"/><path d="M256.7188,638.1406 Q256.1406,638.4375 255.5,638.5781 Q254.8594,638.7344 254.1563,638.7344 Q251.6563,638.7344 250.3281,637.0938 Q249.0156,635.4375 249.0156,632.3125 Q249.0156,629.1875 250.3281,627.5313 Q251.6563,625.875 254.1563,625.875 Q254.8594,625.875 255.5,626.0313 Q256.1563,626.1875 256.7188,626.4844 L256.7188,629.2031 Q256.0938,628.625 255.5,628.3594 Q254.9063,628.0781 254.2813,628.0781 Q252.9375,628.0781 252.25,629.1563 Q251.5625,630.2188 251.5625,632.3125 Q251.5625,634.4063 252.25,635.4844 Q252.9375,636.5469 254.2813,636.5469 Q254.9063,636.5469 255.5,636.2813 Q256.0938,636 256.7188,635.4219 L256.7188,638.1406 Z " fill="#000000"/><text fill="#000000" font-family="sans-serif" font-size="14" lengthAdjust="spacing" textLength="76" x="274.25" y="637.3467">RobotType</text><line style="stroke:#181818;stroke-width:0.5;" x1="209.5" x2="382.5" y1="648.5" y2="648.5"/><line style="stroke:#181818;stroke-width:0.5;" x1="209.5" x2="382.5" y1="656.5" y2="656.5"/><ellipse cx="219.5" cy="670.1484" fill="#84BE84" rx="3" ry="3" style="stroke:#038048;stroke-width:1.0;"/><text fill="#000000" font-family="sans-serif" font-size="14" lengthAdjust="spacing" textLength="54" x="228.5" y="673.4951">create()</text><ellipse cx="219.5" cy="686.4453" fill="#84BE84" rx="3" ry="3" style="stroke:#038048;stroke-width:1.0;"/><text fill="#000000" font-family="sans-serif" font-size="14" lengthAdjust="spacing" textLength="149" x="228.5" y="689.792">getRobotTypeName()</text><ellipse cx="219.5" cy="702.7422" fill="#84BE84" rx="3" ry="3" style="stroke:#038048;stroke-width:1.0;"/><text fill="#000000" font-family="sans-serif" font-size="14" lengthAdjust="spacing" textLength="116" x="228.5" y="706.0889">getRobotBrand()</text><ellipse cx="219.5" cy="719.0391" fill="#84BE84" rx="3" ry="3" style="stroke:#038048;stroke-width:1.0;"/><text fill="#000000" font-family="sans-serif" font-size="14" lengthAdjust="spacing" textLength="117" x="228.5" y="722.3857">getRobotModel()</text><ellipse cx="219.5" cy="735.3359" fill="#84BE84" rx="3" ry="3" style="stroke:#038048;stroke-width:1.0;"/><text fill="#000000" font-family="sans-serif" font-size="14" lengthAdjust="spacing" textLength="112" x="228.5" y="738.6826">getDescription()</text></g><!--MD5=[a3648c18450ae337f71e8db342133255]
class RobotTypeName--><g id="elem_RobotTypeName"><rect codeLine="39" fill="#F1F1F1" height="96.8906" id="RobotTypeName" rx="2.5" ry="2.5" style="stroke:#181818;stroke-width:0.5;" width="162" x="22" y="806.5"/><ellipse cx="43.3" cy="822.5" fill="#ADD1B2" rx="11" ry="11" style="stroke:#181818;stroke-width:1.0;"/><path d="M46.2688,828.1406 Q45.6906,828.4375 45.05,828.5781 Q44.4094,828.7344 43.7063,828.7344 Q41.2063,828.7344 39.8781,827.0938 Q38.5656,825.4375 38.5656,822.3125 Q38.5656,819.1875 39.8781,817.5313 Q41.2063,815.875 43.7063,815.875 Q44.4094,815.875 45.05,816.0313 Q45.7063,816.1875 46.2688,816.4844 L46.2688,819.2031 Q45.6438,818.625 45.05,818.3594 Q44.4563,818.0781 43.8313,818.0781 Q42.4875,818.0781 41.8,819.1563 Q41.1125,820.2188 41.1125,822.3125 Q41.1125,824.4063 41.8,825.4844 Q42.4875,826.5469 43.8313,826.5469 Q44.4563,826.5469 45.05,826.2813 Q45.6438,826 46.2688,825.4219 L46.2688,828.1406 Z " fill="#000000"/><text fill="#000000" font-family="sans-serif" font-size="14" lengthAdjust="spacing" textLength="116" x="58.7" y="827.3467">RobotTypeName</text><line style="stroke:#181818;stroke-width:0.5;" x1="23" x2="183" y1="838.5" y2="838.5"/><rect fill="none" height="6" style="stroke:#C82930;stroke-width:1.0;" width="6" x="30" y="849.1484"/><text fill="#000000" font-family="sans-serif" font-size="14" lengthAdjust="spacing" textLength="39" x="42" y="855.4951">name</text><line style="stroke:#181818;stroke-width:0.5;" x1="23" x2="183" y1="862.7969" y2="862.7969"/><ellipse cx="33" cy="876.4453" fill="#84BE84" rx="3" ry="3" style="stroke:#038048;stroke-width:1.0;"/><text fill="#000000" font-family="sans-serif" font-size="14" lengthAdjust="spacing" textLength="54" x="42" y="879.792">create()</text><ellipse cx="33" cy="892.7422" fill="#84BE84" rx="3" ry="3" style="stroke:#038048;stroke-width:1.0;"/><text fill="#000000" font-family="sans-serif" font-size="14" lengthAdjust="spacing" textLength="136" x="42" y="896.0889">validateTypeName()</text></g><!--MD5=[3b278ffc40e97be70963d933829cec5d]
class RobotModel--><g id="elem_RobotModel"><rect codeLine="44" fill="#F1F1F1" height="80.5938" id="RobotModel" rx="2.5" ry="2.5" style="stroke:#181818;stroke-width:0.5;" width="116" x="219" y="814.5"/><ellipse cx="234" cy="830.5" fill="#ADD1B2" rx="11" ry="11" style="stroke:#181818;stroke-width:1.0;"/><path d="M236.9688,836.1406 Q236.3906,836.4375 235.75,836.5781 Q235.1094,836.7344 234.4063,836.7344 Q231.9063,836.7344 230.5781,835.0938 Q229.2656,833.4375 229.2656,830.3125 Q229.2656,827.1875 230.5781,825.5313 Q231.9063,823.875 234.4063,823.875 Q235.1094,823.875 235.75,824.0313 Q236.4063,824.1875 236.9688,824.4844 L236.9688,827.2031 Q236.3438,826.625 235.75,826.3594 Q235.1563,826.0781 234.5313,826.0781 Q233.1875,826.0781 232.5,827.1563 Q231.8125,828.2188 231.8125,830.3125 Q231.8125,832.4063 232.5,833.4844 Q233.1875,834.5469 234.5313,834.5469 Q235.1563,834.5469 235.75,834.2813 Q236.3438,834 236.9688,833.4219 L236.9688,836.1406 Z " fill="#000000"/><text fill="#000000" font-family="sans-serif" font-size="14" lengthAdjust="spacing" textLength="84" x="248" y="835.3467">RobotModel</text><line style="stroke:#181818;stroke-width:0.5;" x1="220" x2="334" y1="846.5" y2="846.5"/><rect fill="none" height="6" style="stroke:#C82930;stroke-width:1.0;" width="6" x="227" y="857.1484"/><text fill="#000000" font-family="sans-serif" font-size="14" lengthAdjust="spacing" textLength="43" x="239" y="863.4951">model</text><line style="stroke:#181818;stroke-width:0.5;" x1="220" x2="334" y1="870.7969" y2="870.7969"/><ellipse cx="230" cy="884.4453" fill="#84BE84" rx="3" ry="3" style="stroke:#038048;stroke-width:1.0;"/><text fill="#000000" font-family="sans-serif" font-size="14" lengthAdjust="spacing" textLength="54" x="239" y="887.792">create()</text></g><!--MD5=[f3698dc4f4da2da03889585129b5b2e8]
class robotBrand--><g id="elem_robotBrand"><rect codeLine="48" fill="#F1F1F1" height="80.5938" id="robotBrand" rx="2.5" ry="2.5" style="stroke:#181818;stroke-width:0.5;" width="110" x="370" y="814.5"/><ellipse cx="385" cy="830.5" fill="#ADD1B2" rx="11" ry="11" style="stroke:#181818;stroke-width:1.0;"/><path d="M387.9688,836.1406 Q387.3906,836.4375 386.75,836.5781 Q386.1094,836.7344 385.4063,836.7344 Q382.9063,836.7344 381.5781,835.0938 Q380.2656,833.4375 380.2656,830.3125 Q380.2656,827.1875 381.5781,825.5313 Q382.9063,823.875 385.4063,823.875 Q386.1094,823.875 386.75,824.0313 Q387.4063,824.1875 387.9688,824.4844 L387.9688,827.2031 Q387.3438,826.625 386.75,826.3594 Q386.1563,826.0781 385.5313,826.0781 Q384.1875,826.0781 383.5,827.1563 Q382.8125,828.2188 382.8125,830.3125 Q382.8125,832.4063 383.5,833.4844 Q384.1875,834.5469 385.5313,834.5469 Q386.1563,834.5469 386.75,834.2813 Q387.3438,834 387.9688,833.4219 L387.9688,836.1406 Z " fill="#000000"/><text fill="#000000" font-family="sans-serif" font-size="14" lengthAdjust="spacing" textLength="78" x="399" y="835.3467">robotBrand</text><line style="stroke:#181818;stroke-width:0.5;" x1="371" x2="479" y1="846.5" y2="846.5"/><rect fill="none" height="6" style="stroke:#C82930;stroke-width:1.0;" width="6" x="378" y="857.1484"/><text fill="#000000" font-family="sans-serif" font-size="14" lengthAdjust="spacing" textLength="40" x="390" y="863.4951">brand</text><line style="stroke:#181818;stroke-width:0.5;" x1="371" x2="479" y1="870.7969" y2="870.7969"/><ellipse cx="381" cy="884.4453" fill="#84BE84" rx="3" ry="3" style="stroke:#038048;stroke-width:1.0;"/><text fill="#000000" font-family="sans-serif" font-size="14" lengthAdjust="spacing" textLength="54" x="390" y="887.792">create()</text></g><!--MD5=[eb167659b2b872facf777c21360060e9]
class RobotTypeMapper--><g id="elem_RobotTypeMapper"><rect fill="#F1F1F1" height="48" id="RobotTypeMapper" rx="2.5" ry="2.5" style="stroke:#181818;stroke-width:0.5;" width="160" x="380" y="486.5"/><ellipse cx="395" cy="502.5" fill="#ADD1B2" rx="11" ry="11" style="stroke:#181818;stroke-width:1.0;"/><path d="M397.9688,508.1406 Q397.3906,508.4375 396.75,508.5781 Q396.1094,508.7344 395.4063,508.7344 Q392.9063,508.7344 391.5781,507.0938 Q390.2656,505.4375 390.2656,502.3125 Q390.2656,499.1875 391.5781,497.5313 Q392.9063,495.875 395.4063,495.875 Q396.1094,495.875 396.75,496.0313 Q397.4063,496.1875 397.9688,496.4844 L397.9688,499.2031 Q397.3438,498.625 396.75,498.3594 Q396.1563,498.0781 395.5313,498.0781 Q394.1875,498.0781 393.5,499.1563 Q392.8125,500.2188 392.8125,502.3125 Q392.8125,504.4063 393.5,505.4844 Q394.1875,506.5469 395.5313,506.5469 Q396.1563,506.5469 396.75,506.2813 Q397.3438,506 397.9688,505.4219 L397.9688,508.1406 Z " fill="#000000"/><text fill="#000000" font-family="sans-serif" font-size="14" lengthAdjust="spacing" textLength="128" x="409" y="507.3467">RobotTypeMapper</text><line style="stroke:#181818;stroke-width:0.5;" x1="381" x2="539" y1="518.5" y2="518.5"/><line style="stroke:#181818;stroke-width:0.5;" x1="381" x2="539" y1="526.5" y2="526.5"/></g><!--MD5=[4d2ed9b426c0661af58c4f93ddeb26e0]
class RobotTypeMap--><g id="elem_RobotTypeMap"><rect codeLine="54" fill="#F1F1F1" height="96.8906" id="RobotTypeMap" rx="2.5" ry="2.5" style="stroke:#181818;stroke-width:0.5;" width="205" x="869.5" y="16.5"/><ellipse cx="915.25" cy="32.5" fill="#ADD1B2" rx="11" ry="11" style="stroke:#181818;stroke-width:1.0;"/><path d="M918.2188,38.1406 Q917.6406,38.4375 917,38.5781 Q916.3594,38.7344 915.6563,38.7344 Q913.1563,38.7344 911.8281,37.0938 Q910.5156,35.4375 910.5156,32.3125 Q910.5156,29.1875 911.8281,27.5313 Q913.1563,25.875 915.6563,25.875 Q916.3594,25.875 917,26.0313 Q917.6563,26.1875 918.2188,26.4844 L918.2188,29.2031 Q917.5938,28.625 917,28.3594 Q916.4063,28.0781 915.7813,28.0781 Q914.4375,28.0781 913.75,29.1563 Q913.0625,30.2188 913.0625,32.3125 Q913.0625,34.4063 913.75,35.4844 Q914.4375,36.5469 915.7813,36.5469 Q916.4063,36.5469 917,36.2813 Q917.5938,36 918.2188,35.4219 L918.2188,38.1406 Z " fill="#000000"/><text fill="#000000" font-family="sans-serif" font-size="14" lengthAdjust="spacing" textLength="105" x="935.75" y="37.3467">RobotTypeMap</text><line style="stroke:#181818;stroke-width:0.5;" x1="870.5" x2="1073.5" y1="48.5" y2="48.5"/><line style="stroke:#181818;stroke-width:0.5;" x1="870.5" x2="1073.5" y1="56.5" y2="56.5"/><rect fill="#F24D5C" height="6" style="stroke:#C82930;stroke-width:1.0;" width="6" x="877.5" y="67.1484"/><text fill="#000000" font-family="sans-serif" font-size="14" lengthAdjust="spacing" textLength="126" x="889.5" y="73.4951">toDTO(robotType)</text><rect fill="#F24D5C" height="6" style="stroke:#C82930;stroke-width:1.0;" width="6" x="877.5" y="83.4453"/><text fill="#000000" font-family="sans-serif" font-size="14" lengthAdjust="spacing" textLength="179" x="889.5" y="89.792">toDomain(robotTypeDTO)</text><rect fill="#F24D5C" height="6" style="stroke:#C82930;stroke-width:1.0;" width="6" x="877.5" y="99.7422"/><text fill="#000000" font-family="sans-serif" font-size="14" lengthAdjust="spacing" textLength="177" x="889.5" y="106.0889">toPersistence(robotType)</text></g><!--MD5=[8dbc185b67e63921f091019e1f2dee66]
class RobotTypeDTO--><g id="elem_RobotTypeDTO"><rect codeLine="59" fill="#F1F1F1" height="129.4844" id="RobotTypeDTO" rx="2.5" ry="2.5" style="stroke:#181818;stroke-width:0.5;" width="173" x="512.5" y="616.5"/><ellipse cx="542.8" cy="632.5" fill="#ADD1B2" rx="11" ry="11" style="stroke:#181818;stroke-width:1.0;"/><path d="M545.7688,638.1406 Q545.1906,638.4375 544.55,638.5781 Q543.9094,638.7344 543.2063,638.7344 Q540.7063,638.7344 539.3781,637.0938 Q538.0656,635.4375 538.0656,632.3125 Q538.0656,629.1875 539.3781,627.5313 Q540.7063,625.875 543.2063,625.875 Q543.9094,625.875 544.55,626.0313 Q545.2063,626.1875 545.7688,626.4844 L545.7688,629.2031 Q545.1438,628.625 544.55,628.3594 Q543.9563,628.0781 543.3313,628.0781 Q541.9875,628.0781 541.3,629.1563 Q540.6125,630.2188 540.6125,632.3125 Q540.6125,634.4063 541.3,635.4844 Q541.9875,636.5469 543.3313,636.5469 Q543.9563,636.5469 544.55,636.2813 Q545.1438,636 545.7688,635.4219 L545.7688,638.1406 Z " fill="#000000"/><text fill="#000000" font-family="sans-serif" font-size="14" lengthAdjust="spacing" textLength="107" x="560.2" y="637.3467">RobotTypeDTO</text><line style="stroke:#181818;stroke-width:0.5;" x1="513.5" x2="684.5" y1="648.5" y2="648.5"/><rect fill="none" height="6" style="stroke:#C82930;stroke-width:1.0;" width="6" x="520.5" y="659.1484"/><text fill="#000000" font-family="sans-serif" font-size="14" lengthAdjust="spacing" textLength="111" x="532.5" y="665.4951">robotTypeName</text><rect fill="none" height="6" style="stroke:#C82930;stroke-width:1.0;" width="6" x="520.5" y="675.4453"/><text fill="#000000" font-family="sans-serif" font-size="14" lengthAdjust="spacing" textLength="77" x="532.5" y="681.792">description</text><rect fill="none" height="6" style="stroke:#C82930;stroke-width:1.0;" width="6" x="520.5" y="691.7422"/><text fill="#000000" font-family="sans-serif" font-size="14" lengthAdjust="spacing" textLength="78" x="532.5" y="698.0889">robotBrand</text><rect fill="none" height="6" style="stroke:#C82930;stroke-width:1.0;" width="6" x="520.5" y="708.0391"/><text fill="#000000" font-family="sans-serif" font-size="14" lengthAdjust="spacing" textLength="79" x="532.5" y="714.3857">robotModel</text><rect fill="none" height="6" style="stroke:#C82930;stroke-width:1.0;" width="6" x="520.5" y="724.3359"/><text fill="#000000" font-family="sans-serif" font-size="14" lengthAdjust="spacing" textLength="147" x="532.5" y="730.6826">supportedTaskTypes</text><line style="stroke:#181818;stroke-width:0.5;" x1="513.5" x2="684.5" y1="737.9844" y2="737.9844"/></g><!--MD5=[c375e3489f4517bc2ac71c21ed363dda]
link RobotTypeController to RobotTypeMapper--><g id="link_RobotTypeController_RobotTypeMapper"><path codeLine="19" d="M633.66,259.64 C623.87,301.87 601.92,378.15 562,431.5 C546.48,452.25 524.02,470.23 504.13,483.69 " fill="none" id="RobotTypeController-to-RobotTypeMapper" style="stroke:#181818;stroke-width:1.0;"/><polygon fill="#181818" points="499.93,486.49,509.6373,484.8259,504.0903,483.7165,505.1997,478.1695,499.93,486.49" style="stroke:#181818;stroke-width:1.0;"/><text fill="#000000" font-family="sans-serif" font-size="13" lengthAdjust="spacing" textLength="30" x="623" y="380.0669">uses</text></g><!--MD5=[d25021c0d24841966879b685d29ab53a]
link RobotTypeService to RobotTypeMapper--><g id="link_RobotTypeService_RobotTypeMapper"><path codeLine="29" d="M427.08,407.68 C434.3,430 443.93,459.8 450.91,481.39 " fill="none" id="RobotTypeService-to-RobotTypeMapper" style="stroke:#181818;stroke-width:1.0;"/><polygon fill="#181818" points="452.54,486.41,453.595,476.6178,451.0104,481.6497,445.9785,479.0651,452.54,486.41" style="stroke:#181818;stroke-width:1.0;"/><text fill="#000000" font-family="sans-serif" font-size="13" lengthAdjust="spacing" textLength="30" x="443" y="452.5669">uses</text></g><!--MD5=[767abd91a816d02cc873b0050f780e1e]
link RouteRobotType to IRobotTypeController--><g id="link_RouteRobotType_IRobotTypeController"><path codeLine="68" d="M774.54,89.34 C791.17,116.02 818.57,160 837.85,190.95 " fill="none" id="RouteRobotType-to-IRobotTypeController" style="stroke:#181818;stroke-width:1.0;stroke-dasharray:7.0,7.0;"/><polygon fill="#181818" points="840.63,195.42,839.2668,185.6659,837.9864,191.176,832.4764,189.8957,840.63,195.42" style="stroke:#181818;stroke-width:1.0;"/></g><!--MD5=[63c4da09d8a5ada0815a2561975efe61]
link RobotTypeController to IRobotTypeController--><g id="link_RobotTypeController_IRobotTypeController"><path codeLine="69" d="M732.81,227.5 C737.54,227.5 742.28,227.5 747.01,227.5 " fill="none" id="RobotTypeController-to-IRobotTypeController" style="stroke:#181818;stroke-width:1.0;"/><polygon fill="none" points="747.09,220.5,767.09,227.5,747.09,234.5,747.09,220.5" style="stroke:#181818;stroke-width:1.0;"/></g><!--MD5=[b9ace090aaf350c9f4497cf605a8dc50]
link RobotTypeController to RobotTypeService--><g id="link_RobotTypeController_RobotTypeService"><path codeLine="70" d="M592.43,259.64 C556.17,283.38 506.29,316.04 468.98,340.47 " fill="none" id="RobotTypeController-to-RobotTypeService" style="stroke:#181818;stroke-width:1.0;stroke-dasharray:7.0,7.0;"/><polygon fill="#181818" points="464.49,343.41,474.2139,341.8461,468.6786,340.6795,469.8451,335.1443,464.49,343.41" style="stroke:#181818;stroke-width:1.0;"/></g><!--MD5=[35f92460abe0cc45f31bcc5ceebd4ca6]
link RobotTypeService to RobotType--><g id="link_RobotTypeService_RobotType"><path codeLine="71" d="M400.36,407.79 C389.1,429.55 374.29,459.4 363,486.5 C346.05,527.17 329.81,573.81 317.56,611.11 " fill="none" id="RobotTypeService-to-RobotType" style="stroke:#181818;stroke-width:1.0;stroke-dasharray:7.0,7.0;"/><polygon fill="#181818" points="315.94,616.08,322.5413,608.7709,317.4954,611.3281,314.9382,606.2822,315.94,616.08" style="stroke:#181818;stroke-width:1.0;"/></g><!--MD5=[a5100cd6004e50a60de4d194b2066da7]
link RobotTypeService to IRobotTypeRepo--><g id="link_RobotTypeService_IRobotTypeRepo"><path codeLine="72" d="M287.89,375.5 C278.09,375.5 268.3,375.5 258.5,375.5 " fill="none" id="RobotTypeService-to-IRobotTypeRepo" style="stroke:#181818;stroke-width:1.0;stroke-dasharray:7.0,7.0;"/><polygon fill="#181818" points="253.38,375.5,262.3914,379.4743,258.38,375.4857,262.3685,371.4743,253.38,375.5" style="stroke:#181818;stroke-width:1.0;"/></g><!--MD5=[3100c39022faa0dca988ee50145c7dec]
reverse link RobotTypeRepo to IRobotTypeRepo--><g id="link_RobotTypeRepo_IRobotTypeRepo"><path codeLine="73" d="M362.34,256.03 C332.55,267.95 298.81,283.17 270,300.5 C249.76,312.68 229.18,329.01 212.72,343.24 " fill="none" id="RobotTypeRepo-backto-IRobotTypeRepo" style="stroke:#181818;stroke-width:1.0;stroke-dasharray:7.0,7.0;"/><polygon fill="#181818" points="367.09,254.14,357.2481,253.7686,362.4476,255.997,360.2193,261.1964,367.09,254.14" style="stroke:#181818;stroke-width:1.0;"/></g><!--MD5=[47db745dc54486aeced475cdc43f3fc1]
reverse link dbDriver to RobotTypeRepo--><g id="link_dbDriver_RobotTypeRepo"><path codeLine="74" d="M577.19,93.05 C548.1,121.35 502.5,165.7 471.95,195.42 " fill="none" id="dbDriver-backto-RobotTypeRepo" style="stroke:#181818;stroke-width:1.0;stroke-dasharray:7.0,7.0;"/><polygon fill="#181818" points="581.01,89.34,571.7685,92.7452,577.4248,92.8252,577.3448,98.4815,581.01,89.34" style="stroke:#181818;stroke-width:1.0;"/></g><!--MD5=[bb21cc33566df0d3f8dd4fca337a2d30]
link RobotTypeMapper to RobotTypeDTO--><g id="link_RobotTypeMapper_RobotTypeDTO"><path codeLine="76" d="M479.04,534.58 C495.55,554.59 520.31,584.6 543.05,612.17 " fill="none" id="RobotTypeMapper-to-RobotTypeDTO" style="stroke:#181818;stroke-width:1.0;stroke-dasharray:7.0,7.0;"/><polygon fill="#181818" points="546.39,616.22,543.7428,606.7336,543.206,612.3649,537.5746,611.828,546.39,616.22" style="stroke:#181818;stroke-width:1.0;"/></g><!--MD5=[3f20c1d9706b2386e8630509dfb0379f]
link RobotTypeMapper to RobotType--><g id="link_RobotTypeMapper_RobotType"><path codeLine="77" d="M437.54,534.58 C417.98,554.67 388.61,584.85 361.68,612.51 " fill="none" id="RobotTypeMapper-to-RobotType" style="stroke:#181818;stroke-width:1.0;stroke-dasharray:7.0,7.0;"/><polygon fill="#181818" points="358.07,616.22,367.2188,612.5731,361.5623,612.6418,361.4936,606.9854,358.07,616.22" style="stroke:#181818;stroke-width:1.0;"/></g><!--MD5=[0a50c7473715afc960c41abf04a08889]
link RobotTypeRepo to RobotType--><g id="link_RobotTypeRepo_RobotType"><path codeLine="78" d="M367.15,232.9 C274.79,240.16 123.4,258.32 89,300.5 C8.72,398.92 125.04,533.06 213.12,612.69 " fill="none" id="RobotTypeRepo-to-RobotType" style="stroke:#181818;stroke-width:1.0;stroke-dasharray:7.0,7.0;"/><polygon fill="#181818" points="217.02,616.2,213.0062,607.2061,213.3035,612.8552,207.6545,613.1525,217.02,616.2" style="stroke:#181818;stroke-width:1.0;"/></g><!--MD5=[e1c00832f718cdc46f5bff2a8269d849]
link RobotTypeRepo to RobotTypeDTO--><g id="link_RobotTypeRepo_RobotTypeDTO"><path codeLine="79" d="M489.67,259.59 C502.7,267.54 516.8,275.97 530,283.5 C543.99,291.48 553.04,287.12 562,300.5 C624.33,393.63 620.41,529.53 610.6,610.92 " fill="none" id="RobotTypeRepo-to-RobotTypeDTO" style="stroke:#181818;stroke-width:1.0;stroke-dasharray:7.0,7.0;"/><polygon fill="#181818" points="609.94,616.2,615.0164,607.7602,610.5549,611.238,607.0772,606.7764,609.94,616.2" style="stroke:#181818;stroke-width:1.0;"/></g><!--MD5=[c7c46378dd139103572db5f10b18cf82]
reverse link RobotType to RobotTypeName--><g id="link_RobotType_RobotTypeName"><path codeLine="80" d="M220.7,749.11 C199.27,768.2 176.37,788.61 156.53,806.3 " fill="none" id="RobotType-backto-RobotTypeName" style="stroke:#181818;stroke-width:1.0;"/><polygon fill="#181818" points="224.68,745.56,215.2959,748.5496,220.943,748.8818,220.6108,754.5289,224.68,745.56" style="stroke:#181818;stroke-width:1.0;"/></g><!--MD5=[deaf92d6b281024531f787d8792186d1]
reverse link RobotType to RobotModel--><g id="link_RobotType_RobotModel"><path codeLine="81" d="M288.41,750.73 C286.02,772.36 283.46,795.51 281.37,814.4 " fill="none" id="RobotType-backto-RobotModel" style="stroke:#181818;stroke-width:1.0;"/><polygon fill="#181818" points="288.98,745.56,284.0267,754.0726,288.4372,750.5305,291.9794,754.941,288.98,745.56" style="stroke:#181818;stroke-width:1.0;"/></g><!--MD5=[0cfe9bf565ac85a247ad5dff87c286eb]
reverse link RobotType to robotBrand--><g id="link_RobotType_robotBrand"><path codeLine="82" d="M346.73,749.63 C363.18,771.58 380.9,795.19 395.3,814.4 " fill="none" id="RobotType-backto-robotBrand" style="stroke:#181818;stroke-width:1.0;"/><polygon fill="#181818" points="343.67,745.56,345.87,755.16,346.67,749.56,352.27,750.36,343.67,745.56" style="stroke:#181818;stroke-width:1.0;"/></g><!--MD5=[5fa47d8451479e5f09d27243a37023a4]
@startuml

package "Frameworks and Drivers Layer"  {
    class RouteRobotType {}
    class dbDriver {}
}

package "Interface Adapters Layers"  {
    interface IRobotTypeController {
        +createRobotType(json)
    }
    class RobotTypeController {
        -createRobotType(json)
    }
    class RobotTypeRepo {
        -save
    }
}

RobotTypeController - -> RobotTypeMapper : uses

package "Application Services/Use Case Services"   {
    class RobotTypeService {
        -createRobotType(robotTypeDTO)
    }
    interface IRobotTypeRepo {
        -save(robotType)
    }
}
RobotTypeService - -> RobotTypeMapper : uses

package "Model"  {
    class RobotType {
        +create()
        +getRobotTypeName()
        +getRobotBrand()
        +getRobotModel()
        +getDescription()
    }
    class RobotTypeName {
        -name
        +create()
        +validateTypeName()
    }
    class RobotModel {
        -model
        +create()
    }
    class robotBrand {
        -brand
        +create()
    }
}

class RobotTypeMap {
    -toDTO(robotType)
    -toDomain(robotTypeDTO)
    -toPersistence(robotType)
}
class RobotTypeDTO {
    -robotTypeName
    -description
    -robotBrand
    -robotModel
    -supportedTaskTypes
}


RouteRobotType .d.> IRobotTypeController
RobotTypeController -|> IRobotTypeController
RobotTypeController .d.> RobotTypeService
RobotTypeService .d.> RobotType
RobotTypeService .r.> IRobotTypeRepo
IRobotTypeRepo .u.> RobotTypeRepo
RobotTypeRepo .u.> dbDriver

RobotTypeMapper ..> RobotTypeDTO
RobotTypeMapper ..> RobotType
RobotTypeRepo ..> RobotType
RobotTypeRepo ..> RobotTypeDTO
RobotType <- - RobotTypeName
RobotType <- - RobotModel
RobotType <- - robotBrand


@enduml

PlantUML version 1.2022.7(Mon Aug 22 18:01:30 WEST 2022)
(GPL source distribution)
Java Runtime: OpenJDK Runtime Environment
JVM: OpenJDK 64-Bit Server VM
Default Encoding: UTF-8
Language: en
Country: US
--></g></svg>