<?xml version="1.0" encoding="us-ascii" standalone="no"?><svg xmlns="http://www.w3.org/2000/svg" xmlns:xlink="http://www.w3.org/1999/xlink" contentStyleType="text/css" height="1226px" preserveAspectRatio="none" style="width:1809px;height:1226px;background:#FFFFFF;" version="1.1" viewBox="0 0 1809 1226" width="1809px" zoomAndPan="magnify"><defs/><g><rect fill="#FFFFFF" height="992.6328" style="stroke:#181818;stroke-width:1.0;" width="10" x="167.5" y="118.5703"/><rect fill="#FFFFFF" height="931.9297" style="stroke:#181818;stroke-width:1.0;" width="10" x="310.5" y="148.9219"/><rect fill="#FFFFFF" height="28" style="stroke:#181818;stroke-width:1.0;" width="10" x="315.5" y="187.2734"/><rect fill="#FFFFFF" height="28" style="stroke:#181818;stroke-width:1.0;" width="10" x="315.5" y="1015.5"/><rect fill="#FFFFFF" height="30.3516" style="stroke:#181818;stroke-width:1.0;" width="10" x="441.5" y="252.625"/><rect fill="#FFFFFF" height="181.0547" style="stroke:#181818;stroke-width:1.0;" width="10" x="441.5" y="796.0938"/><rect fill="#FFFFFF" height="633.9531" style="stroke:#181818;stroke-width:1.0;" width="10" x="701" y="343.1953"/><rect fill="#FFFFFF" height="30" style="stroke:#181818;stroke-width:1.0;" width="10" x="937" y="494.4688"/><rect fill="#FFFFFF" height="30" style="stroke:#181818;stroke-width:1.0;" width="10" x="937" y="554.8203"/><rect fill="#FFFFFF" height="30" style="stroke:#181818;stroke-width:1.0;" width="10" x="937" y="615.1719"/><rect fill="#FFFFFF" height="30" style="stroke:#181818;stroke-width:1.0;" width="10" x="937" y="826.4453"/><rect fill="#FFFFFF" height="30" style="stroke:#181818;stroke-width:1.0;" width="10" x="937" y="886.7969"/><rect fill="#FFFFFF" height="30" style="stroke:#181818;stroke-width:1.0;" width="10" x="937" y="947.1484"/><rect fill="#FFFFFF" height="331.9766" style="stroke:#181818;stroke-width:1.0;" width="10" x="1075.5" y="433.7656"/><rect fill="#FFFFFF" height="211.4063" style="stroke:#181818;stroke-width:1.0;" width="10" x="1281.5" y="464.1172"/><rect fill="#FFFFFF" height="30" style="stroke:#181818;stroke-width:1.0;" width="10" x="1762" y="735.7422"/><line style="stroke:#181818;stroke-width:0.5;stroke-dasharray:5.0,5.0;" x1="29" x2="29" y1="86.2188" y2="1129.2031"/><line style="stroke:#181818;stroke-width:0.5;stroke-dasharray:5.0,5.0;" x1="172.5" x2="172.5" y1="86.2188" y2="1129.2031"/><line style="stroke:#181818;stroke-width:0.5;stroke-dasharray:5.0,5.0;" x1="315.5" x2="315.5" y1="86.2188" y2="1129.2031"/><line style="stroke:#181818;stroke-width:0.5;stroke-dasharray:5.0,5.0;" x1="446.5" x2="446.5" y1="86.2188" y2="1129.2031"/><line style="stroke:#181818;stroke-width:0.5;stroke-dasharray:5.0,5.0;" x1="591.5" x2="591.5" y1="300.7344" y2="1129.2031"/><line style="stroke:#181818;stroke-width:0.5;stroke-dasharray:5.0,5.0;" x1="705.5" x2="705.5" y1="86.2188" y2="1129.2031"/><line style="stroke:#181818;stroke-width:0.5;stroke-dasharray:5.0,5.0;" x1="942" x2="942" y1="391.3047" y2="1129.2031"/><line style="stroke:#181818;stroke-width:0.5;stroke-dasharray:5.0,5.0;" x1="1080" x2="1080" y1="86.2188" y2="1129.2031"/><line style="stroke:#181818;stroke-width:0.5;stroke-dasharray:5.0,5.0;" x1="1286.5" x2="1286.5" y1="86.2188" y2="1129.2031"/><line style="stroke:#181818;stroke-width:0.5;stroke-dasharray:5.0,5.0;" x1="1659.5" x2="1659.5" y1="693.2813" y2="1129.2031"/><line style="stroke:#181818;stroke-width:0.5;stroke-dasharray:5.0,5.0;" x1="1766.5" x2="1766.5" y1="86.2188" y2="1129.2031"/><text fill="#000000" font-family="sans-serif" font-size="14" lengthAdjust="spacing" textLength="8" x="22.5" y="83.1426">X</text><path d="M9,40.6094 L9,64.6094 M9,52.6094 L26,52.6094 " fill="none" style="stroke:#181818;stroke-width:0.5;"/><ellipse cx="38" cy="52.6094" fill="#E2E2F0" rx="12" ry="12" style="stroke:#181818;stroke-width:0.5;"/><text fill="#000000" font-family="sans-serif" font-size="14" lengthAdjust="spacing" textLength="8" x="22.5" y="1142.7363">X</text><path d="M9,1149.8125 L9,1173.8125 M9,1161.8125 L26,1161.8125 " fill="none" style="stroke:#181818;stroke-width:0.5;"/><ellipse cx="38" cy="1161.8125" fill="#E2E2F0" rx="12" ry="12" style="stroke:#181818;stroke-width:0.5;"/><rect fill="#E2E2F0" height="31.6094" rx="2.5" ry="2.5" style="stroke:#181818;stroke-width:0.5;" width="108" x="118.5" y="53.6094"/><text fill="#000000" font-family="sans-serif" font-size="14" lengthAdjust="spacing" textLength="94" x="125.5" y="75.1426">:RouteElevator</text><rect fill="#E2E2F0" height="31.6094" rx="2.5" ry="2.5" style="stroke:#181818;stroke-width:0.5;" width="108" x="118.5" y="1128.2031"/><text fill="#000000" font-family="sans-serif" font-size="14" lengthAdjust="spacing" textLength="94" x="125.5" y="1149.7363">:RouteElevator</text><rect fill="#E2E2F0" height="49.2188" rx="2.5" ry="2.5" style="stroke:#181818;stroke-width:0.5;" width="128" x="251.5" y="36"/><text fill="#000000" font-family="sans-serif" font-size="14" lengthAdjust="spacing" textLength="114" x="258.5" y="57.5332">ElevatorController</text><text fill="#000000" font-family="sans-serif" font-size="14" lengthAdjust="spacing" textLength="78" x="276.5" y="75.1426">&#171;Controller&#187;</text><rect fill="#E2E2F0" height="49.2188" rx="2.5" ry="2.5" style="stroke:#181818;stroke-width:0.5;" width="128" x="251.5" y="1128.2031"/><text fill="#000000" font-family="sans-serif" font-size="14" lengthAdjust="spacing" textLength="114" x="258.5" y="1149.7363">ElevatorController</text><text fill="#000000" font-family="sans-serif" font-size="14" lengthAdjust="spacing" textLength="78" x="276.5" y="1167.3457">&#171;Controller&#187;</text><rect fill="#E2E2F0" height="49.2188" rx="2.5" ry="2.5" style="stroke:#181818;stroke-width:0.5;" width="114" x="389.5" y="36"/><text fill="#000000" font-family="sans-serif" font-size="14" lengthAdjust="spacing" textLength="100" x="396.5" y="57.5332">ElevatorMapper</text><text fill="#000000" font-family="sans-serif" font-size="14" lengthAdjust="spacing" textLength="83" x="405" y="75.1426">&#171;Json2DTO&#187;</text><rect fill="#E2E2F0" height="49.2188" rx="2.5" ry="2.5" style="stroke:#181818;stroke-width:0.5;" width="114" x="389.5" y="1128.2031"/><text fill="#000000" font-family="sans-serif" font-size="14" lengthAdjust="spacing" textLength="100" x="396.5" y="1149.7363">ElevatorMapper</text><text fill="#000000" font-family="sans-serif" font-size="14" lengthAdjust="spacing" textLength="83" x="405" y="1167.3457">&#171;Json2DTO&#187;</text><rect fill="#E2E2F0" height="49.2188" rx="2.5" ry="2.5" style="stroke:#181818;stroke-width:0.5;" width="96" x="543.5" y="1128.2031"/><text fill="#000000" font-family="sans-serif" font-size="14" lengthAdjust="spacing" textLength="82" x="550.5" y="1149.7363">ElevatorDTO</text><text fill="#000000" font-family="sans-serif" font-size="14" lengthAdjust="spacing" textLength="46" x="568.5" y="1167.3457">&#171;DTO&#187;</text><rect fill="#E2E2F0" height="49.2188" rx="2.5" ry="2.5" style="stroke:#181818;stroke-width:0.5;" width="113" x="649.5" y="36"/><text fill="#000000" font-family="sans-serif" font-size="14" lengthAdjust="spacing" textLength="99" x="656.5" y="57.5332">ElevatorService</text><text fill="#000000" font-family="sans-serif" font-size="14" lengthAdjust="spacing" textLength="63" x="674.5" y="75.1426">&#171;Service&#187;</text><rect fill="#E2E2F0" height="49.2188" rx="2.5" ry="2.5" style="stroke:#181818;stroke-width:0.5;" width="113" x="649.5" y="1128.2031"/><text fill="#000000" font-family="sans-serif" font-size="14" lengthAdjust="spacing" textLength="99" x="656.5" y="1149.7363">ElevatorService</text><text fill="#000000" font-family="sans-serif" font-size="14" lengthAdjust="spacing" textLength="63" x="674.5" y="1167.3457">&#171;Service&#187;</text><rect fill="#E2E2F0" height="49.2188" rx="2.5" ry="2.5" style="stroke:#181818;stroke-width:0.5;" width="66" x="909" y="1128.2031"/><text fill="#000000" font-family="sans-serif" font-size="14" lengthAdjust="spacing" textLength="52" x="916" y="1149.7363">Elevator</text><text fill="#000000" font-family="sans-serif" font-size="14" lengthAdjust="spacing" textLength="51" x="916.5" y="1167.3457">&#171;Entity&#187;</text><rect fill="#E2E2F0" height="49.2188" rx="2.5" ry="2.5" style="stroke:#181818;stroke-width:0.5;" width="191" x="985" y="36"/><text fill="#000000" font-family="sans-serif" font-size="14" lengthAdjust="spacing" textLength="86" x="1037.5" y="57.5332">ElevatorRepo</text><text fill="#000000" font-family="sans-serif" font-size="14" lengthAdjust="spacing" textLength="177" x="992" y="75.1426">:IElevatorRepo&#171;Repository&#187;</text><rect fill="#E2E2F0" height="49.2188" rx="2.5" ry="2.5" style="stroke:#181818;stroke-width:0.5;" width="191" x="985" y="1128.2031"/><text fill="#000000" font-family="sans-serif" font-size="14" lengthAdjust="spacing" textLength="86" x="1037.5" y="1149.7363">ElevatorRepo</text><text fill="#000000" font-family="sans-serif" font-size="14" lengthAdjust="spacing" textLength="177" x="992" y="1167.3457">:IElevatorRepo&#171;Repository&#187;</text><rect fill="#E2E2F0" height="49.2188" rx="2.5" ry="2.5" style="stroke:#181818;stroke-width:0.5;" width="116" x="1228.5" y="36"/><text fill="#000000" font-family="sans-serif" font-size="14" lengthAdjust="spacing" textLength="79" x="1247" y="57.5332">ElevatorMap</text><text fill="#000000" font-family="sans-serif" font-size="14" lengthAdjust="spacing" textLength="102" x="1235.5" y="75.1426">&#171;Domain2Data&#187;</text><rect fill="#E2E2F0" height="49.2188" rx="2.5" ry="2.5" style="stroke:#181818;stroke-width:0.5;" width="116" x="1228.5" y="1128.2031"/><text fill="#000000" font-family="sans-serif" font-size="14" lengthAdjust="spacing" textLength="79" x="1247" y="1149.7363">ElevatorMap</text><text fill="#000000" font-family="sans-serif" font-size="14" lengthAdjust="spacing" textLength="102" x="1235.5" y="1167.3457">&#171;Domain2Data&#187;</text><rect fill="#E2E2F0" height="49.2188" rx="2.5" ry="2.5" style="stroke:#181818;stroke-width:0.5;" width="112" x="1603.5" y="1128.2031"/><text fill="#000000" font-family="sans-serif" font-size="14" lengthAdjust="spacing" textLength="98" x="1610.5" y="1149.7363">DataElevator&lt;&lt;</text><text fill="#000000" font-family="sans-serif" font-size="14" lengthAdjust="spacing" textLength="46" x="1636.5" y="1167.3457">&#171;Data&#187;</text><text fill="#000000" font-family="sans-serif" font-size="14" lengthAdjust="spacing" textLength="54" x="1737" y="65.5332">dbDriver</text><text fill="#000000" font-family="sans-serif" font-size="14" lengthAdjust="spacing" textLength="77" x="1725.5" y="83.1426">&#171;Database&#187;</text><path d="M1749,15 C1749,5 1767,5 1767,5 C1767,5 1785,5 1785,15 L1785,41 C1785,51 1767,51 1767,51 C1767,51 1749,51 1749,41 L1749,15 " fill="#E2E2F0" style="stroke:#181818;stroke-width:1.5;"/><path d="M1749,15 C1749,25 1767,25 1767,25 C1767,25 1785,25 1785,15 " fill="none" style="stroke:#181818;stroke-width:1.5;"/><text fill="#000000" font-family="sans-serif" font-size="14" lengthAdjust="spacing" textLength="54" x="1737" y="1142.7363">dbDriver</text><text fill="#000000" font-family="sans-serif" font-size="14" lengthAdjust="spacing" textLength="77" x="1725.5" y="1160.3457">&#171;Database&#187;</text><path d="M1749,1173.4219 C1749,1163.4219 1767,1163.4219 1767,1163.4219 C1767,1163.4219 1785,1163.4219 1785,1173.4219 L1785,1199.4219 C1785,1209.4219 1767,1209.4219 1767,1209.4219 C1767,1209.4219 1749,1209.4219 1749,1199.4219 L1749,1173.4219 " fill="#E2E2F0" style="stroke:#181818;stroke-width:1.5;"/><path d="M1749,1173.4219 C1749,1183.4219 1767,1183.4219 1767,1183.4219 C1767,1183.4219 1785,1183.4219 1785,1173.4219 " fill="none" style="stroke:#181818;stroke-width:1.5;"/><rect fill="#FFFFFF" height="992.6328" style="stroke:#181818;stroke-width:1.0;" width="10" x="167.5" y="118.5703"/><rect fill="#FFFFFF" height="931.9297" style="stroke:#181818;stroke-width:1.0;" width="10" x="310.5" y="148.9219"/><rect fill="#FFFFFF" height="28" style="stroke:#181818;stroke-width:1.0;" width="10" x="315.5" y="187.2734"/><rect fill="#FFFFFF" height="28" style="stroke:#181818;stroke-width:1.0;" width="10" x="315.5" y="1015.5"/><rect fill="#FFFFFF" height="30.3516" style="stroke:#181818;stroke-width:1.0;" width="10" x="441.5" y="252.625"/><rect fill="#FFFFFF" height="181.0547" style="stroke:#181818;stroke-width:1.0;" width="10" x="441.5" y="796.0938"/><rect fill="#FFFFFF" height="633.9531" style="stroke:#181818;stroke-width:1.0;" width="10" x="701" y="343.1953"/><rect fill="#FFFFFF" height="30" style="stroke:#181818;stroke-width:1.0;" width="10" x="937" y="494.4688"/><rect fill="#FFFFFF" height="30" style="stroke:#181818;stroke-width:1.0;" width="10" x="937" y="554.8203"/><rect fill="#FFFFFF" height="30" style="stroke:#181818;stroke-width:1.0;" width="10" x="937" y="615.1719"/><rect fill="#FFFFFF" height="30" style="stroke:#181818;stroke-width:1.0;" width="10" x="937" y="826.4453"/><rect fill="#FFFFFF" height="30" style="stroke:#181818;stroke-width:1.0;" width="10" x="937" y="886.7969"/><rect fill="#FFFFFF" height="30" style="stroke:#181818;stroke-width:1.0;" width="10" x="937" y="947.1484"/><rect fill="#FFFFFF" height="331.9766" style="stroke:#181818;stroke-width:1.0;" width="10" x="1075.5" y="433.7656"/><rect fill="#FFFFFF" height="211.4063" style="stroke:#181818;stroke-width:1.0;" width="10" x="1281.5" y="464.1172"/><rect fill="#FFFFFF" height="30" style="stroke:#181818;stroke-width:1.0;" width="10" x="1762" y="735.7422"/><polygon fill="#181818" points="155.5,114.5703,165.5,118.5703,155.5,122.5703,159.5,118.5703" style="stroke:#181818;stroke-width:1.0;"/><line style="stroke:#181818;stroke-width:1.0;" x1="29.5" x2="161.5" y1="118.5703" y2="118.5703"/><text fill="#000000" font-family="sans-serif" font-size="13" lengthAdjust="spacing" textLength="119" x="36.5" y="113.7139">POST /elevator(json)</text><polygon fill="#181818" points="298.5,144.9219,308.5,148.9219,298.5,152.9219,302.5,148.9219" style="stroke:#181818;stroke-width:1.0;"/><line style="stroke:#181818;stroke-width:1.0;" x1="177.5" x2="304.5" y1="148.9219" y2="148.9219"/><text fill="#000000" font-family="sans-serif" font-size="13" lengthAdjust="spacing" textLength="114" x="184.5" y="144.0654">createElevator(json)</text><line style="stroke:#181818;stroke-width:1.0;" x1="325.5" x2="367.5" y1="179.2734" y2="179.2734"/><line style="stroke:#181818;stroke-width:1.0;" x1="367.5" x2="367.5" y1="179.2734" y2="192.2734"/><line style="stroke:#181818;stroke-width:1.0;" x1="326.5" x2="367.5" y1="192.2734" y2="192.2734"/><polygon fill="#181818" points="336.5,188.2734,326.5,192.2734,336.5,196.2734,332.5,192.2734" style="stroke:#181818;stroke-width:1.0;"/><text fill="#000000" font-family="sans-serif" font-size="13" lengthAdjust="spacing" textLength="78" x="332.5" y="174.417">validateJson()</text><polygon fill="#181818" points="429.5,248.625,439.5,252.625,429.5,256.625,433.5,252.625" style="stroke:#181818;stroke-width:1.0;"/><line style="stroke:#181818;stroke-width:1.0;" x1="320.5" x2="435.5" y1="252.625" y2="252.625"/><text fill="#000000" font-family="sans-serif" font-size="13" lengthAdjust="spacing" textLength="69" x="327.5" y="247.7686">toDTO(json)</text><polygon fill="#181818" points="531.5,278.9766,541.5,282.9766,531.5,286.9766,535.5,282.9766" style="stroke:#181818;stroke-width:1.0;"/><line style="stroke:#181818;stroke-width:1.0;" x1="446.5" x2="537.5" y1="282.9766" y2="282.9766"/><text fill="#000000" font-family="sans-serif" font-size="13" lengthAdjust="spacing" textLength="68" x="453.5" y="278.1201">create(json)</text><rect fill="#E2E2F0" height="49.2188" rx="2.5" ry="2.5" style="stroke:#181818;stroke-width:0.5;" width="96" x="543.5" y="260.625"/><text fill="#000000" font-family="sans-serif" font-size="14" lengthAdjust="spacing" textLength="82" x="550.5" y="282.1582">ElevatorDTO</text><text fill="#000000" font-family="sans-serif" font-size="14" lengthAdjust="spacing" textLength="46" x="568.5" y="299.7676">&#171;DTO&#187;</text><polygon fill="#181818" points="689,339.1953,699,343.1953,689,347.1953,693,343.1953" style="stroke:#181818;stroke-width:1.0;"/><line style="stroke:#181818;stroke-width:1.0;" x1="320.5" x2="695" y1="343.1953" y2="343.1953"/><text fill="#000000" font-family="sans-serif" font-size="13" lengthAdjust="spacing" textLength="246" x="327.5" y="338.3389">elevatorDTO = createElevator(elevatorDTO)</text><polygon fill="#181818" points="897,369.5469,907,373.5469,897,377.5469,901,373.5469" style="stroke:#181818;stroke-width:1.0;"/><line style="stroke:#181818;stroke-width:1.0;" x1="711" x2="903" y1="373.5469" y2="373.5469"/><text fill="#000000" font-family="sans-serif" font-size="13" lengthAdjust="spacing" textLength="174" x="718" y="368.6904">elevator = create(elevatorDTO)</text><rect fill="#E2E2F0" height="49.2188" rx="2.5" ry="2.5" style="stroke:#181818;stroke-width:0.5;" width="66" x="909" y="351.1953"/><text fill="#000000" font-family="sans-serif" font-size="14" lengthAdjust="spacing" textLength="52" x="916" y="372.7285">Elevator</text><text fill="#000000" font-family="sans-serif" font-size="14" lengthAdjust="spacing" textLength="51" x="916.5" y="390.3379">&#171;Entity&#187;</text><polygon fill="#181818" points="1063.5,429.7656,1073.5,433.7656,1063.5,437.7656,1067.5,433.7656" style="stroke:#181818;stroke-width:1.0;"/><line style="stroke:#181818;stroke-width:1.0;" x1="711" x2="1069.5" y1="433.7656" y2="433.7656"/><text fill="#000000" font-family="sans-serif" font-size="13" lengthAdjust="spacing" textLength="78" x="718" y="428.9092">save(elevator)</text><polygon fill="#181818" points="1269.5,460.1172,1279.5,464.1172,1269.5,468.1172,1273.5,464.1172" style="stroke:#181818;stroke-width:1.0;"/><line style="stroke:#181818;stroke-width:1.0;" x1="1085.5" x2="1275.5" y1="464.1172" y2="464.1172"/><text fill="#000000" font-family="sans-serif" font-size="13" lengthAdjust="spacing" textLength="177" x="1092.5" y="459.2607">dataElevator = toData(elevator)</text><polygon fill="#181818" points="958,490.4688,948,494.4688,958,498.4688,954,494.4688" style="stroke:#181818;stroke-width:1.0;"/><line style="stroke:#181818;stroke-width:1.0;" x1="952" x2="1280.5" y1="494.4688" y2="494.4688"/><text fill="#000000" font-family="sans-serif" font-size="13" lengthAdjust="spacing" textLength="116" x="964" y="489.6123">getbuildingFinderId()</text><polygon fill="#181818" points="958,550.8203,948,554.8203,958,558.8203,954,554.8203" style="stroke:#181818;stroke-width:1.0;"/><line style="stroke:#181818;stroke-width:1.0;" x1="952" x2="1280.5" y1="554.8203" y2="554.8203"/><text fill="#000000" font-family="sans-serif" font-size="13" lengthAdjust="spacing" textLength="78" x="964" y="549.9639">getfloorsList()</text><polygon fill="#181818" points="958,611.1719,948,615.1719,958,619.1719,954,615.1719" style="stroke:#181818;stroke-width:1.0;"/><line style="stroke:#181818;stroke-width:1.0;" x1="952" x2="1280.5" y1="615.1719" y2="615.1719"/><text fill="#000000" font-family="sans-serif" font-size="13" lengthAdjust="spacing" textLength="71" x="964" y="610.3154">getlocation()</text><polygon fill="#181818" points="1591.5,671.5234,1601.5,675.5234,1591.5,679.5234,1595.5,675.5234" style="stroke:#181818;stroke-width:1.0;"/><line style="stroke:#181818;stroke-width:1.0;" x1="1286.5" x2="1597.5" y1="675.5234" y2="675.5234"/><text fill="#000000" font-family="sans-serif" font-size="13" lengthAdjust="spacing" textLength="288" x="1293.5" y="670.667">dataElevator = create(floorsList,floorsList,location)</text><rect fill="#E2E2F0" height="49.2188" rx="2.5" ry="2.5" style="stroke:#181818;stroke-width:0.5;" width="112" x="1603.5" y="653.1719"/><text fill="#000000" font-family="sans-serif" font-size="14" lengthAdjust="spacing" textLength="98" x="1610.5" y="674.7051">DataElevator&lt;&lt;</text><text fill="#000000" font-family="sans-serif" font-size="14" lengthAdjust="spacing" textLength="46" x="1636.5" y="692.3145">&#171;Data&#187;</text><polygon fill="#181818" points="1750,731.7422,1760,735.7422,1750,739.7422,1754,735.7422" style="stroke:#181818;stroke-width:1.0;"/><line style="stroke:#181818;stroke-width:1.0;" x1="1085.5" x2="1756" y1="735.7422" y2="735.7422"/><text fill="#000000" font-family="sans-serif" font-size="13" lengthAdjust="spacing" textLength="105" x="1092.5" y="730.8857">save(dataElevator)</text><polygon fill="#181818" points="462.5,792.0938,452.5,796.0938,462.5,800.0938,458.5,796.0938" style="stroke:#181818;stroke-width:1.0;"/><line style="stroke:#181818;stroke-width:1.0;" x1="456.5" x2="700" y1="796.0938" y2="796.0938"/><text fill="#000000" font-family="sans-serif" font-size="13" lengthAdjust="spacing" textLength="89" x="468.5" y="791.2373">toDTO(elevator)</text><polygon fill="#181818" points="925,822.4453,935,826.4453,925,830.4453,929,826.4453" style="stroke:#181818;stroke-width:1.0;"/><line style="stroke:#181818;stroke-width:1.0;" x1="451.5" x2="931" y1="826.4453" y2="826.4453"/><text fill="#000000" font-family="sans-serif" font-size="13" lengthAdjust="spacing" textLength="266" x="458.5" y="821.5889">elevatorbuildingFinderId = getbuildingFinderId()</text><polygon fill="#181818" points="925,882.7969,935,886.7969,925,890.7969,929,886.7969" style="stroke:#181818;stroke-width:1.0;"/><line style="stroke:#181818;stroke-width:1.0;" x1="451.5" x2="931" y1="886.7969" y2="886.7969"/><text fill="#000000" font-family="sans-serif" font-size="13" lengthAdjust="spacing" textLength="190" x="458.5" y="881.9404">elevatorfloorsList = getfloorsList()</text><polygon fill="#181818" points="925,943.1484,935,947.1484,925,951.1484,929,947.1484" style="stroke:#181818;stroke-width:1.0;"/><line style="stroke:#181818;stroke-width:1.0;" x1="451.5" x2="931" y1="947.1484" y2="947.1484"/><text fill="#000000" font-family="sans-serif" font-size="13" lengthAdjust="spacing" textLength="222" x="458.5" y="942.292">elevatorlocation = getElevatorlocation()</text><line style="stroke:#181818;stroke-width:1.0;" x1="325.5" x2="367.5" y1="1007.5" y2="1007.5"/><line style="stroke:#181818;stroke-width:1.0;" x1="367.5" x2="367.5" y1="1007.5" y2="1020.5"/><line style="stroke:#181818;stroke-width:1.0;" x1="326.5" x2="367.5" y1="1020.5" y2="1020.5"/><polygon fill="#181818" points="336.5,1016.5,326.5,1020.5,336.5,1024.5,332.5,1020.5" style="stroke:#181818;stroke-width:1.0;"/><text fill="#000000" font-family="sans-serif" font-size="13" lengthAdjust="spacing" textLength="105" x="332.5" y="1002.6436">generateRes(json)</text><polygon fill="#181818" points="188.5,1076.8516,178.5,1080.8516,188.5,1084.8516,184.5,1080.8516" style="stroke:#181818;stroke-width:1.0;"/><line style="stroke:#181818;stroke-width:1.0;stroke-dasharray:2.0,2.0;" x1="182.5" x2="314.5" y1="1080.8516" y2="1080.8516"/><text fill="#000000" font-family="sans-serif" font-size="13" lengthAdjust="spacing" textLength="53" x="194.5" y="1075.9951">response</text><polygon fill="#181818" points="40.5,1107.2031,30.5,1111.2031,40.5,1115.2031,36.5,1111.2031" style="stroke:#181818;stroke-width:1.0;"/><line style="stroke:#181818;stroke-width:1.0;" x1="34.5" x2="171.5" y1="1111.2031" y2="1111.2031"/><text fill="#000000" font-family="sans-serif" font-size="13" lengthAdjust="spacing" textLength="53" x="46.5" y="1106.3467">response</text><!--SRC=[nLNHQjim57ttLuWyPMLZuCVW1TBQWuns2OvNCkYBOcj1mvECh1Zwzxko9LjMPBVGZkKXMD8vvrxTUoIT-8KLM3oZOr1X8MbEAymaMgnIVf4aAKc39HSBX6kKxdvaoHXbrkyuauAN9H5FB8g6qNhTCk-ozDvFVC1LrP6-rPo5SRRJb8VDVf-aVXAW56C0mvSVUI2YeJbHQFsf6OVqqSzGq8H9AfyrClcURREVVd1AAlx4Lbjx74NglwOmD19fijzDRh_T2V-3AUmUIppQVZXcgNN3ZAAME33YJRO92XYVS4tGeZZ5WZPTQMCzQv2tGN14dzPTGz4AxNU737qcMddv6phn8S2vf30ckkqT5aYgby391S63FpG7mQ_djKrNCorZO3Quf90dKGrVTXm_J_qACgtNrGWK9GS3M2cCvBIHpBmc0HquDpVzJXow5TSIC971FK0aWntH5xSWrg8dAMK_Cwd4GBFpMPkHuVQgVZLDLEu2KesR0JU0Hc5R8zehBRSlPGWoXUKnY0-bXOa9NK-Tmok0aUwt247EH9ukj2meEt-bh21YMoolfKVo-XZwC5Ql9b0JEVmgEHVrFQtb_uXUyXnBEZe3_pIskY1QUpajrXORYl7H-ZH9NkTuTK92hxFYM-DDE-oCZ-1scWdbh5eh8s_he-7S42-S3kUc6DyMVUUCY6jWgEJhRFrIo-QREfFHqBOkbrbxlo6BcHICNRe44cVstOlXlwMT5NFNEi_GcJ0YO3qbzTJJySgNo7f91QahpceIJ37wP_HeesqRjw_jNm00]--></g></svg>