<?xml version="1.0" encoding="us-ascii" standalone="no"?><svg xmlns="http://www.w3.org/2000/svg" xmlns:xlink="http://www.w3.org/1999/xlink" contentStyleType="text/css" height="1116px" preserveAspectRatio="none" style="width:2625px;height:1116px;background:#FFFFFF;" version="1.1" viewBox="0 0 2625 1116" width="2625px" zoomAndPan="magnify"><defs/><g><rect fill="#FFFFFF" height="888.2109" style="stroke:#181818;stroke-width:1.0;" width="10" x="353.5" y="115.2871"/><rect fill="#FFFFFF" height="829.5898" style="stroke:#181818;stroke-width:1.0;" width="10" x="725.5" y="144.5977"/><rect fill="#FFFFFF" height="28" style="stroke:#181818;stroke-width:1.0;" width="10" x="730.5" y="909.877"/><rect fill="#FFFFFF" height="276.5527" style="stroke:#181818;stroke-width:1.0;" width="10" x="866.5" y="291.8398"/><rect fill="#FFFFFF" height="677.6582" style="stroke:#181818;stroke-width:1.0;" width="10" x="1276.5" y="173.9082"/><rect fill="#FFFFFF" height="28" style="stroke:#181818;stroke-width:1.0;" width="10" x="1281.5" y="823.5664"/><rect fill="#FFFFFF" height="88.6211" style="stroke:#181818;stroke-width:1.0;" width="10" x="1727.5" y="638.3242"/><rect fill="#FFFFFF" height="30" style="stroke:#181818;stroke-width:1.0;" width="10" x="1821.5" y="345.4609"/><rect fill="#FFFFFF" height="30" style="stroke:#181818;stroke-width:1.0;" width="10" x="1821.5" y="404.7715"/><rect fill="#FFFFFF" height="30" style="stroke:#181818;stroke-width:1.0;" width="10" x="1821.5" y="464.082"/><rect fill="#FFFFFF" height="30" style="stroke:#181818;stroke-width:1.0;" width="10" x="1821.5" y="523.3926"/><rect fill="#FFFFFF" height="59.3105" style="stroke:#181818;stroke-width:1.0;" width="10" x="1966.5" y="203.2188"/><rect fill="#FFFFFF" height="59.3105" style="stroke:#181818;stroke-width:1.0;" width="10" x="2166.5" y="667.6348"/><rect fill="#FFFFFF" height="30" style="stroke:#181818;stroke-width:1.0;" width="10" x="2317.5" y="756.2559"/><rect fill="#FFFFFF" height="30" style="stroke:#181818;stroke-width:1.0;" width="10" x="2553" y="232.5293"/><rect fill="#FFFFFF" height="30" style="stroke:#181818;stroke-width:1.0;" width="10" x="2553" y="696.9453"/><rect fill="none" height="254.5527" style="stroke:#000000;stroke-width:1.5;" width="1071" x="800.5" y="306.8398"/><rect fill="none" height="298.1738" style="stroke:#000000;stroke-width:1.5;" width="1417" x="1202.5" y="575.3926"/><rect fill="none" height="266.8633" style="stroke:#000000;stroke-width:1.5;" width="1397" x="1212.5" y="599.7031"/><line style="stroke:#181818;stroke-width:0.5;stroke-dasharray:5.0,5.0;" x1="29" x2="29" y1="83.9766" y2="1021.498"/><line style="stroke:#181818;stroke-width:0.5;stroke-dasharray:5.0,5.0;" x1="358.5" x2="358.5" y1="83.9766" y2="1021.498"/><line style="stroke:#181818;stroke-width:0.5;stroke-dasharray:5.0,5.0;" x1="730.5" x2="730.5" y1="83.9766" y2="1021.498"/><line style="stroke:#181818;stroke-width:0.5;stroke-dasharray:5.0,5.0;" x1="871.5" x2="871.5" y1="83.9766" y2="1021.498"/><line style="stroke:#181818;stroke-width:0.5;stroke-dasharray:5.0,5.0;" x1="992.5" x2="992.5" y1="83.9766" y2="1021.498"/><line style="stroke:#181818;stroke-width:0.5;stroke-dasharray:5.0,5.0;" x1="1127.5" x2="1127.5" y1="83.9766" y2="1021.498"/><line style="stroke:#181818;stroke-width:0.5;stroke-dasharray:5.0,5.0;" x1="1281.5" x2="1281.5" y1="83.9766" y2="1021.498"/><line style="stroke:#181818;stroke-width:0.5;stroke-dasharray:5.0,5.0;" x1="1732.5" x2="1732.5" y1="83.9766" y2="1021.498"/><line style="stroke:#181818;stroke-width:0.5;stroke-dasharray:5.0,5.0;" x1="1826.5" x2="1826.5" y1="83.9766" y2="1021.498"/><line style="stroke:#181818;stroke-width:0.5;stroke-dasharray:5.0,5.0;" x1="1971.5" x2="1971.5" y1="83.9766" y2="1021.498"/><line style="stroke:#181818;stroke-width:0.5;stroke-dasharray:5.0,5.0;" x1="2171.5" x2="2171.5" y1="83.9766" y2="1021.498"/><line style="stroke:#181818;stroke-width:0.5;stroke-dasharray:5.0,5.0;" x1="2322.5" x2="2322.5" y1="83.9766" y2="1021.498"/><line style="stroke:#181818;stroke-width:0.5;stroke-dasharray:5.0,5.0;" x1="2444.5" x2="2444.5" y1="83.9766" y2="1021.498"/><line style="stroke:#181818;stroke-width:0.5;stroke-dasharray:5.0,5.0;" x1="2557.5" x2="2557.5" y1="83.9766" y2="1021.498"/><text fill="#000000" font-family="sans-serif" font-size="14" lengthAdjust="spacing" textLength="9" x="22" y="81.0234">X</text><path d="M9,39.4883 L9,63.4883 M9,51.4883 L26,51.4883 " fill="none" style="stroke:#181818;stroke-width:0.5;"/><ellipse cx="38" cy="51.4883" fill="#E2E2F0" rx="12" ry="12" style="stroke:#181818;stroke-width:0.5;"/><text fill="#000000" font-family="sans-serif" font-size="14" lengthAdjust="spacing" textLength="9" x="22" y="1034.0332">X</text><path d="M9,1040.9863 L9,1064.9863 M9,1052.9863 L26,1052.9863 " fill="none" style="stroke:#181818;stroke-width:0.5;"/><ellipse cx="38" cy="1052.9863" fill="#E2E2F0" rx="12" ry="12" style="stroke:#181818;stroke-width:0.5;"/><rect fill="#E2E2F0" height="30.4883" rx="2.5" ry="2.5" style="stroke:#181818;stroke-width:0.5;" width="114" x="301.5" y="52.4883"/><text fill="#000000" font-family="sans-serif" font-size="14" lengthAdjust="spacing" textLength="100" x="308.5" y="73.0234">:RouteBuilding</text><rect fill="#E2E2F0" height="30.4883" rx="2.5" ry="2.5" style="stroke:#181818;stroke-width:0.5;" width="114" x="301.5" y="1020.498"/><text fill="#000000" font-family="sans-serif" font-size="14" lengthAdjust="spacing" textLength="100" x="308.5" y="1041.0332">:RouteBuilding</text><rect fill="#E2E2F0" height="46.9766" rx="2.5" ry="2.5" style="stroke:#181818;stroke-width:0.5;" width="140" x="660.5" y="36"/><text fill="#000000" font-family="sans-serif" font-size="14" lengthAdjust="spacing" textLength="126" x="667.5" y="56.5352">BuildingController</text><text fill="#000000" font-family="sans-serif" font-size="14" lengthAdjust="spacing" textLength="84" x="688.5" y="73.0234">&#171;Controller&#187;</text><rect fill="#E2E2F0" height="46.9766" rx="2.5" ry="2.5" style="stroke:#181818;stroke-width:0.5;" width="140" x="660.5" y="1020.498"/><text fill="#000000" font-family="sans-serif" font-size="14" lengthAdjust="spacing" textLength="126" x="667.5" y="1041.0332">BuildingController</text><text fill="#000000" font-family="sans-serif" font-size="14" lengthAdjust="spacing" textLength="84" x="688.5" y="1057.5215">&#171;Controller&#187;</text><rect fill="#E2E2F0" height="46.9766" rx="2.5" ry="2.5" style="stroke:#181818;stroke-width:0.5;" width="122" x="810.5" y="36"/><text fill="#000000" font-family="sans-serif" font-size="14" lengthAdjust="spacing" textLength="108" x="817.5" y="56.5352">BuildingMapper</text><text fill="#000000" font-family="sans-serif" font-size="14" lengthAdjust="spacing" textLength="82" x="830.5" y="73.0234">&#171;Json2DTO&#187;</text><rect fill="#E2E2F0" height="46.9766" rx="2.5" ry="2.5" style="stroke:#181818;stroke-width:0.5;" width="122" x="810.5" y="1020.498"/><text fill="#000000" font-family="sans-serif" font-size="14" lengthAdjust="spacing" textLength="108" x="817.5" y="1041.0332">BuildingMapper</text><text fill="#000000" font-family="sans-serif" font-size="14" lengthAdjust="spacing" textLength="82" x="830.5" y="1057.5215">&#171;Json2DTO&#187;</text><rect fill="#E2E2F0" height="46.9766" rx="2.5" ry="2.5" style="stroke:#181818;stroke-width:0.5;" width="100" x="942.5" y="36"/><text fill="#000000" font-family="sans-serif" font-size="14" lengthAdjust="spacing" textLength="86" x="949.5" y="56.5352">BuildingDTO</text><text fill="#000000" font-family="sans-serif" font-size="14" lengthAdjust="spacing" textLength="44" x="970.5" y="73.0234">&#171;DTO&#187;</text><rect fill="#E2E2F0" height="46.9766" rx="2.5" ry="2.5" style="stroke:#181818;stroke-width:0.5;" width="100" x="942.5" y="1020.498"/><text fill="#000000" font-family="sans-serif" font-size="14" lengthAdjust="spacing" textLength="86" x="949.5" y="1041.0332">BuildingDTO</text><text fill="#000000" font-family="sans-serif" font-size="14" lengthAdjust="spacing" textLength="44" x="970.5" y="1057.5215">&#171;DTO&#187;</text><rect fill="#E2E2F0" height="46.9766" rx="2.5" ry="2.5" style="stroke:#181818;stroke-width:0.5;" width="150" x="1052.5" y="36"/><text fill="#000000" font-family="sans-serif" font-size="14" lengthAdjust="spacing" textLength="136" x="1059.5" y="56.5352">Building_FloorsDTO</text><text fill="#000000" font-family="sans-serif" font-size="14" lengthAdjust="spacing" textLength="44" x="1105.5" y="73.0234">&#171;DTO&#187;</text><rect fill="#E2E2F0" height="46.9766" rx="2.5" ry="2.5" style="stroke:#181818;stroke-width:0.5;" width="150" x="1052.5" y="1020.498"/><text fill="#000000" font-family="sans-serif" font-size="14" lengthAdjust="spacing" textLength="136" x="1059.5" y="1041.0332">Building_FloorsDTO</text><text fill="#000000" font-family="sans-serif" font-size="14" lengthAdjust="spacing" textLength="44" x="1105.5" y="1057.5215">&#171;DTO&#187;</text><rect fill="#E2E2F0" height="46.9766" rx="2.5" ry="2.5" style="stroke:#181818;stroke-width:0.5;" width="118" x="1222.5" y="36"/><text fill="#000000" font-family="sans-serif" font-size="14" lengthAdjust="spacing" textLength="104" x="1229.5" y="56.5352">BuildingService</text><text fill="#000000" font-family="sans-serif" font-size="14" lengthAdjust="spacing" textLength="62" x="1250.5" y="73.0234">&#171;Service&#187;</text><rect fill="#E2E2F0" height="46.9766" rx="2.5" ry="2.5" style="stroke:#181818;stroke-width:0.5;" width="118" x="1222.5" y="1020.498"/><text fill="#000000" font-family="sans-serif" font-size="14" lengthAdjust="spacing" textLength="104" x="1229.5" y="1041.0332">BuildingService</text><text fill="#000000" font-family="sans-serif" font-size="14" lengthAdjust="spacing" textLength="62" x="1250.5" y="1057.5215">&#171;Service&#187;</text><rect fill="#E2E2F0" height="46.9766" rx="2.5" ry="2.5" style="stroke:#181818;stroke-width:0.5;" width="98" x="1683.5" y="36"/><text fill="#000000" font-family="sans-serif" font-size="14" lengthAdjust="spacing" textLength="84" x="1690.5" y="56.5352">FloorService</text><text fill="#000000" font-family="sans-serif" font-size="14" lengthAdjust="spacing" textLength="62" x="1701.5" y="73.0234">&#171;Service&#187;</text><rect fill="#E2E2F0" height="46.9766" rx="2.5" ry="2.5" style="stroke:#181818;stroke-width:0.5;" width="98" x="1683.5" y="1020.498"/><text fill="#000000" font-family="sans-serif" font-size="14" lengthAdjust="spacing" textLength="84" x="1690.5" y="1041.0332">FloorService</text><text fill="#000000" font-family="sans-serif" font-size="14" lengthAdjust="spacing" textLength="62" x="1701.5" y="1057.5215">&#171;Service&#187;</text><rect fill="#E2E2F0" height="46.9766" rx="2.5" ry="2.5" style="stroke:#181818;stroke-width:0.5;" width="70" x="1791.5" y="36"/><text fill="#000000" font-family="sans-serif" font-size="14" lengthAdjust="spacing" textLength="56" x="1798.5" y="56.5352">Building</text><text fill="#000000" font-family="sans-serif" font-size="14" lengthAdjust="spacing" textLength="52" x="1800.5" y="73.0234">&#171;Entity&#187;</text><rect fill="#E2E2F0" height="46.9766" rx="2.5" ry="2.5" style="stroke:#181818;stroke-width:0.5;" width="70" x="1791.5" y="1020.498"/><text fill="#000000" font-family="sans-serif" font-size="14" lengthAdjust="spacing" textLength="56" x="1798.5" y="1041.0332">Building</text><text fill="#000000" font-family="sans-serif" font-size="14" lengthAdjust="spacing" textLength="52" x="1800.5" y="1057.5215">&#171;Entity&#187;</text><rect fill="#E2E2F0" height="46.9766" rx="2.5" ry="2.5" style="stroke:#181818;stroke-width:0.5;" width="200" x="1871.5" y="36"/><text fill="#000000" font-family="sans-serif" font-size="14" lengthAdjust="spacing" textLength="91" x="1926" y="56.5352">BuildingRepo</text><text fill="#000000" font-family="sans-serif" font-size="14" lengthAdjust="spacing" textLength="186" x="1878.5" y="73.0234">:IBuildingRepo&#171;Repository&#187;</text><rect fill="#E2E2F0" height="46.9766" rx="2.5" ry="2.5" style="stroke:#181818;stroke-width:0.5;" width="200" x="1871.5" y="1020.498"/><text fill="#000000" font-family="sans-serif" font-size="14" lengthAdjust="spacing" textLength="91" x="1926" y="1041.0332">BuildingRepo</text><text fill="#000000" font-family="sans-serif" font-size="14" lengthAdjust="spacing" textLength="186" x="1878.5" y="1057.5215">:IBuildingRepo&#171;Repository&#187;</text><rect fill="#E2E2F0" height="46.9766" rx="2.5" ry="2.5" style="stroke:#181818;stroke-width:0.5;" width="180" x="2081.5" y="36"/><text fill="#000000" font-family="sans-serif" font-size="14" lengthAdjust="spacing" textLength="71" x="2136" y="56.5352">FloorRepo</text><text fill="#000000" font-family="sans-serif" font-size="14" lengthAdjust="spacing" textLength="166" x="2088.5" y="73.0234">:IFloorRepo&#171;Repository&#187;</text><rect fill="#E2E2F0" height="46.9766" rx="2.5" ry="2.5" style="stroke:#181818;stroke-width:0.5;" width="180" x="2081.5" y="1020.498"/><text fill="#000000" font-family="sans-serif" font-size="14" lengthAdjust="spacing" textLength="71" x="2136" y="1041.0332">FloorRepo</text><text fill="#000000" font-family="sans-serif" font-size="14" lengthAdjust="spacing" textLength="166" x="2088.5" y="1057.5215">:IFloorRepo&#171;Repository&#187;</text><rect fill="#E2E2F0" height="46.9766" rx="2.5" ry="2.5" style="stroke:#181818;stroke-width:0.5;" width="102" x="2271.5" y="36"/><text fill="#000000" font-family="sans-serif" font-size="14" lengthAdjust="spacing" textLength="88" x="2278.5" y="56.5352">FloorMapper</text><text fill="#000000" font-family="sans-serif" font-size="14" lengthAdjust="spacing" textLength="82" x="2281.5" y="73.0234">&#171;Json2DTO&#187;</text><rect fill="#E2E2F0" height="46.9766" rx="2.5" ry="2.5" style="stroke:#181818;stroke-width:0.5;" width="102" x="2271.5" y="1020.498"/><text fill="#000000" font-family="sans-serif" font-size="14" lengthAdjust="spacing" textLength="88" x="2278.5" y="1041.0332">FloorMapper</text><text fill="#000000" font-family="sans-serif" font-size="14" lengthAdjust="spacing" textLength="82" x="2281.5" y="1057.5215">&#171;Json2DTO&#187;</text><rect fill="#E2E2F0" height="46.9766" rx="2.5" ry="2.5" style="stroke:#181818;stroke-width:0.5;" width="123" x="2383.5" y="36"/><text fill="#000000" font-family="sans-serif" font-size="14" lengthAdjust="spacing" textLength="109" x="2390.5" y="56.5352">DataBuilding&lt;&lt;</text><text fill="#000000" font-family="sans-serif" font-size="14" lengthAdjust="spacing" textLength="45" x="2422.5" y="73.0234">&#171;Data&#187;</text><rect fill="#E2E2F0" height="46.9766" rx="2.5" ry="2.5" style="stroke:#181818;stroke-width:0.5;" width="123" x="2383.5" y="1020.498"/><text fill="#000000" font-family="sans-serif" font-size="14" lengthAdjust="spacing" textLength="109" x="2390.5" y="1041.0332">DataBuilding&lt;&lt;</text><text fill="#000000" font-family="sans-serif" font-size="14" lengthAdjust="spacing" textLength="45" x="2422.5" y="1057.5215">&#171;Data&#187;</text><text fill="#000000" font-family="sans-serif" font-size="14" lengthAdjust="spacing" textLength="59" x="2525.5" y="64.5352">dbDriver</text><text fill="#000000" font-family="sans-serif" font-size="14" lengthAdjust="spacing" textLength="77" x="2516.5" y="81.0234">&#171;Database&#187;</text><path d="M2540,15 C2540,5 2558,5 2558,5 C2558,5 2576,5 2576,15 L2576,41 C2576,51 2558,51 2558,51 C2558,51 2540,51 2540,41 L2540,15 " fill="#E2E2F0" style="stroke:#181818;stroke-width:1.5;"/><path d="M2540,15 C2540,25 2558,25 2558,25 C2558,25 2576,25 2576,15 " fill="none" style="stroke:#181818;stroke-width:1.5;"/><text fill="#000000" font-family="sans-serif" font-size="14" lengthAdjust="spacing" textLength="59" x="2525.5" y="1034.0332">dbDriver</text><text fill="#000000" font-family="sans-serif" font-size="14" lengthAdjust="spacing" textLength="77" x="2516.5" y="1050.5215">&#171;Database&#187;</text><path d="M2540,1063.4746 C2540,1053.4746 2558,1053.4746 2558,1053.4746 C2558,1053.4746 2576,1053.4746 2576,1063.4746 L2576,1089.4746 C2576,1099.4746 2558,1099.4746 2558,1099.4746 C2558,1099.4746 2540,1099.4746 2540,1089.4746 L2540,1063.4746 " fill="#E2E2F0" style="stroke:#181818;stroke-width:1.5;"/><path d="M2540,1063.4746 C2540,1073.4746 2558,1073.4746 2558,1073.4746 C2558,1073.4746 2576,1073.4746 2576,1063.4746 " fill="none" style="stroke:#181818;stroke-width:1.5;"/><rect fill="#FFFFFF" height="888.2109" style="stroke:#181818;stroke-width:1.0;" width="10" x="353.5" y="115.2871"/><rect fill="#FFFFFF" height="829.5898" style="stroke:#181818;stroke-width:1.0;" width="10" x="725.5" y="144.5977"/><rect fill="#FFFFFF" height="28" style="stroke:#181818;stroke-width:1.0;" width="10" x="730.5" y="909.877"/><rect fill="#FFFFFF" height="276.5527" style="stroke:#181818;stroke-width:1.0;" width="10" x="866.5" y="291.8398"/><rect fill="#FFFFFF" height="677.6582" style="stroke:#181818;stroke-width:1.0;" width="10" x="1276.5" y="173.9082"/><rect fill="#FFFFFF" height="28" style="stroke:#181818;stroke-width:1.0;" width="10" x="1281.5" y="823.5664"/><rect fill="#FFFFFF" height="88.6211" style="stroke:#181818;stroke-width:1.0;" width="10" x="1727.5" y="638.3242"/><rect fill="#FFFFFF" height="30" style="stroke:#181818;stroke-width:1.0;" width="10" x="1821.5" y="345.4609"/><rect fill="#FFFFFF" height="30" style="stroke:#181818;stroke-width:1.0;" width="10" x="1821.5" y="404.7715"/><rect fill="#FFFFFF" height="30" style="stroke:#181818;stroke-width:1.0;" width="10" x="1821.5" y="464.082"/><rect fill="#FFFFFF" height="30" style="stroke:#181818;stroke-width:1.0;" width="10" x="1821.5" y="523.3926"/><rect fill="#FFFFFF" height="59.3105" style="stroke:#181818;stroke-width:1.0;" width="10" x="1966.5" y="203.2188"/><rect fill="#FFFFFF" height="59.3105" style="stroke:#181818;stroke-width:1.0;" width="10" x="2166.5" y="667.6348"/><rect fill="#FFFFFF" height="30" style="stroke:#181818;stroke-width:1.0;" width="10" x="2317.5" y="756.2559"/><rect fill="#FFFFFF" height="30" style="stroke:#181818;stroke-width:1.0;" width="10" x="2553" y="232.5293"/><rect fill="#FFFFFF" height="30" style="stroke:#181818;stroke-width:1.0;" width="10" x="2553" y="696.9453"/><polygon fill="#181818" points="341.5,111.2871,351.5,115.2871,341.5,119.2871,345.5,115.2871" style="stroke:#181818;stroke-width:1.0;"/><line style="stroke:#181818;stroke-width:1.0;" x1="29.5" x2="347.5" y1="115.2871" y2="115.2871"/><text fill="#000000" font-family="sans-serif" font-size="13" lengthAdjust="spacing" textLength="305" x="36.5" y="110.5449">GET/building/min=:param1/max=:param2(json)</text><polygon fill="#181818" points="713.5,140.5977,723.5,144.5977,713.5,148.5977,717.5,144.5977" style="stroke:#181818;stroke-width:1.0;"/><line style="stroke:#181818;stroke-width:1.0;" x1="363.5" x2="719.5" y1="144.5977" y2="144.5977"/><text fill="#000000" font-family="sans-serif" font-size="13" lengthAdjust="spacing" textLength="343" x="370.5" y="139.8555">getFloorsByParameters(param1, param2, req, res, next)</text><polygon fill="#181818" points="1264.5,169.9082,1274.5,173.9082,1264.5,177.9082,1268.5,173.9082" style="stroke:#181818;stroke-width:1.0;"/><line style="stroke:#181818;stroke-width:1.0;" x1="735.5" x2="1270.5" y1="173.9082" y2="173.9082"/><text fill="#000000" font-family="sans-serif" font-size="13" lengthAdjust="spacing" textLength="522" x="742.5" y="169.166">building_FloorsDTOList[] =  getFloorsByParameters(param1, param2, req, res, next)</text><polygon fill="#181818" points="1954.5,199.2188,1964.5,203.2188,1954.5,207.2188,1958.5,203.2188" style="stroke:#181818;stroke-width:1.0;"/><line style="stroke:#181818;stroke-width:1.0;" x1="1286.5" x2="1960.5" y1="203.2188" y2="203.2188"/><text fill="#000000" font-family="sans-serif" font-size="13" lengthAdjust="spacing" textLength="181" x="1293.5" y="198.4766">buildings[] = getAllBuilding()</text><polygon fill="#181818" points="2541,228.5293,2551,232.5293,2541,236.5293,2545,232.5293" style="stroke:#181818;stroke-width:1.0;"/><line style="stroke:#181818;stroke-width:1.0;" x1="1976.5" x2="2547" y1="232.5293" y2="232.5293"/><text fill="#000000" font-family="sans-serif" font-size="13" lengthAdjust="spacing" textLength="96" x="1983.5" y="227.7871">getAllBuilding()</text><polygon fill="#181818" points="887.5,287.8398,877.5,291.8398,887.5,295.8398,883.5,291.8398" style="stroke:#181818;stroke-width:1.0;"/><line style="stroke:#181818;stroke-width:1.0;" x1="881.5" x2="1275.5" y1="291.8398" y2="291.8398"/><text fill="#000000" font-family="sans-serif" font-size="13" lengthAdjust="spacing" textLength="225" x="893.5" y="287.0977">iBuildingDTO[] = toDTO(buildings[])</text><path d="M800.5,306.8398 L874.5,306.8398 L874.5,314.1504 L864.5,324.1504 L800.5,324.1504 L800.5,306.8398 " fill="#EEEEEE" style="stroke:#000000;stroke-width:1.5;"/><rect fill="none" height="254.5527" style="stroke:#000000;stroke-width:1.5;" width="1071" x="800.5" y="306.8398"/><text fill="#000000" font-family="sans-serif" font-size="13" font-weight="bold" lengthAdjust="spacing" textLength="29" x="815.5" y="320.4082">loop</text><text fill="#000000" font-family="sans-serif" font-size="11" font-weight="bold" lengthAdjust="spacing" textLength="127" x="889.5" y="319.4746">[(while data available)]</text><polygon fill="#181818" points="1809.5,341.4609,1819.5,345.4609,1809.5,349.4609,1813.5,345.4609" style="stroke:#181818;stroke-width:1.0;"/><line style="stroke:#181818;stroke-width:1.0;" x1="876.5" x2="1815.5" y1="345.4609" y2="345.4609"/><text fill="#000000" font-family="sans-serif" font-size="13" lengthAdjust="spacing" textLength="213" x="883.5" y="340.7188">buildingCode = getBuildingCode()</text><polygon fill="#181818" points="1809.5,400.7715,1819.5,404.7715,1809.5,408.7715,1813.5,404.7715" style="stroke:#181818;stroke-width:1.0;"/><line style="stroke:#181818;stroke-width:1.0;" x1="876.5" x2="1815.5" y1="404.7715" y2="404.7715"/><text fill="#000000" font-family="sans-serif" font-size="13" lengthAdjust="spacing" textLength="221" x="883.5" y="400.0293">buildingName = getBuildingName()</text><polygon fill="#181818" points="1809.5,460.082,1819.5,464.082,1809.5,468.082,1813.5,464.082" style="stroke:#181818;stroke-width:1.0;"/><line style="stroke:#181818;stroke-width:1.0;" x1="876.5" x2="1815.5" y1="464.082" y2="464.082"/><text fill="#000000" font-family="sans-serif" font-size="13" lengthAdjust="spacing" textLength="295" x="883.5" y="459.3398">buildingDescription = getBuildingDescription()</text><polygon fill="#181818" points="1809.5,519.3926,1819.5,523.3926,1809.5,527.3926,1813.5,523.3926" style="stroke:#181818;stroke-width:1.0;"/><line style="stroke:#181818;stroke-width:1.0;" x1="876.5" x2="1815.5" y1="523.3926" y2="523.3926"/><text fill="#000000" font-family="sans-serif" font-size="13" lengthAdjust="spacing" textLength="199" x="883.5" y="518.6504">buildingSize = getBuildingSize()</text><path d="M1202.5,575.3926 L1276.5,575.3926 L1276.5,582.7031 L1266.5,592.7031 L1202.5,592.7031 L1202.5,575.3926 " fill="#EEEEEE" style="stroke:#000000;stroke-width:1.5;"/><rect fill="none" height="298.1738" style="stroke:#000000;stroke-width:1.5;" width="1417" x="1202.5" y="575.3926"/><text fill="#000000" font-family="sans-serif" font-size="13" font-weight="bold" lengthAdjust="spacing" textLength="29" x="1217.5" y="588.9609">loop</text><text fill="#000000" font-family="sans-serif" font-size="11" font-weight="bold" lengthAdjust="spacing" textLength="181" x="1291.5" y="588.0273">[(while buildingDTO[] has next)]</text><path d="M1212.5,599.7031 L1274.5,599.7031 L1274.5,607.0137 L1264.5,617.0137 L1212.5,617.0137 L1212.5,599.7031 " fill="#EEEEEE" style="stroke:#000000;stroke-width:1.5;"/><rect fill="none" height="266.8633" style="stroke:#000000;stroke-width:1.5;" width="1397" x="1212.5" y="599.7031"/><text fill="#000000" font-family="sans-serif" font-size="13" font-weight="bold" lengthAdjust="spacing" textLength="17" x="1227.5" y="613.2715">alt</text><text fill="#000000" font-family="sans-serif" font-size="11" font-weight="bold" lengthAdjust="spacing" textLength="225" x="1289.5" y="612.3379">[size &gt;= param1 &amp;&amp; param &lt;= param2]</text><polygon fill="#181818" points="1715.5,634.3242,1725.5,638.3242,1715.5,642.3242,1719.5,638.3242" style="stroke:#181818;stroke-width:1.0;"/><line style="stroke:#181818;stroke-width:1.0;" x1="1286.5" x2="1721.5" y1="638.3242" y2="638.3242"/><text fill="#000000" font-family="sans-serif" font-size="13" lengthAdjust="spacing" textLength="422" x="1293.5" y="633.582">quantityFloors = findFloorsByBuilding(buildingDTO[].buildingCode)</text><polygon fill="#181818" points="2154.5,663.6348,2164.5,667.6348,2154.5,671.6348,2158.5,667.6348" style="stroke:#181818;stroke-width:1.0;"/><line style="stroke:#181818;stroke-width:1.0;" x1="1737.5" x2="2160.5" y1="667.6348" y2="667.6348"/><text fill="#000000" font-family="sans-serif" font-size="13" lengthAdjust="spacing" textLength="221" x="1744.5" y="662.8926">findFloorsByBuilding(buildingCode)</text><polygon fill="#181818" points="2541,692.9453,2551,696.9453,2541,700.9453,2545,696.9453" style="stroke:#181818;stroke-width:1.0;"/><line style="stroke:#181818;stroke-width:1.0;" x1="2176.5" x2="2547" y1="696.9453" y2="696.9453"/><text fill="#000000" font-family="sans-serif" font-size="13" lengthAdjust="spacing" textLength="221" x="2183.5" y="692.2031">findFloorsByBuilding(buildingCode)</text><polygon fill="#181818" points="2305.5,752.2559,2315.5,756.2559,2305.5,760.2559,2309.5,756.2559" style="stroke:#181818;stroke-width:1.0;"/><line style="stroke:#181818;stroke-width:1.0;" x1="1286.5" x2="2311.5" y1="756.2559" y2="756.2559"/><text fill="#000000" font-family="sans-serif" font-size="13" lengthAdjust="spacing" textLength="348" x="1293.5" y="751.5137">building_FloorsDTO = toDTO(building , quantityFloors)</text><line style="stroke:#181818;stroke-width:1.0;" x1="1291.5" x2="1333.5" y1="815.5664" y2="815.5664"/><line style="stroke:#181818;stroke-width:1.0;" x1="1333.5" x2="1333.5" y1="815.5664" y2="828.5664"/><line style="stroke:#181818;stroke-width:1.0;" x1="1292.5" x2="1333.5" y1="828.5664" y2="828.5664"/><polygon fill="#181818" points="1302.5,824.5664,1292.5,828.5664,1302.5,832.5664,1298.5,828.5664" style="stroke:#181818;stroke-width:1.0;"/><text fill="#000000" font-family="sans-serif" font-size="13" lengthAdjust="spacing" textLength="330" x="1298.5" y="810.8242">building_FloorsDTOList[].push(building_FloorsDTO);</text><line style="stroke:#181818;stroke-width:1.0;" x1="740.5" x2="782.5" y1="901.877" y2="901.877"/><line style="stroke:#181818;stroke-width:1.0;" x1="782.5" x2="782.5" y1="901.877" y2="914.877"/><line style="stroke:#181818;stroke-width:1.0;" x1="741.5" x2="782.5" y1="914.877" y2="914.877"/><polygon fill="#181818" points="751.5,910.877,741.5,914.877,751.5,918.877,747.5,914.877" style="stroke:#181818;stroke-width:1.0;"/><text fill="#000000" font-family="sans-serif" font-size="13" lengthAdjust="spacing" textLength="111" x="747.5" y="897.1348">generateRes(json)</text><polygon fill="#181818" points="374.5,970.1875,364.5,974.1875,374.5,978.1875,370.5,974.1875" style="stroke:#181818;stroke-width:1.0;"/><line style="stroke:#181818;stroke-width:1.0;stroke-dasharray:2.0,2.0;" x1="368.5" x2="729.5" y1="974.1875" y2="974.1875"/><text fill="#000000" font-family="sans-serif" font-size="13" lengthAdjust="spacing" textLength="57" x="380.5" y="969.4453">response</text><polygon fill="#181818" points="40.5,999.498,30.5,1003.498,40.5,1007.498,36.5,1003.498" style="stroke:#181818;stroke-width:1.0;"/><line style="stroke:#181818;stroke-width:1.0;" x1="34.5" x2="357.5" y1="1003.498" y2="1003.498"/><text fill="#000000" font-family="sans-serif" font-size="13" lengthAdjust="spacing" textLength="57" x="46.5" y="998.7559">response</text><!--SRC=[lLPBRzim3BxxLmWz50cGjQYFcHiWQRAXGn-1wmqTrc6GOwtLuCYkfMJjVlseXstPbjr3j_gGw45-fCYFbE9inn9SFADRByU5e1kQOoRGmJJCTe8iTZHDABi_G9YZyFfpj6fAbVjd6HD5bgQak6D1KCzcCwLv5eKNRiLBdETQwHFFcB-ChetAvNozNeLDfGzfbXKlQFXkEo0cLMff6BabVoWhtANGWtr3YZtT42bkXaRb9lpYEqum9E-s84LNJ53nR2HNLz5vzDKj798yksFJStiU1FANKv4L9KIuMbyxd2krgqcFgj-RJnMsR8if90SBF9GTkLzg1e5Ih3MMysZk9J2FCIVe88cN1Tthp2_DQYcvyBnRz6wc6OgcwECgEeuDxl6MijCfcCNRa-CjVZ9ZV_GBw3Fsy4RGFHR4i5iZ09IaB23T4w7vi7XUIpKYIC576cs2DD845UHH_l09OkH9Z3q4NmMio2zN52H0Ire0TDmXt0NbujjtT8h-XLb5Fa-joKyPbI62tA5fQPihSs1jdgPb8aRZIga1g0XZ8SfFeG7gSg5ZrG_JW8A4jVSIOkzwFLlAX_QHDBN00MfLkpgOo60qiWvR-rH1caPJcuEuvsZq-u6c14dw8Rp7DCLnIjedCeR11LsFLbBFieJeo2wi5KTCB4zCKNSbh00uPGRyk0BkDFsGAs_lnvBmJK5pGJFMTCVQU7klRkYVLdJaod_mWx14yQgFruQ4dek3SOFK3z3lwcetlgK2SNcKsQdk3IVey52FK62M_4xPm3-4ud67rSMYsmq4uoTbITbxgbfk-71aaxmJAxi1UUrDQTCq8Ta21sqvqJiToVTS8jf0sPXUQSRHhOORbhjl-I_8g7YvW9fzpdrrT9eTchHIEqZgydOUTB1Vo44jwMRl5NUKx_Z3gBixVZy0thpP-kMQ8Nsbf2nSAAywBLKbDwxqwhN0I05m8U7cUT5nldeDj1nGwnQczPg16pxF62UUIqMnlNoqtDhIDltKs-Ol]--></g></svg>