<?xml version="1.0" encoding="us-ascii" standalone="no"?><svg xmlns="http://www.w3.org/2000/svg" xmlns:xlink="http://www.w3.org/1999/xlink" contentStyleType="text/css" height="281px" preserveAspectRatio="none" style="width:625px;height:281px;background:#AFE3FA;" version="1.1" viewBox="0 0 625 281" width="625px" zoomAndPan="magnify"><defs/><g><rect fill="#AFE3FA" height="281" style="stroke:none;stroke-width:1.0;" width="625" x="0" y="0"/><!--cluster App--><g id="cluster_App"><rect fill="#AFE3FA" height="234" rx="2.5" ry="2.5" style="stroke:#181818;stroke-width:1.0;" width="612" x="7" y="41.9414"/><rect fill="#AFE3FA" height="10" style="stroke:#181818;stroke-width:1.0;" width="15" x="599" y="46.9414"/><rect fill="#AFE3FA" height="2" style="stroke:#181818;stroke-width:1.0;" width="4" x="597" y="48.9414"/><rect fill="#AFE3FA" height="2" style="stroke:#181818;stroke-width:1.0;" width="4" x="597" y="52.9414"/><text fill="#000000" font-family="sans-serif" font-size="14" font-weight="bold" lengthAdjust="spacing" textLength="28" x="299" y="68.4766">App</text></g><text fill="#000000" font-family="sans-serif" font-size="14" lengthAdjust="spacing" textLength="14" x="119" y="20.9883">UI</text><rect fill="#F1F1F1" height="12" style="stroke:#181818;stroke-width:1.5;" width="12" x="120" y="35.9414"/><!--entity Frontend--><g id="elem_Frontend"><rect fill="#9EC3FF" height="46.4883" rx="2.5" ry="2.5" style="stroke:#181818;stroke-width:0.5;" width="103" x="155.5" y="107.9414"/><rect fill="#9EC3FF" height="10" style="stroke:#181818;stroke-width:0.5;" width="15" x="238.5" y="112.9414"/><rect fill="#9EC3FF" height="2" style="stroke:#181818;stroke-width:0.5;" width="4" x="236.5" y="114.9414"/><rect fill="#9EC3FF" height="2" style="stroke:#181818;stroke-width:0.5;" width="4" x="236.5" y="118.9414"/><text fill="#000000" font-family="sans-serif" font-size="14" lengthAdjust="spacing" textLength="63" x="170.5" y="141.4766">Frontend</text></g><!--entity Tarefas--><g id="elem_Tarefas"><rect fill="#CDFFBA" height="46.4883" rx="2.5" ry="2.5" style="stroke:#181818;stroke-width:0.5;" width="91" x="511.5" y="107.9414"/><rect fill="#CDFFBA" height="10" style="stroke:#181818;stroke-width:0.5;" width="15" x="582.5" y="112.9414"/><rect fill="#CDFFBA" height="2" style="stroke:#181818;stroke-width:0.5;" width="4" x="580.5" y="114.9414"/><rect fill="#CDFFBA" height="2" style="stroke:#181818;stroke-width:0.5;" width="4" x="580.5" y="118.9414"/><text fill="#000000" font-family="sans-serif" font-size="14" lengthAdjust="spacing" textLength="51" x="526.5" y="141.4766">Tarefas</text></g><!--entity Dispositivos + Instala??es--><g id="elem_Dispositivos + Instala&#231;&#245;es"><rect fill="#F7B0F4" height="46.4883" rx="2.5" ry="2.5" style="stroke:#181818;stroke-width:0.5;" width="217" x="385.5" y="213.9414"/><rect fill="#F7B0F4" height="10" style="stroke:#181818;stroke-width:0.5;" width="15" x="582.5" y="218.9414"/><rect fill="#F7B0F4" height="2" style="stroke:#181818;stroke-width:0.5;" width="4" x="580.5" y="220.9414"/><rect fill="#F7B0F4" height="2" style="stroke:#181818;stroke-width:0.5;" width="4" x="580.5" y="224.9414"/><text fill="#000000" font-family="sans-serif" font-size="14" lengthAdjust="spacing" textLength="177" x="400.5" y="247.4766">Dispositivos + Instala&#231;&#245;es</text></g><!--entity Planeamento--><g id="elem_Planeamento"><rect fill="#F2E8AC" height="46.4883" rx="2.5" ry="2.5" style="stroke:#181818;stroke-width:0.5;" width="129" x="347.5" y="107.9414"/><rect fill="#F2E8AC" height="10" style="stroke:#181818;stroke-width:0.5;" width="15" x="456.5" y="112.9414"/><rect fill="#F2E8AC" height="2" style="stroke:#181818;stroke-width:0.5;" width="4" x="454.5" y="114.9414"/><rect fill="#F2E8AC" height="2" style="stroke:#181818;stroke-width:0.5;" width="4" x="454.5" y="118.9414"/><text fill="#000000" font-family="sans-serif" font-size="14" lengthAdjust="spacing" textLength="89" x="362.5" y="141.4766">Planeamento</text></g><!--entity TarefasAPI--><g id="elem_TarefasAPI"><ellipse cx="111" cy="130.9414" fill="#000000" rx="8" ry="8" style="stroke:#181818;stroke-width:0.5;"/><text fill="#000000" font-family="sans-serif" font-size="14" lengthAdjust="spacing" textLength="73" x="74.5" y="161.4766">TarefasAPI</text></g><!--entity DispositivosAPI--><g id="elem_DispositivosAPI"><ellipse cx="341" cy="236.9414" fill="#000000" rx="8" ry="8" style="stroke:#181818;stroke-width:0.5;"/><text fill="#000000" font-family="sans-serif" font-size="14" lengthAdjust="spacing" textLength="104" x="289" y="267.4766">DispositivosAPI</text></g><!--entity PlaneamentoAPI--><g id="elem_PlaneamentoAPI"><ellipse cx="303" cy="130.9414" fill="#000000" rx="8" ry="8" style="stroke:#181818;stroke-width:0.5;"/><text fill="#000000" font-family="sans-serif" font-size="14" lengthAdjust="spacing" textLength="111" x="247.5" y="161.4766">PlaneamentoAPI</text></g><!--link TarefasAPI to Tarefas--><g id="link_TarefasAPI_Tarefas"><path d="M114.858,121.9184 C121.137,108.5444 134.965,83.9614 155.5,73.9414 C219.608,42.6594 408.525,52.3124 476.5,73.9414 C497.551,80.6394 517.827,95.0604 532.764,107.7204 " fill="none" id="TarefasAPI-Tarefas" style="stroke:#181818;stroke-width:1.0;"/></g><!--link DispositivosAPI to Dispositivos + Instala??es--><g id="link_DispositivosAPI_Dispositivos + Instala&#231;&#245;es"><path d="M350.264,236.9414 C361.961,236.9414 373.658,236.9414 385.356,236.9414 " fill="none" id="DispositivosAPI-Dispositivos + Instala&#231;&#245;es" style="stroke:#181818;stroke-width:1.0;"/></g><!--link PlaneamentoAPI to Planeamento--><g id="link_PlaneamentoAPI_Planeamento"><path d="M312.367,130.9414 C324.043,130.9414 335.719,130.9414 347.394,130.9414 " fill="none" id="PlaneamentoAPI-Planeamento" style="stroke:#181818;stroke-width:1.0;"/></g><!--link Frontend to DispositivosAPI--><g id="link_Frontend_DispositivosAPI"><path d="M235.418,153.9974 C265.841,177.6084 307.6231,210.037 327.1421,225.1859 " fill="none" id="Frontend-to-DispositivosAPI" style="stroke:#181818;stroke-width:1.0;"/><polygon fill="#181818" points="331.882,228.8646,327.2246,220.1866,327.932,225.799,322.3196,226.5065,331.882,228.8646" style="stroke:#181818;stroke-width:1.0;"/></g><!--link Frontend to PlaneamentoAPI--><g id="link_Frontend_PlaneamentoAPI"><path d="M258.75,130.9414 C270.389,130.9414 276.027,130.9414 287.666,130.9414 " fill="none" id="Frontend-to-PlaneamentoAPI" style="stroke:#181818;stroke-width:1.0;"/><polygon fill="#181818" points="293.666,130.9414,284.666,126.9414,288.666,130.9414,284.666,134.9414,293.666,130.9414" style="stroke:#181818;stroke-width:1.0;"/></g><!--reverse link TarefasAPI to Frontend--><g id="link_TarefasAPI_Frontend"><path d="M126.375,130.9414 C137.993,130.9414 143.61,130.9414 155.228,130.9414 " fill="none" id="TarefasAPI-backto-Frontend" style="stroke:#181818;stroke-width:1.0;"/><polygon fill="#181818" points="120.375,130.9414,129.375,134.9414,125.375,130.9414,129.375,126.9414,120.375,130.9414" style="stroke:#181818;stroke-width:1.0;"/></g><!--reverse link UI to Frontend--><g id="link_UI_Frontend"><path d="M134.9127,52.5146 C145.6077,64.0006 167.746,87.7804 186.433,107.8504 " fill="none" id="UI-backto-Frontend" style="stroke:#181818;stroke-width:1.0;"/><polygon fill="#181818" points="130.824,48.1234,134.0297,57.436,134.2313,51.7827,139.8845,51.9843,130.824,48.1234" style="stroke:#181818;stroke-width:1.0;"/></g><!--link Tarefas to DispositivosAPI--><g id="link_Tarefas_DispositivosAPI"><path d="M511.358,143.2774 C467.689,157.1564 402.337,182.7114 351,213.9414 C344.594,217.8382 341.5129,218.2148 338.4079,222.6272 " fill="none" id="Tarefas-to-DispositivosAPI" style="stroke:#181818;stroke-width:1.0;"/><polygon fill="#181818" points="334.955,227.534,343.4056,222.4757,337.8325,223.445,336.8632,217.8718,334.955,227.534" style="stroke:#181818;stroke-width:1.0;"/></g><!--link Tarefas to DispositivosAPI--><g id="link_Tarefas_DispositivosAPI"><path d="M511.254,153.5834 C475.696,168.2094 426.489,189.3104 386,213.9414 C375.152,220.5408 369.735,229.5885 356.117,233.1763 " fill="none" id="Tarefas-to-DispositivosAPI-1" style="stroke:#181818;stroke-width:1.0;"/><polygon fill="#181818" points="350.315,234.7049,360.0371,236.28,355.15,233.4311,357.999,228.544,350.315,234.7049" style="stroke:#181818;stroke-width:1.0;"/></g><!--link Planeamento to DispositivosAPI--><g id="link_Planeamento_DispositivosAPI"><path d="M396.943,153.9974 C381.149,177.1314 360.5491,207.3066 349.8581,222.9658 " fill="none" id="Planeamento-to-DispositivosAPI" style="stroke:#181818;stroke-width:1.0;"/><polygon fill="#181818" points="346.475,227.9211,354.8532,222.7436,349.2943,223.7917,348.2461,218.2328,346.475,227.9211" style="stroke:#181818;stroke-width:1.0;"/></g><!--reverse link TarefasAPI to PlaneamentoAPI--><g id="link_TarefasAPI_PlaneamentoAPI"><path d="M117.4079,116.4872 C123.6869,103.1132 134.965,83.9614 155.5,73.9414 C196.641,53.8664 217.359,53.8664 258.5,73.9414 C279.035,83.9614 292.863,108.5444 299.142,121.9184 " fill="none" id="TarefasAPI-backto-PlaneamentoAPI" style="stroke:#181818;stroke-width:1.0;"/><polygon fill="#181818" points="114.858,121.9184,122.3037,115.4715,116.9829,117.3924,115.0621,112.0717,114.858,121.9184" style="stroke:#181818;stroke-width:1.0;"/></g><!--SRC=[XP71JWCX48RlFCKaUpGa6skYNangZSdUUj2JyJ1b6KEwon2WNepFunFu17qnAL5t8TLo6lZ-cPyVmjPOXnv7k4MrVV6yi_sA1_RG8Ea5eH2AHyTMsmXBvtwEuKr0MevzXCSkrvFkwTwpZThspz1SQxKWgWKFw3LXI5prH1ki-Pq9ZeE9vfK3d45dGyG1zn_xJtreeijDInTrqtf0gt5CDHyqv_eALTQOT1bFg3Hy-oxN7JHjsrPqxlg7PERngyYIsMGvovTPFLUU29YRAYTPvXFlGioUMVRofhOfk4-yd5ZW8U4fGO5s2QKVdY8TzoeU_wGaxO-u_c_n1G00]--></g></svg>