<?xml version="1.0" encoding="us-ascii" standalone="no"?><svg xmlns="http://www.w3.org/2000/svg" xmlns:xlink="http://www.w3.org/1999/xlink" contentStyleType="text/css" height="1315px" preserveAspectRatio="none" style="width:2154px;height:1315px;background:#FFFFFF;" version="1.1" viewBox="0 0 2154 1315" width="2154px" zoomAndPan="magnify"><defs/><g><rect fill="#FFFFFF" height="1086.8301" style="stroke:#181818;stroke-width:1.0;" width="10" x="178.5" y="115.2871"/><rect fill="#FFFFFF" height="1028.209" style="stroke:#181818;stroke-width:1.0;" width="10" x="331.5" y="144.5977"/><rect fill="#FFFFFF" height="28" style="stroke:#181818;stroke-width:1.0;" width="10" x="336.5" y="181.9082"/><rect fill="#FFFFFF" height="28" style="stroke:#181818;stroke-width:1.0;" width="10" x="336.5" y="1108.4961"/><rect fill="#FFFFFF" height="29.3105" style="stroke:#181818;stroke-width:1.0;" width="10" x="472.5" y="246.2188"/><rect fill="#FFFFFF" height="237.2422" style="stroke:#181818;stroke-width:1.0;" width="10" x="472.5" y="833.9434"/><rect fill="#FFFFFF" height="737.6797" style="stroke:#181818;stroke-width:1.0;" width="10" x="743.5" y="333.5059"/><rect fill="#FFFFFF" height="30" style="stroke:#181818;stroke-width:1.0;" width="10" x="1003.5" y="479.4141"/><rect fill="#FFFFFF" height="30" style="stroke:#181818;stroke-width:1.0;" width="10" x="1003.5" y="538.7246"/><rect fill="#FFFFFF" height="30" style="stroke:#181818;stroke-width:1.0;" width="10" x="1003.5" y="598.0352"/><rect fill="#FFFFFF" height="30" style="stroke:#181818;stroke-width:1.0;" width="10" x="1003.5" y="657.3457"/><rect fill="#FFFFFF" height="30" style="stroke:#181818;stroke-width:1.0;" width="10" x="1003.5" y="863.2539"/><rect fill="#FFFFFF" height="30" style="stroke:#181818;stroke-width:1.0;" width="10" x="1003.5" y="922.5645"/><rect fill="#FFFFFF" height="30" style="stroke:#181818;stroke-width:1.0;" width="10" x="1003.5" y="981.875"/><rect fill="#FFFFFF" height="30" style="stroke:#181818;stroke-width:1.0;" width="10" x="1003.5" y="1041.1855"/><rect fill="#FFFFFF" height="383.8398" style="stroke:#181818;stroke-width:1.0;" width="10" x="1148.5" y="420.793"/><rect fill="#FFFFFF" height="266.5527" style="stroke:#181818;stroke-width:1.0;" width="10" x="1375.5" y="450.1035"/><rect fill="#FFFFFF" height="30" style="stroke:#181818;stroke-width:1.0;" width="10" x="2107" y="774.6328"/><line style="stroke:#181818;stroke-width:0.5;stroke-dasharray:5.0,5.0;" x1="29" x2="29" y1="83.9766" y2="1220.1172"/><line style="stroke:#181818;stroke-width:0.5;stroke-dasharray:5.0,5.0;" x1="183.5" x2="183.5" y1="83.9766" y2="1220.1172"/><line style="stroke:#181818;stroke-width:0.5;stroke-dasharray:5.0,5.0;" x1="336.5" x2="336.5" y1="83.9766" y2="1220.1172"/><line style="stroke:#181818;stroke-width:0.5;stroke-dasharray:5.0,5.0;" x1="477.5" x2="477.5" y1="83.9766" y2="1220.1172"/><line style="stroke:#181818;stroke-width:0.5;stroke-dasharray:5.0,5.0;" x1="629.5" x2="629.5" y1="293.207" y2="1220.1172"/><line style="stroke:#181818;stroke-width:0.5;stroke-dasharray:5.0,5.0;" x1="748.5" x2="748.5" y1="83.9766" y2="1220.1172"/><line style="stroke:#181818;stroke-width:0.5;stroke-dasharray:5.0,5.0;" x1="1008.5" x2="1008.5" y1="380.4941" y2="1220.1172"/><line style="stroke:#181818;stroke-width:0.5;stroke-dasharray:5.0,5.0;" x1="1153.5" x2="1153.5" y1="83.9766" y2="1220.1172"/><line style="stroke:#181818;stroke-width:0.5;stroke-dasharray:5.0,5.0;" x1="1380" x2="1380" y1="83.9766" y2="1220.1172"/><line style="stroke:#181818;stroke-width:0.5;stroke-dasharray:5.0,5.0;" x1="1998.5" x2="1998.5" y1="734.334" y2="1220.1172"/><line style="stroke:#181818;stroke-width:0.5;stroke-dasharray:5.0,5.0;" x1="2111.5" x2="2111.5" y1="83.9766" y2="1220.1172"/><text fill="#000000" font-family="sans-serif" font-size="14" lengthAdjust="spacing" textLength="9" x="22" y="81.0234">X</text><path d="M9,39.4883 L9,63.4883 M9,51.4883 L26,51.4883 " fill="none" style="stroke:#181818;stroke-width:0.5;"/><ellipse cx="38" cy="51.4883" fill="#E2E2F0" rx="12" ry="12" style="stroke:#181818;stroke-width:0.5;"/><text fill="#000000" font-family="sans-serif" font-size="14" lengthAdjust="spacing" textLength="9" x="22" y="1232.6523">X</text><path d="M9,1239.6055 L9,1263.6055 M9,1251.6055 L26,1251.6055 " fill="none" style="stroke:#181818;stroke-width:0.5;"/><ellipse cx="38" cy="1251.6055" fill="#E2E2F0" rx="12" ry="12" style="stroke:#181818;stroke-width:0.5;"/><rect fill="#E2E2F0" height="30.4883" rx="2.5" ry="2.5" style="stroke:#181818;stroke-width:0.5;" width="114" x="126.5" y="52.4883"/><text fill="#000000" font-family="sans-serif" font-size="14" lengthAdjust="spacing" textLength="100" x="133.5" y="73.0234">:RouteBuilding</text><rect fill="#E2E2F0" height="30.4883" rx="2.5" ry="2.5" style="stroke:#181818;stroke-width:0.5;" width="114" x="126.5" y="1219.1172"/><text fill="#000000" font-family="sans-serif" font-size="14" lengthAdjust="spacing" textLength="100" x="133.5" y="1239.6523">:RouteBuilding</text><rect fill="#E2E2F0" height="46.9766" rx="2.5" ry="2.5" style="stroke:#181818;stroke-width:0.5;" width="140" x="266.5" y="36"/><text fill="#000000" font-family="sans-serif" font-size="14" lengthAdjust="spacing" textLength="126" x="273.5" y="56.5352">BuildingController</text><text fill="#000000" font-family="sans-serif" font-size="14" lengthAdjust="spacing" textLength="84" x="294.5" y="73.0234">&#171;Controller&#187;</text><rect fill="#E2E2F0" height="46.9766" rx="2.5" ry="2.5" style="stroke:#181818;stroke-width:0.5;" width="140" x="266.5" y="1219.1172"/><text fill="#000000" font-family="sans-serif" font-size="14" lengthAdjust="spacing" textLength="126" x="273.5" y="1239.6523">BuildingController</text><text fill="#000000" font-family="sans-serif" font-size="14" lengthAdjust="spacing" textLength="84" x="294.5" y="1256.1406">&#171;Controller&#187;</text><rect fill="#E2E2F0" height="46.9766" rx="2.5" ry="2.5" style="stroke:#181818;stroke-width:0.5;" width="122" x="416.5" y="36"/><text fill="#000000" font-family="sans-serif" font-size="14" lengthAdjust="spacing" textLength="108" x="423.5" y="56.5352">BuildingMapper</text><text fill="#000000" font-family="sans-serif" font-size="14" lengthAdjust="spacing" textLength="82" x="436.5" y="73.0234">&#171;Json2DTO&#187;</text><rect fill="#E2E2F0" height="46.9766" rx="2.5" ry="2.5" style="stroke:#181818;stroke-width:0.5;" width="122" x="416.5" y="1219.1172"/><text fill="#000000" font-family="sans-serif" font-size="14" lengthAdjust="spacing" textLength="108" x="423.5" y="1239.6523">BuildingMapper</text><text fill="#000000" font-family="sans-serif" font-size="14" lengthAdjust="spacing" textLength="82" x="436.5" y="1256.1406">&#171;Json2DTO&#187;</text><rect fill="#E2E2F0" height="46.9766" rx="2.5" ry="2.5" style="stroke:#181818;stroke-width:0.5;" width="100" x="579.5" y="1219.1172"/><text fill="#000000" font-family="sans-serif" font-size="14" lengthAdjust="spacing" textLength="86" x="586.5" y="1239.6523">BuildingDTO</text><text fill="#000000" font-family="sans-serif" font-size="14" lengthAdjust="spacing" textLength="44" x="607.5" y="1256.1406">&#171;DTO&#187;</text><rect fill="#E2E2F0" height="46.9766" rx="2.5" ry="2.5" style="stroke:#181818;stroke-width:0.5;" width="118" x="689.5" y="36"/><text fill="#000000" font-family="sans-serif" font-size="14" lengthAdjust="spacing" textLength="104" x="696.5" y="56.5352">BuildingService</text><text fill="#000000" font-family="sans-serif" font-size="14" lengthAdjust="spacing" textLength="62" x="717.5" y="73.0234">&#171;Service&#187;</text><rect fill="#E2E2F0" height="46.9766" rx="2.5" ry="2.5" style="stroke:#181818;stroke-width:0.5;" width="118" x="689.5" y="1219.1172"/><text fill="#000000" font-family="sans-serif" font-size="14" lengthAdjust="spacing" textLength="104" x="696.5" y="1239.6523">BuildingService</text><text fill="#000000" font-family="sans-serif" font-size="14" lengthAdjust="spacing" textLength="62" x="717.5" y="1256.1406">&#171;Service&#187;</text><rect fill="#E2E2F0" height="46.9766" rx="2.5" ry="2.5" style="stroke:#181818;stroke-width:0.5;" width="70" x="973.5" y="1219.1172"/><text fill="#000000" font-family="sans-serif" font-size="14" lengthAdjust="spacing" textLength="56" x="980.5" y="1239.6523">Building</text><text fill="#000000" font-family="sans-serif" font-size="14" lengthAdjust="spacing" textLength="52" x="982.5" y="1256.1406">&#171;Entity&#187;</text><rect fill="#E2E2F0" height="46.9766" rx="2.5" ry="2.5" style="stroke:#181818;stroke-width:0.5;" width="200" x="1053.5" y="36"/><text fill="#000000" font-family="sans-serif" font-size="14" lengthAdjust="spacing" textLength="91" x="1108" y="56.5352">BuildingRepo</text><text fill="#000000" font-family="sans-serif" font-size="14" lengthAdjust="spacing" textLength="186" x="1060.5" y="73.0234">:IBuildingRepo&#171;Repository&#187;</text><rect fill="#E2E2F0" height="46.9766" rx="2.5" ry="2.5" style="stroke:#181818;stroke-width:0.5;" width="200" x="1053.5" y="1219.1172"/><text fill="#000000" font-family="sans-serif" font-size="14" lengthAdjust="spacing" textLength="91" x="1108" y="1239.6523">BuildingRepo</text><text fill="#000000" font-family="sans-serif" font-size="14" lengthAdjust="spacing" textLength="186" x="1060.5" y="1256.1406">:IBuildingRepo&#171;Repository&#187;</text><rect fill="#E2E2F0" height="46.9766" rx="2.5" ry="2.5" style="stroke:#181818;stroke-width:0.5;" width="121" x="1320" y="36"/><text fill="#000000" font-family="sans-serif" font-size="14" lengthAdjust="spacing" textLength="85" x="1338" y="56.5352">BuildingMap</text><text fill="#000000" font-family="sans-serif" font-size="14" lengthAdjust="spacing" textLength="107" x="1327" y="73.0234">&#171;Domain2Data&#187;</text><rect fill="#E2E2F0" height="46.9766" rx="2.5" ry="2.5" style="stroke:#181818;stroke-width:0.5;" width="121" x="1320" y="1219.1172"/><text fill="#000000" font-family="sans-serif" font-size="14" lengthAdjust="spacing" textLength="85" x="1338" y="1239.6523">BuildingMap</text><text fill="#000000" font-family="sans-serif" font-size="14" lengthAdjust="spacing" textLength="107" x="1327" y="1256.1406">&#171;Domain2Data&#187;</text><rect fill="#E2E2F0" height="46.9766" rx="2.5" ry="2.5" style="stroke:#181818;stroke-width:0.5;" width="123" x="1937.5" y="1219.1172"/><text fill="#000000" font-family="sans-serif" font-size="14" lengthAdjust="spacing" textLength="109" x="1944.5" y="1239.6523">DataBuilding&lt;&lt;</text><text fill="#000000" font-family="sans-serif" font-size="14" lengthAdjust="spacing" textLength="45" x="1976.5" y="1256.1406">&#171;Data&#187;</text><text fill="#000000" font-family="sans-serif" font-size="14" lengthAdjust="spacing" textLength="59" x="2079.5" y="64.5352">dbDriver</text><text fill="#000000" font-family="sans-serif" font-size="14" lengthAdjust="spacing" textLength="77" x="2070.5" y="81.0234">&#171;Database&#187;</text><path d="M2094,15 C2094,5 2112,5 2112,5 C2112,5 2130,5 2130,15 L2130,41 C2130,51 2112,51 2112,51 C2112,51 2094,51 2094,41 L2094,15 " fill="#E2E2F0" style="stroke:#181818;stroke-width:1.5;"/><path d="M2094,15 C2094,25 2112,25 2112,25 C2112,25 2130,25 2130,15 " fill="none" style="stroke:#181818;stroke-width:1.5;"/><text fill="#000000" font-family="sans-serif" font-size="14" lengthAdjust="spacing" textLength="59" x="2079.5" y="1232.6523">dbDriver</text><text fill="#000000" font-family="sans-serif" font-size="14" lengthAdjust="spacing" textLength="77" x="2070.5" y="1249.1406">&#171;Database&#187;</text><path d="M2094,1262.0938 C2094,1252.0938 2112,1252.0938 2112,1252.0938 C2112,1252.0938 2130,1252.0938 2130,1262.0938 L2130,1288.0938 C2130,1298.0938 2112,1298.0938 2112,1298.0938 C2112,1298.0938 2094,1298.0938 2094,1288.0938 L2094,1262.0938 " fill="#E2E2F0" style="stroke:#181818;stroke-width:1.5;"/><path d="M2094,1262.0938 C2094,1272.0938 2112,1272.0938 2112,1272.0938 C2112,1272.0938 2130,1272.0938 2130,1262.0938 " fill="none" style="stroke:#181818;stroke-width:1.5;"/><rect fill="#FFFFFF" height="1086.8301" style="stroke:#181818;stroke-width:1.0;" width="10" x="178.5" y="115.2871"/><rect fill="#FFFFFF" height="1028.209" style="stroke:#181818;stroke-width:1.0;" width="10" x="331.5" y="144.5977"/><rect fill="#FFFFFF" height="28" style="stroke:#181818;stroke-width:1.0;" width="10" x="336.5" y="181.9082"/><rect fill="#FFFFFF" height="28" style="stroke:#181818;stroke-width:1.0;" width="10" x="336.5" y="1108.4961"/><rect fill="#FFFFFF" height="29.3105" style="stroke:#181818;stroke-width:1.0;" width="10" x="472.5" y="246.2188"/><rect fill="#FFFFFF" height="237.2422" style="stroke:#181818;stroke-width:1.0;" width="10" x="472.5" y="833.9434"/><rect fill="#FFFFFF" height="737.6797" style="stroke:#181818;stroke-width:1.0;" width="10" x="743.5" y="333.5059"/><rect fill="#FFFFFF" height="30" style="stroke:#181818;stroke-width:1.0;" width="10" x="1003.5" y="479.4141"/><rect fill="#FFFFFF" height="30" style="stroke:#181818;stroke-width:1.0;" width="10" x="1003.5" y="538.7246"/><rect fill="#FFFFFF" height="30" style="stroke:#181818;stroke-width:1.0;" width="10" x="1003.5" y="598.0352"/><rect fill="#FFFFFF" height="30" style="stroke:#181818;stroke-width:1.0;" width="10" x="1003.5" y="657.3457"/><rect fill="#FFFFFF" height="30" style="stroke:#181818;stroke-width:1.0;" width="10" x="1003.5" y="863.2539"/><rect fill="#FFFFFF" height="30" style="stroke:#181818;stroke-width:1.0;" width="10" x="1003.5" y="922.5645"/><rect fill="#FFFFFF" height="30" style="stroke:#181818;stroke-width:1.0;" width="10" x="1003.5" y="981.875"/><rect fill="#FFFFFF" height="30" style="stroke:#181818;stroke-width:1.0;" width="10" x="1003.5" y="1041.1855"/><rect fill="#FFFFFF" height="383.8398" style="stroke:#181818;stroke-width:1.0;" width="10" x="1148.5" y="420.793"/><rect fill="#FFFFFF" height="266.5527" style="stroke:#181818;stroke-width:1.0;" width="10" x="1375.5" y="450.1035"/><rect fill="#FFFFFF" height="30" style="stroke:#181818;stroke-width:1.0;" width="10" x="2107" y="774.6328"/><polygon fill="#181818" points="166.5,111.2871,176.5,115.2871,166.5,119.2871,170.5,115.2871" style="stroke:#181818;stroke-width:1.0;"/><line style="stroke:#181818;stroke-width:1.0;" x1="29.5" x2="172.5" y1="115.2871" y2="115.2871"/><text fill="#000000" font-family="sans-serif" font-size="13" lengthAdjust="spacing" textLength="130" x="36.5" y="110.5449">POST /building(json)</text><polygon fill="#181818" points="319.5,140.5977,329.5,144.5977,319.5,148.5977,323.5,144.5977" style="stroke:#181818;stroke-width:1.0;"/><line style="stroke:#181818;stroke-width:1.0;" x1="188.5" x2="325.5" y1="144.5977" y2="144.5977"/><text fill="#000000" font-family="sans-serif" font-size="13" lengthAdjust="spacing" textLength="124" x="195.5" y="139.8555">createBuilding(json)</text><line style="stroke:#181818;stroke-width:1.0;" x1="346.5" x2="388.5" y1="173.9082" y2="173.9082"/><line style="stroke:#181818;stroke-width:1.0;" x1="388.5" x2="388.5" y1="173.9082" y2="186.9082"/><line style="stroke:#181818;stroke-width:1.0;" x1="347.5" x2="388.5" y1="186.9082" y2="186.9082"/><polygon fill="#181818" points="357.5,182.9082,347.5,186.9082,357.5,190.9082,353.5,186.9082" style="stroke:#181818;stroke-width:1.0;"/><text fill="#000000" font-family="sans-serif" font-size="13" lengthAdjust="spacing" textLength="84" x="353.5" y="169.166">validateJson()</text><polygon fill="#181818" points="460.5,242.2188,470.5,246.2188,460.5,250.2188,464.5,246.2188" style="stroke:#181818;stroke-width:1.0;"/><line style="stroke:#181818;stroke-width:1.0;" x1="341.5" x2="466.5" y1="246.2188" y2="246.2188"/><text fill="#000000" font-family="sans-serif" font-size="13" lengthAdjust="spacing" textLength="76" x="348.5" y="241.4766">toDTO(json)</text><polygon fill="#181818" points="567.5,271.5293,577.5,275.5293,567.5,279.5293,571.5,275.5293" style="stroke:#181818;stroke-width:1.0;"/><line style="stroke:#181818;stroke-width:1.0;" x1="477.5" x2="573.5" y1="275.5293" y2="275.5293"/><text fill="#000000" font-family="sans-serif" font-size="13" lengthAdjust="spacing" textLength="73" x="484.5" y="270.7871">create(json)</text><rect fill="#E2E2F0" height="46.9766" rx="2.5" ry="2.5" style="stroke:#181818;stroke-width:0.5;" width="100" x="579.5" y="254.2188"/><text fill="#000000" font-family="sans-serif" font-size="14" lengthAdjust="spacing" textLength="86" x="586.5" y="274.7539">BuildingDTO</text><text fill="#000000" font-family="sans-serif" font-size="14" lengthAdjust="spacing" textLength="44" x="607.5" y="291.2422">&#171;DTO&#187;</text><polygon fill="#181818" points="731.5,329.5059,741.5,333.5059,731.5,337.5059,735.5,333.5059" style="stroke:#181818;stroke-width:1.0;"/><line style="stroke:#181818;stroke-width:1.0;" x1="341.5" x2="737.5" y1="333.5059" y2="333.5059"/><text fill="#000000" font-family="sans-serif" font-size="13" lengthAdjust="spacing" textLength="275" x="348.5" y="328.7637">buildingDTO = createBuilding(buildingDTO)</text><polygon fill="#181818" points="961.5,358.8164,971.5,362.8164,961.5,366.8164,965.5,362.8164" style="stroke:#181818;stroke-width:1.0;"/><line style="stroke:#181818;stroke-width:1.0;" x1="753.5" x2="967.5" y1="362.8164" y2="362.8164"/><text fill="#000000" font-family="sans-serif" font-size="13" lengthAdjust="spacing" textLength="196" x="760.5" y="358.0742">building = create(buildingDTO)</text><rect fill="#E2E2F0" height="46.9766" rx="2.5" ry="2.5" style="stroke:#181818;stroke-width:0.5;" width="70" x="973.5" y="341.5059"/><text fill="#000000" font-family="sans-serif" font-size="14" lengthAdjust="spacing" textLength="56" x="980.5" y="362.041">Building</text><text fill="#000000" font-family="sans-serif" font-size="14" lengthAdjust="spacing" textLength="52" x="982.5" y="378.5293">&#171;Entity&#187;</text><polygon fill="#181818" points="1136.5,416.793,1146.5,420.793,1136.5,424.793,1140.5,420.793" style="stroke:#181818;stroke-width:1.0;"/><line style="stroke:#181818;stroke-width:1.0;" x1="753.5" x2="1142.5" y1="420.793" y2="420.793"/><text fill="#000000" font-family="sans-serif" font-size="13" lengthAdjust="spacing" textLength="88" x="760.5" y="416.0508">save(building)</text><polygon fill="#181818" points="1363.5,446.1035,1373.5,450.1035,1363.5,454.1035,1367.5,450.1035" style="stroke:#181818;stroke-width:1.0;"/><line style="stroke:#181818;stroke-width:1.0;" x1="1158.5" x2="1369.5" y1="450.1035" y2="450.1035"/><text fill="#000000" font-family="sans-serif" font-size="13" lengthAdjust="spacing" textLength="198" x="1165.5" y="445.3613">dataBuilding = toData(building)</text><polygon fill="#181818" points="1024.5,475.4141,1014.5,479.4141,1024.5,483.4141,1020.5,479.4141" style="stroke:#181818;stroke-width:1.0;"/><line style="stroke:#181818;stroke-width:1.0;" x1="1018.5" x2="1374.5" y1="479.4141" y2="479.4141"/><text fill="#000000" font-family="sans-serif" font-size="13" lengthAdjust="spacing" textLength="60" x="1030.5" y="474.6719">getCode()</text><polygon fill="#181818" points="1024.5,534.7246,1014.5,538.7246,1024.5,542.7246,1020.5,538.7246" style="stroke:#181818;stroke-width:1.0;"/><line style="stroke:#181818;stroke-width:1.0;" x1="1018.5" x2="1374.5" y1="538.7246" y2="538.7246"/><text fill="#000000" font-family="sans-serif" font-size="13" lengthAdjust="spacing" textLength="64" x="1030.5" y="533.9824">getName()</text><polygon fill="#181818" points="1024.5,594.0352,1014.5,598.0352,1024.5,602.0352,1020.5,598.0352" style="stroke:#181818;stroke-width:1.0;"/><line style="stroke:#181818;stroke-width:1.0;" x1="1018.5" x2="1374.5" y1="598.0352" y2="598.0352"/><text fill="#000000" font-family="sans-serif" font-size="13" lengthAdjust="spacing" textLength="101" x="1030.5" y="593.293">getDescription()</text><polygon fill="#181818" points="1024.5,653.3457,1014.5,657.3457,1024.5,661.3457,1020.5,657.3457" style="stroke:#181818;stroke-width:1.0;"/><line style="stroke:#181818;stroke-width:1.0;" x1="1018.5" x2="1374.5" y1="657.3457" y2="657.3457"/><text fill="#000000" font-family="sans-serif" font-size="13" lengthAdjust="spacing" textLength="104" x="1030.5" y="652.6035">getBuildingSize()</text><polygon fill="#181818" points="1925.5,712.6563,1935.5,716.6563,1925.5,720.6563,1929.5,716.6563" style="stroke:#181818;stroke-width:1.0;"/><line style="stroke:#181818;stroke-width:1.0;" x1="1380.5" x2="1931.5" y1="716.6563" y2="716.6563"/><text fill="#000000" font-family="sans-serif" font-size="13" lengthAdjust="spacing" textLength="528" x="1387.5" y="711.9141">dataBuilding = create(buildingName,buildingCode,buildingDescription,buildingSize)</text><rect fill="#E2E2F0" height="46.9766" rx="2.5" ry="2.5" style="stroke:#181818;stroke-width:0.5;" width="123" x="1937.5" y="695.3457"/><text fill="#000000" font-family="sans-serif" font-size="14" lengthAdjust="spacing" textLength="109" x="1944.5" y="715.8809">DataBuilding&lt;&lt;</text><text fill="#000000" font-family="sans-serif" font-size="14" lengthAdjust="spacing" textLength="45" x="1976.5" y="732.3691">&#171;Data&#187;</text><polygon fill="#181818" points="2095,770.6328,2105,774.6328,2095,778.6328,2099,774.6328" style="stroke:#181818;stroke-width:1.0;"/><line style="stroke:#181818;stroke-width:1.0;" x1="1158.5" x2="2101" y1="774.6328" y2="774.6328"/><text fill="#000000" font-family="sans-serif" font-size="13" lengthAdjust="spacing" textLength="114" x="1165.5" y="769.8906">save(dataBuilding)</text><polygon fill="#181818" points="493.5,829.9434,483.5,833.9434,493.5,837.9434,489.5,833.9434" style="stroke:#181818;stroke-width:1.0;"/><line style="stroke:#181818;stroke-width:1.0;" x1="487.5" x2="742.5" y1="833.9434" y2="833.9434"/><text fill="#000000" font-family="sans-serif" font-size="13" lengthAdjust="spacing" textLength="101" x="499.5" y="829.2012">toDTO(building)</text><polygon fill="#181818" points="991.5,859.2539,1001.5,863.2539,991.5,867.2539,995.5,863.2539" style="stroke:#181818;stroke-width:1.0;"/><line style="stroke:#181818;stroke-width:1.0;" x1="482.5" x2="997.5" y1="863.2539" y2="863.2539"/><text fill="#000000" font-family="sans-serif" font-size="13" lengthAdjust="spacing" textLength="213" x="489.5" y="858.5117">buildingCode = getBuildingCode()</text><polygon fill="#181818" points="991.5,918.5645,1001.5,922.5645,991.5,926.5645,995.5,922.5645" style="stroke:#181818;stroke-width:1.0;"/><line style="stroke:#181818;stroke-width:1.0;" x1="482.5" x2="997.5" y1="922.5645" y2="922.5645"/><text fill="#000000" font-family="sans-serif" font-size="13" lengthAdjust="spacing" textLength="221" x="489.5" y="917.8223">buildingName = getBuildingName()</text><polygon fill="#181818" points="991.5,977.875,1001.5,981.875,991.5,985.875,995.5,981.875" style="stroke:#181818;stroke-width:1.0;"/><line style="stroke:#181818;stroke-width:1.0;" x1="482.5" x2="997.5" y1="981.875" y2="981.875"/><text fill="#000000" font-family="sans-serif" font-size="13" lengthAdjust="spacing" textLength="295" x="489.5" y="977.1328">buildingDescription = getBuildingDescription()</text><polygon fill="#181818" points="991.5,1037.1855,1001.5,1041.1855,991.5,1045.1855,995.5,1041.1855" style="stroke:#181818;stroke-width:1.0;"/><line style="stroke:#181818;stroke-width:1.0;" x1="482.5" x2="997.5" y1="1041.1855" y2="1041.1855"/><text fill="#000000" font-family="sans-serif" font-size="13" lengthAdjust="spacing" textLength="199" x="489.5" y="1036.4434">buildingSize = getBuildingSize()</text><line style="stroke:#181818;stroke-width:1.0;" x1="346.5" x2="388.5" y1="1100.4961" y2="1100.4961"/><line style="stroke:#181818;stroke-width:1.0;" x1="388.5" x2="388.5" y1="1100.4961" y2="1113.4961"/><line style="stroke:#181818;stroke-width:1.0;" x1="347.5" x2="388.5" y1="1113.4961" y2="1113.4961"/><polygon fill="#181818" points="357.5,1109.4961,347.5,1113.4961,357.5,1117.4961,353.5,1113.4961" style="stroke:#181818;stroke-width:1.0;"/><text fill="#000000" font-family="sans-serif" font-size="13" lengthAdjust="spacing" textLength="111" x="353.5" y="1095.7539">generateRes(json)</text><polygon fill="#181818" points="199.5,1168.8066,189.5,1172.8066,199.5,1176.8066,195.5,1172.8066" style="stroke:#181818;stroke-width:1.0;"/><line style="stroke:#181818;stroke-width:1.0;stroke-dasharray:2.0,2.0;" x1="193.5" x2="335.5" y1="1172.8066" y2="1172.8066"/><text fill="#000000" font-family="sans-serif" font-size="13" lengthAdjust="spacing" textLength="57" x="205.5" y="1168.0645">response</text><polygon fill="#181818" points="40.5,1198.1172,30.5,1202.1172,40.5,1206.1172,36.5,1202.1172" style="stroke:#181818;stroke-width:1.0;"/><line style="stroke:#181818;stroke-width:1.0;" x1="34.5" x2="182.5" y1="1202.1172" y2="1202.1172"/><text fill="#000000" font-family="sans-serif" font-size="13" lengthAdjust="spacing" textLength="57" x="46.5" y="1197.375">response</text><!--SRC=[nLPTQzim57tthn1voih6m8_12oIn7phM9ZZUoA0liYs2HcePMJ5qltvNjcHBZkGEoZe_X5WwvtwUApbdrwh4_0MTWXfpGGjQuqgWnIfbLq6sLtefQNLU8DoWTFyzIsoKtj-nId1skH3-L4NH-BPUTynTbdvp4nzmNVUahmshmZZRAyh3vd18KZS9K98nWk6V6taalAK5aMZrLp6EwGytGqAJIb3nef39OtQV_NI3KrApfsfrRxv7aVnjg61ScqYJmzwRVfS9UyOKiiS2M-c7DalkQsOKTSIH4M-oJL32UuuRWXPb7dFQzgMDrQf6ReFWX3wj-uQY5JhiZndwd2lBor_GYGy1BWHjiI2gxJqMIBANm2aumQC-50V1C_2wfikLZZ4oMtoX42UH3L_s73TFFYNns-jh11O50m4O8LZcb93qkY817JXtTqCc4xhXrp2WFODwW9YFSaHVfWKnDXr1IVdfHMaCRFOwwoBItC6gsveYIdK1gS7jY1j1bjjEYEPEnnrA6OAPqj0O-8VImeB7hgFEuGr0cnvI12Td8dQi9CjRSvP9DNekZD4V3yhZzn4__nU_CMaAJcj1BT6_c_lXGAI_torzUI9rUfveQg9fsP6F-N2HbEEBKRDXJIPm6__Dk8PEcSTRFIXcI3EYXgDonjLarzYn1atDwUIuUcLK9yUMVNGDdJNB1fKr6ksPhzVQDz_WcGXa5-q8F9FsXWXct1jIiQEOdxj_LWufKpiGp-IzBGBtDJNPqPVDv1u-aufms4z9uxix__8gDZubE6bgLZKay366xuYJYJP7f_lS-0C0]--></g></svg>