<?xml version="1.0" encoding="UTF-8" standalone="no"?><svg xmlns="http://www.w3.org/2000/svg" xmlns:xlink="http://www.w3.org/1999/xlink" contentStyleType="text/css" height="298px" preserveAspectRatio="none" style="width:592px;height:298px;background:#FFFFFF;" version="1.1" viewBox="0 0 592 298" width="592px" zoomAndPan="magnify"><defs/><g><rect fill="#FFFFFF" height="29.1328" style="stroke:#181818;stroke-width:1.0;" width="10" x="165.5" y="112.4297"/><rect fill="#FFFFFF" height="29.1328" style="stroke:#181818;stroke-width:1.0;" width="10" x="165.5" y="170.6953"/><rect fill="#FFFFFF" height="117.5313" style="stroke:#181818;stroke-width:1.0;" width="10" x="527.5" y="91.2969"/><line style="stroke:#181818;stroke-width:0.5;stroke-dasharray:5.0,5.0;" x1="66" x2="66" y1="81.2969" y2="217.8281"/><line style="stroke:#181818;stroke-width:0.5;stroke-dasharray:5.0,5.0;" x1="170" x2="170" y1="81.2969" y2="217.8281"/><line style="stroke:#181818;stroke-width:0.5;stroke-dasharray:5.0,5.0;" x1="532.5" x2="532.5" y1="81.2969" y2="217.8281"/><text fill="#000000" font-family="sans-serif" font-size="14" lengthAdjust="spacing" textLength="117" x="5" y="77.9951">CampusManager</text><ellipse cx="66.5" cy="13.5" fill="#E2E2F0" rx="8" ry="8" style="stroke:#181818;stroke-width:0.5;"/><path d="M66.5,21.5 L66.5,48.5 M53.5,29.5 L79.5,29.5 M66.5,48.5 L53.5,63.5 M66.5,48.5 L79.5,63.5 " fill="none" style="stroke:#181818;stroke-width:0.5;"/><text fill="#000000" font-family="sans-serif" font-size="14" lengthAdjust="spacing" textLength="117" x="5" y="229.8232">CampusManager</text><ellipse cx="66.5" cy="241.625" fill="#E2E2F0" rx="8" ry="8" style="stroke:#181818;stroke-width:0.5;"/><path d="M66.5,249.625 L66.5,276.625 M53.5,257.625 L79.5,257.625 M66.5,276.625 L53.5,291.625 M66.5,276.625 L79.5,291.625 " fill="none" style="stroke:#181818;stroke-width:0.5;"/><rect fill="#E2E2F0" height="30.2969" rx="2.5" ry="2.5" style="stroke:#181818;stroke-width:0.5;" width="65" x="138" y="50"/><text fill="#000000" font-family="sans-serif" font-size="14" lengthAdjust="spacing" textLength="51" x="145" y="69.9951">System</text><rect fill="#E2E2F0" height="30.2969" rx="2.5" ry="2.5" style="stroke:#181818;stroke-width:0.5;" width="65" x="138" y="216.8281"/><text fill="#000000" font-family="sans-serif" font-size="14" lengthAdjust="spacing" textLength="51" x="145" y="236.8232">System</text><rect fill="#E2E2F0" height="30.2969" rx="2.5" ry="2.5" style="stroke:#181818;stroke-width:0.5;" width="108" x="478.5" y="50"/><text fill="#000000" font-family="sans-serif" font-size="14" lengthAdjust="spacing" textLength="94" x="485.5" y="69.9951">FleetManager</text><rect fill="#E2E2F0" height="30.2969" rx="2.5" ry="2.5" style="stroke:#181818;stroke-width:0.5;" width="108" x="478.5" y="216.8281"/><text fill="#000000" font-family="sans-serif" font-size="14" lengthAdjust="spacing" textLength="94" x="485.5" y="236.8232">FleetManager</text><rect fill="#FFFFFF" height="29.1328" style="stroke:#181818;stroke-width:1.0;" width="10" x="165.5" y="112.4297"/><rect fill="#FFFFFF" height="29.1328" style="stroke:#181818;stroke-width:1.0;" width="10" x="165.5" y="170.6953"/><rect fill="#FFFFFF" height="117.5313" style="stroke:#181818;stroke-width:1.0;" width="10" x="527.5" y="91.2969"/><polygon fill="#181818" points="186.5,108.4297,176.5,112.4297,186.5,116.4297,182.5,112.4297" style="stroke:#181818;stroke-width:1.0;"/><line style="stroke:#181818;stroke-width:1.0;" x1="180.5" x2="526.5" y1="112.4297" y2="112.4297"/><text fill="#000000" font-family="sans-serif" font-size="13" font-weight="bold" lengthAdjust="spacing" textLength="9" x="192.5" y="107.3638">1</text><text fill="#000000" font-family="sans-serif" font-size="13" lengthAdjust="spacing" textLength="210" x="205.5" y="107.3638">requests creation of a robot type</text><polygon fill="#181818" points="515.5,137.5625,525.5,141.5625,515.5,145.5625,519.5,141.5625" style="stroke:#181818;stroke-width:1.0;"/><line style="stroke:#181818;stroke-width:1.0;" x1="170.5" x2="521.5" y1="141.5625" y2="141.5625"/><text fill="#000000" font-family="sans-serif" font-size="13" font-weight="bold" lengthAdjust="spacing" textLength="9" x="177.5" y="136.4966">2</text><text fill="#000000" font-family="sans-serif" font-size="13" lengthAdjust="spacing" textLength="315" x="190.5" y="136.4966">asks for information for the creation of robot type</text><polygon fill="#181818" points="186.5,166.6953,176.5,170.6953,186.5,174.6953,182.5,170.6953" style="stroke:#181818;stroke-width:1.0;"/><line style="stroke:#181818;stroke-width:1.0;" x1="180.5" x2="526.5" y1="170.6953" y2="170.6953"/><text fill="#000000" font-family="sans-serif" font-size="13" font-weight="bold" lengthAdjust="spacing" textLength="9" x="192.5" y="165.6294">3</text><text fill="#000000" font-family="sans-serif" font-size="13" lengthAdjust="spacing" textLength="299" x="205.5" y="165.6294">sends information to the creation of robot type</text><polygon fill="#181818" points="515.5,195.8281,525.5,199.8281,515.5,203.8281,519.5,199.8281" style="stroke:#181818;stroke-width:1.0;"/><line style="stroke:#181818;stroke-width:1.0;" x1="170.5" x2="521.5" y1="199.8281" y2="199.8281"/><text fill="#000000" font-family="sans-serif" font-size="13" font-weight="bold" lengthAdjust="spacing" textLength="9" x="177.5" y="194.7622">4</text><text fill="#000000" font-family="sans-serif" font-size="13" lengthAdjust="spacing" textLength="265" x="190.5" y="194.7622">delivers success or failure of the requests</text><!--MD5=[dd4299b4eb15287ba0e98a11db721325]
@startuml
'https://plantuml.com/sequence-diagram

autonumber
actor  CampusManager
participant  System

activate FleetManager
FleetManager -> System : requests creation of a robot type
activate System
FleetManager <- System : asks for information for the creation of robot type
deactivate System
FleetManager -> System : sends information to the creation of robot type
activate System
FleetManager <- System : delivers success or failure of the requests
deactivate System

@enduml

@startuml

autonumber
actor  CampusManager
participant  System

activate FleetManager
FleetManager -> System : requests creation of a robot type
activate System
FleetManager <- System : asks for information for the creation of robot type
deactivate System
FleetManager -> System : sends information to the creation of robot type
activate System
FleetManager <- System : delivers success or failure of the requests
deactivate System

@enduml

PlantUML version 1.2022.7(Mon Aug 22 18:01:30 WEST 2022)
(GPL source distribution)
Java Runtime: OpenJDK Runtime Environment
JVM: OpenJDK 64-Bit Server VM
Default Encoding: UTF-8
Language: en
Country: US
--></g></svg>