<?xml version="1.0" encoding="us-ascii" standalone="no"?><svg xmlns="http://www.w3.org/2000/svg" xmlns:xlink="http://www.w3.org/1999/xlink" contentStyleType="text/css" height="922px" preserveAspectRatio="none" style="width:1107px;height:922px;background:#FFFFFF;" version="1.1" viewBox="0 0 1107 922" width="1107px" zoomAndPan="magnify"><defs/><g><!--cluster Frameworks and Drivers Layer--><g id="cluster_Frameworks and Drivers Layer"><path d="M159,6 L379,6 A3.75,3.75 0 0 1 381.5,8.5 L388.5,28.4883 L441,28.4883 A2.5,2.5 0 0 1 443.5,30.9883 L443.5,102.5 A2.5,2.5 0 0 1 441,105 L159,105 A2.5,2.5 0 0 1 156.5,102.5 L156.5,8.5 A2.5,2.5 0 0 1 159,6 " fill="none" style="stroke:#000000;stroke-width:1.5;"/><line style="stroke:#000000;stroke-width:1.5;" x1="156.5" x2="388.5" y1="28.4883" y2="28.4883"/><text fill="#000000" font-family="sans-serif" font-size="14" font-weight="bold" lengthAdjust="spacing" textLength="219" x="160.5" y="21.5352">Frameworks and Drivers Layer</text></g><!--cluster Interface Adapters Layers--><g id="cluster_Interface Adapters Layers"><path d="M143,138 L327,138 A3.75,3.75 0 0 1 329.5,140.5 L336.5,160.4883 L702,160.4883 A2.5,2.5 0 0 1 704.5,162.9883 L704.5,283.5 A2.5,2.5 0 0 1 702,286 L143,286 A2.5,2.5 0 0 1 140.5,283.5 L140.5,140.5 A2.5,2.5 0 0 1 143,138 " fill="none" style="stroke:#000000;stroke-width:1.5;"/><line style="stroke:#000000;stroke-width:1.5;" x1="140.5" x2="336.5" y1="160.4883" y2="160.4883"/><text fill="#000000" font-family="sans-serif" font-size="14" font-weight="bold" lengthAdjust="spacing" textLength="183" x="144.5" y="153.5352">Interface Adapters Layers</text></g><!--cluster Application Services/Use Case Services--><g id="cluster_Application Services/Use Case Services"><path d="M214,319 L496,319 A3.75,3.75 0 0 1 498.5,321.5 L505.5,341.4883 L645,341.4883 A2.5,2.5 0 0 1 647.5,343.9883 L647.5,431.5 A2.5,2.5 0 0 1 645,434 L214,434 A2.5,2.5 0 0 1 211.5,431.5 L211.5,321.5 A2.5,2.5 0 0 1 214,319 " fill="none" style="stroke:#000000;stroke-width:1.5;"/><line style="stroke:#000000;stroke-width:1.5;" x1="211.5" x2="505.5" y1="341.4883" y2="341.4883"/><text fill="#000000" font-family="sans-serif" font-size="14" font-weight="bold" lengthAdjust="spacing" textLength="281" x="215.5" y="334.5352">Application Services/Use Case Services</text></g><!--cluster Model--><g id="cluster_Model"><path d="M145,625 L190,625 A3.75,3.75 0 0 1 192.5,627.5 L199.5,647.4883 L920,647.4883 A2.5,2.5 0 0 1 922.5,649.9883 L922.5,913 A2.5,2.5 0 0 1 920,915.5 L145,915.5 A2.5,2.5 0 0 1 142.5,913 L142.5,627.5 A2.5,2.5 0 0 1 145,625 " fill="none" style="stroke:#000000;stroke-width:1.5;"/><line style="stroke:#000000;stroke-width:1.5;" x1="142.5" x2="199.5" y1="647.4883" y2="647.4883"/><text fill="#000000" font-family="sans-serif" font-size="14" font-weight="bold" lengthAdjust="spacing" textLength="44" x="146.5" y="640.5352">Model</text></g><!--class RouteBuilding--><g id="elem_RouteBuilding"><rect codeLine="3" fill="#F1F1F1" height="48" id="RouteBuilding" rx="2.5" ry="2.5" style="stroke:#181818;stroke-width:0.5;" width="128" x="299.5" y="41"/><ellipse cx="314.5" cy="57" fill="#ADD1B2" rx="11" ry="11" style="stroke:#181818;stroke-width:1.0;"/><path d="M317.4731,62.6431 Q316.8921,62.9419 316.2529,63.0913 Q315.6138,63.2407 314.9082,63.2407 Q312.4014,63.2407 311.0815,61.5889 Q309.7617,59.937 309.7617,56.8159 Q309.7617,53.6865 311.0815,52.0347 Q312.4014,50.3828 314.9082,50.3828 Q315.6138,50.3828 316.2612,50.5322 Q316.9087,50.6816 317.4731,50.9805 L317.4731,53.7031 Q316.8423,53.1221 316.2488,52.8523 Q315.6553,52.5825 315.0244,52.5825 Q313.6797,52.5825 312.9949,53.6492 Q312.3101,54.7158 312.3101,56.8159 Q312.3101,58.9077 312.9949,59.9744 Q313.6797,61.041 315.0244,61.041 Q315.6553,61.041 316.2488,60.7712 Q316.8423,60.5015 317.4731,59.9204 Z " fill="#000000"/><text fill="#000000" font-family="sans-serif" font-size="14" lengthAdjust="spacing" textLength="96" x="328.5" y="62.291">RouteBuilding</text><line style="stroke:#181818;stroke-width:0.5;" x1="300.5" x2="426.5" y1="73" y2="73"/><line style="stroke:#181818;stroke-width:0.5;" x1="300.5" x2="426.5" y1="81" y2="81"/></g><!--class dbDriver--><g id="elem_dbDriver"><rect codeLine="4" fill="#F1F1F1" height="48" id="dbDriver" rx="2.5" ry="2.5" style="stroke:#181818;stroke-width:0.5;" width="91" x="173" y="41"/><ellipse cx="188" cy="57" fill="#ADD1B2" rx="11" ry="11" style="stroke:#181818;stroke-width:1.0;"/><path d="M190.9731,62.6431 Q190.3921,62.9419 189.7529,63.0913 Q189.1138,63.2407 188.4082,63.2407 Q185.9014,63.2407 184.5815,61.5889 Q183.2617,59.937 183.2617,56.8159 Q183.2617,53.6865 184.5815,52.0347 Q185.9014,50.3828 188.4082,50.3828 Q189.1138,50.3828 189.7612,50.5322 Q190.4087,50.6816 190.9731,50.9805 L190.9731,53.7031 Q190.3423,53.1221 189.7488,52.8523 Q189.1553,52.5825 188.5244,52.5825 Q187.1797,52.5825 186.4949,53.6492 Q185.8101,54.7158 185.8101,56.8159 Q185.8101,58.9077 186.4949,59.9744 Q187.1797,61.041 188.5244,61.041 Q189.1553,61.041 189.7488,60.7712 Q190.3423,60.5015 190.9731,59.9204 Z " fill="#000000"/><text fill="#000000" font-family="sans-serif" font-size="14" lengthAdjust="spacing" textLength="59" x="202" y="62.291">dbDriver</text><line style="stroke:#181818;stroke-width:0.5;" x1="174" x2="263" y1="73" y2="73"/><line style="stroke:#181818;stroke-width:0.5;" x1="174" x2="263" y1="81" y2="81"/></g><!--class IBuildingController--><g id="elem_IBuildingController"><rect codeLine="8" fill="#F1F1F1" height="64.4883" id="IBuildingController" rx="2.5" ry="2.5" style="stroke:#181818;stroke-width:0.5;" width="169" x="315" y="189.5"/><ellipse cx="333.15" cy="205.5" fill="#B4A7E5" rx="11" ry="11" style="stroke:#181818;stroke-width:1.0;"/><path d="M329.0777,201.2651 L329.0777,199.1069 L336.4571,199.1069 L336.4571,201.2651 L333.9918,201.2651 L333.9918,209.3418 L336.4571,209.3418 L336.4571,211.5 L329.0777,211.5 L329.0777,209.3418 L331.5431,209.3418 L331.5431,201.2651 Z " fill="#000000"/><text fill="#000000" font-family="sans-serif" font-size="14" font-style="italic" lengthAdjust="spacing" textLength="130" x="347.85" y="210.791">IBuildingController</text><line style="stroke:#181818;stroke-width:0.5;" x1="316" x2="483" y1="221.5" y2="221.5"/><line style="stroke:#181818;stroke-width:0.5;" x1="316" x2="483" y1="229.5" y2="229.5"/><ellipse cx="326" cy="243.2441" fill="#84BE84" rx="3" ry="3" style="stroke:#038048;stroke-width:1.0;"/><text fill="#000000" font-family="sans-serif" font-size="14" lengthAdjust="spacing" textLength="143" x="335" y="247.0352">updateBuilding(json)</text></g><!--class BuildingController--><g id="elem_BuildingController"><rect codeLine="11" fill="#F1F1F1" height="97.4648" id="BuildingController" rx="2.5" ry="2.5" style="stroke:#181818;stroke-width:0.5;" width="169" x="519" y="173"/><ellipse cx="538.95" cy="189" fill="#ADD1B2" rx="11" ry="11" style="stroke:#181818;stroke-width:1.0;"/><path d="M541.9231,194.6431 Q541.3421,194.9419 540.7029,195.0913 Q540.0638,195.2407 539.3582,195.2407 Q536.8514,195.2407 535.5315,193.5889 Q534.2117,191.937 534.2117,188.8159 Q534.2117,185.6865 535.5315,184.0347 Q536.8514,182.3828 539.3582,182.3828 Q540.0638,182.3828 540.7112,182.5322 Q541.3587,182.6816 541.9231,182.9805 L541.9231,185.7031 Q541.2923,185.1221 540.6988,184.8523 Q540.1053,184.5825 539.4744,184.5825 Q538.1297,184.5825 537.4449,185.6492 Q536.7601,186.7158 536.7601,188.8159 Q536.7601,190.9077 537.4449,191.9744 Q538.1297,193.041 539.4744,193.041 Q540.1053,193.041 540.6988,192.7712 Q541.2923,192.5015 541.9231,191.9204 Z " fill="#000000"/><text fill="#000000" font-family="sans-serif" font-size="14" lengthAdjust="spacing" textLength="126" x="554.05" y="194.291">BuildingController</text><line style="stroke:#181818;stroke-width:0.5;" x1="520" x2="687" y1="205" y2="205"/><line style="stroke:#181818;stroke-width:0.5;" x1="520" x2="687" y1="213" y2="213"/><rect fill="#F24D5C" height="6" style="stroke:#C82930;stroke-width:1.0;" width="6" x="527" y="223.7441"/><text fill="#000000" font-family="sans-serif" font-size="14" lengthAdjust="spacing" textLength="143" x="539" y="230.5352">updateBuilding(json)</text><rect fill="#F24D5C" height="6" style="stroke:#C82930;stroke-width:1.0;" width="6" x="527" y="240.2324"/><text fill="#000000" font-family="sans-serif" font-size="14" lengthAdjust="spacing" textLength="121" x="539" y="247.0234">validateJson(json)</text><rect fill="#F24D5C" height="6" style="stroke:#C82930;stroke-width:1.0;" width="6" x="527" y="256.7207"/><text fill="#000000" font-family="sans-serif" font-size="14" lengthAdjust="spacing" textLength="124" x="539" y="263.5117">generateRes(json)</text></g><!--class BuildingRepo--><g id="elem_BuildingRepo"><rect codeLine="16" fill="#F1F1F1" height="64.4883" id="BuildingRepo" rx="2.5" ry="2.5" style="stroke:#181818;stroke-width:0.5;" width="123" x="157" y="189.5"/><ellipse cx="172" cy="205.5" fill="#ADD1B2" rx="11" ry="11" style="stroke:#181818;stroke-width:1.0;"/><path d="M174.9731,211.1431 Q174.3921,211.4419 173.7529,211.5913 Q173.1138,211.7407 172.4082,211.7407 Q169.9014,211.7407 168.5815,210.0889 Q167.2617,208.437 167.2617,205.3159 Q167.2617,202.1865 168.5815,200.5347 Q169.9014,198.8828 172.4082,198.8828 Q173.1138,198.8828 173.7612,199.0322 Q174.4087,199.1816 174.9731,199.4805 L174.9731,202.2031 Q174.3423,201.6221 173.7488,201.3523 Q173.1553,201.0825 172.5244,201.0825 Q171.1797,201.0825 170.4949,202.1492 Q169.8101,203.2158 169.8101,205.3159 Q169.8101,207.4077 170.4949,208.4744 Q171.1797,209.541 172.5244,209.541 Q173.1553,209.541 173.7488,209.2712 Q174.3423,209.0015 174.9731,208.4204 Z " fill="#000000"/><text fill="#000000" font-family="sans-serif" font-size="14" lengthAdjust="spacing" textLength="91" x="186" y="210.791">BuildingRepo</text><line style="stroke:#181818;stroke-width:0.5;" x1="158" x2="279" y1="221.5" y2="221.5"/><rect fill="none" height="6" style="stroke:#C82930;stroke-width:1.0;" width="6" x="165" y="232.2441"/><text fill="#000000" font-family="sans-serif" font-size="14" lengthAdjust="spacing" textLength="30" x="177" y="239.0352">save</text><line style="stroke:#181818;stroke-width:0.5;" x1="158" x2="279" y1="245.9883" y2="245.9883"/></g><!--class BuildingService--><g id="elem_BuildingService"><rect codeLine="24" fill="#F1F1F1" height="64.4883" id="BuildingService" rx="2.5" ry="2.5" style="stroke:#181818;stroke-width:0.5;" width="227" x="404" y="354"/><ellipse cx="461.25" cy="370" fill="#ADD1B2" rx="11" ry="11" style="stroke:#181818;stroke-width:1.0;"/><path d="M464.2231,375.6431 Q463.6421,375.9419 463.0029,376.0913 Q462.3638,376.2407 461.6582,376.2407 Q459.1514,376.2407 457.8315,374.5889 Q456.5117,372.937 456.5117,369.8159 Q456.5117,366.6865 457.8315,365.0347 Q459.1514,363.3828 461.6582,363.3828 Q462.3638,363.3828 463.0112,363.5322 Q463.6587,363.6816 464.2231,363.9805 L464.2231,366.7031 Q463.5923,366.1221 462.9988,365.8523 Q462.4053,365.5825 461.7744,365.5825 Q460.4297,365.5825 459.7449,366.6492 Q459.0601,367.7158 459.0601,369.8159 Q459.0601,371.9077 459.7449,372.9744 Q460.4297,374.041 461.7744,374.041 Q462.4053,374.041 462.9988,373.7712 Q463.5923,373.5015 464.2231,372.9204 Z " fill="#000000"/><text fill="#000000" font-family="sans-serif" font-size="14" lengthAdjust="spacing" textLength="104" x="481.75" y="375.291">BuildingService</text><line style="stroke:#181818;stroke-width:0.5;" x1="405" x2="630" y1="386" y2="386"/><line style="stroke:#181818;stroke-width:0.5;" x1="405" x2="630" y1="394" y2="394"/><rect fill="#F24D5C" height="6" style="stroke:#C82930;stroke-width:1.0;" width="6" x="412" y="404.7441"/><text fill="#000000" font-family="sans-serif" font-size="14" lengthAdjust="spacing" textLength="201" x="424" y="411.5352">updateBuilding(buildingDTO)</text></g><!--class IBuildingRepo--><g id="elem_IBuildingRepo"><rect codeLine="27" fill="#F1F1F1" height="64.4883" id="IBuildingRepo" rx="2.5" ry="2.5" style="stroke:#181818;stroke-width:0.5;" width="141" x="228" y="354"/><ellipse cx="249.3" cy="370" fill="#B4A7E5" rx="11" ry="11" style="stroke:#181818;stroke-width:1.0;"/><path d="M245.2277,365.7651 L245.2277,363.6069 L252.6071,363.6069 L252.6071,365.7651 L250.1418,365.7651 L250.1418,373.8418 L252.6071,373.8418 L252.6071,376 L245.2277,376 L245.2277,373.8418 L247.6931,373.8418 L247.6931,365.7651 Z " fill="#000000"/><text fill="#000000" font-family="sans-serif" font-size="14" font-style="italic" lengthAdjust="spacing" textLength="95" x="264.7" y="375.291">IBuildingRepo</text><line style="stroke:#181818;stroke-width:0.5;" x1="229" x2="368" y1="386" y2="386"/><line style="stroke:#181818;stroke-width:0.5;" x1="229" x2="368" y1="394" y2="394"/><rect fill="#F24D5C" height="6" style="stroke:#C82930;stroke-width:1.0;" width="6" x="236" y="404.7441"/><text fill="#000000" font-family="sans-serif" font-size="14" lengthAdjust="spacing" textLength="115" x="248" y="411.5352">update(building)</text></g><!--class Building--><g id="elem_Building"><rect codeLine="34" fill="#F1F1F1" height="80.9766" id="Building" rx="2.5" ry="2.5" style="stroke:#181818;stroke-width:0.5;" width="154" x="358.5" y="660"/><ellipse cx="403.25" cy="676" fill="#ADD1B2" rx="11" ry="11" style="stroke:#181818;stroke-width:1.0;"/><path d="M406.2231,681.6431 Q405.6421,681.9419 405.0029,682.0913 Q404.3638,682.2407 403.6582,682.2407 Q401.1514,682.2407 399.8315,680.5889 Q398.5117,678.937 398.5117,675.8159 Q398.5117,672.6865 399.8315,671.0347 Q401.1514,669.3828 403.6582,669.3828 Q404.3638,669.3828 405.0112,669.5322 Q405.6587,669.6816 406.2231,669.9805 L406.2231,672.7031 Q405.5923,672.1221 404.9988,671.8523 Q404.4053,671.5825 403.7744,671.5825 Q402.4297,671.5825 401.7449,672.6492 Q401.0601,673.7158 401.0601,675.8159 Q401.0601,677.9077 401.7449,678.9744 Q402.4297,680.041 403.7744,680.041 Q404.4053,680.041 404.9988,679.7712 Q405.5923,679.5015 406.2231,678.9204 Z " fill="#000000"/><text fill="#000000" font-family="sans-serif" font-size="14" lengthAdjust="spacing" textLength="56" x="423.75" y="681.291">Building</text><line style="stroke:#181818;stroke-width:0.5;" x1="359.5" x2="511.5" y1="692" y2="692"/><line style="stroke:#181818;stroke-width:0.5;" x1="359.5" x2="511.5" y1="700" y2="700"/><ellipse cx="369.5" cy="713.7441" fill="#84BE84" rx="3" ry="3" style="stroke:#038048;stroke-width:1.0;"/><text fill="#000000" font-family="sans-serif" font-size="14" lengthAdjust="spacing" textLength="125" x="378.5" y="717.5352">getbuildingCode()</text><ellipse cx="369.5" cy="730.2324" fill="#84BE84" rx="3" ry="3" style="stroke:#038048;stroke-width:1.0;"/><text fill="#000000" font-family="sans-serif" font-size="14" lengthAdjust="spacing" textLength="128" x="378.5" y="734.0234">getbuildingName()</text></g><!--class BuildingCode--><g id="elem_BuildingCode"><rect codeLine="38" fill="#F1F1F1" height="80.9766" id="BuildingCode" rx="2.5" ry="2.5" style="stroke:#181818;stroke-width:0.5;" width="151" x="159" y="818.5"/><ellipse cx="186.15" cy="834.5" fill="#ADD1B2" rx="11" ry="11" style="stroke:#181818;stroke-width:1.0;"/><path d="M189.1231,840.1431 Q188.5421,840.4419 187.9029,840.5913 Q187.2638,840.7407 186.5582,840.7407 Q184.0514,840.7407 182.7315,839.0889 Q181.4117,837.437 181.4117,834.3159 Q181.4117,831.1865 182.7315,829.5347 Q184.0514,827.8828 186.5582,827.8828 Q187.2638,827.8828 187.9112,828.0322 Q188.5587,828.1816 189.1231,828.4805 L189.1231,831.2031 Q188.4923,830.6221 187.8988,830.3523 Q187.3053,830.0825 186.6744,830.0825 Q185.3297,830.0825 184.6449,831.1492 Q183.9601,832.2158 183.9601,834.3159 Q183.9601,836.4077 184.6449,837.4744 Q185.3297,838.541 186.6744,838.541 Q187.3053,838.541 187.8988,838.2712 Q188.4923,838.0015 189.1231,837.4204 Z " fill="#000000"/><text fill="#000000" font-family="sans-serif" font-size="14" lengthAdjust="spacing" textLength="92" x="202.85" y="839.791">BuildingCode</text><line style="stroke:#181818;stroke-width:0.5;" x1="160" x2="309" y1="850.5" y2="850.5"/><rect fill="none" height="6" style="stroke:#C82930;stroke-width:1.0;" width="6" x="167" y="861.2441"/><text fill="#000000" font-family="sans-serif" font-size="14" lengthAdjust="spacing" textLength="93" x="179" y="868.0352">buildingCode</text><line style="stroke:#181818;stroke-width:0.5;" x1="160" x2="309" y1="874.9883" y2="874.9883"/><ellipse cx="170" cy="888.7324" fill="#84BE84" rx="3" ry="3" style="stroke:#038048;stroke-width:1.0;"/><text fill="#000000" font-family="sans-serif" font-size="14" lengthAdjust="spacing" textLength="125" x="179" y="892.5234">getbuildingCode()</text></g><!--class BuildingName--><g id="elem_BuildingName"><rect codeLine="42" fill="#F1F1F1" height="80.9766" id="BuildingName" rx="2.5" ry="2.5" style="stroke:#181818;stroke-width:0.5;" width="154" x="345.5" y="818.5"/><ellipse cx="372.65" cy="834.5" fill="#ADD1B2" rx="11" ry="11" style="stroke:#181818;stroke-width:1.0;"/><path d="M375.6231,840.1431 Q375.0421,840.4419 374.4029,840.5913 Q373.7638,840.7407 373.0582,840.7407 Q370.5514,840.7407 369.2315,839.0889 Q367.9117,837.437 367.9117,834.3159 Q367.9117,831.1865 369.2315,829.5347 Q370.5514,827.8828 373.0582,827.8828 Q373.7638,827.8828 374.4112,828.0322 Q375.0587,828.1816 375.6231,828.4805 L375.6231,831.2031 Q374.9923,830.6221 374.3988,830.3523 Q373.8053,830.0825 373.1744,830.0825 Q371.8297,830.0825 371.1449,831.1492 Q370.4601,832.2158 370.4601,834.3159 Q370.4601,836.4077 371.1449,837.4744 Q371.8297,838.541 373.1744,838.541 Q373.8053,838.541 374.3988,838.2712 Q374.9923,838.0015 375.6231,837.4204 Z " fill="#000000"/><text fill="#000000" font-family="sans-serif" font-size="14" lengthAdjust="spacing" textLength="95" x="389.35" y="839.791">BuildingName</text><line style="stroke:#181818;stroke-width:0.5;" x1="346.5" x2="498.5" y1="850.5" y2="850.5"/><rect fill="none" height="6" style="stroke:#C82930;stroke-width:1.0;" width="6" x="353.5" y="861.2441"/><text fill="#000000" font-family="sans-serif" font-size="14" lengthAdjust="spacing" textLength="96" x="365.5" y="868.0352">buildingName</text><line style="stroke:#181818;stroke-width:0.5;" x1="346.5" x2="498.5" y1="874.9883" y2="874.9883"/><ellipse cx="356.5" cy="888.7324" fill="#84BE84" rx="3" ry="3" style="stroke:#038048;stroke-width:1.0;"/><text fill="#000000" font-family="sans-serif" font-size="14" lengthAdjust="spacing" textLength="128" x="365.5" y="892.5234">getbuildingName()</text></g><!--class BuildingDescription--><g id="elem_BuildingDescription"><rect codeLine="46" fill="#F1F1F1" height="80.9766" id="BuildingDescription" rx="2.5" ry="2.5" style="stroke:#181818;stroke-width:0.5;" width="193" x="535" y="818.5"/><ellipse cx="562.15" cy="834.5" fill="#ADD1B2" rx="11" ry="11" style="stroke:#181818;stroke-width:1.0;"/><path d="M565.1231,840.1431 Q564.5421,840.4419 563.9029,840.5913 Q563.2638,840.7407 562.5582,840.7407 Q560.0514,840.7407 558.7315,839.0889 Q557.4117,837.437 557.4117,834.3159 Q557.4117,831.1865 558.7315,829.5347 Q560.0514,827.8828 562.5582,827.8828 Q563.2638,827.8828 563.9112,828.0322 Q564.5587,828.1816 565.1231,828.4805 L565.1231,831.2031 Q564.4923,830.6221 563.8988,830.3523 Q563.3053,830.0825 562.6744,830.0825 Q561.3297,830.0825 560.6449,831.1492 Q559.9601,832.2158 559.9601,834.3159 Q559.9601,836.4077 560.6449,837.4744 Q561.3297,838.541 562.6744,838.541 Q563.3053,838.541 563.8988,838.2712 Q564.4923,838.0015 565.1231,837.4204 Z " fill="#000000"/><text fill="#000000" font-family="sans-serif" font-size="14" lengthAdjust="spacing" textLength="134" x="578.85" y="839.791">BuildingDescription</text><line style="stroke:#181818;stroke-width:0.5;" x1="536" x2="727" y1="850.5" y2="850.5"/><rect fill="none" height="6" style="stroke:#C82930;stroke-width:1.0;" width="6" x="543" y="861.2441"/><text fill="#000000" font-family="sans-serif" font-size="14" lengthAdjust="spacing" textLength="135" x="555" y="868.0352">buildingDescription</text><line style="stroke:#181818;stroke-width:0.5;" x1="536" x2="727" y1="874.9883" y2="874.9883"/><ellipse cx="546" cy="888.7324" fill="#84BE84" rx="3" ry="3" style="stroke:#038048;stroke-width:1.0;"/><text fill="#000000" font-family="sans-serif" font-size="14" lengthAdjust="spacing" textLength="167" x="555" y="892.5234">getbuildingDescription()</text></g><!--class BuildingSize--><g id="elem_BuildingSize"><rect codeLine="50" fill="#F1F1F1" height="80.9766" id="BuildingSize" rx="2.5" ry="2.5" style="stroke:#181818;stroke-width:0.5;" width="143" x="763" y="818.5"/><ellipse cx="790.15" cy="834.5" fill="#ADD1B2" rx="11" ry="11" style="stroke:#181818;stroke-width:1.0;"/><path d="M793.1231,840.1431 Q792.5421,840.4419 791.9029,840.5913 Q791.2638,840.7407 790.5582,840.7407 Q788.0514,840.7407 786.7315,839.0889 Q785.4117,837.437 785.4117,834.3159 Q785.4117,831.1865 786.7315,829.5347 Q788.0514,827.8828 790.5582,827.8828 Q791.2638,827.8828 791.9112,828.0322 Q792.5587,828.1816 793.1231,828.4805 L793.1231,831.2031 Q792.4923,830.6221 791.8988,830.3523 Q791.3053,830.0825 790.6744,830.0825 Q789.3297,830.0825 788.6449,831.1492 Q787.9601,832.2158 787.9601,834.3159 Q787.9601,836.4077 788.6449,837.4744 Q789.3297,838.541 790.6744,838.541 Q791.3053,838.541 791.8988,838.2712 Q792.4923,838.0015 793.1231,837.4204 Z " fill="#000000"/><text fill="#000000" font-family="sans-serif" font-size="14" lengthAdjust="spacing" textLength="84" x="806.85" y="839.791">BuildingSize</text><line style="stroke:#181818;stroke-width:0.5;" x1="764" x2="905" y1="850.5" y2="850.5"/><rect fill="none" height="6" style="stroke:#C82930;stroke-width:1.0;" width="6" x="771" y="861.2441"/><text fill="#000000" font-family="sans-serif" font-size="14" lengthAdjust="spacing" textLength="85" x="783" y="868.0352">buildingSize</text><line style="stroke:#181818;stroke-width:0.5;" x1="764" x2="905" y1="874.9883" y2="874.9883"/><ellipse cx="774" cy="888.7324" fill="#84BE84" rx="3" ry="3" style="stroke:#038048;stroke-width:1.0;"/><text fill="#000000" font-family="sans-serif" font-size="14" lengthAdjust="spacing" textLength="117" x="783" y="892.5234">getbuildingSize()</text></g><!--class BuildingMapper--><g id="elem_BuildingMapper"><rect codeLine="55" fill="#F1F1F1" height="80.9766" id="BuildingMapper" rx="2.5" ry="2.5" style="stroke:#181818;stroke-width:0.5;" width="140" x="488.5" y="497"/><ellipse cx="503.5" cy="513" fill="#ADD1B2" rx="11" ry="11" style="stroke:#181818;stroke-width:1.0;"/><path d="M506.4731,518.6431 Q505.8921,518.9419 505.2529,519.0913 Q504.6138,519.2407 503.9082,519.2407 Q501.4014,519.2407 500.0815,517.5889 Q498.7617,515.937 498.7617,512.8159 Q498.7617,509.6865 500.0815,508.0347 Q501.4014,506.3828 503.9082,506.3828 Q504.6138,506.3828 505.2612,506.5322 Q505.9087,506.6816 506.4731,506.9805 L506.4731,509.7031 Q505.8423,509.1221 505.2488,508.8523 Q504.6553,508.5825 504.0244,508.5825 Q502.6797,508.5825 501.9949,509.6492 Q501.3101,510.7158 501.3101,512.8159 Q501.3101,514.9077 501.9949,515.9744 Q502.6797,517.041 504.0244,517.041 Q504.6553,517.041 505.2488,516.7712 Q505.8423,516.5015 506.4731,515.9204 Z " fill="#000000"/><text fill="#000000" font-family="sans-serif" font-size="14" lengthAdjust="spacing" textLength="108" x="517.5" y="518.291">BuildingMapper</text><line style="stroke:#181818;stroke-width:0.5;" x1="489.5" x2="627.5" y1="529" y2="529"/><line style="stroke:#181818;stroke-width:0.5;" x1="489.5" x2="627.5" y1="537" y2="537"/><rect fill="#F24D5C" height="6" style="stroke:#C82930;stroke-width:1.0;" width="6" x="496.5" y="547.7441"/><text fill="#000000" font-family="sans-serif" font-size="14" lengthAdjust="spacing" textLength="83" x="508.5" y="554.5352">toDTO(json)</text><rect fill="#F24D5C" height="6" style="stroke:#C82930;stroke-width:1.0;" width="6" x="496.5" y="564.2324"/><text fill="#000000" font-family="sans-serif" font-size="14" lengthAdjust="spacing" textLength="112" x="508.5" y="571.0234">toData(building)</text></g><!--class BuildingDTO--><g id="elem_BuildingDTO"><rect codeLine="59" fill="#F1F1F1" height="113.9531" id="BuildingDTO" rx="2.5" ry="2.5" style="stroke:#181818;stroke-width:0.5;" width="161" x="939" y="643.5"/><ellipse cx="973.35" cy="659.5" fill="#ADD1B2" rx="11" ry="11" style="stroke:#181818;stroke-width:1.0;"/><path d="M976.3231,665.1431 Q975.7421,665.4419 975.1029,665.5913 Q974.4638,665.7407 973.7582,665.7407 Q971.2514,665.7407 969.9315,664.0889 Q968.6117,662.437 968.6117,659.3159 Q968.6117,656.1865 969.9315,654.5347 Q971.2514,652.8828 973.7582,652.8828 Q974.4638,652.8828 975.1112,653.0322 Q975.7587,653.1816 976.3231,653.4805 L976.3231,656.2031 Q975.6923,655.6221 975.0988,655.3523 Q974.5053,655.0825 973.8744,655.0825 Q972.5297,655.0825 971.8449,656.1492 Q971.1601,657.2158 971.1601,659.3159 Q971.1601,661.4077 971.8449,662.4744 Q972.5297,663.541 973.8744,663.541 Q974.5053,663.541 975.0988,663.2712 Q975.6923,663.0015 976.3231,662.4204 Z " fill="#000000"/><text fill="#000000" font-family="sans-serif" font-size="14" lengthAdjust="spacing" textLength="86" x="991.65" y="664.791">BuildingDTO</text><line style="stroke:#181818;stroke-width:0.5;" x1="940" x2="1099" y1="675.5" y2="675.5"/><rect fill="none" height="6" style="stroke:#C82930;stroke-width:1.0;" width="6" x="947" y="686.2441"/><text fill="#000000" font-family="sans-serif" font-size="14" lengthAdjust="spacing" textLength="93" x="959" y="693.0352">buildingCode</text><rect fill="none" height="6" style="stroke:#C82930;stroke-width:1.0;" width="6" x="947" y="702.7324"/><text fill="#000000" font-family="sans-serif" font-size="14" lengthAdjust="spacing" textLength="96" x="959" y="709.5234">buildingName</text><rect fill="none" height="6" style="stroke:#C82930;stroke-width:1.0;" width="6" x="947" y="719.2207"/><text fill="#000000" font-family="sans-serif" font-size="14" lengthAdjust="spacing" textLength="135" x="959" y="726.0117">buildingDescription</text><rect fill="none" height="6" style="stroke:#C82930;stroke-width:1.0;" width="6" x="947" y="735.709"/><text fill="#000000" font-family="sans-serif" font-size="14" lengthAdjust="spacing" textLength="85" x="959" y="742.5">buildingSize</text><line style="stroke:#181818;stroke-width:0.5;" x1="940" x2="1099" y1="749.4531" y2="749.4531"/></g><!--class DataBuilding--><g id="elem_DataBuilding"><rect codeLine="65" fill="#F1F1F1" height="48" id="DataBuilding" rx="2.5" ry="2.5" style="stroke:#181818;stroke-width:0.5;" width="119" x="7" y="676.5"/><ellipse cx="22" cy="692.5" fill="#ADD1B2" rx="11" ry="11" style="stroke:#181818;stroke-width:1.0;"/><path d="M24.9731,698.1431 Q24.3921,698.4419 23.7529,698.5913 Q23.1138,698.7407 22.4082,698.7407 Q19.9014,698.7407 18.5815,697.0889 Q17.2617,695.437 17.2617,692.3159 Q17.2617,689.1865 18.5815,687.5347 Q19.9014,685.8828 22.4082,685.8828 Q23.1138,685.8828 23.7612,686.0322 Q24.4087,686.1816 24.9731,686.4805 L24.9731,689.2031 Q24.3423,688.6221 23.7488,688.3523 Q23.1553,688.0825 22.5244,688.0825 Q21.1797,688.0825 20.4949,689.1492 Q19.8101,690.2158 19.8101,692.3159 Q19.8101,694.4077 20.4949,695.4744 Q21.1797,696.541 22.5244,696.541 Q23.1553,696.541 23.7488,696.2712 Q24.3423,696.0015 24.9731,695.4204 Z " fill="#000000"/><text fill="#000000" font-family="sans-serif" font-size="14" lengthAdjust="spacing" textLength="87" x="36" y="697.791">DataBuilding</text><line style="stroke:#181818;stroke-width:0.5;" x1="8" x2="125" y1="708.5" y2="708.5"/><line style="stroke:#181818;stroke-width:0.5;" x1="8" x2="125" y1="716.5" y2="716.5"/></g><!--link BuildingController to BuildingMapper--><g id="link_BuildingController_BuildingMapper"><path codeLine="21" d="M688.252,256.207 C704.155,268.142 714.697,283.572 710.5,303 C696.177,369.297 685.264,385.658 647.5,442 C634.45,461.469 621.5249,476.4409 605.7769,492.4329 " fill="none" id="BuildingController-to-BuildingMapper" style="stroke:#181818;stroke-width:1.0;"/><polygon fill="#181818" points="601.567,496.708,610.7319,493.1019,605.0753,493.1454,605.0318,487.4887,601.567,496.708" style="stroke:#181818;stroke-width:1.0;"/><text fill="#000000" font-family="sans-serif" font-size="13" lengthAdjust="spacing" textLength="29" x="709.5" y="391.0684">uses</text></g><!--link BuildingService to BuildingMapper--><g id="link_BuildingService_BuildingMapper"><path codeLine="31" d="M526.095,418.34 C532.364,441.201 539.3211,466.5656 546.0611,491.1426 " fill="none" id="BuildingService-to-BuildingMapper" style="stroke:#181818;stroke-width:1.0;"/><polygon fill="#181818" points="547.648,496.929,549.1253,487.1916,546.3256,492.107,541.4102,489.3074,547.648,496.929" style="stroke:#181818;stroke-width:1.0;"/><text fill="#000000" font-family="sans-serif" font-size="13" lengthAdjust="spacing" textLength="29" x="539.5" y="463.5684">uses</text></g><!--link RouteBuilding to IBuildingController--><g id="link_RouteBuilding_IBuildingController"><path codeLine="69" d="M368.89,89.13 C375.107,115.815 383.9985,153.9715 390.9055,183.6165 " fill="none" id="RouteBuilding-to-IBuildingController" style="stroke:#181818;stroke-width:1.0;stroke-dasharray:7.0,7.0;"/><polygon fill="#181818" points="392.267,189.46,394.1204,179.7871,391.1324,184.5904,386.3291,181.6024,392.267,189.46" style="stroke:#181818;stroke-width:1.0;"/></g><!--link BuildingController to IBuildingController--><g id="link_BuildingController_IBuildingController"><path codeLine="70" d="M518.804,221.5 C507.325,221.5 513.846,221.5 502.367,221.5 " fill="none" id="BuildingController-to-IBuildingController" style="stroke:#181818;stroke-width:1.0;"/><polygon fill="none" points="484.367,221.5,502.367,227.5,502.367,215.5,484.367,221.5" style="stroke:#181818;stroke-width:1.0;"/></g><!--link BuildingController to BuildingService--><g id="link_BuildingController_BuildingService"><path codeLine="71" d="M578.162,270.376 C563.893,297.339 549.2896,324.9329 536.7866,348.5579 " fill="none" id="BuildingController-to-BuildingService" style="stroke:#181818;stroke-width:1.0;stroke-dasharray:7.0,7.0;"/><polygon fill="#181818" points="533.98,353.861,541.7253,347.7773,536.3188,349.4417,534.6544,344.0353,533.98,353.861" style="stroke:#181818;stroke-width:1.0;"/></g><!--link BuildingService to Building--><g id="link_BuildingService_Building"><path codeLine="72" d="M502.327,418.1 C492.297,439.771 479.559,469.595 471.5,497 C455.23,552.325 445.9135,612.4844 440.6965,653.7554 " fill="none" id="BuildingService-to-Building" style="stroke:#181818;stroke-width:1.0;stroke-dasharray:7.0,7.0;"/><polygon fill="#181818" points="439.944,659.708,445.0411,651.2807,440.5711,654.7475,437.1043,650.2774,439.944,659.708" style="stroke:#181818;stroke-width:1.0;"/></g><!--link BuildingService to IBuildingRepo--><g id="link_BuildingService_IBuildingRepo"><path codeLine="73" d="M403.863,386 C392.267,386 386.672,386 375.076,386 " fill="none" id="BuildingService-to-IBuildingRepo" style="stroke:#181818;stroke-width:1.0;stroke-dasharray:7.0,7.0;"/><polygon fill="#181818" points="369.076,386,378.076,390,374.076,386,378.076,382,369.076,386" style="stroke:#181818;stroke-width:1.0;"/></g><!--reverse link BuildingRepo to IBuildingRepo--><g id="link_BuildingRepo_IBuildingRepo"><path codeLine="74" d="M236.5751,259.215 C250.7411,287.99 268.971,325.02 283.123,353.765 " fill="none" id="BuildingRepo-backto-IBuildingRepo" style="stroke:#181818;stroke-width:1.0;stroke-dasharray:7.0,7.0;"/><polygon fill="#181818" points="233.925,253.832,234.3114,263.6733,236.1334,258.3179,241.4888,260.1398,233.925,253.832" style="stroke:#181818;stroke-width:1.0;"/></g><!--reverse link dbDriver to BuildingRepo--><g id="link_dbDriver_BuildingRepo"><path codeLine="75" d="M218.5,95.13 C218.5,121.815 218.5,159.815 218.5,189.46 " fill="none" id="dbDriver-backto-BuildingRepo" style="stroke:#181818;stroke-width:1.0;stroke-dasharray:7.0,7.0;"/><polygon fill="#181818" points="218.5,89.13,214.5,98.13,218.5,94.13,222.5,98.13,218.5,89.13" style="stroke:#181818;stroke-width:1.0;"/></g><!--link BuildingMapper to BuildingDTO--><g id="link_BuildingMapper_BuildingDTO"><path codeLine="77" d="M602.694,578.011 C619.078,590.289 638.553,602.341 658.5,609 C714.174,627.585 867.726,595.91 922.5,617 C938.18,623.037 948.4312,628.9899 961.6592,639.6789 " fill="none" id="BuildingMapper-to-BuildingDTO" style="stroke:#181818;stroke-width:1.0;stroke-dasharray:7.0,7.0;"/><polygon fill="#181818" points="966.326,643.45,961.8398,634.6822,962.437,640.3075,956.8117,640.9046,966.326,643.45" style="stroke:#181818;stroke-width:1.0;"/></g><!--link BuildingMapper to Building--><g id="link_BuildingMapper_Building"><path codeLine="78" d="M540.842,578.108 C535.522,588.517 529.277,599.485 522.5,609 C509.73,626.929 497.7245,640.5432 482.7455,655.6082 " fill="none" id="BuildingMapper-to-Building" style="stroke:#181818;stroke-width:1.0;stroke-dasharray:7.0,7.0;"/><polygon fill="#181818" points="478.515,659.863,487.6972,656.3012,482.0404,656.3174,482.0242,650.6605,478.515,659.863" style="stroke:#181818;stroke-width:1.0;"/></g><!--link BuildingMapper to DataBuilding--><g id="link_BuildingMapper_DataBuilding"><path codeLine="79" d="M488.477,538.527 C401.964,541.406 252.725,555.858 142.5,617 C116.785,631.264 98.4471,652.5182 84.873,671.5612 " fill="none" id="BuildingMapper-to-DataBuilding" style="stroke:#181818;stroke-width:1.0;stroke-dasharray:7.0,7.0;"/><polygon fill="#181818" points="81.3903,676.447,89.8715,671.4401,84.2925,672.3755,83.3571,666.7965,81.3903,676.447" style="stroke:#181818;stroke-width:1.0;"/></g><!--link dbDriver to DataBuilding--><g id="link_dbDriver_DataBuilding"><path codeLine="81" d="M183.356,89.039 C168.621,100.055 152.226,114.271 140.5,130 C114.427,164.975 102.5,176.876 102.5,220.5 C102.5,220.5 102.5,220.5 102.5,538.5 C102.5,588.623 87.629,639.7804 76.9833,670.7254 " fill="none" id="dbDriver-to-DataBuilding" style="stroke:#181818;stroke-width:1.0;stroke-dasharray:7.0,7.0;"/><polygon fill="#181818" points="75.0315,676.399,81.7417,669.1898,76.658,671.671,74.1768,666.5873,75.0315,676.399" style="stroke:#181818;stroke-width:1.0;"/></g><!--link BuildingRepo to Building--><g id="link_BuildingRepo_Building"><path codeLine="82" d="M210.324,253.511 C200.394,297.146 187.722,378.436 211.5,442 C245.755,533.569 324.2979,610.2297 379.0859,655.8907 " fill="none" id="BuildingRepo-to-Building" style="stroke:#181818;stroke-width:1.0;stroke-dasharray:7.0,7.0;"/><polygon fill="#181818" points="383.695,659.732,379.3422,650.8973,379.854,656.5309,374.2204,657.0428,383.695,659.732" style="stroke:#181818;stroke-width:1.0;"/></g><!--link BuildingRepo to BuildingDTO--><g id="link_BuildingRepo_BuildingDTO"><path codeLine="83" d="M243.633,253.674 C257.725,268.734 276.644,285.377 297.5,294 C333.48,308.877 615.324,289.078 647.5,311 C700.271,346.954 667.525,391.419 706.5,442 C781.913,539.869 827.435,538.082 922.5,617 C932.706,625.473 938.8755,630.6296 949.3545,639.4956 " fill="none" id="BuildingRepo-to-BuildingDTO" style="stroke:#181818;stroke-width:1.0;stroke-dasharray:7.0,7.0;"/><polygon fill="#181818" points="953.935,643.371,949.6479,634.5042,950.1179,640.1415,944.4806,640.6115,953.935,643.371" style="stroke:#181818;stroke-width:1.0;"/></g><!--reverse link Building to BuildingCode--><g id="link_Building_BuildingCode"><path codeLine="85" d="M379.7848,744.8801 C349.4298,768.5151 315.772,794.721 285.426,818.348 " fill="none" id="Building-backto-BuildingCode" style="stroke:#181818;stroke-width:1.0;"/><polygon fill="#181818" points="384.519,741.194,374.9603,743.5671,380.5738,744.2658,379.8751,749.8793,384.519,741.194" style="stroke:#181818;stroke-width:1.0;"/></g><!--reverse link Building to BuildingName--><g id="link_Building_BuildingName"><path codeLine="86" d="M431.6894,747.3754 C429.7264,771.0124 427.744,794.872 425.786,818.448 " fill="none" id="Building-backto-BuildingName" style="stroke:#181818;stroke-width:1.0;"/><polygon fill="#181818" points="432.186,741.396,427.4549,750.0341,431.7722,746.3788,435.4274,750.6962,432.186,741.396" style="stroke:#181818;stroke-width:1.0;"/></g><!--reverse link Building to BuildingDescription--><g id="link_Building_BuildingDescription"><path codeLine="87" d="M489.9007,744.9377 C519.5017,768.5727 552.249,794.721 581.841,818.348 " fill="none" id="Building-backto-BuildingDescription" style="stroke:#181818;stroke-width:1.0;"/><polygon fill="#181818" points="485.212,741.194,489.7493,749.9355,489.1193,744.3138,494.741,743.6838,485.212,741.194" style="stroke:#181818;stroke-width:1.0;"/></g><!--reverse link Building to BuildingSize--><g id="link_Building_BuildingSize"><path codeLine="88" d="M518.3677,731.32 C581.3747,754.302 666.866,786.242 745.5,818.5 C751.13,820.81 756.937,823.251 762.76,825.741 " fill="none" id="Building-backto-BuildingSize" style="stroke:#181818;stroke-width:1.0;"/><polygon fill="#181818" points="512.731,729.264,519.8154,736.1058,517.4283,730.9773,522.5568,728.5902,512.731,729.264" style="stroke:#181818;stroke-width:1.0;"/></g><!--SRC=[dLNRJiCm37tlLqHxseGwtX526an882xIW0_86ZC5IXCbxH2N_Jj9rsPEwtKJUPWc7_luxcgUlVCLiD6ruH_mgSoxPRmGR6xa6enbT_mBp8YnduIvb-NSMhPGLGcNbSo5B5RiPuCWiTmQUkacINJBVbEKO5vv1cmck2u3imtKCcZSjDHNgYYDodDFL-luTr9fmNVknszM5PCQnN4CKgHxAMfqpNFfyLidxc8hAC0uR07sWES5Q8LzMhw6HjaLXeWlJI-2yJtNsedEM6N1eZBEjCvbnakf2lO4PYqpiASl5jWLTp-jnDKqwbVBsk03bLWsV-RFZpWpeZVTzBP4WM0IKkqwFoRDUoKW7z59u55OGRaCXHGmdf3GWnliyT28YAWacF6GAuhFkwFulFm_ySt1PaRgkkS4BO99TeGFE7cItsJGNaxIUc2ywtBCrlHrovUMoeqJsXOlu2L7izArT_gjSQyR_NhkBKMSHUl4-yR7oxtue4t5z88wGkJI_XwjMjDsjg6t7P5I7pKuCh-2IRoGqmgPrtWVRa_qxWWrxPeYMzU18PZ2S5sJ97m8Ub0S4KNQGtmq0MNdQHejButKuq4YU4n8XNfSaZy0]--></g></svg>