<?xml version="1.0" encoding="us-ascii" standalone="no"?><svg xmlns="http://www.w3.org/2000/svg" xmlns:xlink="http://www.w3.org/1999/xlink" contentStyleType="text/css" height="1315px" preserveAspectRatio="none" style="width:2201px;height:1315px;background:#FFFFFF;" version="1.1" viewBox="0 0 2201 1315" width="2201px" zoomAndPan="magnify"><defs/><g><rect fill="#FFFFFF" height="1086.8301" style="stroke:#181818;stroke-width:1.0;" width="10" x="220.5" y="115.2871"/><rect fill="#FFFFFF" height="1028.209" style="stroke:#181818;stroke-width:1.0;" width="10" x="378.5" y="144.5977"/><rect fill="#FFFFFF" height="28" style="stroke:#181818;stroke-width:1.0;" width="10" x="383.5" y="181.9082"/><rect fill="#FFFFFF" height="28" style="stroke:#181818;stroke-width:1.0;" width="10" x="383.5" y="1108.4961"/><rect fill="#FFFFFF" height="29.3105" style="stroke:#181818;stroke-width:1.0;" width="10" x="519.5" y="246.2188"/><rect fill="#FFFFFF" height="237.2422" style="stroke:#181818;stroke-width:1.0;" width="10" x="519.5" y="833.9434"/><rect fill="#FFFFFF" height="737.6797" style="stroke:#181818;stroke-width:1.0;" width="10" x="790.5" y="333.5059"/><rect fill="#FFFFFF" height="30" style="stroke:#181818;stroke-width:1.0;" width="10" x="1050.5" y="479.4141"/><rect fill="#FFFFFF" height="30" style="stroke:#181818;stroke-width:1.0;" width="10" x="1050.5" y="538.7246"/><rect fill="#FFFFFF" height="30" style="stroke:#181818;stroke-width:1.0;" width="10" x="1050.5" y="598.0352"/><rect fill="#FFFFFF" height="30" style="stroke:#181818;stroke-width:1.0;" width="10" x="1050.5" y="657.3457"/><rect fill="#FFFFFF" height="30" style="stroke:#181818;stroke-width:1.0;" width="10" x="1050.5" y="863.2539"/><rect fill="#FFFFFF" height="30" style="stroke:#181818;stroke-width:1.0;" width="10" x="1050.5" y="922.5645"/><rect fill="#FFFFFF" height="30" style="stroke:#181818;stroke-width:1.0;" width="10" x="1050.5" y="981.875"/><rect fill="#FFFFFF" height="30" style="stroke:#181818;stroke-width:1.0;" width="10" x="1050.5" y="1041.1855"/><rect fill="#FFFFFF" height="383.8398" style="stroke:#181818;stroke-width:1.0;" width="10" x="1195.5" y="420.793"/><rect fill="#FFFFFF" height="266.5527" style="stroke:#181818;stroke-width:1.0;" width="10" x="1422.5" y="450.1035"/><rect fill="#FFFFFF" height="30" style="stroke:#181818;stroke-width:1.0;" width="10" x="2154" y="774.6328"/><line style="stroke:#181818;stroke-width:0.5;stroke-dasharray:5.0,5.0;" x1="29" x2="29" y1="83.9766" y2="1220.1172"/><line style="stroke:#181818;stroke-width:0.5;stroke-dasharray:5.0,5.0;" x1="225.5" x2="225.5" y1="83.9766" y2="1220.1172"/><line style="stroke:#181818;stroke-width:0.5;stroke-dasharray:5.0,5.0;" x1="383.5" x2="383.5" y1="83.9766" y2="1220.1172"/><line style="stroke:#181818;stroke-width:0.5;stroke-dasharray:5.0,5.0;" x1="524.5" x2="524.5" y1="83.9766" y2="1220.1172"/><line style="stroke:#181818;stroke-width:0.5;stroke-dasharray:5.0,5.0;" x1="676.5" x2="676.5" y1="293.207" y2="1220.1172"/><line style="stroke:#181818;stroke-width:0.5;stroke-dasharray:5.0,5.0;" x1="795.5" x2="795.5" y1="83.9766" y2="1220.1172"/><line style="stroke:#181818;stroke-width:0.5;stroke-dasharray:5.0,5.0;" x1="1055.5" x2="1055.5" y1="380.4941" y2="1220.1172"/><line style="stroke:#181818;stroke-width:0.5;stroke-dasharray:5.0,5.0;" x1="1200.5" x2="1200.5" y1="83.9766" y2="1220.1172"/><line style="stroke:#181818;stroke-width:0.5;stroke-dasharray:5.0,5.0;" x1="1427" x2="1427" y1="83.9766" y2="1220.1172"/><line style="stroke:#181818;stroke-width:0.5;stroke-dasharray:5.0,5.0;" x1="2045.5" x2="2045.5" y1="734.334" y2="1220.1172"/><line style="stroke:#181818;stroke-width:0.5;stroke-dasharray:5.0,5.0;" x1="2158.5" x2="2158.5" y1="83.9766" y2="1220.1172"/><text fill="#000000" font-family="sans-serif" font-size="14" lengthAdjust="spacing" textLength="9" x="22" y="81.0234">X</text><path d="M9,39.4883 L9,63.4883 M9,51.4883 L26,51.4883 " fill="none" style="stroke:#181818;stroke-width:0.5;"/><ellipse cx="38" cy="51.4883" fill="#E2E2F0" rx="12" ry="12" style="stroke:#181818;stroke-width:0.5;"/><text fill="#000000" font-family="sans-serif" font-size="14" lengthAdjust="spacing" textLength="9" x="22" y="1232.6523">X</text><path d="M9,1239.6055 L9,1263.6055 M9,1251.6055 L26,1251.6055 " fill="none" style="stroke:#181818;stroke-width:0.5;"/><ellipse cx="38" cy="1251.6055" fill="#E2E2F0" rx="12" ry="12" style="stroke:#181818;stroke-width:0.5;"/><rect fill="#E2E2F0" height="30.4883" rx="2.5" ry="2.5" style="stroke:#181818;stroke-width:0.5;" width="114" x="168.5" y="52.4883"/><text fill="#000000" font-family="sans-serif" font-size="14" lengthAdjust="spacing" textLength="100" x="175.5" y="73.0234">:RouteBuilding</text><rect fill="#E2E2F0" height="30.4883" rx="2.5" ry="2.5" style="stroke:#181818;stroke-width:0.5;" width="114" x="168.5" y="1219.1172"/><text fill="#000000" font-family="sans-serif" font-size="14" lengthAdjust="spacing" textLength="100" x="175.5" y="1239.6523">:RouteBuilding</text><rect fill="#E2E2F0" height="46.9766" rx="2.5" ry="2.5" style="stroke:#181818;stroke-width:0.5;" width="140" x="313.5" y="36"/><text fill="#000000" font-family="sans-serif" font-size="14" lengthAdjust="spacing" textLength="126" x="320.5" y="56.5352">BuildingController</text><text fill="#000000" font-family="sans-serif" font-size="14" lengthAdjust="spacing" textLength="84" x="341.5" y="73.0234">&#171;Controller&#187;</text><rect fill="#E2E2F0" height="46.9766" rx="2.5" ry="2.5" style="stroke:#181818;stroke-width:0.5;" width="140" x="313.5" y="1219.1172"/><text fill="#000000" font-family="sans-serif" font-size="14" lengthAdjust="spacing" textLength="126" x="320.5" y="1239.6523">BuildingController</text><text fill="#000000" font-family="sans-serif" font-size="14" lengthAdjust="spacing" textLength="84" x="341.5" y="1256.1406">&#171;Controller&#187;</text><rect fill="#E2E2F0" height="46.9766" rx="2.5" ry="2.5" style="stroke:#181818;stroke-width:0.5;" width="122" x="463.5" y="36"/><text fill="#000000" font-family="sans-serif" font-size="14" lengthAdjust="spacing" textLength="108" x="470.5" y="56.5352">BuildingMapper</text><text fill="#000000" font-family="sans-serif" font-size="14" lengthAdjust="spacing" textLength="82" x="483.5" y="73.0234">&#171;Json2DTO&#187;</text><rect fill="#E2E2F0" height="46.9766" rx="2.5" ry="2.5" style="stroke:#181818;stroke-width:0.5;" width="122" x="463.5" y="1219.1172"/><text fill="#000000" font-family="sans-serif" font-size="14" lengthAdjust="spacing" textLength="108" x="470.5" y="1239.6523">BuildingMapper</text><text fill="#000000" font-family="sans-serif" font-size="14" lengthAdjust="spacing" textLength="82" x="483.5" y="1256.1406">&#171;Json2DTO&#187;</text><rect fill="#E2E2F0" height="46.9766" rx="2.5" ry="2.5" style="stroke:#181818;stroke-width:0.5;" width="100" x="626.5" y="1219.1172"/><text fill="#000000" font-family="sans-serif" font-size="14" lengthAdjust="spacing" textLength="86" x="633.5" y="1239.6523">BuildingDTO</text><text fill="#000000" font-family="sans-serif" font-size="14" lengthAdjust="spacing" textLength="44" x="654.5" y="1256.1406">&#171;DTO&#187;</text><rect fill="#E2E2F0" height="46.9766" rx="2.5" ry="2.5" style="stroke:#181818;stroke-width:0.5;" width="118" x="736.5" y="36"/><text fill="#000000" font-family="sans-serif" font-size="14" lengthAdjust="spacing" textLength="104" x="743.5" y="56.5352">BuildingService</text><text fill="#000000" font-family="sans-serif" font-size="14" lengthAdjust="spacing" textLength="62" x="764.5" y="73.0234">&#171;Service&#187;</text><rect fill="#E2E2F0" height="46.9766" rx="2.5" ry="2.5" style="stroke:#181818;stroke-width:0.5;" width="118" x="736.5" y="1219.1172"/><text fill="#000000" font-family="sans-serif" font-size="14" lengthAdjust="spacing" textLength="104" x="743.5" y="1239.6523">BuildingService</text><text fill="#000000" font-family="sans-serif" font-size="14" lengthAdjust="spacing" textLength="62" x="764.5" y="1256.1406">&#171;Service&#187;</text><rect fill="#E2E2F0" height="46.9766" rx="2.5" ry="2.5" style="stroke:#181818;stroke-width:0.5;" width="70" x="1020.5" y="1219.1172"/><text fill="#000000" font-family="sans-serif" font-size="14" lengthAdjust="spacing" textLength="56" x="1027.5" y="1239.6523">Building</text><text fill="#000000" font-family="sans-serif" font-size="14" lengthAdjust="spacing" textLength="52" x="1029.5" y="1256.1406">&#171;Entity&#187;</text><rect fill="#E2E2F0" height="46.9766" rx="2.5" ry="2.5" style="stroke:#181818;stroke-width:0.5;" width="200" x="1100.5" y="36"/><text fill="#000000" font-family="sans-serif" font-size="14" lengthAdjust="spacing" textLength="91" x="1155" y="56.5352">BuildingRepo</text><text fill="#000000" font-family="sans-serif" font-size="14" lengthAdjust="spacing" textLength="186" x="1107.5" y="73.0234">:IBuildingRepo&#171;Repository&#187;</text><rect fill="#E2E2F0" height="46.9766" rx="2.5" ry="2.5" style="stroke:#181818;stroke-width:0.5;" width="200" x="1100.5" y="1219.1172"/><text fill="#000000" font-family="sans-serif" font-size="14" lengthAdjust="spacing" textLength="91" x="1155" y="1239.6523">BuildingRepo</text><text fill="#000000" font-family="sans-serif" font-size="14" lengthAdjust="spacing" textLength="186" x="1107.5" y="1256.1406">:IBuildingRepo&#171;Repository&#187;</text><rect fill="#E2E2F0" height="46.9766" rx="2.5" ry="2.5" style="stroke:#181818;stroke-width:0.5;" width="121" x="1367" y="36"/><text fill="#000000" font-family="sans-serif" font-size="14" lengthAdjust="spacing" textLength="85" x="1385" y="56.5352">BuildingMap</text><text fill="#000000" font-family="sans-serif" font-size="14" lengthAdjust="spacing" textLength="107" x="1374" y="73.0234">&#171;Domain2Data&#187;</text><rect fill="#E2E2F0" height="46.9766" rx="2.5" ry="2.5" style="stroke:#181818;stroke-width:0.5;" width="121" x="1367" y="1219.1172"/><text fill="#000000" font-family="sans-serif" font-size="14" lengthAdjust="spacing" textLength="85" x="1385" y="1239.6523">BuildingMap</text><text fill="#000000" font-family="sans-serif" font-size="14" lengthAdjust="spacing" textLength="107" x="1374" y="1256.1406">&#171;Domain2Data&#187;</text><rect fill="#E2E2F0" height="46.9766" rx="2.5" ry="2.5" style="stroke:#181818;stroke-width:0.5;" width="123" x="1984.5" y="1219.1172"/><text fill="#000000" font-family="sans-serif" font-size="14" lengthAdjust="spacing" textLength="109" x="1991.5" y="1239.6523">DataBuilding&lt;&lt;</text><text fill="#000000" font-family="sans-serif" font-size="14" lengthAdjust="spacing" textLength="45" x="2023.5" y="1256.1406">&#171;Data&#187;</text><text fill="#000000" font-family="sans-serif" font-size="14" lengthAdjust="spacing" textLength="59" x="2126.5" y="64.5352">dbDriver</text><text fill="#000000" font-family="sans-serif" font-size="14" lengthAdjust="spacing" textLength="77" x="2117.5" y="81.0234">&#171;Database&#187;</text><path d="M2141,15 C2141,5 2159,5 2159,5 C2159,5 2177,5 2177,15 L2177,41 C2177,51 2159,51 2159,51 C2159,51 2141,51 2141,41 L2141,15 " fill="#E2E2F0" style="stroke:#181818;stroke-width:1.5;"/><path d="M2141,15 C2141,25 2159,25 2159,25 C2159,25 2177,25 2177,15 " fill="none" style="stroke:#181818;stroke-width:1.5;"/><text fill="#000000" font-family="sans-serif" font-size="14" lengthAdjust="spacing" textLength="59" x="2126.5" y="1232.6523">dbDriver</text><text fill="#000000" font-family="sans-serif" font-size="14" lengthAdjust="spacing" textLength="77" x="2117.5" y="1249.1406">&#171;Database&#187;</text><path d="M2141,1262.0938 C2141,1252.0938 2159,1252.0938 2159,1252.0938 C2159,1252.0938 2177,1252.0938 2177,1262.0938 L2177,1288.0938 C2177,1298.0938 2159,1298.0938 2159,1298.0938 C2159,1298.0938 2141,1298.0938 2141,1288.0938 L2141,1262.0938 " fill="#E2E2F0" style="stroke:#181818;stroke-width:1.5;"/><path d="M2141,1262.0938 C2141,1272.0938 2159,1272.0938 2159,1272.0938 C2159,1272.0938 2177,1272.0938 2177,1262.0938 " fill="none" style="stroke:#181818;stroke-width:1.5;"/><rect fill="#FFFFFF" height="1086.8301" style="stroke:#181818;stroke-width:1.0;" width="10" x="220.5" y="115.2871"/><rect fill="#FFFFFF" height="1028.209" style="stroke:#181818;stroke-width:1.0;" width="10" x="378.5" y="144.5977"/><rect fill="#FFFFFF" height="28" style="stroke:#181818;stroke-width:1.0;" width="10" x="383.5" y="181.9082"/><rect fill="#FFFFFF" height="28" style="stroke:#181818;stroke-width:1.0;" width="10" x="383.5" y="1108.4961"/><rect fill="#FFFFFF" height="29.3105" style="stroke:#181818;stroke-width:1.0;" width="10" x="519.5" y="246.2188"/><rect fill="#FFFFFF" height="237.2422" style="stroke:#181818;stroke-width:1.0;" width="10" x="519.5" y="833.9434"/><rect fill="#FFFFFF" height="737.6797" style="stroke:#181818;stroke-width:1.0;" width="10" x="790.5" y="333.5059"/><rect fill="#FFFFFF" height="30" style="stroke:#181818;stroke-width:1.0;" width="10" x="1050.5" y="479.4141"/><rect fill="#FFFFFF" height="30" style="stroke:#181818;stroke-width:1.0;" width="10" x="1050.5" y="538.7246"/><rect fill="#FFFFFF" height="30" style="stroke:#181818;stroke-width:1.0;" width="10" x="1050.5" y="598.0352"/><rect fill="#FFFFFF" height="30" style="stroke:#181818;stroke-width:1.0;" width="10" x="1050.5" y="657.3457"/><rect fill="#FFFFFF" height="30" style="stroke:#181818;stroke-width:1.0;" width="10" x="1050.5" y="863.2539"/><rect fill="#FFFFFF" height="30" style="stroke:#181818;stroke-width:1.0;" width="10" x="1050.5" y="922.5645"/><rect fill="#FFFFFF" height="30" style="stroke:#181818;stroke-width:1.0;" width="10" x="1050.5" y="981.875"/><rect fill="#FFFFFF" height="30" style="stroke:#181818;stroke-width:1.0;" width="10" x="1050.5" y="1041.1855"/><rect fill="#FFFFFF" height="383.8398" style="stroke:#181818;stroke-width:1.0;" width="10" x="1195.5" y="420.793"/><rect fill="#FFFFFF" height="266.5527" style="stroke:#181818;stroke-width:1.0;" width="10" x="1422.5" y="450.1035"/><rect fill="#FFFFFF" height="30" style="stroke:#181818;stroke-width:1.0;" width="10" x="2154" y="774.6328"/><polygon fill="#181818" points="208.5,111.2871,218.5,115.2871,208.5,119.2871,212.5,115.2871" style="stroke:#181818;stroke-width:1.0;"/><line style="stroke:#181818;stroke-width:1.0;" x1="29.5" x2="214.5" y1="115.2871" y2="115.2871"/><text fill="#000000" font-family="sans-serif" font-size="13" lengthAdjust="spacing" textLength="172" x="36.5" y="110.5449">PUT/PATCH /building(json)</text><polygon fill="#181818" points="366.5,140.5977,376.5,144.5977,366.5,148.5977,370.5,144.5977" style="stroke:#181818;stroke-width:1.0;"/><line style="stroke:#181818;stroke-width:1.0;" x1="230.5" x2="372.5" y1="144.5977" y2="144.5977"/><text fill="#000000" font-family="sans-serif" font-size="13" lengthAdjust="spacing" textLength="129" x="237.5" y="139.8555">updateBuilding(json)</text><line style="stroke:#181818;stroke-width:1.0;" x1="393.5" x2="435.5" y1="173.9082" y2="173.9082"/><line style="stroke:#181818;stroke-width:1.0;" x1="435.5" x2="435.5" y1="173.9082" y2="186.9082"/><line style="stroke:#181818;stroke-width:1.0;" x1="394.5" x2="435.5" y1="186.9082" y2="186.9082"/><polygon fill="#181818" points="404.5,182.9082,394.5,186.9082,404.5,190.9082,400.5,186.9082" style="stroke:#181818;stroke-width:1.0;"/><text fill="#000000" font-family="sans-serif" font-size="13" lengthAdjust="spacing" textLength="84" x="400.5" y="169.166">validateJson()</text><polygon fill="#181818" points="507.5,242.2188,517.5,246.2188,507.5,250.2188,511.5,246.2188" style="stroke:#181818;stroke-width:1.0;"/><line style="stroke:#181818;stroke-width:1.0;" x1="388.5" x2="513.5" y1="246.2188" y2="246.2188"/><text fill="#000000" font-family="sans-serif" font-size="13" lengthAdjust="spacing" textLength="76" x="395.5" y="241.4766">toDTO(json)</text><polygon fill="#181818" points="614.5,271.5293,624.5,275.5293,614.5,279.5293,618.5,275.5293" style="stroke:#181818;stroke-width:1.0;"/><line style="stroke:#181818;stroke-width:1.0;" x1="524.5" x2="620.5" y1="275.5293" y2="275.5293"/><text fill="#000000" font-family="sans-serif" font-size="13" lengthAdjust="spacing" textLength="73" x="531.5" y="270.7871">create(json)</text><rect fill="#E2E2F0" height="46.9766" rx="2.5" ry="2.5" style="stroke:#181818;stroke-width:0.5;" width="100" x="626.5" y="254.2188"/><text fill="#000000" font-family="sans-serif" font-size="14" lengthAdjust="spacing" textLength="86" x="633.5" y="274.7539">BuildingDTO</text><text fill="#000000" font-family="sans-serif" font-size="14" lengthAdjust="spacing" textLength="44" x="654.5" y="291.2422">&#171;DTO&#187;</text><polygon fill="#181818" points="778.5,329.5059,788.5,333.5059,778.5,337.5059,782.5,333.5059" style="stroke:#181818;stroke-width:1.0;"/><line style="stroke:#181818;stroke-width:1.0;" x1="388.5" x2="784.5" y1="333.5059" y2="333.5059"/><text fill="#000000" font-family="sans-serif" font-size="13" lengthAdjust="spacing" textLength="280" x="395.5" y="328.7637">buildingDTO = updateBuilding(buildingDTO)</text><polygon fill="#181818" points="1008.5,358.8164,1018.5,362.8164,1008.5,366.8164,1012.5,362.8164" style="stroke:#181818;stroke-width:1.0;"/><line style="stroke:#181818;stroke-width:1.0;" x1="800.5" x2="1014.5" y1="362.8164" y2="362.8164"/><text fill="#000000" font-family="sans-serif" font-size="13" lengthAdjust="spacing" textLength="196" x="807.5" y="358.0742">building = create(buildingDTO)</text><rect fill="#E2E2F0" height="46.9766" rx="2.5" ry="2.5" style="stroke:#181818;stroke-width:0.5;" width="70" x="1020.5" y="341.5059"/><text fill="#000000" font-family="sans-serif" font-size="14" lengthAdjust="spacing" textLength="56" x="1027.5" y="362.041">Building</text><text fill="#000000" font-family="sans-serif" font-size="14" lengthAdjust="spacing" textLength="52" x="1029.5" y="378.5293">&#171;Entity&#187;</text><polygon fill="#181818" points="1183.5,416.793,1193.5,420.793,1183.5,424.793,1187.5,420.793" style="stroke:#181818;stroke-width:1.0;"/><line style="stroke:#181818;stroke-width:1.0;" x1="800.5" x2="1189.5" y1="420.793" y2="420.793"/><text fill="#000000" font-family="sans-serif" font-size="13" lengthAdjust="spacing" textLength="154" x="807.5" y="416.0508">updateBuilding(building)</text><polygon fill="#181818" points="1410.5,446.1035,1420.5,450.1035,1410.5,454.1035,1414.5,450.1035" style="stroke:#181818;stroke-width:1.0;"/><line style="stroke:#181818;stroke-width:1.0;" x1="1205.5" x2="1416.5" y1="450.1035" y2="450.1035"/><text fill="#000000" font-family="sans-serif" font-size="13" lengthAdjust="spacing" textLength="198" x="1212.5" y="445.3613">dataBuilding = toData(building)</text><polygon fill="#181818" points="1071.5,475.4141,1061.5,479.4141,1071.5,483.4141,1067.5,479.4141" style="stroke:#181818;stroke-width:1.0;"/><line style="stroke:#181818;stroke-width:1.0;" x1="1065.5" x2="1421.5" y1="479.4141" y2="479.4141"/><text fill="#000000" font-family="sans-serif" font-size="13" lengthAdjust="spacing" textLength="60" x="1077.5" y="474.6719">getCode()</text><polygon fill="#181818" points="1071.5,534.7246,1061.5,538.7246,1071.5,542.7246,1067.5,538.7246" style="stroke:#181818;stroke-width:1.0;"/><line style="stroke:#181818;stroke-width:1.0;" x1="1065.5" x2="1421.5" y1="538.7246" y2="538.7246"/><text fill="#000000" font-family="sans-serif" font-size="13" lengthAdjust="spacing" textLength="64" x="1077.5" y="533.9824">getName()</text><polygon fill="#181818" points="1071.5,594.0352,1061.5,598.0352,1071.5,602.0352,1067.5,598.0352" style="stroke:#181818;stroke-width:1.0;"/><line style="stroke:#181818;stroke-width:1.0;" x1="1065.5" x2="1421.5" y1="598.0352" y2="598.0352"/><text fill="#000000" font-family="sans-serif" font-size="13" lengthAdjust="spacing" textLength="101" x="1077.5" y="593.293">getDescription()</text><polygon fill="#181818" points="1071.5,653.3457,1061.5,657.3457,1071.5,661.3457,1067.5,657.3457" style="stroke:#181818;stroke-width:1.0;"/><line style="stroke:#181818;stroke-width:1.0;" x1="1065.5" x2="1421.5" y1="657.3457" y2="657.3457"/><text fill="#000000" font-family="sans-serif" font-size="13" lengthAdjust="spacing" textLength="104" x="1077.5" y="652.6035">getBuildingSize()</text><polygon fill="#181818" points="1972.5,712.6563,1982.5,716.6563,1972.5,720.6563,1976.5,716.6563" style="stroke:#181818;stroke-width:1.0;"/><line style="stroke:#181818;stroke-width:1.0;" x1="1427.5" x2="1978.5" y1="716.6563" y2="716.6563"/><text fill="#000000" font-family="sans-serif" font-size="13" lengthAdjust="spacing" textLength="528" x="1434.5" y="711.9141">dataBuilding = create(buildingName,buildingCode,buildingDescription,buildingSize)</text><rect fill="#E2E2F0" height="46.9766" rx="2.5" ry="2.5" style="stroke:#181818;stroke-width:0.5;" width="123" x="1984.5" y="695.3457"/><text fill="#000000" font-family="sans-serif" font-size="14" lengthAdjust="spacing" textLength="109" x="1991.5" y="715.8809">DataBuilding&lt;&lt;</text><text fill="#000000" font-family="sans-serif" font-size="14" lengthAdjust="spacing" textLength="45" x="2023.5" y="732.3691">&#171;Data&#187;</text><polygon fill="#181818" points="2142,770.6328,2152,774.6328,2142,778.6328,2146,774.6328" style="stroke:#181818;stroke-width:1.0;"/><line style="stroke:#181818;stroke-width:1.0;" x1="1205.5" x2="2148" y1="774.6328" y2="774.6328"/><text fill="#000000" font-family="sans-serif" font-size="13" lengthAdjust="spacing" textLength="114" x="1212.5" y="769.8906">save(dataBuilding)</text><polygon fill="#181818" points="540.5,829.9434,530.5,833.9434,540.5,837.9434,536.5,833.9434" style="stroke:#181818;stroke-width:1.0;"/><line style="stroke:#181818;stroke-width:1.0;" x1="534.5" x2="789.5" y1="833.9434" y2="833.9434"/><text fill="#000000" font-family="sans-serif" font-size="13" lengthAdjust="spacing" textLength="101" x="546.5" y="829.2012">toDTO(building)</text><polygon fill="#181818" points="1038.5,859.2539,1048.5,863.2539,1038.5,867.2539,1042.5,863.2539" style="stroke:#181818;stroke-width:1.0;"/><line style="stroke:#181818;stroke-width:1.0;" x1="529.5" x2="1044.5" y1="863.2539" y2="863.2539"/><text fill="#000000" font-family="sans-serif" font-size="13" lengthAdjust="spacing" textLength="213" x="536.5" y="858.5117">buildingCode = getBuildingCode()</text><polygon fill="#181818" points="1038.5,918.5645,1048.5,922.5645,1038.5,926.5645,1042.5,922.5645" style="stroke:#181818;stroke-width:1.0;"/><line style="stroke:#181818;stroke-width:1.0;" x1="529.5" x2="1044.5" y1="922.5645" y2="922.5645"/><text fill="#000000" font-family="sans-serif" font-size="13" lengthAdjust="spacing" textLength="221" x="536.5" y="917.8223">buildingName = getBuildingName()</text><polygon fill="#181818" points="1038.5,977.875,1048.5,981.875,1038.5,985.875,1042.5,981.875" style="stroke:#181818;stroke-width:1.0;"/><line style="stroke:#181818;stroke-width:1.0;" x1="529.5" x2="1044.5" y1="981.875" y2="981.875"/><text fill="#000000" font-family="sans-serif" font-size="13" lengthAdjust="spacing" textLength="295" x="536.5" y="977.1328">buildingDescription = getBuildingDescription()</text><polygon fill="#181818" points="1038.5,1037.1855,1048.5,1041.1855,1038.5,1045.1855,1042.5,1041.1855" style="stroke:#181818;stroke-width:1.0;"/><line style="stroke:#181818;stroke-width:1.0;" x1="529.5" x2="1044.5" y1="1041.1855" y2="1041.1855"/><text fill="#000000" font-family="sans-serif" font-size="13" lengthAdjust="spacing" textLength="199" x="536.5" y="1036.4434">buildingSize = getBuildingSize()</text><line style="stroke:#181818;stroke-width:1.0;" x1="393.5" x2="435.5" y1="1100.4961" y2="1100.4961"/><line style="stroke:#181818;stroke-width:1.0;" x1="435.5" x2="435.5" y1="1100.4961" y2="1113.4961"/><line style="stroke:#181818;stroke-width:1.0;" x1="394.5" x2="435.5" y1="1113.4961" y2="1113.4961"/><polygon fill="#181818" points="404.5,1109.4961,394.5,1113.4961,404.5,1117.4961,400.5,1113.4961" style="stroke:#181818;stroke-width:1.0;"/><text fill="#000000" font-family="sans-serif" font-size="13" lengthAdjust="spacing" textLength="111" x="400.5" y="1095.7539">generateRes(json)</text><polygon fill="#181818" points="241.5,1168.8066,231.5,1172.8066,241.5,1176.8066,237.5,1172.8066" style="stroke:#181818;stroke-width:1.0;"/><line style="stroke:#181818;stroke-width:1.0;stroke-dasharray:2.0,2.0;" x1="235.5" x2="382.5" y1="1172.8066" y2="1172.8066"/><text fill="#000000" font-family="sans-serif" font-size="13" lengthAdjust="spacing" textLength="57" x="247.5" y="1168.0645">response</text><polygon fill="#181818" points="40.5,1198.1172,30.5,1202.1172,40.5,1206.1172,36.5,1202.1172" style="stroke:#181818;stroke-width:1.0;"/><line style="stroke:#181818;stroke-width:1.0;" x1="34.5" x2="224.5" y1="1202.1172" y2="1202.1172"/><text fill="#000000" font-family="sans-serif" font-size="13" lengthAdjust="spacing" textLength="57" x="46.5" y="1197.375">response</text><!--SRC=[nLPHQzim47xthn1voif6mO_12oHne1rhOrotPD0NsHP18xMCh1YwNx-JBTcIBRk3ijOF8TRTzztfxZl9ARiKEUQlwEYLc0kQqH8N0YrMCRi8ihtGSqwBqmBX2iM7nsHlUsdxZXM2i_EPyESY2FgtzRf1xfBufnjuXyko1VseME67oK51xZPHj8_T8F2IYDuP_haz7mYlQKQaj_gh40_naniXNVU5eE9LUUxlazlabziv9YLxBbQtvdiGoD-A2iOrHRoF3fFRRtR2NZ25tME1hUtxDahQDJ886c2F23V9nilXFSKLGOiy3JcjszA6QbLxRZtlYBwjsuQY5OeUa-jea-nkq7Mgw9U_eHrVF9m9McD1LEzR021bGm5uAI5W9nA5GV1qkARpSgL1zCWQdwd4ogulMumR9v-SJFErXG96mK05HWeMdLAJNbSWW0FcwWhG6IVWDu0RSGq27Haa1C2qroJwFYo8ONGa9JMe5oKPSBPYQpBIM61LoJdP551ARDmGZUZThGGQNPgMXgKhgW-4kI4vo0IA30iJl8wA-oC7JTrj5eASYDYnd2p7T1QbcaINZz6f2Q-9kFVuvLFYXgJAE2q5jUJ_OU6xyv7- -R3jomEgKVP0KmDrouvyJRjx9UzVZ9frQt83u_n7W-ixPHvk8PiArsHffZGZQZWvPq8Dh8R56ZGriOE3wurH7HnWzY7MTTOi6rJMQFJ4VBtLlla6psGWksXdC35fxyXW9hmX5JkB-RdxR-MGChKJcPYyzsNWlh065dtj36xa4oa81tjCggbRz1ylPUFBWfEgP4L5l2b4zqLnDBtDqMa-FFu2]--></g></svg>