<?xml version="1.0" encoding="us-ascii" standalone="no"?><svg xmlns="http://www.w3.org/2000/svg" xmlns:xlink="http://www.w3.org/1999/xlink" contentStyleType="text/css" height="985px" preserveAspectRatio="none" style="width:1772px;height:985px;background:#FFFFFF;" version="1.1" viewBox="0 0 1772 985" width="1772px" zoomAndPan="magnify"><defs/><g><rect fill="#FFFFFF" height="751.2266" style="stroke:#181818;stroke-width:1.0;" width="10" x="204.5" y="118.5703"/><rect fill="#FFFFFF" height="690.5234" style="stroke:#181818;stroke-width:1.0;" width="10" x="350.5" y="148.9219"/><rect fill="#FFFFFF" height="28" style="stroke:#181818;stroke-width:1.0;" width="10" x="355.5" y="187.2734"/><rect fill="#FFFFFF" height="28" style="stroke:#181818;stroke-width:1.0;" width="10" x="355.5" y="774.0938"/><rect fill="#FFFFFF" height="30.3516" style="stroke:#181818;stroke-width:1.0;" width="10" x="481.5" y="252.625"/><rect fill="#FFFFFF" height="60.3516" style="stroke:#181818;stroke-width:1.0;" width="10" x="481.5" y="675.3906"/><rect fill="#FFFFFF" height="392.5469" style="stroke:#181818;stroke-width:1.0;" width="10" x="741" y="343.1953"/><rect fill="#FFFFFF" height="30" style="stroke:#181818;stroke-width:1.0;" width="10" x="977" y="494.4688"/><rect fill="#FFFFFF" height="30" style="stroke:#181818;stroke-width:1.0;" width="10" x="977" y="705.7422"/><rect fill="#FFFFFF" height="211.2734" style="stroke:#181818;stroke-width:1.0;" width="10" x="1115.5" y="433.7656"/><rect fill="#FFFFFF" height="90.7031" style="stroke:#181818;stroke-width:1.0;" width="10" x="1321.5" y="464.1172"/><rect fill="#FFFFFF" height="30" style="stroke:#181818;stroke-width:1.0;" width="10" x="1725" y="615.0391"/><line style="stroke:#181818;stroke-width:0.5;stroke-dasharray:5.0,5.0;" x1="29" x2="29" y1="86.2188" y2="887.7969"/><line style="stroke:#181818;stroke-width:0.5;stroke-dasharray:5.0,5.0;" x1="209.5" x2="209.5" y1="86.2188" y2="887.7969"/><line style="stroke:#181818;stroke-width:0.5;stroke-dasharray:5.0,5.0;" x1="355.5" x2="355.5" y1="86.2188" y2="887.7969"/><line style="stroke:#181818;stroke-width:0.5;stroke-dasharray:5.0,5.0;" x1="486.5" x2="486.5" y1="86.2188" y2="887.7969"/><line style="stroke:#181818;stroke-width:0.5;stroke-dasharray:5.0,5.0;" x1="631.5" x2="631.5" y1="300.7344" y2="887.7969"/><line style="stroke:#181818;stroke-width:0.5;stroke-dasharray:5.0,5.0;" x1="745.5" x2="745.5" y1="86.2188" y2="887.7969"/><line style="stroke:#181818;stroke-width:0.5;stroke-dasharray:5.0,5.0;" x1="982" x2="982" y1="391.3047" y2="887.7969"/><line style="stroke:#181818;stroke-width:0.5;stroke-dasharray:5.0,5.0;" x1="1120" x2="1120" y1="86.2188" y2="887.7969"/><line style="stroke:#181818;stroke-width:0.5;stroke-dasharray:5.0,5.0;" x1="1326.5" x2="1326.5" y1="86.2188" y2="887.7969"/><line style="stroke:#181818;stroke-width:0.5;stroke-dasharray:5.0,5.0;" x1="1622.5" x2="1622.5" y1="572.5781" y2="887.7969"/><line style="stroke:#181818;stroke-width:0.5;stroke-dasharray:5.0,5.0;" x1="1729.5" x2="1729.5" y1="86.2188" y2="887.7969"/><text fill="#000000" font-family="sans-serif" font-size="14" lengthAdjust="spacing" textLength="8" x="22.5" y="83.1426">X</text><path d="M9,40.6094 L9,64.6094 M9,52.6094 L26,52.6094 " fill="none" style="stroke:#181818;stroke-width:0.5;"/><ellipse cx="38" cy="52.6094" fill="#E2E2F0" rx="12" ry="12" style="stroke:#181818;stroke-width:0.5;"/><text fill="#000000" font-family="sans-serif" font-size="14" lengthAdjust="spacing" textLength="8" x="22.5" y="901.3301">X</text><path d="M9,908.4063 L9,932.4063 M9,920.4063 L26,920.4063 " fill="none" style="stroke:#181818;stroke-width:0.5;"/><ellipse cx="38" cy="920.4063" fill="#E2E2F0" rx="12" ry="12" style="stroke:#181818;stroke-width:0.5;"/><rect fill="#E2E2F0" height="31.6094" rx="2.5" ry="2.5" style="stroke:#181818;stroke-width:0.5;" width="108" x="155.5" y="53.6094"/><text fill="#000000" font-family="sans-serif" font-size="14" lengthAdjust="spacing" textLength="94" x="162.5" y="75.1426">:RouteElevator</text><rect fill="#E2E2F0" height="31.6094" rx="2.5" ry="2.5" style="stroke:#181818;stroke-width:0.5;" width="108" x="155.5" y="886.7969"/><text fill="#000000" font-family="sans-serif" font-size="14" lengthAdjust="spacing" textLength="94" x="162.5" y="908.3301">:RouteElevator</text><rect fill="#E2E2F0" height="49.2188" rx="2.5" ry="2.5" style="stroke:#181818;stroke-width:0.5;" width="128" x="291.5" y="36"/><text fill="#000000" font-family="sans-serif" font-size="14" lengthAdjust="spacing" textLength="114" x="298.5" y="57.5332">ElevatorController</text><text fill="#000000" font-family="sans-serif" font-size="14" lengthAdjust="spacing" textLength="78" x="316.5" y="75.1426">&#171;Controller&#187;</text><rect fill="#E2E2F0" height="49.2188" rx="2.5" ry="2.5" style="stroke:#181818;stroke-width:0.5;" width="128" x="291.5" y="886.7969"/><text fill="#000000" font-family="sans-serif" font-size="14" lengthAdjust="spacing" textLength="114" x="298.5" y="908.3301">ElevatorController</text><text fill="#000000" font-family="sans-serif" font-size="14" lengthAdjust="spacing" textLength="78" x="316.5" y="925.9395">&#171;Controller&#187;</text><rect fill="#E2E2F0" height="49.2188" rx="2.5" ry="2.5" style="stroke:#181818;stroke-width:0.5;" width="114" x="429.5" y="36"/><text fill="#000000" font-family="sans-serif" font-size="14" lengthAdjust="spacing" textLength="100" x="436.5" y="57.5332">ElevatorMapper</text><text fill="#000000" font-family="sans-serif" font-size="14" lengthAdjust="spacing" textLength="83" x="445" y="75.1426">&#171;Json2DTO&#187;</text><rect fill="#E2E2F0" height="49.2188" rx="2.5" ry="2.5" style="stroke:#181818;stroke-width:0.5;" width="114" x="429.5" y="886.7969"/><text fill="#000000" font-family="sans-serif" font-size="14" lengthAdjust="spacing" textLength="100" x="436.5" y="908.3301">ElevatorMapper</text><text fill="#000000" font-family="sans-serif" font-size="14" lengthAdjust="spacing" textLength="83" x="445" y="925.9395">&#171;Json2DTO&#187;</text><rect fill="#E2E2F0" height="49.2188" rx="2.5" ry="2.5" style="stroke:#181818;stroke-width:0.5;" width="96" x="583.5" y="886.7969"/><text fill="#000000" font-family="sans-serif" font-size="14" lengthAdjust="spacing" textLength="82" x="590.5" y="908.3301">ElevatorDTO</text><text fill="#000000" font-family="sans-serif" font-size="14" lengthAdjust="spacing" textLength="46" x="608.5" y="925.9395">&#171;DTO&#187;</text><rect fill="#E2E2F0" height="49.2188" rx="2.5" ry="2.5" style="stroke:#181818;stroke-width:0.5;" width="113" x="689.5" y="36"/><text fill="#000000" font-family="sans-serif" font-size="14" lengthAdjust="spacing" textLength="99" x="696.5" y="57.5332">ElevatorService</text><text fill="#000000" font-family="sans-serif" font-size="14" lengthAdjust="spacing" textLength="63" x="714.5" y="75.1426">&#171;Service&#187;</text><rect fill="#E2E2F0" height="49.2188" rx="2.5" ry="2.5" style="stroke:#181818;stroke-width:0.5;" width="113" x="689.5" y="886.7969"/><text fill="#000000" font-family="sans-serif" font-size="14" lengthAdjust="spacing" textLength="99" x="696.5" y="908.3301">ElevatorService</text><text fill="#000000" font-family="sans-serif" font-size="14" lengthAdjust="spacing" textLength="63" x="714.5" y="925.9395">&#171;Service&#187;</text><rect fill="#E2E2F0" height="49.2188" rx="2.5" ry="2.5" style="stroke:#181818;stroke-width:0.5;" width="66" x="949" y="886.7969"/><text fill="#000000" font-family="sans-serif" font-size="14" lengthAdjust="spacing" textLength="52" x="956" y="908.3301">Elevator</text><text fill="#000000" font-family="sans-serif" font-size="14" lengthAdjust="spacing" textLength="51" x="956.5" y="925.9395">&#171;Entity&#187;</text><rect fill="#E2E2F0" height="49.2188" rx="2.5" ry="2.5" style="stroke:#181818;stroke-width:0.5;" width="191" x="1025" y="36"/><text fill="#000000" font-family="sans-serif" font-size="14" lengthAdjust="spacing" textLength="86" x="1077.5" y="57.5332">ElevatorRepo</text><text fill="#000000" font-family="sans-serif" font-size="14" lengthAdjust="spacing" textLength="177" x="1032" y="75.1426">:IElevatorRepo&#171;Repository&#187;</text><rect fill="#E2E2F0" height="49.2188" rx="2.5" ry="2.5" style="stroke:#181818;stroke-width:0.5;" width="191" x="1025" y="886.7969"/><text fill="#000000" font-family="sans-serif" font-size="14" lengthAdjust="spacing" textLength="86" x="1077.5" y="908.3301">ElevatorRepo</text><text fill="#000000" font-family="sans-serif" font-size="14" lengthAdjust="spacing" textLength="177" x="1032" y="925.9395">:IElevatorRepo&#171;Repository&#187;</text><rect fill="#E2E2F0" height="49.2188" rx="2.5" ry="2.5" style="stroke:#181818;stroke-width:0.5;" width="116" x="1268.5" y="36"/><text fill="#000000" font-family="sans-serif" font-size="14" lengthAdjust="spacing" textLength="79" x="1287" y="57.5332">ElevatorMap</text><text fill="#000000" font-family="sans-serif" font-size="14" lengthAdjust="spacing" textLength="102" x="1275.5" y="75.1426">&#171;Domain2Data&#187;</text><rect fill="#E2E2F0" height="49.2188" rx="2.5" ry="2.5" style="stroke:#181818;stroke-width:0.5;" width="116" x="1268.5" y="886.7969"/><text fill="#000000" font-family="sans-serif" font-size="14" lengthAdjust="spacing" textLength="79" x="1287" y="908.3301">ElevatorMap</text><text fill="#000000" font-family="sans-serif" font-size="14" lengthAdjust="spacing" textLength="102" x="1275.5" y="925.9395">&#171;Domain2Data&#187;</text><rect fill="#E2E2F0" height="49.2188" rx="2.5" ry="2.5" style="stroke:#181818;stroke-width:0.5;" width="112" x="1566.5" y="886.7969"/><text fill="#000000" font-family="sans-serif" font-size="14" lengthAdjust="spacing" textLength="98" x="1573.5" y="908.3301">DataElevator&lt;&lt;</text><text fill="#000000" font-family="sans-serif" font-size="14" lengthAdjust="spacing" textLength="46" x="1599.5" y="925.9395">&#171;Data&#187;</text><text fill="#000000" font-family="sans-serif" font-size="14" lengthAdjust="spacing" textLength="54" x="1700" y="65.5332">dbDriver</text><text fill="#000000" font-family="sans-serif" font-size="14" lengthAdjust="spacing" textLength="77" x="1688.5" y="83.1426">&#171;Database&#187;</text><path d="M1712,15 C1712,5 1730,5 1730,5 C1730,5 1748,5 1748,15 L1748,41 C1748,51 1730,51 1730,51 C1730,51 1712,51 1712,41 L1712,15 " fill="#E2E2F0" style="stroke:#181818;stroke-width:1.5;"/><path d="M1712,15 C1712,25 1730,25 1730,25 C1730,25 1748,25 1748,15 " fill="none" style="stroke:#181818;stroke-width:1.5;"/><text fill="#000000" font-family="sans-serif" font-size="14" lengthAdjust="spacing" textLength="54" x="1700" y="901.3301">dbDriver</text><text fill="#000000" font-family="sans-serif" font-size="14" lengthAdjust="spacing" textLength="77" x="1688.5" y="918.9395">&#171;Database&#187;</text><path d="M1712,932.0156 C1712,922.0156 1730,922.0156 1730,922.0156 C1730,922.0156 1748,922.0156 1748,932.0156 L1748,958.0156 C1748,968.0156 1730,968.0156 1730,968.0156 C1730,968.0156 1712,968.0156 1712,958.0156 L1712,932.0156 " fill="#E2E2F0" style="stroke:#181818;stroke-width:1.5;"/><path d="M1712,932.0156 C1712,942.0156 1730,942.0156 1730,942.0156 C1730,942.0156 1748,942.0156 1748,932.0156 " fill="none" style="stroke:#181818;stroke-width:1.5;"/><rect fill="#FFFFFF" height="751.2266" style="stroke:#181818;stroke-width:1.0;" width="10" x="204.5" y="118.5703"/><rect fill="#FFFFFF" height="690.5234" style="stroke:#181818;stroke-width:1.0;" width="10" x="350.5" y="148.9219"/><rect fill="#FFFFFF" height="28" style="stroke:#181818;stroke-width:1.0;" width="10" x="355.5" y="187.2734"/><rect fill="#FFFFFF" height="28" style="stroke:#181818;stroke-width:1.0;" width="10" x="355.5" y="774.0938"/><rect fill="#FFFFFF" height="30.3516" style="stroke:#181818;stroke-width:1.0;" width="10" x="481.5" y="252.625"/><rect fill="#FFFFFF" height="60.3516" style="stroke:#181818;stroke-width:1.0;" width="10" x="481.5" y="675.3906"/><rect fill="#FFFFFF" height="392.5469" style="stroke:#181818;stroke-width:1.0;" width="10" x="741" y="343.1953"/><rect fill="#FFFFFF" height="30" style="stroke:#181818;stroke-width:1.0;" width="10" x="977" y="494.4688"/><rect fill="#FFFFFF" height="30" style="stroke:#181818;stroke-width:1.0;" width="10" x="977" y="705.7422"/><rect fill="#FFFFFF" height="211.2734" style="stroke:#181818;stroke-width:1.0;" width="10" x="1115.5" y="433.7656"/><rect fill="#FFFFFF" height="90.7031" style="stroke:#181818;stroke-width:1.0;" width="10" x="1321.5" y="464.1172"/><rect fill="#FFFFFF" height="30" style="stroke:#181818;stroke-width:1.0;" width="10" x="1725" y="615.0391"/><polygon fill="#181818" points="192.5,114.5703,202.5,118.5703,192.5,122.5703,196.5,118.5703" style="stroke:#181818;stroke-width:1.0;"/><line style="stroke:#181818;stroke-width:1.0;" x1="29.5" x2="198.5" y1="118.5703" y2="118.5703"/><text fill="#000000" font-family="sans-serif" font-size="13" lengthAdjust="spacing" textLength="156" x="36.5" y="113.7139">PUT/PATCH /elevator(json)</text><polygon fill="#181818" points="338.5,144.9219,348.5,148.9219,338.5,152.9219,342.5,148.9219" style="stroke:#181818;stroke-width:1.0;"/><line style="stroke:#181818;stroke-width:1.0;" x1="214.5" x2="344.5" y1="148.9219" y2="148.9219"/><text fill="#000000" font-family="sans-serif" font-size="13" lengthAdjust="spacing" textLength="117" x="221.5" y="144.0654">updateElevator(json)</text><line style="stroke:#181818;stroke-width:1.0;" x1="365.5" x2="407.5" y1="179.2734" y2="179.2734"/><line style="stroke:#181818;stroke-width:1.0;" x1="407.5" x2="407.5" y1="179.2734" y2="192.2734"/><line style="stroke:#181818;stroke-width:1.0;" x1="366.5" x2="407.5" y1="192.2734" y2="192.2734"/><polygon fill="#181818" points="376.5,188.2734,366.5,192.2734,376.5,196.2734,372.5,192.2734" style="stroke:#181818;stroke-width:1.0;"/><text fill="#000000" font-family="sans-serif" font-size="13" lengthAdjust="spacing" textLength="78" x="372.5" y="174.417">validateJson()</text><polygon fill="#181818" points="469.5,248.625,479.5,252.625,469.5,256.625,473.5,252.625" style="stroke:#181818;stroke-width:1.0;"/><line style="stroke:#181818;stroke-width:1.0;" x1="360.5" x2="475.5" y1="252.625" y2="252.625"/><text fill="#000000" font-family="sans-serif" font-size="13" lengthAdjust="spacing" textLength="69" x="367.5" y="247.7686">toDTO(json)</text><polygon fill="#181818" points="571.5,278.9766,581.5,282.9766,571.5,286.9766,575.5,282.9766" style="stroke:#181818;stroke-width:1.0;"/><line style="stroke:#181818;stroke-width:1.0;" x1="486.5" x2="577.5" y1="282.9766" y2="282.9766"/><text fill="#000000" font-family="sans-serif" font-size="13" lengthAdjust="spacing" textLength="68" x="493.5" y="278.1201">create(json)</text><rect fill="#E2E2F0" height="49.2188" rx="2.5" ry="2.5" style="stroke:#181818;stroke-width:0.5;" width="96" x="583.5" y="260.625"/><text fill="#000000" font-family="sans-serif" font-size="14" lengthAdjust="spacing" textLength="82" x="590.5" y="282.1582">ElevatorDTO</text><text fill="#000000" font-family="sans-serif" font-size="14" lengthAdjust="spacing" textLength="46" x="608.5" y="299.7676">&#171;DTO&#187;</text><polygon fill="#181818" points="729,339.1953,739,343.1953,729,347.1953,733,343.1953" style="stroke:#181818;stroke-width:1.0;"/><line style="stroke:#181818;stroke-width:1.0;" x1="360.5" x2="735" y1="343.1953" y2="343.1953"/><text fill="#000000" font-family="sans-serif" font-size="13" lengthAdjust="spacing" textLength="249" x="367.5" y="338.3389">elevatorDTO = updateElevator(elevatorDTO)</text><polygon fill="#181818" points="937,369.5469,947,373.5469,937,377.5469,941,373.5469" style="stroke:#181818;stroke-width:1.0;"/><line style="stroke:#181818;stroke-width:1.0;" x1="751" x2="943" y1="373.5469" y2="373.5469"/><text fill="#000000" font-family="sans-serif" font-size="13" lengthAdjust="spacing" textLength="174" x="758" y="368.6904">elevator = create(elevatorDTO)</text><rect fill="#E2E2F0" height="49.2188" rx="2.5" ry="2.5" style="stroke:#181818;stroke-width:0.5;" width="66" x="949" y="351.1953"/><text fill="#000000" font-family="sans-serif" font-size="14" lengthAdjust="spacing" textLength="52" x="956" y="372.7285">Elevator</text><text fill="#000000" font-family="sans-serif" font-size="14" lengthAdjust="spacing" textLength="51" x="956.5" y="390.3379">&#171;Entity&#187;</text><polygon fill="#181818" points="1103.5,429.7656,1113.5,433.7656,1103.5,437.7656,1107.5,433.7656" style="stroke:#181818;stroke-width:1.0;"/><line style="stroke:#181818;stroke-width:1.0;" x1="751" x2="1109.5" y1="433.7656" y2="433.7656"/><text fill="#000000" font-family="sans-serif" font-size="13" lengthAdjust="spacing" textLength="137" x="758" y="428.9092">updateElevator(elevator)</text><polygon fill="#181818" points="1309.5,460.1172,1319.5,464.1172,1309.5,468.1172,1313.5,464.1172" style="stroke:#181818;stroke-width:1.0;"/><line style="stroke:#181818;stroke-width:1.0;" x1="1125.5" x2="1315.5" y1="464.1172" y2="464.1172"/><text fill="#000000" font-family="sans-serif" font-size="13" lengthAdjust="spacing" textLength="177" x="1132.5" y="459.2607">dataElevator = toData(elevator)</text><polygon fill="#181818" points="998,490.4688,988,494.4688,998,498.4688,994,494.4688" style="stroke:#181818;stroke-width:1.0;"/><line style="stroke:#181818;stroke-width:1.0;" x1="992" x2="1320.5" y1="494.4688" y2="494.4688"/><text fill="#000000" font-family="sans-serif" font-size="13" lengthAdjust="spacing" textLength="62" x="1004" y="489.6123">getFloors()</text><polygon fill="#181818" points="1554.5,550.8203,1564.5,554.8203,1554.5,558.8203,1558.5,554.8203" style="stroke:#181818;stroke-width:1.0;"/><line style="stroke:#181818;stroke-width:1.0;" x1="1326.5" x2="1560.5" y1="554.8203" y2="554.8203"/><text fill="#000000" font-family="sans-serif" font-size="13" lengthAdjust="spacing" textLength="211" x="1333.5" y="549.9639">dataElevator = create(elevatorFloors)</text><rect fill="#E2E2F0" height="49.2188" rx="2.5" ry="2.5" style="stroke:#181818;stroke-width:0.5;" width="112" x="1566.5" y="532.4688"/><text fill="#000000" font-family="sans-serif" font-size="14" lengthAdjust="spacing" textLength="98" x="1573.5" y="554.002">DataElevator&lt;&lt;</text><text fill="#000000" font-family="sans-serif" font-size="14" lengthAdjust="spacing" textLength="46" x="1599.5" y="571.6113">&#171;Data&#187;</text><polygon fill="#181818" points="1713,611.0391,1723,615.0391,1713,619.0391,1717,615.0391" style="stroke:#181818;stroke-width:1.0;"/><line style="stroke:#181818;stroke-width:1.0;" x1="1125.5" x2="1719" y1="615.0391" y2="615.0391"/><text fill="#000000" font-family="sans-serif" font-size="13" lengthAdjust="spacing" textLength="105" x="1132.5" y="610.1826">save(dataElevator)</text><polygon fill="#181818" points="502.5,671.3906,492.5,675.3906,502.5,679.3906,498.5,675.3906" style="stroke:#181818;stroke-width:1.0;"/><line style="stroke:#181818;stroke-width:1.0;" x1="496.5" x2="740" y1="675.3906" y2="675.3906"/><text fill="#000000" font-family="sans-serif" font-size="13" lengthAdjust="spacing" textLength="89" x="508.5" y="670.5342">toDTO(elevator)</text><polygon fill="#181818" points="965,701.7422,975,705.7422,965,709.7422,969,705.7422" style="stroke:#181818;stroke-width:1.0;"/><line style="stroke:#181818;stroke-width:1.0;" x1="491.5" x2="971" y1="705.7422" y2="705.7422"/><text fill="#000000" font-family="sans-serif" font-size="13" lengthAdjust="spacing" textLength="198" x="498.5" y="700.8857">elevatorCode = getElevatorFloors()</text><line style="stroke:#181818;stroke-width:1.0;" x1="365.5" x2="407.5" y1="766.0938" y2="766.0938"/><line style="stroke:#181818;stroke-width:1.0;" x1="407.5" x2="407.5" y1="766.0938" y2="779.0938"/><line style="stroke:#181818;stroke-width:1.0;" x1="366.5" x2="407.5" y1="779.0938" y2="779.0938"/><polygon fill="#181818" points="376.5,775.0938,366.5,779.0938,376.5,783.0938,372.5,779.0938" style="stroke:#181818;stroke-width:1.0;"/><text fill="#000000" font-family="sans-serif" font-size="13" lengthAdjust="spacing" textLength="105" x="372.5" y="761.2373">generateRes(json)</text><polygon fill="#181818" points="225.5,835.4453,215.5,839.4453,225.5,843.4453,221.5,839.4453" style="stroke:#181818;stroke-width:1.0;"/><line style="stroke:#181818;stroke-width:1.0;stroke-dasharray:2.0,2.0;" x1="219.5" x2="354.5" y1="839.4453" y2="839.4453"/><text fill="#000000" font-family="sans-serif" font-size="13" lengthAdjust="spacing" textLength="53" x="231.5" y="834.5889">response</text><polygon fill="#181818" points="40.5,865.7969,30.5,869.7969,40.5,873.7969,36.5,869.7969" style="stroke:#181818;stroke-width:1.0;"/><line style="stroke:#181818;stroke-width:1.0;" x1="34.5" x2="208.5" y1="869.7969" y2="869.7969"/><text fill="#000000" font-family="sans-serif" font-size="13" lengthAdjust="spacing" textLength="53" x="46.5" y="864.9404">response</text><!--SRC=[ZPJVRvim4CVV-IkiFB5AKoKU8nOf3Kphj2w8qYgJ-kA4KyN4C38EKl_xdOqDnfXiF4InVP_ldU-7p-pQb9H_a5FGKYwgIzNIHf3DDcTN0MaDFHMCRmZjI7vyATAvbJa_i4PmLjV0tveudbQxdI8FHVx33pxHjXsWxnrhegGuQkHfdsLfxeVGIXAJCVxpMpu3xwiBI6lzLnFF-QkVaAPf8ohneItJdyLZySjld4FBtfhjexsEO_dRLRWq4dcQ7LUlhsx2_j0ARqy5dLq_cbFot91nhC29IFR5FYXnVQOTa4rvJdZL3wbDzAwnV0Y24_cy6mfAjYHxAUwpVN7uHkv1ouU_iHoV0deH5Qv1rtu0a9G5HV3QeiEnIJH3y1ivLNcveuY9x6bTILPMFHmOFoU_4jRrXaIXec3O1LO8CpdTJMPVGuWZStU7z8K3sZcuvTSIC9wnXH24gIV95pSXrg4dADc3PbEAeURGR2eYmwAg3iwhfa7POik2668odmMW-j8-KIfZKYCKBAsMmqWmoRYnekl9UBGmCDBZPT79EuYlDMEy2vU2Cr4zYpuRgrOhLfPdEIigoSxrd4GFGIrZMlH5vCrYye0UEjf3QBkvaJCSp1kkd5FhP5P7tH3ENFoZ4vpvcC_8M2SON_iIC5jOjdIMgV36tLQAShji_W5qJimOEI_CEpJ0yJo7RkrL-Cz7ndefENGjQpe8reZnXJpPrdQjr4Fw5m00]--></g></svg>