<?xml version="1.0" encoding="us-ascii" standalone="no"?><svg xmlns="http://www.w3.org/2000/svg" xmlns:xlink="http://www.w3.org/1999/xlink" contentStyleType="text/css" height="1157px" preserveAspectRatio="none" style="width:676px;height:1157px;background:#FFFFFF;" version="1.1" viewBox="0 0 676 1157" width="676px" zoomAndPan="magnify"><defs/><g><!--class Building--><g id="elem_Building"><rect codeLine="10" fill="#FFFFE0" height="113.9531" id="Building" rx="2.5" ry="2.5" style="stroke:#000000;stroke-width:0.5;" width="209" x="7" y="116"/><ellipse cx="79.25" cy="132" fill="#ADD1B2" rx="11" ry="11" style="stroke:#181818;stroke-width:1.0;"/><path d="M82.2231,137.6431 Q81.6421,137.9419 81.0029,138.0913 Q80.3638,138.2407 79.6582,138.2407 Q77.1514,138.2407 75.8315,136.5889 Q74.5117,134.937 74.5117,131.8159 Q74.5117,128.6865 75.8315,127.0347 Q77.1514,125.3828 79.6582,125.3828 Q80.3638,125.3828 81.0112,125.5322 Q81.6587,125.6816 82.2231,125.9805 L82.2231,128.7031 Q81.5923,128.1221 80.9988,127.8523 Q80.4053,127.5825 79.7744,127.5825 Q78.4297,127.5825 77.7449,128.6492 Q77.0601,129.7158 77.0601,131.8159 Q77.0601,133.9077 77.7449,134.9744 Q78.4297,136.041 79.7744,136.041 Q80.4053,136.041 80.9988,135.7712 Q81.5923,135.5015 82.2231,134.9204 Z " fill="#000000"/><text fill="#000000" font-family="sans-serif" font-size="14" lengthAdjust="spacing" textLength="56" x="99.75" y="137.291">Building</text><line style="stroke:#000000;stroke-width:0.5;" x1="8" x2="215" y1="148" y2="148"/><ellipse cx="18" cy="161.7441" fill="none" rx="3" ry="3" style="stroke:#038048;stroke-width:1.0;"/><text fill="#000000" font-family="sans-serif" font-size="14" lengthAdjust="spacing" textLength="141" x="27" y="165.5352">BuildingCode: String</text><ellipse cx="18" cy="178.2324" fill="none" rx="3" ry="3" style="stroke:#038048;stroke-width:1.0;"/><text fill="#000000" font-family="sans-serif" font-size="14" lengthAdjust="spacing" textLength="144" x="27" y="182.0234">BuildingName: String</text><ellipse cx="18" cy="194.7207" fill="none" rx="3" ry="3" style="stroke:#038048;stroke-width:1.0;"/><text fill="#000000" font-family="sans-serif" font-size="14" lengthAdjust="spacing" textLength="120" x="27" y="198.5117">BuildingSize: Size</text><ellipse cx="18" cy="211.209" fill="none" rx="3" ry="3" style="stroke:#038048;stroke-width:1.0;"/><text fill="#000000" font-family="sans-serif" font-size="14" lengthAdjust="spacing" textLength="183" x="27" y="215">BuildingDescription: String</text><line style="stroke:#000000;stroke-width:0.5;" x1="8" x2="215" y1="221.9531" y2="221.9531"/></g><!--class Floor--><g id="elem_Floor"><rect codeLine="17" fill="#FFFFE0" height="97.4648" id="Floor" rx="2.5" ry="2.5" style="stroke:#000000;stroke-width:0.5;" width="171" x="201" y="307"/><ellipse cx="264.25" cy="323" fill="#ADD1B2" rx="11" ry="11" style="stroke:#181818;stroke-width:1.0;"/><path d="M267.2231,328.6431 Q266.6421,328.9419 266.0029,329.0913 Q265.3638,329.2407 264.6582,329.2407 Q262.1514,329.2407 260.8315,327.5889 Q259.5117,325.937 259.5117,322.8159 Q259.5117,319.6865 260.8315,318.0347 Q262.1514,316.3828 264.6582,316.3828 Q265.3638,316.3828 266.0112,316.5322 Q266.6587,316.6816 267.2231,316.9805 L267.2231,319.7031 Q266.5923,319.1221 265.9988,318.8523 Q265.4053,318.5825 264.7744,318.5825 Q263.4297,318.5825 262.7449,319.6492 Q262.0601,320.7158 262.0601,322.8159 Q262.0601,324.9077 262.7449,325.9744 Q263.4297,327.041 264.7744,327.041 Q265.4053,327.041 265.9988,326.7712 Q266.5923,326.5015 267.2231,325.9204 Z " fill="#000000"/><text fill="#000000" font-family="sans-serif" font-size="14" lengthAdjust="spacing" textLength="36" x="284.75" y="328.291">Floor</text><line style="stroke:#000000;stroke-width:0.5;" x1="202" x2="371" y1="339" y2="339"/><ellipse cx="212" cy="352.7441" fill="none" rx="3" ry="3" style="stroke:#038048;stroke-width:1.0;"/><text fill="#000000" font-family="sans-serif" font-size="14" lengthAdjust="spacing" textLength="80" x="221" y="356.5352">number: int</text><ellipse cx="212" cy="369.2324" fill="none" rx="3" ry="3" style="stroke:#038048;stroke-width:1.0;"/><text fill="#000000" font-family="sans-serif" font-size="14" lengthAdjust="spacing" textLength="145" x="221" y="373.0234">MaxDimensions: Size</text><ellipse cx="212" cy="385.7207" fill="none" rx="3" ry="3" style="stroke:#038048;stroke-width:1.0;"/><text fill="#000000" font-family="sans-serif" font-size="14" lengthAdjust="spacing" textLength="94" x="221" y="389.5117">floorMap: File</text><line style="stroke:#000000;stroke-width:0.5;" x1="202" x2="371" y1="396.4648" y2="396.4648"/></g><!--class Room--><g id="elem_Room"><rect codeLine="23" fill="#FFFFE0" height="97.4648" id="Room" rx="2.5" ry="2.5" style="stroke:#000000;stroke-width:0.5;" width="153" x="210" y="473.5"/><ellipse cx="262.25" cy="489.5" fill="#ADD1B2" rx="11" ry="11" style="stroke:#181818;stroke-width:1.0;"/><path d="M265.2231,495.1431 Q264.6421,495.4419 264.0029,495.5913 Q263.3638,495.7407 262.6582,495.7407 Q260.1514,495.7407 258.8315,494.0889 Q257.5117,492.437 257.5117,489.3159 Q257.5117,486.1865 258.8315,484.5347 Q260.1514,482.8828 262.6582,482.8828 Q263.3638,482.8828 264.0112,483.0322 Q264.6587,483.1816 265.2231,483.4805 L265.2231,486.2031 Q264.5923,485.6221 263.9988,485.3523 Q263.4053,485.0825 262.7744,485.0825 Q261.4297,485.0825 260.7449,486.1492 Q260.0601,487.2158 260.0601,489.3159 Q260.0601,491.4077 260.7449,492.4744 Q261.4297,493.541 262.7744,493.541 Q263.4053,493.541 263.9988,493.2712 Q264.5923,493.0015 265.2231,492.4204 Z " fill="#000000"/><text fill="#000000" font-family="sans-serif" font-size="14" lengthAdjust="spacing" textLength="40" x="282.75" y="494.791">Room</text><line style="stroke:#000000;stroke-width:0.5;" x1="211" x2="362" y1="505.5" y2="505.5"/><ellipse cx="221" cy="519.2441" fill="none" rx="3" ry="3" style="stroke:#038048;stroke-width:1.0;"/><text fill="#000000" font-family="sans-serif" font-size="14" lengthAdjust="spacing" textLength="80" x="230" y="523.0352">number: int</text><ellipse cx="221" cy="535.7324" fill="none" rx="3" ry="3" style="stroke:#038048;stroke-width:1.0;"/><text fill="#000000" font-family="sans-serif" font-size="14" lengthAdjust="spacing" textLength="122" x="230" y="539.5234">RoomType: String</text><ellipse cx="221" cy="552.2207" fill="none" rx="3" ry="3" style="stroke:#038048;stroke-width:1.0;"/><text fill="#000000" font-family="sans-serif" font-size="14" lengthAdjust="spacing" textLength="127" x="230" y="556.0117">Description: String</text><line style="stroke:#000000;stroke-width:0.5;" x1="211" x2="362" y1="562.9648" y2="562.9648"/></g><!--class Passageway--><g id="elem_Passageway"><rect codeLine="29" fill="#FFFFE0" height="48" id="Passageway" rx="2.5" ry="2.5" style="stroke:#000000;stroke-width:0.5;" width="113" x="230" y="7"/><ellipse cx="245" cy="23" fill="#ADD1B2" rx="11" ry="11" style="stroke:#181818;stroke-width:1.0;"/><path d="M247.9731,28.6431 Q247.3921,28.9419 246.7529,29.0913 Q246.1138,29.2407 245.4082,29.2407 Q242.9014,29.2407 241.5815,27.5889 Q240.2617,25.937 240.2617,22.8159 Q240.2617,19.6865 241.5815,18.0347 Q242.9014,16.3828 245.4082,16.3828 Q246.1138,16.3828 246.7612,16.5322 Q247.4087,16.6816 247.9731,16.9805 L247.9731,19.7031 Q247.3423,19.1221 246.7488,18.8523 Q246.1553,18.5825 245.5244,18.5825 Q244.1797,18.5825 243.4949,19.6492 Q242.8101,20.7158 242.8101,22.8159 Q242.8101,24.9077 243.4949,25.9744 Q244.1797,27.041 245.5244,27.041 Q246.1553,27.041 246.7488,26.7712 Q247.3423,26.5015 247.9731,25.9204 Z " fill="#000000"/><text fill="#000000" font-family="sans-serif" font-size="14" lengthAdjust="spacing" textLength="81" x="259" y="28.291">Passageway</text><line style="stroke:#000000;stroke-width:0.5;" x1="231" x2="342" y1="39" y2="39"/><line style="stroke:#000000;stroke-width:0.5;" x1="231" x2="342" y1="47" y2="47"/></g><!--class Elevator--><g id="elem_Elevator"><rect codeLine="31" fill="#FFFFE0" height="64.4883" id="Elevator" rx="2.5" ry="2.5" style="stroke:#000000;stroke-width:0.5;" width="167" x="423" y="141"/><ellipse cx="474.75" cy="157" fill="#ADD1B2" rx="11" ry="11" style="stroke:#181818;stroke-width:1.0;"/><path d="M477.7231,162.6431 Q477.1421,162.9419 476.5029,163.0913 Q475.8638,163.2407 475.1582,163.2407 Q472.6514,163.2407 471.3315,161.5889 Q470.0117,159.937 470.0117,156.8159 Q470.0117,153.6865 471.3315,152.0347 Q472.6514,150.3828 475.1582,150.3828 Q475.8638,150.3828 476.5112,150.5322 Q477.1587,150.6816 477.7231,150.9805 L477.7231,153.7031 Q477.0923,153.1221 476.4988,152.8523 Q475.9053,152.5825 475.2744,152.5825 Q473.9297,152.5825 473.2449,153.6492 Q472.5601,154.7158 472.5601,156.8159 Q472.5601,158.9077 473.2449,159.9744 Q473.9297,161.041 475.2744,161.041 Q475.9053,161.041 476.4988,160.7712 Q477.0923,160.5015 477.7231,159.9204 Z " fill="#000000"/><text fill="#000000" font-family="sans-serif" font-size="14" lengthAdjust="spacing" textLength="55" x="495.25" y="162.291">Elevator</text><line style="stroke:#000000;stroke-width:0.5;" x1="424" x2="589" y1="173" y2="173"/><ellipse cx="434" cy="186.7441" fill="none" rx="3" ry="3" style="stroke:#038048;stroke-width:1.0;"/><text fill="#000000" font-family="sans-serif" font-size="14" lengthAdjust="spacing" textLength="141" x="443" y="190.5352">BuildingCode: String</text><line style="stroke:#000000;stroke-width:0.5;" x1="424" x2="589" y1="197.4883" y2="197.4883"/></g><!--class Robot--><g id="elem_Robot"><rect codeLine="37" fill="#FFFFE0" height="130.4414" id="Robot" rx="2.5" ry="2.5" style="stroke:#000000;stroke-width:0.5;" width="168" x="211.5" y="656"/><ellipse cx="270.75" cy="672" fill="#ADD1B2" rx="11" ry="11" style="stroke:#181818;stroke-width:1.0;"/><path d="M273.7231,677.6431 Q273.1421,677.9419 272.5029,678.0913 Q271.8638,678.2407 271.1582,678.2407 Q268.6514,678.2407 267.3315,676.5889 Q266.0117,674.937 266.0117,671.8159 Q266.0117,668.6865 267.3315,667.0347 Q268.6514,665.3828 271.1582,665.3828 Q271.8638,665.3828 272.5112,665.5322 Q273.1587,665.6816 273.7231,665.9805 L273.7231,668.7031 Q273.0923,668.1221 272.4988,667.8523 Q271.9053,667.5825 271.2744,667.5825 Q269.9297,667.5825 269.2449,668.6492 Q268.5601,669.7158 268.5601,671.8159 Q268.5601,673.9077 269.2449,674.9744 Q269.9297,676.041 271.2744,676.041 Q271.9053,676.041 272.4988,675.7712 Q273.0923,675.5015 273.7231,674.9204 Z " fill="#000000"/><text fill="#000000" font-family="sans-serif" font-size="14" lengthAdjust="spacing" textLength="41" x="291.25" y="677.291">Robot</text><line style="stroke:#000000;stroke-width:0.5;" x1="212.5" x2="378.5" y1="688" y2="688"/><ellipse cx="222.5" cy="701.7441" fill="none" rx="3" ry="3" style="stroke:#038048;stroke-width:1.0;"/><text fill="#000000" font-family="sans-serif" font-size="14" lengthAdjust="spacing" textLength="131" x="231.5" y="705.5352">Designation: String</text><ellipse cx="222.5" cy="718.2324" fill="none" rx="3" ry="3" style="stroke:#038048;stroke-width:1.0;"/><text fill="#000000" font-family="sans-serif" font-size="14" lengthAdjust="spacing" textLength="117" x="231.5" y="722.0234">RobotState: State</text><ellipse cx="222.5" cy="734.7207" fill="none" rx="3" ry="3" style="stroke:#038048;stroke-width:1.0;"/><text fill="#000000" font-family="sans-serif" font-size="14" lengthAdjust="spacing" textLength="142" x="231.5" y="738.5117">SerialNumber: String</text><ellipse cx="222.5" cy="751.209" fill="none" rx="3" ry="3" style="stroke:#038048;stroke-width:1.0;"/><text fill="#000000" font-family="sans-serif" font-size="14" lengthAdjust="spacing" textLength="116" x="231.5" y="755">Nickname: String</text><ellipse cx="222.5" cy="767.6973" fill="none" rx="3" ry="3" style="stroke:#038048;stroke-width:1.0;"/><text fill="#000000" font-family="sans-serif" font-size="14" lengthAdjust="spacing" textLength="129" x="231.5" y="771.4883">RobotBrand: Brand</text><line style="stroke:#000000;stroke-width:0.5;" x1="212.5" x2="378.5" y1="778.4414" y2="778.4414"/></g><!--class RobotType--><g id="elem_RobotType"><rect codeLine="45" fill="#FFFFE0" height="64.4883" id="RobotType" rx="2.5" ry="2.5" style="stroke:#000000;stroke-width:0.5;" width="227" x="111" y="879.5"/><ellipse cx="183.25" cy="895.5" fill="#ADD1B2" rx="11" ry="11" style="stroke:#181818;stroke-width:1.0;"/><path d="M186.2231,901.1431 Q185.6421,901.4419 185.0029,901.5913 Q184.3638,901.7407 183.6582,901.7407 Q181.1514,901.7407 179.8315,900.0889 Q178.5117,898.437 178.5117,895.3159 Q178.5117,892.1865 179.8315,890.5347 Q181.1514,888.8828 183.6582,888.8828 Q184.3638,888.8828 185.0112,889.0322 Q185.6587,889.1816 186.2231,889.4805 L186.2231,892.2031 Q185.5923,891.6221 184.9988,891.3523 Q184.4053,891.0825 183.7744,891.0825 Q182.4297,891.0825 181.7449,892.1492 Q181.0601,893.2158 181.0601,895.3159 Q181.0601,897.4077 181.7449,898.4744 Q182.4297,899.541 183.7744,899.541 Q184.4053,899.541 184.9988,899.2712 Q185.5923,899.0015 186.2231,898.4204 Z " fill="#000000"/><text fill="#000000" font-family="sans-serif" font-size="14" lengthAdjust="spacing" textLength="74" x="203.75" y="900.791">RobotType</text><line style="stroke:#000000;stroke-width:0.5;" x1="112" x2="337" y1="911.5" y2="911.5"/><ellipse cx="122" cy="925.2441" fill="none" rx="3" ry="3" style="stroke:#038048;stroke-width:1.0;"/><text fill="#000000" font-family="sans-serif" font-size="14" lengthAdjust="spacing" textLength="201" x="131" y="929.0352">DescriptionRobotType: String</text><line style="stroke:#000000;stroke-width:0.5;" x1="112" x2="337" y1="935.9883" y2="935.9883"/></g><!--class Task--><g id="elem_Task"><rect codeLine="51" fill="#FFFFE0" height="97.4648" id="Task" rx="2.5" ry="2.5" style="stroke:#000000;stroke-width:0.5;" width="170" x="373.5" y="863"/><ellipse cx="438.25" cy="879" fill="#A9DCDF" rx="11" ry="11" style="stroke:#181818;stroke-width:1.0;"/><path d="M438.3633,874.3481 L437.2095,879.4199 L439.5254,879.4199 Z M436.8691,872.1069 L439.8657,872.1069 L443.2109,884.5 L440.7622,884.5 L439.9985,881.437 L436.7197,881.437 L435.9727,884.5 L433.5239,884.5 Z " fill="#000000"/><text fill="#000000" font-family="sans-serif" font-size="14" font-style="italic" lengthAdjust="spacing" textLength="32" x="458.75" y="884.291">Task</text><line style="stroke:#000000;stroke-width:0.5;" x1="374.5" x2="542.5" y1="895" y2="895"/><ellipse cx="384.5" cy="908.7441" fill="none" rx="3" ry="3" style="stroke:#038048;stroke-width:1.0;"/><text fill="#000000" font-family="sans-serif" font-size="14" lengthAdjust="spacing" textLength="94" x="393.5" y="912.5352">TaskId: String</text><ellipse cx="384.5" cy="925.2324" fill="none" rx="3" ry="3" style="stroke:#038048;stroke-width:1.0;"/><text fill="#000000" font-family="sans-serif" font-size="14" lengthAdjust="spacing" textLength="108" x="393.5" y="929.0234">TaskState: State</text><ellipse cx="384.5" cy="941.7207" fill="none" rx="3" ry="3" style="stroke:#038048;stroke-width:1.0;"/><text fill="#000000" font-family="sans-serif" font-size="14" lengthAdjust="spacing" textLength="144" x="393.5" y="945.5117">Destination: Location</text><line style="stroke:#000000;stroke-width:0.5;" x1="374.5" x2="542.5" y1="952.4648" y2="952.4648"/></g><!--class Transport_Task--><g id="elem_Transport_Task"><rect codeLine="57" fill="#FFFFE0" height="113.9531" id="Transport_Task" rx="2.5" ry="2.5" style="stroke:#000000;stroke-width:0.5;" width="179" x="257" y="1037"/><ellipse cx="290" cy="1053" fill="#ADD1B2" rx="11" ry="11" style="stroke:#181818;stroke-width:1.0;"/><path d="M292.9731,1058.6431 Q292.3921,1058.9419 291.7529,1059.0913 Q291.1138,1059.2407 290.4082,1059.2407 Q287.9014,1059.2407 286.5815,1057.5889 Q285.2617,1055.937 285.2617,1052.8159 Q285.2617,1049.6865 286.5815,1048.0347 Q287.9014,1046.3828 290.4082,1046.3828 Q291.1138,1046.3828 291.7612,1046.5322 Q292.4087,1046.6816 292.9731,1046.9805 L292.9731,1049.7031 Q292.3423,1049.1221 291.7488,1048.8523 Q291.1553,1048.5825 290.5244,1048.5825 Q289.1797,1048.5825 288.4949,1049.6492 Q287.8101,1050.7158 287.8101,1052.8159 Q287.8101,1054.9077 288.4949,1055.9744 Q289.1797,1057.041 290.5244,1057.041 Q291.1553,1057.041 291.7488,1056.7712 Q292.3423,1056.5015 292.9731,1055.9204 Z " fill="#000000"/><text fill="#000000" font-family="sans-serif" font-size="14" lengthAdjust="spacing" textLength="107" x="308" y="1058.291">Transport_Task</text><line style="stroke:#000000;stroke-width:0.5;" x1="258" x2="435" y1="1069" y2="1069"/><ellipse cx="268" cy="1082.7441" fill="none" rx="3" ry="3" style="stroke:#038048;stroke-width:1.0;"/><text fill="#000000" font-family="sans-serif" font-size="14" lengthAdjust="spacing" textLength="140" x="277" y="1086.5352">Pickup_Room: Room</text><ellipse cx="268" cy="1099.2324" fill="none" rx="3" ry="3" style="stroke:#038048;stroke-width:1.0;"/><text fill="#000000" font-family="sans-serif" font-size="14" lengthAdjust="spacing" textLength="149" x="277" y="1103.0234">Delivery_Room: Room</text><ellipse cx="268" cy="1115.7207" fill="none" rx="3" ry="3" style="stroke:#038048;stroke-width:1.0;"/><text fill="#000000" font-family="sans-serif" font-size="14" lengthAdjust="spacing" textLength="153" x="277" y="1119.5117">Contact_Start: Contact</text><ellipse cx="268" cy="1132.209" fill="none" rx="3" ry="3" style="stroke:#038048;stroke-width:1.0;"/><text fill="#000000" font-family="sans-serif" font-size="14" lengthAdjust="spacing" textLength="147" x="277" y="1136">Contact_End: Contact</text><line style="stroke:#000000;stroke-width:0.5;" x1="258" x2="435" y1="1142.9531" y2="1142.9531"/></g><!--class Surveillance_Task--><g id="elem_Surveillance_Task"><rect codeLine="64" fill="#FFFFE0" height="80.9766" id="Surveillance_Task" rx="2.5" ry="2.5" style="stroke:#000000;stroke-width:0.5;" width="198" x="471.5" y="1053.5"/><ellipse cx="506.75" cy="1069.5" fill="#ADD1B2" rx="11" ry="11" style="stroke:#181818;stroke-width:1.0;"/><path d="M509.7231,1075.1431 Q509.1421,1075.4419 508.5029,1075.5913 Q507.8638,1075.7407 507.1582,1075.7407 Q504.6514,1075.7407 503.3315,1074.0889 Q502.0117,1072.437 502.0117,1069.3159 Q502.0117,1066.1865 503.3315,1064.5347 Q504.6514,1062.8828 507.1582,1062.8828 Q507.8638,1062.8828 508.5112,1063.0322 Q509.1587,1063.1816 509.7231,1063.4805 L509.7231,1066.2031 Q509.0923,1065.6221 508.4988,1065.3523 Q507.9053,1065.0825 507.2744,1065.0825 Q505.9297,1065.0825 505.2449,1066.1492 Q504.5601,1067.2158 504.5601,1069.3159 Q504.5601,1071.4077 505.2449,1072.4744 Q505.9297,1073.541 507.2744,1073.541 Q507.9053,1073.541 508.4988,1073.2712 Q509.0923,1073.0015 509.7231,1072.4204 Z " fill="#000000"/><text fill="#000000" font-family="sans-serif" font-size="14" lengthAdjust="spacing" textLength="121" x="525.25" y="1074.791">Surveillance_Task</text><line style="stroke:#000000;stroke-width:0.5;" x1="472.5" x2="668.5" y1="1085.5" y2="1085.5"/><ellipse cx="482.5" cy="1099.2441" fill="none" rx="3" ry="3" style="stroke:#038048;stroke-width:1.0;"/><text fill="#000000" font-family="sans-serif" font-size="14" lengthAdjust="spacing" textLength="172" x="491.5" y="1103.0352">Target_Building: Building</text><ellipse cx="482.5" cy="1115.7324" fill="none" rx="3" ry="3" style="stroke:#038048;stroke-width:1.0;"/><text fill="#000000" font-family="sans-serif" font-size="14" lengthAdjust="spacing" textLength="132" x="491.5" y="1119.5234">Target_Floor: Floor</text><line style="stroke:#000000;stroke-width:0.5;" x1="472.5" x2="668.5" y1="1126.4766" y2="1126.4766"/></g><!--class User--><g id="elem_User"><rect codeLine="70" fill="#FFFFE0" height="113.9531" id="User" rx="2.5" ry="2.5" style="stroke:#000000;stroke-width:0.5;" width="119" x="398" y="465"/><ellipse cx="438.2" cy="481" fill="#ADD1B2" rx="11" ry="11" style="stroke:#181818;stroke-width:1.0;"/><path d="M441.1731,486.6431 Q440.5921,486.9419 439.9529,487.0913 Q439.3138,487.2407 438.6082,487.2407 Q436.1014,487.2407 434.7815,485.5889 Q433.4617,483.937 433.4617,480.8159 Q433.4617,477.6865 434.7815,476.0347 Q436.1014,474.3828 438.6082,474.3828 Q439.3138,474.3828 439.9612,474.5322 Q440.6087,474.6816 441.1731,474.9805 L441.1731,477.7031 Q440.5423,477.1221 439.9488,476.8523 Q439.3553,476.5825 438.7244,476.5825 Q437.3797,476.5825 436.6949,477.6492 Q436.0101,478.7158 436.0101,480.8159 Q436.0101,482.9077 436.6949,483.9744 Q437.3797,485.041 438.7244,485.041 Q439.3553,485.041 439.9488,484.7712 Q440.5423,484.5015 441.1731,483.9204 Z " fill="#000000"/><text fill="#000000" font-family="sans-serif" font-size="14" lengthAdjust="spacing" textLength="31" x="457.8" y="486.291">User</text><line style="stroke:#000000;stroke-width:0.5;" x1="399" x2="516" y1="497" y2="497"/><ellipse cx="409" cy="510.7441" fill="none" rx="3" ry="3" style="stroke:#038048;stroke-width:1.0;"/><text fill="#000000" font-family="sans-serif" font-size="14" lengthAdjust="spacing" textLength="93" x="418" y="514.5352">UserId: String</text><ellipse cx="409" cy="527.2324" fill="none" rx="3" ry="3" style="stroke:#038048;stroke-width:1.0;"/><text fill="#000000" font-family="sans-serif" font-size="14" lengthAdjust="spacing" textLength="86" x="418" y="531.0234">email: String</text><ellipse cx="409" cy="543.7207" fill="none" rx="3" ry="3" style="stroke:#038048;stroke-width:1.0;"/><text fill="#000000" font-family="sans-serif" font-size="14" lengthAdjust="spacing" textLength="87" x="418" y="547.5117">name: String</text><ellipse cx="409" cy="560.209" fill="none" rx="3" ry="3" style="stroke:#038048;stroke-width:1.0;"/><text fill="#000000" font-family="sans-serif" font-size="14" lengthAdjust="spacing" textLength="65" x="418" y="564">role: Role</text><line style="stroke:#000000;stroke-width:0.5;" x1="399" x2="516" y1="570.9531" y2="570.9531"/></g><!--link Building to Floor--><g id="link_Building_Floor"><path codeLine="80" d="M165.912,230.122 C189.792,254.752 213.3505,279.0522 236.1975,302.6172 " fill="none" id="Building-to-Floor" style="stroke:#000000;stroke-width:1.0;"/><polygon fill="#000000" points="240.374,306.925,236.9811,297.679,236.8936,303.3352,231.2374,303.2477,240.374,306.925" style="stroke:#000000;stroke-width:1.0;"/><text fill="#000000" font-family="sans-serif" font-size="13" lengthAdjust="spacing" textLength="8" x="164.056" y="250.5879">1</text><text fill="#000000" font-family="sans-serif" font-size="13" lengthAdjust="spacing" textLength="6" x="227.1586" y="296.246">*</text></g><!--link Floor to Room--><g id="link_Floor_Room"><path codeLine="81" d="M286.5,404.08 C286.5,425.81 286.5,445.491 286.5,467.242 " fill="none" id="Floor-to-Room" style="stroke:#000000;stroke-width:1.0;"/><polygon fill="#000000" points="286.5,473.242,290.5,464.242,286.5,468.242,282.5,464.242,286.5,473.242" style="stroke:#000000;stroke-width:1.0;"/><text fill="#000000" font-family="sans-serif" font-size="13" lengthAdjust="spacing" textLength="8" x="277.9125" y="424.8738">1</text><text fill="#000000" font-family="sans-serif" font-size="13" lengthAdjust="spacing" textLength="6" x="280.0781" y="462.8882">*</text></g><!--link Room to Robot--><g id="link_Room_Robot"><path codeLine="82" d="M284.538,570.756 C284.108,583.203 283.716,596.602 283.5,609 C283.368,616.554 283.021,618.46 283.5,626 C284.116,635.687 284.4121,639.9399 285.5391,649.9249 " fill="none" id="Room-to-Robot" style="stroke:#000000;stroke-width:1.0;"/><polygon fill="#000000" points="286.212,655.887,289.1773,646.4952,285.6512,650.9185,281.2278,647.3924,286.212,655.887" style="stroke:#000000;stroke-width:1.0;"/><text fill="#000000" font-family="sans-serif" font-size="13" lengthAdjust="spacing" textLength="50" x="284.5" y="622.5684">Used by</text><text fill="#000000" font-family="sans-serif" font-size="13" lengthAdjust="spacing" textLength="8" x="275.6623" y="591.5756">1</text><text fill="#000000" font-family="sans-serif" font-size="13" lengthAdjust="spacing" textLength="6" x="278.7912" y="645.0519">*</text></g><!--link Robot to Task--><g id="link_Robot_Task"><path codeLine="83" d="M337.817,786.248 C349.123,802.028 361.759,818.534 374.5,833 C383.418,843.125 389.1767,849.2057 399.2117,858.7467 " fill="none" id="Robot-to-Task" style="stroke:#000000;stroke-width:1.0;"/><polygon fill="#000000" points="403.56,862.881,399.7937,853.7807,399.9364,859.4358,394.2813,859.5785,403.56,862.881" style="stroke:#000000;stroke-width:1.0;"/><text fill="#000000" font-family="sans-serif" font-size="13" lengthAdjust="spacing" textLength="56" x="375.5" y="829.5684">Executes</text><text fill="#000000" font-family="sans-serif" font-size="13" lengthAdjust="spacing" textLength="8" x="334.2474" y="807.2203">1</text><text fill="#000000" font-family="sans-serif" font-size="13" lengthAdjust="spacing" textLength="6" x="389.0501" y="852.1956">*</text></g><!--link Robot to RobotType--><g id="link_Robot_RobotType"><path codeLine="84" d="M270.812,786.182 C267.006,796.157 263.134,806.351 259.5,816 C251.545,837.12 244.795,855.3212 237.996,873.7682 " fill="none" id="Robot-to-RobotType" style="stroke:#000000;stroke-width:1.0;"/><polygon fill="#000000" points="235.921,879.398,242.7866,872.3366,237.6501,874.7065,235.2803,869.57,235.921,879.398" style="stroke:#000000;stroke-width:1.0;"/><polygon fill="#000000" points="262.7457,829.3374,268.6713,821.8985,263.1671,819.8362,262.7457,829.3374" style="stroke:#000000;stroke-width:1.0;"/><text fill="#000000" font-family="sans-serif" font-size="13" lengthAdjust="spacing" textLength="22" x="273.5" y="829.5684">has</text><text fill="#000000" font-family="sans-serif" font-size="13" lengthAdjust="spacing" textLength="8" x="259.495" y="807.1467">1</text><text fill="#000000" font-family="sans-serif" font-size="13" lengthAdjust="spacing" textLength="8" x="229.4516" y="868.7801">1</text></g><!--link User to Robot--><g id="link_User_Robot"><path codeLine="85" d="M401.678,579.358 C392.695,589.042 383.672,599.16 375.5,609 C363.283,623.711 354.3599,635.2877 343.0399,650.9077 " fill="none" id="User-to-Robot" style="stroke:#000000;stroke-width:1.0;"/><polygon fill="#000000" points="339.519,655.766,348.0392,650.8258,342.4531,651.7174,341.5614,646.1312,339.519,655.766" style="stroke:#000000;stroke-width:1.0;"/><text fill="#000000" font-family="sans-serif" font-size="13" lengthAdjust="spacing" textLength="55" x="376.5" y="622.5684">Manages</text><text fill="#000000" font-family="sans-serif" font-size="13" lengthAdjust="spacing" textLength="8" x="386.7611" y="599.4462">1</text><text fill="#000000" font-family="sans-serif" font-size="13" lengthAdjust="spacing" textLength="6" x="338.0055" y="645.3719">*</text></g><!--link User to Task--><g id="link_User_Task"><path codeLine="86" d="M457.645,579.346 C457.843,655.857 458.1765,785.265 458.3615,856.934 " fill="none" id="User-to-Task" style="stroke:#000000;stroke-width:1.0;"/><polygon fill="#000000" points="458.377,862.934,462.3538,853.9237,458.3641,857.934,454.3538,853.9444,458.377,862.934" style="stroke:#000000;stroke-width:1.0;"/><text fill="#000000" font-family="sans-serif" font-size="13" lengthAdjust="spacing" textLength="59" x="459.5" y="726.0684">Approves</text><text fill="#000000" font-family="sans-serif" font-size="13" lengthAdjust="spacing" textLength="8" x="449.1993" y="599.4328">1</text><text fill="#000000" font-family="sans-serif" font-size="13" lengthAdjust="spacing" textLength="6" x="451.9183" y="852.2563">*</text></g><!--reverse link Task to Transport_Task--><g id="link_Task_Transport_Task"><path codeLine="87" d="M425.6165,965.4953 C411.0355,988.9943 396.543,1012.35 381.331,1036.866 " fill="none" id="Task-backto-Transport_Task" style="stroke:#000000;stroke-width:1.0;"/><polygon fill="#000000" points="428.78,960.397,420.636,965.9355,426.1438,964.6456,427.4337,970.1534,428.78,960.397" style="stroke:#000000;stroke-width:1.0;"/><polygon fill="#000000" points="417.1362,994.4067,409.87,1000.5429,414.8645,1003.642,417.1362,994.4067" style="stroke:#000000;stroke-width:1.0;"/><text fill="#000000" font-family="sans-serif" font-size="13" lengthAdjust="spacing" textLength="11" x="423.5" y="1003.5684">is</text><text fill="#000000" font-family="sans-serif" font-size="13" lengthAdjust="spacing" textLength="8" x="416.0381" y="980.8853">1</text><text fill="#000000" font-family="sans-serif" font-size="13" lengthAdjust="spacing" textLength="8" x="377.2812" y="1026.176">1</text></g><!--reverse link Task to Surveillance_Task--><g id="link_Task_Surveillance_Task"><path codeLine="88" d="M491.3835,965.4953 C509.3995,994.5303 528.945,1026.03 545.94,1053.4182 " fill="none" id="Task-backto-Surveillance_Task" style="stroke:#000000;stroke-width:1.0;"/><polygon fill="#000000" points="488.22,960.397,489.5663,970.1534,490.8562,964.6456,496.364,965.9355,488.22,960.397" style="stroke:#000000;stroke-width:1.0;"/><polygon fill="#000000" points="516.8638,994.4067,519.1355,1003.642,524.13,1000.5429,516.8638,994.4067" style="stroke:#000000;stroke-width:1.0;"/><text fill="#000000" font-family="sans-serif" font-size="13" lengthAdjust="spacing" textLength="11" x="528.5" y="1003.5684">is</text><text fill="#000000" font-family="sans-serif" font-size="13" lengthAdjust="spacing" textLength="8" x="483.8369" y="980.8853">1</text><text fill="#000000" font-family="sans-serif" font-size="13" lengthAdjust="spacing" textLength="8" x="533.0313" y="1042.751">1</text></g><!--link Elevator to Floor--><g id="link_Elevator_Floor"><path codeLine="89" d="M468.681,205.029 C434.527,233.05 383.753,274.709 344.475,306.934 " fill="none" id="Elevator-Floor" style="stroke:#000000;stroke-width:1.0;"/><polygon fill="#000000" points="397.6345,271.8267,406.4914,268.3616,402.7631,263.8174,397.6345,271.8267" style="stroke:#000000;stroke-width:1.0;"/><text fill="#000000" font-family="sans-serif" font-size="13" lengthAdjust="spacing" textLength="57" x="410.5" y="273.5684">connects</text><text fill="#000000" font-family="sans-serif" font-size="13" lengthAdjust="spacing" textLength="8" x="451.5331" y="226.2249">1</text><text fill="#000000" font-family="sans-serif" font-size="13" lengthAdjust="spacing" textLength="22" x="329.3745" y="296.2563">1..*</text></g><!--link Passageway to Floor--><g id="link_Passageway_Floor"><path codeLine="90" d="M286.5,55.19 C286.5,107.69 286.5,236.511 286.5,306.819 " fill="none" id="Passageway-Floor" style="stroke:#000000;stroke-width:1.0;"/><polygon fill="#000000" points="291.5,178.1553,294.4389,169.1102,288.5611,169.1102,291.5,178.1553" style="stroke:#000000;stroke-width:1.0;"/><text fill="#000000" font-family="sans-serif" font-size="13" lengthAdjust="spacing" textLength="86" x="300.5" y="178.0684">allows access</text><text fill="#000000" font-family="sans-serif" font-size="13" lengthAdjust="spacing" textLength="8" x="277.525" y="75.5206">1</text><text fill="#000000" font-family="sans-serif" font-size="13" lengthAdjust="spacing" textLength="8" x="277.9125" y="296.1244">2</text></g><!--SRC=[ZLLDZzem4BtdLrXSAhLYfUtHMY4jB2jLMj0AwA4dD3Xki73io7PWwMh_UyTE02TEFtB0yRoN-NYUCVOWL0K6Ii8aM4lUCuBF5DYXCBfM-KnBRSYBAFRk1vTIdmB-Q8m-DT1K8hVvI9kSczZwaU7ZeSRtj1Oo5wfeW_ZdoyKsqpcdPEqClgVe4ig_e6lnowFucs9Ft38ZAYUqwZZuY1DxbXfpZh9ITRdZXXAXtCsuWBSdKN9bqPVjn_lfNIoWekHPI9w6M6bT_ZE29stErK2f_rN6A_v0mKzm9kyTO2xv4Lotn3yAtpkqbTvf5t-8gOX2GP9AMm6ormvSy8dB3Lfp8q0ksxhx7ou5EwZ1KmukfmPKJabOXiH5YXUkb-T5iYi-N2Zih3F0NEjj0_OGE_BxRtcQcBSFbugXdRX8zA9PU4lJtc0rjjB6RViXNr6DkjhwVg2XTMBVKXovEG-2CwqS5hB5V8oZfDsc-DoB6QETlDQrEN8X9IZ6jwaQfk1kUsaVUftgX1AcYZR3THNy5kMxvPs6zFiXcNa9GgRcuMOnMd8locq4iqzanMKu0RiNbSsowpKqkX-HyNX2Hfz7RPRDHH3RWxvXUBjMFnJKrv2JtJbhzZ4Zo4R9_8spsd7RPzoFegQbP0-MJBAWo52O1IYSQviIsYYFLMNq4GbXxmaFut5OUor6oGCH0xJqn5lczUPeek9oTtTH2pbCAyMPyyb7bq_3HVBNbaa9-ByEIu0nZaS_-Gq0]--></g></svg>