<?xml version="1.0" encoding="us-ascii" standalone="no"?><svg xmlns="http://www.w3.org/2000/svg" xmlns:xlink="http://www.w3.org/1999/xlink" contentStyleType="text/css" height="922px" preserveAspectRatio="none" style="width:1099px;height:922px;background:#FFFFFF;" version="1.1" viewBox="0 0 1099 922" width="1099px" zoomAndPan="magnify"><defs/><g><!--cluster Frameworks and Drivers Layer--><g id="cluster_Frameworks and Drivers Layer"><path d="M149.5,6 L394.5,6 A3.75,3.75 0 0 1 397,8.5 L404,28.2969 L421.5,28.2969 A2.5,2.5 0 0 1 424,30.7969 L424,102.5 A2.5,2.5 0 0 1 421.5,105 L149.5,105 A2.5,2.5 0 0 1 147,102.5 L147,8.5 A2.5,2.5 0 0 1 149.5,6 " fill="none" style="stroke:#000000;stroke-width:1.5;"/><line style="stroke:#000000;stroke-width:1.5;" x1="147" x2="404" y1="28.2969" y2="28.2969"/><text fill="#000000" font-family="sans-serif" font-size="14" font-weight="bold" lengthAdjust="spacing" textLength="244" x="151" y="20.9951">Frameworks and Drivers Layer</text></g><!--cluster Interface Adapters Layers--><g id="cluster_Interface Adapters Layers"><path d="M141.5,138 L348.5,138 A3.75,3.75 0 0 1 351,140.5 L358,160.2969 L658.5,160.2969 A2.5,2.5 0 0 1 661,162.7969 L661,283.5 A2.5,2.5 0 0 1 658.5,286 L141.5,286 A2.5,2.5 0 0 1 139,283.5 L139,140.5 A2.5,2.5 0 0 1 141.5,138 " fill="none" style="stroke:#000000;stroke-width:1.5;"/><line style="stroke:#000000;stroke-width:1.5;" x1="139" x2="358" y1="160.2969" y2="160.2969"/><text fill="#000000" font-family="sans-serif" font-size="14" font-weight="bold" lengthAdjust="spacing" textLength="206" x="143" y="152.9951">Interface Adapters Layers</text></g><!--cluster Application Services/Use Case Services--><g id="cluster_Application Services/Use Case Services"><path d="M222.5,319 L533.5,319 A3.75,3.75 0 0 1 536,321.5 L543,341.2969 L593.5,341.2969 A2.5,2.5 0 0 1 596,343.7969 L596,431.5 A2.5,2.5 0 0 1 593.5,434 L222.5,434 A2.5,2.5 0 0 1 220,431.5 L220,321.5 A2.5,2.5 0 0 1 222.5,319 " fill="none" style="stroke:#000000;stroke-width:1.5;"/><line style="stroke:#000000;stroke-width:1.5;" x1="220" x2="543" y1="341.2969" y2="341.2969"/><text fill="#000000" font-family="sans-serif" font-size="14" font-weight="bold" lengthAdjust="spacing" textLength="310" x="224" y="333.9951">Application Services/Use Case Services</text></g><!--cluster Model--><g id="cluster_Model"><path d="M133.5,625 L183.5,625 A3.75,3.75 0 0 1 186,627.5 L193,647.2969 L911.5,647.2969 A2.5,2.5 0 0 1 914,649.7969 L914,912.5 A2.5,2.5 0 0 1 911.5,915 L133.5,915 A2.5,2.5 0 0 1 131,912.5 L131,627.5 A2.5,2.5 0 0 1 133.5,625 " fill="none" style="stroke:#000000;stroke-width:1.5;"/><line style="stroke:#000000;stroke-width:1.5;" x1="131" x2="193" y1="647.2969" y2="647.2969"/><text fill="#000000" font-family="sans-serif" font-size="14" font-weight="bold" lengthAdjust="spacing" textLength="49" x="135" y="639.9951">Model</text></g><!--class RouteRobot--><g id="elem_RouteRobot"><rect codeLine="3" fill="#F1F1F1" height="48" id="RouteRobot" rx="2.5" ry="2.5" style="stroke:#181818;stroke-width:0.5;" width="116" x="292" y="41"/><ellipse cx="307" cy="57" fill="#ADD1B2" rx="11" ry="11" style="stroke:#181818;stroke-width:1.0;"/><path d="M309.9844,62.6406 Q309.4063,62.9375 308.7656,63.0781 Q308.125,63.2344 307.4219,63.2344 Q304.9063,63.2344 303.5781,61.5938 Q302.2656,59.9375 302.2656,56.8125 Q302.2656,53.6719 303.5781,52.0313 Q304.9063,50.375 307.4219,50.375 Q308.125,50.375 308.7656,50.5313 Q309.4219,50.6719 309.9844,50.9688 L309.9844,53.6875 Q309.3438,53.1094 308.75,52.8438 Q308.1563,52.5781 307.5313,52.5781 Q306.1875,52.5781 305.5,53.6406 Q304.8125,54.7031 304.8125,56.8125 Q304.8125,58.9063 305.5,59.9844 Q306.1875,61.0469 307.5313,61.0469 Q308.1563,61.0469 308.75,60.7813 Q309.3438,60.5 309.9844,59.9219 L309.9844,62.6406 Z " fill="#000000"/><text fill="#000000" font-family="sans-serif" font-size="14" lengthAdjust="spacing" textLength="84" x="321" y="61.8467">RouteRobot</text><line style="stroke:#181818;stroke-width:0.5;" x1="293" x2="407" y1="73" y2="73"/><line style="stroke:#181818;stroke-width:0.5;" x1="293" x2="407" y1="81" y2="81"/></g><!--class dbDriver--><g id="elem_dbDriver"><rect codeLine="4" fill="#F1F1F1" height="48" id="dbDriver" rx="2.5" ry="2.5" style="stroke:#181818;stroke-width:0.5;" width="94" x="163" y="41"/><ellipse cx="178" cy="57" fill="#ADD1B2" rx="11" ry="11" style="stroke:#181818;stroke-width:1.0;"/><path d="M180.9844,62.6406 Q180.4063,62.9375 179.7656,63.0781 Q179.125,63.2344 178.4219,63.2344 Q175.9063,63.2344 174.5781,61.5938 Q173.2656,59.9375 173.2656,56.8125 Q173.2656,53.6719 174.5781,52.0313 Q175.9063,50.375 178.4219,50.375 Q179.125,50.375 179.7656,50.5313 Q180.4219,50.6719 180.9844,50.9688 L180.9844,53.6875 Q180.3438,53.1094 179.75,52.8438 Q179.1563,52.5781 178.5313,52.5781 Q177.1875,52.5781 176.5,53.6406 Q175.8125,54.7031 175.8125,56.8125 Q175.8125,58.9063 176.5,59.9844 Q177.1875,61.0469 178.5313,61.0469 Q179.1563,61.0469 179.75,60.7813 Q180.3438,60.5 180.9844,59.9219 L180.9844,62.6406 Z " fill="#000000"/><text fill="#000000" font-family="sans-serif" font-size="14" lengthAdjust="spacing" textLength="62" x="192" y="61.8467">dbDriver</text><line style="stroke:#181818;stroke-width:0.5;" x1="164" x2="256" y1="73" y2="73"/><line style="stroke:#181818;stroke-width:0.5;" x1="164" x2="256" y1="81" y2="81"/></g><!--class IRobotController--><g id="elem_IRobotController"><rect codeLine="8" fill="#F1F1F1" height="64.2969" id="IRobotController" rx="2.5" ry="2.5" style="stroke:#181818;stroke-width:0.5;" width="153" x="300.5" y="189.5"/><ellipse cx="317.3" cy="205.5" fill="#B4A7E5" rx="11" ry="11" style="stroke:#181818;stroke-width:1.0;"/><path d="M313.2219,201.25 L313.2219,199.0938 L320.6125,199.0938 L320.6125,201.25 L318.1438,201.25 L318.1438,209.3438 L320.6125,209.3438 L320.6125,211.5 L313.2219,211.5 L313.2219,209.3438 L315.6906,209.3438 L315.6906,201.25 L313.2219,201.25 Z " fill="#000000"/><text fill="#000000" font-family="sans-serif" font-size="14" font-style="italic" lengthAdjust="spacing" textLength="117" x="331.7" y="210.3467">IRobotController</text><line style="stroke:#181818;stroke-width:0.5;" x1="301.5" x2="452.5" y1="221.5" y2="221.5"/><line style="stroke:#181818;stroke-width:0.5;" x1="301.5" x2="452.5" y1="229.5" y2="229.5"/><ellipse cx="311.5" cy="243.1484" fill="#84BE84" rx="3" ry="3" style="stroke:#038048;stroke-width:1.0;"/><text fill="#000000" font-family="sans-serif" font-size="14" lengthAdjust="spacing" textLength="127" x="320.5" y="246.4951">createRobot(json)</text></g><!--class RobotController--><g id="elem_RobotController"><rect codeLine="11" fill="#F1F1F1" height="96.8906" id="RobotController" rx="2.5" ry="2.5" style="stroke:#181818;stroke-width:0.5;" width="156" x="489" y="173"/><ellipse cx="508.95" cy="189" fill="#ADD1B2" rx="11" ry="11" style="stroke:#181818;stroke-width:1.0;"/><path d="M511.9344,194.6406 Q511.3563,194.9375 510.7156,195.0781 Q510.075,195.2344 509.3719,195.2344 Q506.8563,195.2344 505.5281,193.5938 Q504.2156,191.9375 504.2156,188.8125 Q504.2156,185.6719 505.5281,184.0313 Q506.8563,182.375 509.3719,182.375 Q510.075,182.375 510.7156,182.5313 Q511.3719,182.6719 511.9344,182.9688 L511.9344,185.6875 Q511.2938,185.1094 510.7,184.8438 Q510.1063,184.5781 509.4813,184.5781 Q508.1375,184.5781 507.45,185.6406 Q506.7625,186.7031 506.7625,188.8125 Q506.7625,190.9063 507.45,191.9844 Q508.1375,193.0469 509.4813,193.0469 Q510.1063,193.0469 510.7,192.7813 Q511.2938,192.5 511.9344,191.9219 L511.9344,194.6406 Z " fill="#000000"/><text fill="#000000" font-family="sans-serif" font-size="14" lengthAdjust="spacing" textLength="113" x="524.05" y="193.8467">RobotController</text><line style="stroke:#181818;stroke-width:0.5;" x1="490" x2="644" y1="205" y2="205"/><line style="stroke:#181818;stroke-width:0.5;" x1="490" x2="644" y1="213" y2="213"/><rect fill="#F24D5C" height="6" style="stroke:#C82930;stroke-width:1.0;" width="6" x="497" y="223.6484"/><text fill="#000000" font-family="sans-serif" font-size="14" lengthAdjust="spacing" textLength="127" x="509" y="229.9951">createRobot(json)</text><rect fill="#F24D5C" height="6" style="stroke:#C82930;stroke-width:1.0;" width="6" x="497" y="239.9453"/><text fill="#000000" font-family="sans-serif" font-size="14" lengthAdjust="spacing" textLength="125" x="509" y="246.292">validateJson(json)</text><rect fill="#F24D5C" height="6" style="stroke:#C82930;stroke-width:1.0;" width="6" x="497" y="256.2422"/><text fill="#000000" font-family="sans-serif" font-size="14" lengthAdjust="spacing" textLength="130" x="509" y="262.5889">generateRes(json)</text></g><!--class RobotRepo--><g id="elem_RobotRepo"><rect codeLine="16" fill="#F1F1F1" height="64.2969" id="RobotRepo" rx="2.5" ry="2.5" style="stroke:#181818;stroke-width:0.5;" width="111" x="154.5" y="189.5"/><ellipse cx="169.5" cy="205.5" fill="#ADD1B2" rx="11" ry="11" style="stroke:#181818;stroke-width:1.0;"/><path d="M172.4844,211.1406 Q171.9063,211.4375 171.2656,211.5781 Q170.625,211.7344 169.9219,211.7344 Q167.4063,211.7344 166.0781,210.0938 Q164.7656,208.4375 164.7656,205.3125 Q164.7656,202.1719 166.0781,200.5313 Q167.4063,198.875 169.9219,198.875 Q170.625,198.875 171.2656,199.0313 Q171.9219,199.1719 172.4844,199.4688 L172.4844,202.1875 Q171.8438,201.6094 171.25,201.3438 Q170.6563,201.0781 170.0313,201.0781 Q168.6875,201.0781 168,202.1406 Q167.3125,203.2031 167.3125,205.3125 Q167.3125,207.4063 168,208.4844 Q168.6875,209.5469 170.0313,209.5469 Q170.6563,209.5469 171.25,209.2813 Q171.8438,209 172.4844,208.4219 L172.4844,211.1406 Z " fill="#000000"/><text fill="#000000" font-family="sans-serif" font-size="14" lengthAdjust="spacing" textLength="79" x="183.5" y="210.3467">RobotRepo</text><line style="stroke:#181818;stroke-width:0.5;" x1="155.5" x2="264.5" y1="221.5" y2="221.5"/><rect fill="none" height="6" style="stroke:#C82930;stroke-width:1.0;" width="6" x="162.5" y="232.1484"/><text fill="#000000" font-family="sans-serif" font-size="14" lengthAdjust="spacing" textLength="33" x="174.5" y="238.4951">save</text><line style="stroke:#181818;stroke-width:0.5;" x1="155.5" x2="264.5" y1="245.7969" y2="245.7969"/></g><!--class RobotService--><g id="elem_RobotService"><rect codeLine="24" fill="#F1F1F1" height="64.2969" id="RobotService" rx="2.5" ry="2.5" style="stroke:#181818;stroke-width:0.5;" width="193" x="386.5" y="354"/><ellipse cx="431.25" cy="370" fill="#ADD1B2" rx="11" ry="11" style="stroke:#181818;stroke-width:1.0;"/><path d="M434.2344,375.6406 Q433.6563,375.9375 433.0156,376.0781 Q432.375,376.2344 431.6719,376.2344 Q429.1563,376.2344 427.8281,374.5938 Q426.5156,372.9375 426.5156,369.8125 Q426.5156,366.6719 427.8281,365.0313 Q429.1563,363.375 431.6719,363.375 Q432.375,363.375 433.0156,363.5313 Q433.6719,363.6719 434.2344,363.9688 L434.2344,366.6875 Q433.5938,366.1094 433,365.8438 Q432.4063,365.5781 431.7813,365.5781 Q430.4375,365.5781 429.75,366.6406 Q429.0625,367.7031 429.0625,369.8125 Q429.0625,371.9063 429.75,372.9844 Q430.4375,374.0469 431.7813,374.0469 Q432.4063,374.0469 433,373.7813 Q433.5938,373.5 434.2344,372.9219 L434.2344,375.6406 Z " fill="#000000"/><text fill="#000000" font-family="sans-serif" font-size="14" lengthAdjust="spacing" textLength="95" x="451.75" y="374.8467">RobotService</text><line style="stroke:#181818;stroke-width:0.5;" x1="387.5" x2="578.5" y1="386" y2="386"/><line style="stroke:#181818;stroke-width:0.5;" x1="387.5" x2="578.5" y1="394" y2="394"/><rect fill="#F24D5C" height="6" style="stroke:#C82930;stroke-width:1.0;" width="6" x="394.5" y="404.6484"/><text fill="#000000" font-family="sans-serif" font-size="14" lengthAdjust="spacing" textLength="167" x="406.5" y="410.9951">createRobot(robotDTO)</text></g><!--class IRobotRepo--><g id="elem_IRobotRepo"><rect codeLine="27" fill="#F1F1F1" height="64.2969" id="IRobotRepo" rx="2.5" ry="2.5" style="stroke:#181818;stroke-width:0.5;" width="115" x="236.5" y="354"/><ellipse cx="251.5" cy="370" fill="#B4A7E5" rx="11" ry="11" style="stroke:#181818;stroke-width:1.0;"/><path d="M247.4219,365.75 L247.4219,363.5938 L254.8125,363.5938 L254.8125,365.75 L252.3438,365.75 L252.3438,373.8438 L254.8125,373.8438 L254.8125,376 L247.4219,376 L247.4219,373.8438 L249.8906,373.8438 L249.8906,365.75 L247.4219,365.75 Z " fill="#000000"/><text fill="#000000" font-family="sans-serif" font-size="14" font-style="italic" lengthAdjust="spacing" textLength="83" x="265.5" y="374.8467">IRobotRepo</text><line style="stroke:#181818;stroke-width:0.5;" x1="237.5" x2="350.5" y1="386" y2="386"/><line style="stroke:#181818;stroke-width:0.5;" x1="237.5" x2="350.5" y1="394" y2="394"/><rect fill="#F24D5C" height="6" style="stroke:#C82930;stroke-width:1.0;" width="6" x="244.5" y="404.6484"/><text fill="#000000" font-family="sans-serif" font-size="14" lengthAdjust="spacing" textLength="81" x="256.5" y="410.9951">save(robot)</text></g><!--class Robot--><g id="elem_Robot"><rect codeLine="34" fill="#F1F1F1" height="80.5938" id="Robot" rx="2.5" ry="2.5" style="stroke:#181818;stroke-width:0.5;" width="139" x="323.5" y="660"/><ellipse cx="367.75" cy="676" fill="#ADD1B2" rx="11" ry="11" style="stroke:#181818;stroke-width:1.0;"/><path d="M370.7344,681.6406 Q370.1563,681.9375 369.5156,682.0781 Q368.875,682.2344 368.1719,682.2344 Q365.6563,682.2344 364.3281,680.5938 Q363.0156,678.9375 363.0156,675.8125 Q363.0156,672.6719 364.3281,671.0313 Q365.6563,669.375 368.1719,669.375 Q368.875,669.375 369.5156,669.5313 Q370.1719,669.6719 370.7344,669.9688 L370.7344,672.6875 Q370.0938,672.1094 369.5,671.8438 Q368.9063,671.5781 368.2813,671.5781 Q366.9375,671.5781 366.25,672.6406 Q365.5625,673.7031 365.5625,675.8125 Q365.5625,677.9063 366.25,678.9844 Q366.9375,680.0469 368.2813,680.0469 Q368.9063,680.0469 369.5,679.7813 Q370.0938,679.5 370.7344,678.9219 L370.7344,681.6406 Z " fill="#000000"/><text fill="#000000" font-family="sans-serif" font-size="14" lengthAdjust="spacing" textLength="42" x="388.25" y="680.8467">Robot</text><line style="stroke:#181818;stroke-width:0.5;" x1="324.5" x2="461.5" y1="692" y2="692"/><line style="stroke:#181818;stroke-width:0.5;" x1="324.5" x2="461.5" y1="700" y2="700"/><ellipse cx="334.5" cy="713.6484" fill="#84BE84" rx="3" ry="3" style="stroke:#038048;stroke-width:1.0;"/><text fill="#000000" font-family="sans-serif" font-size="14" lengthAdjust="spacing" textLength="108" x="343.5" y="716.9951">getrobotCode()</text><ellipse cx="334.5" cy="729.9453" fill="#84BE84" rx="3" ry="3" style="stroke:#038048;stroke-width:1.0;"/><text fill="#000000" font-family="sans-serif" font-size="14" lengthAdjust="spacing" textLength="113" x="343.5" y="733.292">getrobotName()</text></g><!--class RobotCode--><g id="elem_RobotCode"><rect codeLine="38" fill="#F1F1F1" height="80.5938" id="RobotCode" rx="2.5" ry="2.5" style="stroke:#181818;stroke-width:0.5;" width="134" x="147" y="818"/><ellipse cx="172.35" cy="834" fill="#ADD1B2" rx="11" ry="11" style="stroke:#181818;stroke-width:1.0;"/><path d="M175.3344,839.6406 Q174.7563,839.9375 174.1156,840.0781 Q173.475,840.2344 172.7719,840.2344 Q170.2563,840.2344 168.9281,838.5938 Q167.6156,836.9375 167.6156,833.8125 Q167.6156,830.6719 168.9281,829.0313 Q170.2563,827.375 172.7719,827.375 Q173.475,827.375 174.1156,827.5313 Q174.7719,827.6719 175.3344,827.9688 L175.3344,830.6875 Q174.6938,830.1094 174.1,829.8438 Q173.5063,829.5781 172.8813,829.5781 Q171.5375,829.5781 170.85,830.6406 Q170.1625,831.7031 170.1625,833.8125 Q170.1625,835.9063 170.85,836.9844 Q171.5375,838.0469 172.8813,838.0469 Q173.5063,838.0469 174.1,837.7813 Q174.6938,837.5 175.3344,836.9219 L175.3344,839.6406 Z " fill="#000000"/><text fill="#000000" font-family="sans-serif" font-size="14" lengthAdjust="spacing" textLength="79" x="188.65" y="838.8467">RobotCode</text><line style="stroke:#181818;stroke-width:0.5;" x1="148" x2="280" y1="850" y2="850"/><rect fill="none" height="6" style="stroke:#C82930;stroke-width:1.0;" width="6" x="155" y="860.6484"/><text fill="#000000" font-family="sans-serif" font-size="14" lengthAdjust="spacing" textLength="75" x="167" y="866.9951">robotCode</text><line style="stroke:#181818;stroke-width:0.5;" x1="148" x2="280" y1="874.2969" y2="874.2969"/><ellipse cx="158" cy="887.9453" fill="#84BE84" rx="3" ry="3" style="stroke:#038048;stroke-width:1.0;"/><text fill="#000000" font-family="sans-serif" font-size="14" lengthAdjust="spacing" textLength="108" x="167" y="891.292">getrobotCode()</text></g><!--class RobotName--><g id="elem_RobotName"><rect codeLine="42" fill="#F1F1F1" height="80.5938" id="RobotName" rx="2.5" ry="2.5" style="stroke:#181818;stroke-width:0.5;" width="139" x="316.5" y="818"/><ellipse cx="341.85" cy="834" fill="#ADD1B2" rx="11" ry="11" style="stroke:#181818;stroke-width:1.0;"/><path d="M344.8344,839.6406 Q344.2563,839.9375 343.6156,840.0781 Q342.975,840.2344 342.2719,840.2344 Q339.7563,840.2344 338.4281,838.5938 Q337.1156,836.9375 337.1156,833.8125 Q337.1156,830.6719 338.4281,829.0313 Q339.7563,827.375 342.2719,827.375 Q342.975,827.375 343.6156,827.5313 Q344.2719,827.6719 344.8344,827.9688 L344.8344,830.6875 Q344.1938,830.1094 343.6,829.8438 Q343.0063,829.5781 342.3813,829.5781 Q341.0375,829.5781 340.35,830.6406 Q339.6625,831.7031 339.6625,833.8125 Q339.6625,835.9063 340.35,836.9844 Q341.0375,838.0469 342.3813,838.0469 Q343.0063,838.0469 343.6,837.7813 Q344.1938,837.5 344.8344,836.9219 L344.8344,839.6406 Z " fill="#000000"/><text fill="#000000" font-family="sans-serif" font-size="14" lengthAdjust="spacing" textLength="84" x="358.15" y="838.8467">RobotName</text><line style="stroke:#181818;stroke-width:0.5;" x1="317.5" x2="454.5" y1="850" y2="850"/><rect fill="none" height="6" style="stroke:#C82930;stroke-width:1.0;" width="6" x="324.5" y="860.6484"/><text fill="#000000" font-family="sans-serif" font-size="14" lengthAdjust="spacing" textLength="80" x="336.5" y="866.9951">robotName</text><line style="stroke:#181818;stroke-width:0.5;" x1="317.5" x2="454.5" y1="874.2969" y2="874.2969"/><ellipse cx="327.5" cy="887.9453" fill="#84BE84" rx="3" ry="3" style="stroke:#038048;stroke-width:1.0;"/><text fill="#000000" font-family="sans-serif" font-size="14" lengthAdjust="spacing" textLength="113" x="336.5" y="891.292">getrobotName()</text></g><!--class RobotDescription--><g id="elem_RobotDescription"><rect codeLine="46" fill="#F1F1F1" height="80.5938" id="RobotDescription" rx="2.5" ry="2.5" style="stroke:#181818;stroke-width:0.5;" width="178" x="491" y="818"/><ellipse cx="516.35" cy="834" fill="#ADD1B2" rx="11" ry="11" style="stroke:#181818;stroke-width:1.0;"/><path d="M519.3344,839.6406 Q518.7563,839.9375 518.1156,840.0781 Q517.475,840.2344 516.7719,840.2344 Q514.2563,840.2344 512.9281,838.5938 Q511.6156,836.9375 511.6156,833.8125 Q511.6156,830.6719 512.9281,829.0313 Q514.2563,827.375 516.7719,827.375 Q517.475,827.375 518.1156,827.5313 Q518.7719,827.6719 519.3344,827.9688 L519.3344,830.6875 Q518.6938,830.1094 518.1,829.8438 Q517.5063,829.5781 516.8813,829.5781 Q515.5375,829.5781 514.85,830.6406 Q514.1625,831.7031 514.1625,833.8125 Q514.1625,835.9063 514.85,836.9844 Q515.5375,838.0469 516.8813,838.0469 Q517.5063,838.0469 518.1,837.7813 Q518.6938,837.5 519.3344,836.9219 L519.3344,839.6406 Z " fill="#000000"/><text fill="#000000" font-family="sans-serif" font-size="14" lengthAdjust="spacing" textLength="123" x="532.65" y="838.8467">RobotDescription</text><line style="stroke:#181818;stroke-width:0.5;" x1="492" x2="668" y1="850" y2="850"/><rect fill="none" height="6" style="stroke:#C82930;stroke-width:1.0;" width="6" x="499" y="860.6484"/><text fill="#000000" font-family="sans-serif" font-size="14" lengthAdjust="spacing" textLength="119" x="511" y="866.9951">robotDescription</text><line style="stroke:#181818;stroke-width:0.5;" x1="492" x2="668" y1="874.2969" y2="874.2969"/><ellipse cx="502" cy="887.9453" fill="#84BE84" rx="3" ry="3" style="stroke:#038048;stroke-width:1.0;"/><text fill="#000000" font-family="sans-serif" font-size="14" lengthAdjust="spacing" textLength="152" x="511" y="891.292">getrobotDescription()</text></g><!--class RobotSerialNumber--><g id="elem_RobotSerialNumber"><rect codeLine="50" fill="#F1F1F1" height="80.5938" id="RobotSerialNumber" rx="2.5" ry="2.5" style="stroke:#181818;stroke-width:0.5;" width="195" x="703.5" y="818"/><ellipse cx="728.85" cy="834" fill="#ADD1B2" rx="11" ry="11" style="stroke:#181818;stroke-width:1.0;"/><path d="M731.8344,839.6406 Q731.2563,839.9375 730.6156,840.0781 Q729.975,840.2344 729.2719,840.2344 Q726.7563,840.2344 725.4281,838.5938 Q724.1156,836.9375 724.1156,833.8125 Q724.1156,830.6719 725.4281,829.0313 Q726.7563,827.375 729.2719,827.375 Q729.975,827.375 730.6156,827.5313 Q731.2719,827.6719 731.8344,827.9688 L731.8344,830.6875 Q731.1938,830.1094 730.6,829.8438 Q730.0063,829.5781 729.3813,829.5781 Q728.0375,829.5781 727.35,830.6406 Q726.6625,831.7031 726.6625,833.8125 Q726.6625,835.9063 727.35,836.9844 Q728.0375,838.0469 729.3813,838.0469 Q730.0063,838.0469 730.6,837.7813 Q731.1938,837.5 731.8344,836.9219 L731.8344,839.6406 Z " fill="#000000"/><text fill="#000000" font-family="sans-serif" font-size="14" lengthAdjust="spacing" textLength="140" x="745.15" y="838.8467">RobotSerialNumber</text><line style="stroke:#181818;stroke-width:0.5;" x1="704.5" x2="897.5" y1="850" y2="850"/><rect fill="none" height="6" style="stroke:#C82930;stroke-width:1.0;" width="6" x="711.5" y="860.6484"/><text fill="#000000" font-family="sans-serif" font-size="14" lengthAdjust="spacing" textLength="136" x="723.5" y="866.9951">robotSerialNumber</text><line style="stroke:#181818;stroke-width:0.5;" x1="704.5" x2="897.5" y1="874.2969" y2="874.2969"/><ellipse cx="714.5" cy="887.9453" fill="#84BE84" rx="3" ry="3" style="stroke:#038048;stroke-width:1.0;"/><text fill="#000000" font-family="sans-serif" font-size="14" lengthAdjust="spacing" textLength="169" x="723.5" y="891.292">getrobotSerialNumber()</text></g><!--class RobotMapper--><g id="elem_RobotMapper"><rect codeLine="55" fill="#F1F1F1" height="80.5938" id="RobotMapper" rx="2.5" ry="2.5" style="stroke:#181818;stroke-width:0.5;" width="128" x="446" y="497"/><ellipse cx="461" cy="513" fill="#ADD1B2" rx="11" ry="11" style="stroke:#181818;stroke-width:1.0;"/><path d="M463.9844,518.6406 Q463.4063,518.9375 462.7656,519.0781 Q462.125,519.2344 461.4219,519.2344 Q458.9063,519.2344 457.5781,517.5938 Q456.2656,515.9375 456.2656,512.8125 Q456.2656,509.6719 457.5781,508.0313 Q458.9063,506.375 461.4219,506.375 Q462.125,506.375 462.7656,506.5313 Q463.4219,506.6719 463.9844,506.9688 L463.9844,509.6875 Q463.3438,509.1094 462.75,508.8438 Q462.1563,508.5781 461.5313,508.5781 Q460.1875,508.5781 459.5,509.6406 Q458.8125,510.7031 458.8125,512.8125 Q458.8125,514.9063 459.5,515.9844 Q460.1875,517.0469 461.5313,517.0469 Q462.1563,517.0469 462.75,516.7813 Q463.3438,516.5 463.9844,515.9219 L463.9844,518.6406 Z " fill="#000000"/><text fill="#000000" font-family="sans-serif" font-size="14" lengthAdjust="spacing" textLength="96" x="475" y="517.8467">RobotMapper</text><line style="stroke:#181818;stroke-width:0.5;" x1="447" x2="573" y1="529" y2="529"/><line style="stroke:#181818;stroke-width:0.5;" x1="447" x2="573" y1="537" y2="537"/><rect fill="#F24D5C" height="6" style="stroke:#C82930;stroke-width:1.0;" width="6" x="454" y="547.6484"/><text fill="#000000" font-family="sans-serif" font-size="14" lengthAdjust="spacing" textLength="84" x="466" y="553.9951">toDTO(json)</text><rect fill="#F24D5C" height="6" style="stroke:#C82930;stroke-width:1.0;" width="6" x="454" y="563.9453"/><text fill="#000000" font-family="sans-serif" font-size="14" lengthAdjust="spacing" textLength="96" x="466" y="570.292">toData(robot)</text></g><!--class RobotDTO--><g id="elem_RobotDTO"><rect codeLine="59" fill="#F1F1F1" height="113.1875" id="RobotDTO" rx="2.5" ry="2.5" style="stroke:#181818;stroke-width:0.5;" width="162" x="930" y="644"/><ellipse cx="970.65" cy="660" fill="#ADD1B2" rx="11" ry="11" style="stroke:#181818;stroke-width:1.0;"/><path d="M973.6344,665.6406 Q973.0563,665.9375 972.4156,666.0781 Q971.775,666.2344 971.0719,666.2344 Q968.5563,666.2344 967.2281,664.5938 Q965.9156,662.9375 965.9156,659.8125 Q965.9156,656.6719 967.2281,655.0313 Q968.5563,653.375 971.0719,653.375 Q971.775,653.375 972.4156,653.5313 Q973.0719,653.6719 973.6344,653.9688 L973.6344,656.6875 Q972.9938,656.1094 972.4,655.8438 Q971.8063,655.5781 971.1813,655.5781 Q969.8375,655.5781 969.15,656.6406 Q968.4625,657.7031 968.4625,659.8125 Q968.4625,661.9063 969.15,662.9844 Q969.8375,664.0469 971.1813,664.0469 Q971.8063,664.0469 972.4,663.7813 Q972.9938,663.5 973.6344,662.9219 L973.6344,665.6406 Z " fill="#000000"/><text fill="#000000" font-family="sans-serif" font-size="14" lengthAdjust="spacing" textLength="73" x="990.35" y="664.8467">RobotDTO</text><line style="stroke:#181818;stroke-width:0.5;" x1="931" x2="1091" y1="676" y2="676"/><rect fill="none" height="6" style="stroke:#C82930;stroke-width:1.0;" width="6" x="938" y="686.6484"/><text fill="#000000" font-family="sans-serif" font-size="14" lengthAdjust="spacing" textLength="75" x="950" y="692.9951">robotCode</text><rect fill="none" height="6" style="stroke:#C82930;stroke-width:1.0;" width="6" x="938" y="702.9453"/><text fill="#000000" font-family="sans-serif" font-size="14" lengthAdjust="spacing" textLength="80" x="950" y="709.292">robotName</text><rect fill="none" height="6" style="stroke:#C82930;stroke-width:1.0;" width="6" x="938" y="719.2422"/><text fill="#000000" font-family="sans-serif" font-size="14" lengthAdjust="spacing" textLength="119" x="950" y="725.5889">robotDescription</text><rect fill="none" height="6" style="stroke:#C82930;stroke-width:1.0;" width="6" x="938" y="735.5391"/><text fill="#000000" font-family="sans-serif" font-size="14" lengthAdjust="spacing" textLength="136" x="950" y="741.8857">robotSerialNumber</text><line style="stroke:#181818;stroke-width:0.5;" x1="931" x2="1091" y1="749.1875" y2="749.1875"/></g><!--class DataRobot--><g id="elem_DataRobot"><rect codeLine="65" fill="#F1F1F1" height="48" id="DataRobot" rx="2.5" ry="2.5" style="stroke:#181818;stroke-width:0.5;" width="108" x="7" y="676.5"/><ellipse cx="22" cy="692.5" fill="#ADD1B2" rx="11" ry="11" style="stroke:#181818;stroke-width:1.0;"/><path d="M24.9844,698.1406 Q24.4063,698.4375 23.7656,698.5781 Q23.125,698.7344 22.4219,698.7344 Q19.9063,698.7344 18.5781,697.0938 Q17.2656,695.4375 17.2656,692.3125 Q17.2656,689.1719 18.5781,687.5313 Q19.9063,685.875 22.4219,685.875 Q23.125,685.875 23.7656,686.0313 Q24.4219,686.1719 24.9844,686.4688 L24.9844,689.1875 Q24.3438,688.6094 23.75,688.3438 Q23.1563,688.0781 22.5313,688.0781 Q21.1875,688.0781 20.5,689.1406 Q19.8125,690.2031 19.8125,692.3125 Q19.8125,694.4063 20.5,695.4844 Q21.1875,696.5469 22.5313,696.5469 Q23.1563,696.5469 23.75,696.2813 Q24.3438,696 24.9844,695.4219 L24.9844,698.1406 Z " fill="#000000"/><text fill="#000000" font-family="sans-serif" font-size="14" lengthAdjust="spacing" textLength="76" x="36" y="697.3467">DataRobot</text><line style="stroke:#181818;stroke-width:0.5;" x1="8" x2="114" y1="708.5" y2="708.5"/><line style="stroke:#181818;stroke-width:0.5;" x1="8" x2="114" y1="716.5" y2="716.5"/></g><!--link RobotController to RobotMapper--><g id="link_RobotController_RobotMapper"><path codeLine="21" d="M645.41,263.43 C656.03,274.45 662.32,287.65 659,303 C644.68,369.3 633.28,385.34 596,442 C583.2,461.46 570.5661,476.5034 555.2361,492.6134 " fill="none" id="RobotController-to-RobotMapper" style="stroke:#181818;stroke-width:1.0;"/><polygon fill="#181818" points="551.1,496.96,560.2019,493.1976,554.5468,493.3379,554.4065,487.6828,551.1,496.96" style="stroke:#181818;stroke-width:1.0;"/><text fill="#000000" font-family="sans-serif" font-size="13" lengthAdjust="spacing" textLength="30" x="658" y="390.5814">uses</text></g><!--link RobotService to RobotMapper--><g id="link_RobotService_RobotMapper"><path codeLine="31" d="M488.66,418.34 C492.79,441.2 497.3435,466.4456 501.7835,491.0256 " fill="none" id="RobotService-to-RobotMapper" style="stroke:#181818;stroke-width:1.0;"/><polygon fill="#181818" points="502.85,496.93,505.1865,487.3623,501.9612,492.0096,497.3139,488.7844,502.85,496.93" style="stroke:#181818;stroke-width:1.0;"/><text fill="#000000" font-family="sans-serif" font-size="13" lengthAdjust="spacing" textLength="30" x="498" y="463.0814">uses</text></g><!--link RouteRobot to IRobotController--><g id="link_RouteRobot_IRobotController"><path codeLine="69" d="M354.04,89.13 C358.71,115.82 365.3551,153.9099 370.5451,183.5499 " fill="none" id="RouteRobot-to-IRobotController" style="stroke:#181818;stroke-width:1.0;stroke-dasharray:7.0,7.0;"/><polygon fill="#181818" points="371.58,189.46,373.9678,179.905,370.7176,184.5349,366.0877,181.2848,371.58,189.46" style="stroke:#181818;stroke-width:1.0;"/></g><!--link RobotController to IRobotController--><g id="link_RobotController_IRobotController"><path codeLine="70" d="M488.74,221.5 C477.1,221.5 483.46,221.5 471.82,221.5 " fill="none" id="RobotController-to-IRobotController" style="stroke:#181818;stroke-width:1.0;"/><polygon fill="none" points="453.82,221.5,471.82,227.5,471.82,215.5,453.82,221.5" style="stroke:#181818;stroke-width:1.0;"/></g><!--link RobotController to RobotService--><g id="link_RobotController_RobotService"><path codeLine="71" d="M542.25,270.38 C528.31,297.34 514.0652,324.91 501.8552,348.53 " fill="none" id="RobotController-to-RobotService" style="stroke:#181818;stroke-width:1.0;stroke-dasharray:7.0,7.0;"/><polygon fill="#181818" points="499.1,353.86,506.7862,347.7019,501.396,349.4184,499.6796,344.0282,499.1,353.86" style="stroke:#181818;stroke-width:1.0;"/></g><!--link RobotService to Robot--><g id="link_RobotService_Robot"><path codeLine="72" d="M464.72,418.25 C452.89,439.74 438.06,469.3 429,497 C411.02,551.98 402.051,612.5076 397.391,653.9176 " fill="none" id="RobotService-to-Robot" style="stroke:#181818;stroke-width:1.0;stroke-dasharray:7.0,7.0;"/><polygon fill="#181818" points="396.72,659.88,401.7014,651.3838,397.2791,654.9114,393.7515,650.4891,396.72,659.88" style="stroke:#181818;stroke-width:1.0;"/></g><!--link RobotService to IRobotRepo--><g id="link_RobotService_IRobotRepo"><path codeLine="73" d="M386.49,386 C374.86,386 369.22,386 357.59,386 " fill="none" id="RobotService-to-IRobotRepo" style="stroke:#181818;stroke-width:1.0;stroke-dasharray:7.0,7.0;"/><polygon fill="#181818" points="351.59,386,360.59,390,356.59,386,360.59,382,351.59,386" style="stroke:#181818;stroke-width:1.0;"/></g><!--reverse link RobotRepo to IRobotRepo--><g id="link_RobotRepo_IRobotRepo"><path codeLine="74" d="M228.9542,259.1605 C243.8242,287.9405 262.99,325.02 277.85,353.76 " fill="none" id="RobotRepo-backto-IRobotRepo" style="stroke:#181818;stroke-width:1.0;stroke-dasharray:7.0,7.0;"/><polygon fill="#181818" points="226.2,253.83,226.7776,263.6619,228.4951,258.2721,233.8849,259.9897,226.2,253.83" style="stroke:#181818;stroke-width:1.0;"/></g><!--reverse link dbDriver to RobotRepo--><g id="link_dbDriver_RobotRepo"><path codeLine="75" d="M210,95.13 C210,121.82 210,159.82 210,189.46 " fill="none" id="dbDriver-backto-RobotRepo" style="stroke:#181818;stroke-width:1.0;stroke-dasharray:7.0,7.0;"/><polygon fill="#181818" points="210,89.13,206,98.13,210,94.13,214,98.13,210,89.13" style="stroke:#181818;stroke-width:1.0;"/></g><!--link RobotMapper to RobotDTO--><g id="link_RobotMapper_RobotDTO"><path codeLine="77" d="M552.68,578.05 C568.56,590.33 587.48,602.37 607,609 C639.31,619.97 882.13,604.81 914,617 C929.9,623.08 940.3525,629.1875 953.7125,640.0375 " fill="none" id="RobotMapper-to-RobotDTO" style="stroke:#181818;stroke-width:1.0;stroke-dasharray:7.0,7.0;"/><polygon fill="#181818" points="958.37,643.82,953.9054,635.0412,954.4887,640.6679,948.862,641.2513,958.37,643.82" style="stroke:#181818;stroke-width:1.0;"/></g><!--link RobotMapper to Robot--><g id="link_RobotMapper_Robot"><path codeLine="78" d="M488.61,578.03 C482.6,588.33 475.84,599.27 469,609 C456.85,626.29 446.0791,639.7682 432.8791,655.1382 " fill="none" id="RobotMapper-to-Robot" style="stroke:#181818;stroke-width:1.0;stroke-dasharray:7.0,7.0;"/><polygon fill="#181818" points="428.97,659.69,437.8682,655.4684,432.2276,655.8969,431.7992,650.2562,428.97,659.69" style="stroke:#181818;stroke-width:1.0;"/></g><!--link RobotMapper to DataRobot--><g id="link_RobotMapper_DataRobot"><path codeLine="79" d="M445.77,539.28 C366.51,542.94 230.1,558.18 131,617 C106.77,631.38 90.1667,652.1972 77.8667,671.1472 " fill="none" id="RobotMapper-to-DataRobot" style="stroke:#181818;stroke-width:1.0;stroke-dasharray:7.0,7.0;"/><polygon fill="#181818" points="74.6,676.18,82.8552,670.8086,77.3222,671.986,76.1448,666.453,74.6,676.18" style="stroke:#181818;stroke-width:1.0;"/></g><!--link dbDriver to DataRobot--><g id="link_dbDriver_DataRobot"><path codeLine="81" d="M176.22,89.02 C141.04,116.02 91,164.3 91,220.5 C91,220.5 91,220.5 91,538.5 C91,588.26 78.6271,639.4505 69.7571,670.5205 " fill="none" id="dbDriver-to-DataRobot" style="stroke:#181818;stroke-width:1.0;stroke-dasharray:7.0,7.0;"/><polygon fill="#181818" points="68.11,676.29,74.427,668.7338,69.4826,671.4821,66.7343,666.5377,68.11,676.29" style="stroke:#181818;stroke-width:1.0;"/></g><!--link RobotRepo to Robot--><g id="link_RobotRepo_Robot"><path codeLine="82" d="M206.26,253.62 C202.19,297.04 198.79,377.7 220,442 C248.34,527.93 310.0334,607.4594 351.8134,655.0894 " fill="none" id="RobotRepo-to-Robot" style="stroke:#181818;stroke-width:1.0;stroke-dasharray:7.0,7.0;"/><polygon fill="#181818" points="355.77,659.6,352.8422,650.1964,352.4728,655.8412,346.8281,655.4718,355.77,659.6" style="stroke:#181818;stroke-width:1.0;"/></g><!--link RobotRepo to RobotDTO--><g id="link_RobotRepo_RobotDTO"><path codeLine="83" d="M232.78,253.6 C245.68,268.63 263.19,285.28 283,294 C346.76,322.06 538.55,271.61 596,311 C648.67,347.1 613.87,393.16 655,442 C744.48,548.27 803.36,532.98 914,617 C925.09,625.42 931.9869,630.8634 943.0369,640.0534 " fill="none" id="RobotRepo-to-RobotDTO" style="stroke:#181818;stroke-width:1.0;stroke-dasharray:7.0,7.0;"/><polygon fill="#181818" points="947.65,643.89,943.2881,635.0597,943.8058,640.6928,938.1726,641.2105,947.65,643.89" style="stroke:#181818;stroke-width:1.0;"/></g><!--reverse link Robot to RobotCode--><g id="link_Robot_RobotCode"><path codeLine="85" d="M342.8467,745.2121 C315.9167,768.6821 286.47,794.35 259.55,817.8 " fill="none" id="Robot-backto-RobotCode" style="stroke:#181818;stroke-width:1.0;"/><polygon fill="#181818" points="347.37,741.27,337.957,744.1676,343.6006,744.5551,343.2132,750.1987,347.37,741.27" style="stroke:#181818;stroke-width:1.0;"/></g><!--reverse link Robot to RobotName--><g id="link_Robot_RobotName"><path codeLine="86" d="M390.9493,747.2639 C389.8893,770.7339 388.83,794.35 387.78,817.8 " fill="none" id="Robot-backto-RobotName" style="stroke:#181818;stroke-width:1.0;"/><polygon fill="#181818" points="391.22,741.27,386.818,750.0804,390.9944,746.2649,394.8099,750.4413,391.22,741.27" style="stroke:#181818;stroke-width:1.0;"/></g><!--reverse link Robot to RobotDescription--><g id="link_Robot_RobotDescription"><path codeLine="87" d="M445.2777,745.113 C473.4177,768.583 504.3,794.35 532.42,817.8 " fill="none" id="Robot-backto-RobotDescription" style="stroke:#181818;stroke-width:1.0;"/><polygon fill="#181818" points="440.67,741.27,445.0195,750.1064,444.5098,744.4725,450.1436,743.9627,440.67,741.27" style="stroke:#181818;stroke-width:1.0;"/></g><!--reverse link Robot to RobotSerialNumber--><g id="link_Robot_RobotSerialNumber"><path codeLine="88" d="M468.2744,730.2826 C534.5044,755.6026 629.14,791.79 703.33,820.16 " fill="none" id="Robot-backto-RobotSerialNumber" style="stroke:#181818;stroke-width:1.0;"/><polygon fill="#181818" points="462.67,728.14,469.6482,735.0901,467.3403,729.9255,472.505,727.6176,462.67,728.14" style="stroke:#181818;stroke-width:1.0;"/></g><!--SRC=[bLJBJiCm4BpdAwoUKg64EqALgbP8HRH81JvWconLQ1fRjXE4IlyTEm_NTf82FKJgZ7TsFRjU1ia1zaWc3noE-4dvGH0eKhBaMOLSa2VuGZuXv1GGzKjo489iQIbnItTKajFPmjDT4wNHSn2mJdfLIEJla22Pfy2aaHL6DpCdLhNkWXQIqppNMlK1_Rj9E4AREFmGj9ZMrDcfR2mu6WwkgGhoB5Naeu9zRey5SXs8ubhEBJ9gPnDGONjIEU6N5KMp9cmDZAd_TwGKA2p7vepbMG8oemLvGLvb2OhRDu5a0UhJ8Se-hozAiYN7hixrT_dwRD_3Tt_eCatWrDp9oVNhVTOqnNmoKAtTtZrAtXYLOZZjunireE5eprFdoaRegdnFHgVeoMZmVzKiKIGyOtNxV3MBwujQv9YsyZo3V5CUT-vySv_igzjiU6cb9Txshv6D95M3Oasz1a12DmfEf3hPXRdUUnuEcp1GVQUkCvfT4-YtP9PFdCQptiBeFxRlFnogfUoPTWVyGdiuDnNeHnDOxoSkkv2QyOXkLRQxeVKzxaAKcyD43pNs185PlovkPNPLN4odR71o7qMNL-LZTISzp6wdHpaz3Nu0]--></g></svg>