<?xml version="1.0" encoding="us-ascii" standalone="no"?><svg xmlns="http://www.w3.org/2000/svg" xmlns:xlink="http://www.w3.org/1999/xlink" contentStyleType="text/css" height="183px" preserveAspectRatio="none" style="width:159px;height:183px;background:#FFFFFF;" version="1.1" viewBox="0 0 159 183" width="159px" zoomAndPan="magnify"><defs/><g><!--entity FleetManager--><g id="elem_FleetManager"><ellipse cx="80" cy="22" fill="#F1F1F1" rx="16" ry="16" style="stroke:#181818;stroke-width:1.5;"/><path d="M80,42 C84,42 87,42 91,38 C99,38 107,46 107,54 L107,58 C107,62 103,66 99,66 L61,66 C57,66 53,62 53,58 L53,54 C53,46 61,38 69,38 C73,42 76,42 80,42 " fill="#F1F1F1" style="stroke:#181818;stroke-width:1.5;"/><text fill="#000000" font-family="sans-serif" font-size="14" lengthAdjust="spacing" textLength="98" x="31" y="80.4951">FleetManager</text></g><g id="elem_Use"><ellipse cx="79.8343" cy="160.6669" fill="#F1F1F1" rx="73.8343" ry="17.1669" style="stroke:#181818;stroke-width:0.5;"/><text fill="#000000" font-family="sans-serif" font-size="14" lengthAdjust="spacing" textLength="103" x="25.3343" y="164.4144">Create a robot</text></g><!--link FleetManager to Use--><g id="link_FleetManager_Use"><path d="M80,83.76 C80,104.14 80,122.01 80,137.42 " fill="none" id="FleetManager-to-Use" style="stroke:#181818;stroke-width:1.0;"/><polygon fill="#181818" points="80,143.42,84,134.42,80,138.42,76,134.42,80,143.42" style="stroke:#181818;stroke-width:1.0;"/></g><!--SRC=[AyxEp2j8B4hCLKXCBial2Ywfp4bLI2nFBSxFJUMoSij9JItnJSnBJ4yjibBGrRLJq0WjJjNaub9oBafDB06gL2ZAJyelKL98B8PA0G00]--></g></svg>