<?xml version="1.0" encoding="us-ascii" standalone="no"?><svg xmlns="http://www.w3.org/2000/svg" xmlns:xlink="http://www.w3.org/1999/xlink" contentStyleType="text/css" height="804px" preserveAspectRatio="none" style="width:1465px;height:804px;background:#FFFFFF;" version="1.1" viewBox="0 0 1465 804" width="1465px" zoomAndPan="magnify"><defs/><g><rect fill="#FFFFFF" height="576.0371" style="stroke:#181818;stroke-width:1.0;" width="10" x="206.5" y="115.2871"/><rect fill="#FFFFFF" height="517.416" style="stroke:#181818;stroke-width:1.0;" width="10" x="358.5" y="144.5977"/><rect fill="#FFFFFF" height="28" style="stroke:#181818;stroke-width:1.0;" width="10" x="363.5" y="597.7031"/><rect fill="#FFFFFF" height="276.5527" style="stroke:#181818;stroke-width:1.0;" width="10" x="499.5" y="291.8398"/><rect fill="#FFFFFF" height="394.4844" style="stroke:#181818;stroke-width:1.0;" width="10" x="753.5" y="173.9082"/><rect fill="#FFFFFF" height="30" style="stroke:#181818;stroke-width:1.0;" width="10" x="857.5" y="345.4609"/><rect fill="#FFFFFF" height="30" style="stroke:#181818;stroke-width:1.0;" width="10" x="857.5" y="404.7715"/><rect fill="#FFFFFF" height="30" style="stroke:#181818;stroke-width:1.0;" width="10" x="857.5" y="464.082"/><rect fill="#FFFFFF" height="30" style="stroke:#181818;stroke-width:1.0;" width="10" x="857.5" y="523.3926"/><rect fill="#FFFFFF" height="59.3105" style="stroke:#181818;stroke-width:1.0;" width="10" x="1002.5" y="203.2188"/><rect fill="#FFFFFF" height="30" style="stroke:#181818;stroke-width:1.0;" width="10" x="1418" y="232.5293"/><rect fill="none" height="254.5527" style="stroke:#000000;stroke-width:1.5;" width="474" x="433.5" y="306.8398"/><line style="stroke:#181818;stroke-width:0.5;stroke-dasharray:5.0,5.0;" x1="29" x2="29" y1="83.9766" y2="709.3242"/><line style="stroke:#181818;stroke-width:0.5;stroke-dasharray:5.0,5.0;" x1="211.5" x2="211.5" y1="83.9766" y2="709.3242"/><line style="stroke:#181818;stroke-width:0.5;stroke-dasharray:5.0,5.0;" x1="363.5" x2="363.5" y1="83.9766" y2="709.3242"/><line style="stroke:#181818;stroke-width:0.5;stroke-dasharray:5.0,5.0;" x1="504.5" x2="504.5" y1="83.9766" y2="709.3242"/><line style="stroke:#181818;stroke-width:0.5;stroke-dasharray:5.0,5.0;" x1="625.5" x2="625.5" y1="83.9766" y2="709.3242"/><line style="stroke:#181818;stroke-width:0.5;stroke-dasharray:5.0,5.0;" x1="758.5" x2="758.5" y1="83.9766" y2="709.3242"/><line style="stroke:#181818;stroke-width:0.5;stroke-dasharray:5.0,5.0;" x1="862.5" x2="862.5" y1="83.9766" y2="709.3242"/><line style="stroke:#181818;stroke-width:0.5;stroke-dasharray:5.0,5.0;" x1="1007.5" x2="1007.5" y1="83.9766" y2="709.3242"/><line style="stroke:#181818;stroke-width:0.5;stroke-dasharray:5.0,5.0;" x1="1177.5" x2="1177.5" y1="83.9766" y2="709.3242"/><line style="stroke:#181818;stroke-width:0.5;stroke-dasharray:5.0,5.0;" x1="1309.5" x2="1309.5" y1="83.9766" y2="709.3242"/><line style="stroke:#181818;stroke-width:0.5;stroke-dasharray:5.0,5.0;" x1="1422.5" x2="1422.5" y1="83.9766" y2="709.3242"/><text fill="#000000" font-family="sans-serif" font-size="14" lengthAdjust="spacing" textLength="9" x="22" y="81.0234">X</text><path d="M9,39.4883 L9,63.4883 M9,51.4883 L26,51.4883 " fill="none" style="stroke:#181818;stroke-width:0.5;"/><ellipse cx="38" cy="51.4883" fill="#E2E2F0" rx="12" ry="12" style="stroke:#181818;stroke-width:0.5;"/><text fill="#000000" font-family="sans-serif" font-size="14" lengthAdjust="spacing" textLength="9" x="22" y="721.8594">X</text><path d="M9,728.8125 L9,752.8125 M9,740.8125 L26,740.8125 " fill="none" style="stroke:#181818;stroke-width:0.5;"/><ellipse cx="38" cy="740.8125" fill="#E2E2F0" rx="12" ry="12" style="stroke:#181818;stroke-width:0.5;"/><rect fill="#E2E2F0" height="30.4883" rx="2.5" ry="2.5" style="stroke:#181818;stroke-width:0.5;" width="114" x="154.5" y="52.4883"/><text fill="#000000" font-family="sans-serif" font-size="14" lengthAdjust="spacing" textLength="100" x="161.5" y="73.0234">:RouteBuilding</text><rect fill="#E2E2F0" height="30.4883" rx="2.5" ry="2.5" style="stroke:#181818;stroke-width:0.5;" width="114" x="154.5" y="708.3242"/><text fill="#000000" font-family="sans-serif" font-size="14" lengthAdjust="spacing" textLength="100" x="161.5" y="728.8594">:RouteBuilding</text><rect fill="#E2E2F0" height="46.9766" rx="2.5" ry="2.5" style="stroke:#181818;stroke-width:0.5;" width="140" x="293.5" y="36"/><text fill="#000000" font-family="sans-serif" font-size="14" lengthAdjust="spacing" textLength="126" x="300.5" y="56.5352">BuildingController</text><text fill="#000000" font-family="sans-serif" font-size="14" lengthAdjust="spacing" textLength="84" x="321.5" y="73.0234">&#171;Controller&#187;</text><rect fill="#E2E2F0" height="46.9766" rx="2.5" ry="2.5" style="stroke:#181818;stroke-width:0.5;" width="140" x="293.5" y="708.3242"/><text fill="#000000" font-family="sans-serif" font-size="14" lengthAdjust="spacing" textLength="126" x="300.5" y="728.8594">BuildingController</text><text fill="#000000" font-family="sans-serif" font-size="14" lengthAdjust="spacing" textLength="84" x="321.5" y="745.3477">&#171;Controller&#187;</text><rect fill="#E2E2F0" height="46.9766" rx="2.5" ry="2.5" style="stroke:#181818;stroke-width:0.5;" width="122" x="443.5" y="36"/><text fill="#000000" font-family="sans-serif" font-size="14" lengthAdjust="spacing" textLength="108" x="450.5" y="56.5352">BuildingMapper</text><text fill="#000000" font-family="sans-serif" font-size="14" lengthAdjust="spacing" textLength="82" x="463.5" y="73.0234">&#171;Json2DTO&#187;</text><rect fill="#E2E2F0" height="46.9766" rx="2.5" ry="2.5" style="stroke:#181818;stroke-width:0.5;" width="122" x="443.5" y="708.3242"/><text fill="#000000" font-family="sans-serif" font-size="14" lengthAdjust="spacing" textLength="108" x="450.5" y="728.8594">BuildingMapper</text><text fill="#000000" font-family="sans-serif" font-size="14" lengthAdjust="spacing" textLength="82" x="463.5" y="745.3477">&#171;Json2DTO&#187;</text><rect fill="#E2E2F0" height="46.9766" rx="2.5" ry="2.5" style="stroke:#181818;stroke-width:0.5;" width="100" x="575.5" y="36"/><text fill="#000000" font-family="sans-serif" font-size="14" lengthAdjust="spacing" textLength="86" x="582.5" y="56.5352">BuildingDTO</text><text fill="#000000" font-family="sans-serif" font-size="14" lengthAdjust="spacing" textLength="44" x="603.5" y="73.0234">&#171;DTO&#187;</text><rect fill="#E2E2F0" height="46.9766" rx="2.5" ry="2.5" style="stroke:#181818;stroke-width:0.5;" width="100" x="575.5" y="708.3242"/><text fill="#000000" font-family="sans-serif" font-size="14" lengthAdjust="spacing" textLength="86" x="582.5" y="728.8594">BuildingDTO</text><text fill="#000000" font-family="sans-serif" font-size="14" lengthAdjust="spacing" textLength="44" x="603.5" y="745.3477">&#171;DTO&#187;</text><rect fill="#E2E2F0" height="46.9766" rx="2.5" ry="2.5" style="stroke:#181818;stroke-width:0.5;" width="118" x="699.5" y="36"/><text fill="#000000" font-family="sans-serif" font-size="14" lengthAdjust="spacing" textLength="104" x="706.5" y="56.5352">BuildingService</text><text fill="#000000" font-family="sans-serif" font-size="14" lengthAdjust="spacing" textLength="62" x="727.5" y="73.0234">&#171;Service&#187;</text><rect fill="#E2E2F0" height="46.9766" rx="2.5" ry="2.5" style="stroke:#181818;stroke-width:0.5;" width="118" x="699.5" y="708.3242"/><text fill="#000000" font-family="sans-serif" font-size="14" lengthAdjust="spacing" textLength="104" x="706.5" y="728.8594">BuildingService</text><text fill="#000000" font-family="sans-serif" font-size="14" lengthAdjust="spacing" textLength="62" x="727.5" y="745.3477">&#171;Service&#187;</text><rect fill="#E2E2F0" height="46.9766" rx="2.5" ry="2.5" style="stroke:#181818;stroke-width:0.5;" width="70" x="827.5" y="36"/><text fill="#000000" font-family="sans-serif" font-size="14" lengthAdjust="spacing" textLength="56" x="834.5" y="56.5352">Building</text><text fill="#000000" font-family="sans-serif" font-size="14" lengthAdjust="spacing" textLength="52" x="836.5" y="73.0234">&#171;Entity&#187;</text><rect fill="#E2E2F0" height="46.9766" rx="2.5" ry="2.5" style="stroke:#181818;stroke-width:0.5;" width="70" x="827.5" y="708.3242"/><text fill="#000000" font-family="sans-serif" font-size="14" lengthAdjust="spacing" textLength="56" x="834.5" y="728.8594">Building</text><text fill="#000000" font-family="sans-serif" font-size="14" lengthAdjust="spacing" textLength="52" x="836.5" y="745.3477">&#171;Entity&#187;</text><rect fill="#E2E2F0" height="46.9766" rx="2.5" ry="2.5" style="stroke:#181818;stroke-width:0.5;" width="200" x="907.5" y="36"/><text fill="#000000" font-family="sans-serif" font-size="14" lengthAdjust="spacing" textLength="91" x="962" y="56.5352">BuildingRepo</text><text fill="#000000" font-family="sans-serif" font-size="14" lengthAdjust="spacing" textLength="186" x="914.5" y="73.0234">:IBuildingRepo&#171;Repository&#187;</text><rect fill="#E2E2F0" height="46.9766" rx="2.5" ry="2.5" style="stroke:#181818;stroke-width:0.5;" width="200" x="907.5" y="708.3242"/><text fill="#000000" font-family="sans-serif" font-size="14" lengthAdjust="spacing" textLength="91" x="962" y="728.8594">BuildingRepo</text><text fill="#000000" font-family="sans-serif" font-size="14" lengthAdjust="spacing" textLength="186" x="914.5" y="745.3477">:IBuildingRepo&#171;Repository&#187;</text><rect fill="#E2E2F0" height="46.9766" rx="2.5" ry="2.5" style="stroke:#181818;stroke-width:0.5;" width="121" x="1117.5" y="36"/><text fill="#000000" font-family="sans-serif" font-size="14" lengthAdjust="spacing" textLength="85" x="1135.5" y="56.5352">BuildingMap</text><text fill="#000000" font-family="sans-serif" font-size="14" lengthAdjust="spacing" textLength="107" x="1124.5" y="73.0234">&#171;Domain2Data&#187;</text><rect fill="#E2E2F0" height="46.9766" rx="2.5" ry="2.5" style="stroke:#181818;stroke-width:0.5;" width="121" x="1117.5" y="708.3242"/><text fill="#000000" font-family="sans-serif" font-size="14" lengthAdjust="spacing" textLength="85" x="1135.5" y="728.8594">BuildingMap</text><text fill="#000000" font-family="sans-serif" font-size="14" lengthAdjust="spacing" textLength="107" x="1124.5" y="745.3477">&#171;Domain2Data&#187;</text><rect fill="#E2E2F0" height="46.9766" rx="2.5" ry="2.5" style="stroke:#181818;stroke-width:0.5;" width="123" x="1248.5" y="36"/><text fill="#000000" font-family="sans-serif" font-size="14" lengthAdjust="spacing" textLength="109" x="1255.5" y="56.5352">DataBuilding&lt;&lt;</text><text fill="#000000" font-family="sans-serif" font-size="14" lengthAdjust="spacing" textLength="45" x="1287.5" y="73.0234">&#171;Data&#187;</text><rect fill="#E2E2F0" height="46.9766" rx="2.5" ry="2.5" style="stroke:#181818;stroke-width:0.5;" width="123" x="1248.5" y="708.3242"/><text fill="#000000" font-family="sans-serif" font-size="14" lengthAdjust="spacing" textLength="109" x="1255.5" y="728.8594">DataBuilding&lt;&lt;</text><text fill="#000000" font-family="sans-serif" font-size="14" lengthAdjust="spacing" textLength="45" x="1287.5" y="745.3477">&#171;Data&#187;</text><text fill="#000000" font-family="sans-serif" font-size="14" lengthAdjust="spacing" textLength="59" x="1390.5" y="64.5352">dbDriver</text><text fill="#000000" font-family="sans-serif" font-size="14" lengthAdjust="spacing" textLength="77" x="1381.5" y="81.0234">&#171;Database&#187;</text><path d="M1405,15 C1405,5 1423,5 1423,5 C1423,5 1441,5 1441,15 L1441,41 C1441,51 1423,51 1423,51 C1423,51 1405,51 1405,41 L1405,15 " fill="#E2E2F0" style="stroke:#181818;stroke-width:1.5;"/><path d="M1405,15 C1405,25 1423,25 1423,25 C1423,25 1441,25 1441,15 " fill="none" style="stroke:#181818;stroke-width:1.5;"/><text fill="#000000" font-family="sans-serif" font-size="14" lengthAdjust="spacing" textLength="59" x="1390.5" y="721.8594">dbDriver</text><text fill="#000000" font-family="sans-serif" font-size="14" lengthAdjust="spacing" textLength="77" x="1381.5" y="738.3477">&#171;Database&#187;</text><path d="M1405,751.3008 C1405,741.3008 1423,741.3008 1423,741.3008 C1423,741.3008 1441,741.3008 1441,751.3008 L1441,777.3008 C1441,787.3008 1423,787.3008 1423,787.3008 C1423,787.3008 1405,787.3008 1405,777.3008 L1405,751.3008 " fill="#E2E2F0" style="stroke:#181818;stroke-width:1.5;"/><path d="M1405,751.3008 C1405,761.3008 1423,761.3008 1423,761.3008 C1423,761.3008 1441,761.3008 1441,751.3008 " fill="none" style="stroke:#181818;stroke-width:1.5;"/><rect fill="#FFFFFF" height="576.0371" style="stroke:#181818;stroke-width:1.0;" width="10" x="206.5" y="115.2871"/><rect fill="#FFFFFF" height="517.416" style="stroke:#181818;stroke-width:1.0;" width="10" x="358.5" y="144.5977"/><rect fill="#FFFFFF" height="28" style="stroke:#181818;stroke-width:1.0;" width="10" x="363.5" y="597.7031"/><rect fill="#FFFFFF" height="276.5527" style="stroke:#181818;stroke-width:1.0;" width="10" x="499.5" y="291.8398"/><rect fill="#FFFFFF" height="394.4844" style="stroke:#181818;stroke-width:1.0;" width="10" x="753.5" y="173.9082"/><rect fill="#FFFFFF" height="30" style="stroke:#181818;stroke-width:1.0;" width="10" x="857.5" y="345.4609"/><rect fill="#FFFFFF" height="30" style="stroke:#181818;stroke-width:1.0;" width="10" x="857.5" y="404.7715"/><rect fill="#FFFFFF" height="30" style="stroke:#181818;stroke-width:1.0;" width="10" x="857.5" y="464.082"/><rect fill="#FFFFFF" height="30" style="stroke:#181818;stroke-width:1.0;" width="10" x="857.5" y="523.3926"/><rect fill="#FFFFFF" height="59.3105" style="stroke:#181818;stroke-width:1.0;" width="10" x="1002.5" y="203.2188"/><rect fill="#FFFFFF" height="30" style="stroke:#181818;stroke-width:1.0;" width="10" x="1418" y="232.5293"/><polygon fill="#181818" points="194.5,111.2871,204.5,115.2871,194.5,119.2871,198.5,115.2871" style="stroke:#181818;stroke-width:1.0;"/><line style="stroke:#181818;stroke-width:1.0;" x1="29.5" x2="200.5" y1="115.2871" y2="115.2871"/><text fill="#000000" font-family="sans-serif" font-size="13" lengthAdjust="spacing" textLength="158" x="36.5" y="110.5449">GET /buildings/all/(json)</text><polygon fill="#181818" points="346.5,140.5977,356.5,144.5977,346.5,148.5977,350.5,144.5977" style="stroke:#181818;stroke-width:1.0;"/><line style="stroke:#181818;stroke-width:1.0;" x1="216.5" x2="352.5" y1="144.5977" y2="144.5977"/><text fill="#000000" font-family="sans-serif" font-size="13" lengthAdjust="spacing" textLength="123" x="223.5" y="139.8555">getAllBuilding(json)</text><polygon fill="#181818" points="741.5,169.9082,751.5,173.9082,741.5,177.9082,745.5,173.9082" style="stroke:#181818;stroke-width:1.0;"/><line style="stroke:#181818;stroke-width:1.0;" x1="368.5" x2="747.5" y1="173.9082" y2="173.9082"/><text fill="#000000" font-family="sans-serif" font-size="13" lengthAdjust="spacing" textLength="274" x="375.5" y="169.166">buildingDTO = getAllBuilding(buildingDTO)</text><polygon fill="#181818" points="990.5,199.2188,1000.5,203.2188,990.5,207.2188,994.5,203.2188" style="stroke:#181818;stroke-width:1.0;"/><line style="stroke:#181818;stroke-width:1.0;" x1="763.5" x2="996.5" y1="203.2188" y2="203.2188"/><text fill="#000000" font-family="sans-serif" font-size="13" lengthAdjust="spacing" textLength="96" x="770.5" y="198.4766">getAllBuilding()</text><polygon fill="#181818" points="1406,228.5293,1416,232.5293,1406,236.5293,1410,232.5293" style="stroke:#181818;stroke-width:1.0;"/><line style="stroke:#181818;stroke-width:1.0;" x1="1012.5" x2="1412" y1="232.5293" y2="232.5293"/><text fill="#000000" font-family="sans-serif" font-size="13" lengthAdjust="spacing" textLength="96" x="1019.5" y="227.7871">getAllBuilding()</text><polygon fill="#181818" points="520.5,287.8398,510.5,291.8398,520.5,295.8398,516.5,291.8398" style="stroke:#181818;stroke-width:1.0;"/><line style="stroke:#181818;stroke-width:1.0;" x1="514.5" x2="752.5" y1="291.8398" y2="291.8398"/><text fill="#000000" font-family="sans-serif" font-size="13" lengthAdjust="spacing" textLength="225" x="526.5" y="287.0977">iBuildingDTO[] = toDTO(buildings[])</text><path d="M433.5,306.8398 L507.5,306.8398 L507.5,314.1504 L497.5,324.1504 L433.5,324.1504 L433.5,306.8398 " fill="#EEEEEE" style="stroke:#000000;stroke-width:1.5;"/><rect fill="none" height="254.5527" style="stroke:#000000;stroke-width:1.5;" width="474" x="433.5" y="306.8398"/><text fill="#000000" font-family="sans-serif" font-size="13" font-weight="bold" lengthAdjust="spacing" textLength="29" x="448.5" y="320.4082">loop</text><text fill="#000000" font-family="sans-serif" font-size="11" font-weight="bold" lengthAdjust="spacing" textLength="127" x="522.5" y="319.4746">[(while data available)]</text><polygon fill="#181818" points="845.5,341.4609,855.5,345.4609,845.5,349.4609,849.5,345.4609" style="stroke:#181818;stroke-width:1.0;"/><line style="stroke:#181818;stroke-width:1.0;" x1="509.5" x2="851.5" y1="345.4609" y2="345.4609"/><text fill="#000000" font-family="sans-serif" font-size="13" lengthAdjust="spacing" textLength="213" x="516.5" y="340.7188">buildingCode = getBuildingCode()</text><polygon fill="#181818" points="845.5,400.7715,855.5,404.7715,845.5,408.7715,849.5,404.7715" style="stroke:#181818;stroke-width:1.0;"/><line style="stroke:#181818;stroke-width:1.0;" x1="509.5" x2="851.5" y1="404.7715" y2="404.7715"/><text fill="#000000" font-family="sans-serif" font-size="13" lengthAdjust="spacing" textLength="221" x="516.5" y="400.0293">buildingName = getBuildingName()</text><polygon fill="#181818" points="845.5,460.082,855.5,464.082,845.5,468.082,849.5,464.082" style="stroke:#181818;stroke-width:1.0;"/><line style="stroke:#181818;stroke-width:1.0;" x1="509.5" x2="851.5" y1="464.082" y2="464.082"/><text fill="#000000" font-family="sans-serif" font-size="13" lengthAdjust="spacing" textLength="295" x="516.5" y="459.3398">buildingDescription = getBuildingDescription()</text><polygon fill="#181818" points="845.5,519.3926,855.5,523.3926,845.5,527.3926,849.5,523.3926" style="stroke:#181818;stroke-width:1.0;"/><line style="stroke:#181818;stroke-width:1.0;" x1="509.5" x2="851.5" y1="523.3926" y2="523.3926"/><text fill="#000000" font-family="sans-serif" font-size="13" lengthAdjust="spacing" textLength="199" x="516.5" y="518.6504">buildingSize = getBuildingSize()</text><line style="stroke:#181818;stroke-width:1.0;" x1="373.5" x2="415.5" y1="589.7031" y2="589.7031"/><line style="stroke:#181818;stroke-width:1.0;" x1="415.5" x2="415.5" y1="589.7031" y2="602.7031"/><line style="stroke:#181818;stroke-width:1.0;" x1="374.5" x2="415.5" y1="602.7031" y2="602.7031"/><polygon fill="#181818" points="384.5,598.7031,374.5,602.7031,384.5,606.7031,380.5,602.7031" style="stroke:#181818;stroke-width:1.0;"/><text fill="#000000" font-family="sans-serif" font-size="13" lengthAdjust="spacing" textLength="111" x="380.5" y="584.9609">generateRes(json)</text><polygon fill="#181818" points="227.5,658.0137,217.5,662.0137,227.5,666.0137,223.5,662.0137" style="stroke:#181818;stroke-width:1.0;"/><line style="stroke:#181818;stroke-width:1.0;stroke-dasharray:2.0,2.0;" x1="221.5" x2="362.5" y1="662.0137" y2="662.0137"/><text fill="#000000" font-family="sans-serif" font-size="13" lengthAdjust="spacing" textLength="57" x="233.5" y="657.2715">response</text><polygon fill="#181818" points="40.5,687.3242,30.5,691.3242,40.5,695.3242,36.5,691.3242" style="stroke:#181818;stroke-width:1.0;"/><line style="stroke:#181818;stroke-width:1.0;" x1="34.5" x2="210.5" y1="691.3242" y2="691.3242"/><text fill="#000000" font-family="sans-serif" font-size="13" lengthAdjust="spacing" textLength="57" x="46.5" y="686.582">response</text><!--SRC=[lLHDJ-Cm4BtxLrWzmM5LYMCLAhLDX40BhTBigYlWu3GMU6Nio7QxOd_zZXqdiTEKFK4FbJtptijyUKfv41LHxtY7Qg8CsxEQ28CdirmU35qU6A-OU9bWed6-_b5aCQhrhwGmId9ErPD8alusdplcgiY_ZnFlILqtf3ijnLLQh3tbVh7PPFau2L2MqOFXD8xSKdLaUshH_kWPs_pdECD2Cs6OUVV8xA6uBNwDWtDQooSnkmtlIMB_DJDIjH9vjbcVJTzb8jy8W-o98L7wLp7B-bjcaZXYpqWNnG9LS2-9fdXIbQbYnwQqgRUso2L2E_njtZGKp_1DLk1fwONrb70-lVWDxRX4P6_OaHZgUzyGW6aR2iGNQXQSjo5v3ePVntETHyxcEC25qWErx7k9huT2WRFHYpHjxpghLREfG8bF0-h9aO3h1qAHqmc0KBhydqma1RKS-YhwaHUTWRgO1aarGm3ni63o7v-XNaR2gIkJVdmUAPD_GVtNk9GrllZpoZZ5Tb0mEHB6ISdfC47_OGYXcVwWNojPqQPXoy0oKg8W4l-4JX51_gEO3-9u86-3EApbw-D8gTuhLXicHHnEuFZwgBRixw0wrl89SL1HkRawDzQ38GmyzXM7Qw5RAO8gyETK1_laTAUCA4RsG3lOT8hgMWfDqJbgj-5s8JfyfsuH_WC0]--></g></svg>