<?xml version="1.0" encoding="us-ascii" standalone="no"?><svg xmlns="http://www.w3.org/2000/svg" xmlns:xlink="http://www.w3.org/1999/xlink" contentStyleType="text/css" height="1428px" preserveAspectRatio="none" style="width:2448px;height:1428px;background:#FFFFFF;" version="1.1" viewBox="0 0 2448 1428" width="2448px" zoomAndPan="magnify"><defs/><g><rect fill="#FFFFFF" height="1200.9523" style="stroke:#181818;stroke-width:1.0;" width="10" x="193.5" y="114.7448"/><rect fill="#FFFFFF" height="1142.6503" style="stroke:#181818;stroke-width:1.0;" width="10" x="370.5" y="143.8958"/><rect fill="#FFFFFF" height="28" style="stroke:#181818;stroke-width:1.0;" width="10" x="375.5" y="181.0468"/><rect fill="#FFFFFF" height="28" style="stroke:#181818;stroke-width:1.0;" width="10" x="375.5" y="1222.395"/><rect fill="#FFFFFF" height="29.151" style="stroke:#181818;stroke-width:1.0;" width="10" x="534" y="245.1978"/><rect fill="#FFFFFF" height="295.755" style="stroke:#181818;stroke-width:1.0;" width="10" x="534" y="889.489"/><rect fill="#FFFFFF" height="853.3015" style="stroke:#181818;stroke-width:1.0;" width="10" x="845" y="331.9425"/><rect fill="#FFFFFF" height="30" style="stroke:#181818;stroke-width:1.0;" width="10" x="1149.5" y="476.9893"/><rect fill="#FFFFFF" height="30" style="stroke:#181818;stroke-width:1.0;" width="10" x="1149.5" y="536.1403"/><rect fill="#FFFFFF" height="30" style="stroke:#181818;stroke-width:1.0;" width="10" x="1149.5" y="595.2913"/><rect fill="#FFFFFF" height="30" style="stroke:#181818;stroke-width:1.0;" width="10" x="1149.5" y="654.4423"/><rect fill="#FFFFFF" height="30" style="stroke:#181818;stroke-width:1.0;" width="10" x="1149.5" y="713.5933"/><rect fill="#FFFFFF" height="30" style="stroke:#181818;stroke-width:1.0;" width="10" x="1149.5" y="918.64"/><rect fill="#FFFFFF" height="30" style="stroke:#181818;stroke-width:1.0;" width="10" x="1149.5" y="977.791"/><rect fill="#FFFFFF" height="30" style="stroke:#181818;stroke-width:1.0;" width="10" x="1149.5" y="1036.942"/><rect fill="#FFFFFF" height="30" style="stroke:#181818;stroke-width:1.0;" width="10" x="1149.5" y="1096.093"/><rect fill="#FFFFFF" height="30" style="stroke:#181818;stroke-width:1.0;" width="10" x="1149.5" y="1155.244"/><rect fill="#FFFFFF" height="441.6508" style="stroke:#181818;stroke-width:1.0;" width="10" x="1320.5" y="418.6873"/><rect fill="#FFFFFF" height="324.906" style="stroke:#181818;stroke-width:1.0;" width="10" x="1587.5" y="447.8383"/><rect fill="#FFFFFF" height="30" style="stroke:#181818;stroke-width:1.0;" width="10" x="2396.5" y="830.338"/><line style="stroke:#181818;stroke-width:0.5;stroke-dasharray:5.0,5.0;" x1="29" x2="29" y1="83.5938" y2="1333.697"/><line style="stroke:#181818;stroke-width:0.5;stroke-dasharray:5.0,5.0;" x1="198.5" x2="198.5" y1="83.5938" y2="1333.697"/><line style="stroke:#181818;stroke-width:0.5;stroke-dasharray:5.0,5.0;" x1="375.5" x2="375.5" y1="83.5938" y2="1333.697"/><line style="stroke:#181818;stroke-width:0.5;stroke-dasharray:5.0,5.0;" x1="538.5" x2="538.5" y1="83.5938" y2="1333.697"/><line style="stroke:#181818;stroke-width:0.5;stroke-dasharray:5.0,5.0;" x1="707" x2="707" y1="291.9946" y2="1333.697"/><line style="stroke:#181818;stroke-width:0.5;stroke-dasharray:5.0,5.0;" x1="850" x2="850" y1="83.5938" y2="1333.697"/><line style="stroke:#181818;stroke-width:0.5;stroke-dasharray:5.0,5.0;" x1="1154" x2="1154" y1="378.7394" y2="1333.697"/><line style="stroke:#181818;stroke-width:0.5;stroke-dasharray:5.0,5.0;" x1="1325" x2="1325" y1="83.5938" y2="1333.697"/><line style="stroke:#181818;stroke-width:0.5;stroke-dasharray:5.0,5.0;" x1="1592" x2="1592" y1="83.5938" y2="1333.697"/><line style="stroke:#181818;stroke-width:0.5;stroke-dasharray:5.0,5.0;" x1="2270.5" x2="2270.5" y1="790.3901" y2="1333.697"/><line style="stroke:#181818;stroke-width:0.5;stroke-dasharray:5.0,5.0;" x1="2401.5" x2="2401.5" y1="83.5938" y2="1333.697"/><text fill="#000000" font-family="sans-serif" font-size="14" lengthAdjust="spacing" textLength="10" x="21.5" y="80.292">X</text><path d="M9,39.2969 L9,63.2969 M9,51.2969 L26,51.2969 " fill="none" style="stroke:#181818;stroke-width:0.5;"/><ellipse cx="38" cy="51.2969" fill="#E2E2F0" rx="12" ry="12" style="stroke:#181818;stroke-width:0.5;"/><text fill="#000000" font-family="sans-serif" font-size="14" lengthAdjust="spacing" textLength="10" x="21.5" y="1345.6921">X</text><path d="M9,1352.9939 L9,1376.9939 M9,1364.9939 L26,1364.9939 " fill="none" style="stroke:#181818;stroke-width:0.5;"/><ellipse cx="38" cy="1364.9939" fill="#E2E2F0" rx="12" ry="12" style="stroke:#181818;stroke-width:0.5;"/><rect fill="#E2E2F0" height="30.2969" rx="2.5" ry="2.5" style="stroke:#181818;stroke-width:0.5;" width="138" x="129.5" y="52.2969"/><text fill="#000000" font-family="sans-serif" font-size="14" lengthAdjust="spacing" textLength="124" x="136.5" y="72.292">:RouteRobotType</text><rect fill="#E2E2F0" height="30.2969" rx="2.5" ry="2.5" style="stroke:#181818;stroke-width:0.5;" width="138" x="129.5" y="1332.697"/><text fill="#000000" font-family="sans-serif" font-size="14" lengthAdjust="spacing" textLength="124" x="136.5" y="1352.6921">:RouteRobotType</text><rect fill="#E2E2F0" height="46.5938" rx="2.5" ry="2.5" style="stroke:#181818;stroke-width:0.5;" width="162" x="294.5" y="36"/><text fill="#000000" font-family="sans-serif" font-size="14" lengthAdjust="spacing" textLength="148" x="301.5" y="55.9951">RobotTypeController</text><text fill="#000000" font-family="sans-serif" font-size="14" lengthAdjust="spacing" textLength="89" x="331" y="72.292">&#171;Controller&#187;</text><rect fill="#E2E2F0" height="46.5938" rx="2.5" ry="2.5" style="stroke:#181818;stroke-width:0.5;" width="162" x="294.5" y="1332.697"/><text fill="#000000" font-family="sans-serif" font-size="14" lengthAdjust="spacing" textLength="148" x="301.5" y="1352.6921">RobotTypeController</text><text fill="#000000" font-family="sans-serif" font-size="14" lengthAdjust="spacing" textLength="89" x="331" y="1368.989">&#171;Controller&#187;</text><rect fill="#E2E2F0" height="46.5938" rx="2.5" ry="2.5" style="stroke:#181818;stroke-width:0.5;" width="145" x="466.5" y="36"/><text fill="#000000" font-family="sans-serif" font-size="14" lengthAdjust="spacing" textLength="131" x="473.5" y="55.9951">RobotTypeMapper</text><text fill="#000000" font-family="sans-serif" font-size="14" lengthAdjust="spacing" textLength="87" x="495.5" y="72.292">&#171;Json2DTO&#187;</text><rect fill="#E2E2F0" height="46.5938" rx="2.5" ry="2.5" style="stroke:#181818;stroke-width:0.5;" width="145" x="466.5" y="1332.697"/><text fill="#000000" font-family="sans-serif" font-size="14" lengthAdjust="spacing" textLength="131" x="473.5" y="1352.6921">RobotTypeMapper</text><text fill="#000000" font-family="sans-serif" font-size="14" lengthAdjust="spacing" textLength="87" x="495.5" y="1368.989">&#171;Json2DTO&#187;</text><rect fill="#E2E2F0" height="46.5938" rx="2.5" ry="2.5" style="stroke:#181818;stroke-width:0.5;" width="122" x="646" y="1332.697"/><text fill="#000000" font-family="sans-serif" font-size="14" lengthAdjust="spacing" textLength="108" x="653" y="1352.6921">RobotTypeDTO</text><text fill="#000000" font-family="sans-serif" font-size="14" lengthAdjust="spacing" textLength="49" x="682.5" y="1368.989">&#171;DTO&#187;</text><rect fill="#E2E2F0" height="46.5938" rx="2.5" ry="2.5" style="stroke:#181818;stroke-width:0.5;" width="144" x="778" y="36"/><text fill="#000000" font-family="sans-serif" font-size="14" lengthAdjust="spacing" textLength="130" x="785" y="55.9951">RobotTypeService</text><text fill="#000000" font-family="sans-serif" font-size="14" lengthAdjust="spacing" textLength="71" x="814.5" y="72.292">&#171;Service&#187;</text><rect fill="#E2E2F0" height="46.5938" rx="2.5" ry="2.5" style="stroke:#181818;stroke-width:0.5;" width="144" x="778" y="1332.697"/><text fill="#000000" font-family="sans-serif" font-size="14" lengthAdjust="spacing" textLength="130" x="785" y="1352.6921">RobotTypeService</text><text fill="#000000" font-family="sans-serif" font-size="14" lengthAdjust="spacing" textLength="71" x="814.5" y="1368.989">&#171;Service&#187;</text><rect fill="#E2E2F0" height="46.5938" rx="2.5" ry="2.5" style="stroke:#181818;stroke-width:0.5;" width="91" x="1109" y="1332.697"/><text fill="#000000" font-family="sans-serif" font-size="14" lengthAdjust="spacing" textLength="77" x="1116" y="1352.6921">RobotType</text><text fill="#000000" font-family="sans-serif" font-size="14" lengthAdjust="spacing" textLength="58" x="1125.5" y="1368.989">&#171;Entity&#187;</text><rect fill="#E2E2F0" height="46.5938" rx="2.5" ry="2.5" style="stroke:#181818;stroke-width:0.5;" width="231" x="1210" y="36"/><text fill="#000000" font-family="sans-serif" font-size="14" lengthAdjust="spacing" textLength="114" x="1268.5" y="55.9951">RobotTypeRepo</text><text fill="#000000" font-family="sans-serif" font-size="14" lengthAdjust="spacing" textLength="217" x="1217" y="72.292">:IRobotTypeRepo&#171;Repository&#187;</text><rect fill="#E2E2F0" height="46.5938" rx="2.5" ry="2.5" style="stroke:#181818;stroke-width:0.5;" width="231" x="1210" y="1332.697"/><text fill="#000000" font-family="sans-serif" font-size="14" lengthAdjust="spacing" textLength="114" x="1268.5" y="1352.6921">RobotTypeRepo</text><text fill="#000000" font-family="sans-serif" font-size="14" lengthAdjust="spacing" textLength="217" x="1217" y="1368.989">:IRobotTypeRepo&#171;Repository&#187;</text><rect fill="#E2E2F0" height="46.5938" rx="2.5" ry="2.5" style="stroke:#181818;stroke-width:0.5;" width="131" x="1527" y="36"/><text fill="#000000" font-family="sans-serif" font-size="14" lengthAdjust="spacing" textLength="107" x="1539" y="55.9951">RobotTypeMap</text><text fill="#000000" font-family="sans-serif" font-size="14" lengthAdjust="spacing" textLength="117" x="1534" y="72.292">&#171;Domain2Data&#187;</text><rect fill="#E2E2F0" height="46.5938" rx="2.5" ry="2.5" style="stroke:#181818;stroke-width:0.5;" width="131" x="1527" y="1332.697"/><text fill="#000000" font-family="sans-serif" font-size="14" lengthAdjust="spacing" textLength="107" x="1539" y="1352.6921">RobotTypeMap</text><text fill="#000000" font-family="sans-serif" font-size="14" lengthAdjust="spacing" textLength="117" x="1534" y="1368.989">&#171;Domain2Data&#187;</text><rect fill="#E2E2F0" height="46.5938" rx="2.5" ry="2.5" style="stroke:#181818;stroke-width:0.5;" width="149" x="2196.5" y="1332.697"/><text fill="#000000" font-family="sans-serif" font-size="14" lengthAdjust="spacing" textLength="135" x="2203.5" y="1352.6921">DataRobotType&lt;&lt;</text><text fill="#000000" font-family="sans-serif" font-size="14" lengthAdjust="spacing" textLength="52" x="2245" y="1368.989">&#171;Data&#187;</text><text fill="#000000" font-family="sans-serif" font-size="14" lengthAdjust="spacing" textLength="62" x="2367.5" y="63.9951">dbDriver</text><text fill="#000000" font-family="sans-serif" font-size="14" lengthAdjust="spacing" textLength="86" x="2355.5" y="80.292">&#171;Database&#187;</text><path d="M2383.5,15 C2383.5,5 2401.5,5 2401.5,5 C2401.5,5 2419.5,5 2419.5,15 L2419.5,41 C2419.5,51 2401.5,51 2401.5,51 C2401.5,51 2383.5,51 2383.5,41 L2383.5,15 " fill="#E2E2F0" style="stroke:#181818;stroke-width:1.5;"/><path d="M2383.5,15 C2383.5,25 2401.5,25 2401.5,25 C2401.5,25 2419.5,25 2419.5,15 " fill="none" style="stroke:#181818;stroke-width:1.5;"/><text fill="#000000" font-family="sans-serif" font-size="14" lengthAdjust="spacing" textLength="62" x="2367.5" y="1345.6921">dbDriver</text><text fill="#000000" font-family="sans-serif" font-size="14" lengthAdjust="spacing" textLength="86" x="2355.5" y="1361.989">&#171;Database&#187;</text><path d="M2383.5,1375.2908 C2383.5,1365.2908 2401.5,1365.2908 2401.5,1365.2908 C2401.5,1365.2908 2419.5,1365.2908 2419.5,1375.2908 L2419.5,1401.2908 C2419.5,1411.2908 2401.5,1411.2908 2401.5,1411.2908 C2401.5,1411.2908 2383.5,1411.2908 2383.5,1401.2908 L2383.5,1375.2908 " fill="#E2E2F0" style="stroke:#181818;stroke-width:1.5;"/><path d="M2383.5,1375.2908 C2383.5,1385.2908 2401.5,1385.2908 2401.5,1385.2908 C2401.5,1385.2908 2419.5,1385.2908 2419.5,1375.2908 " fill="none" style="stroke:#181818;stroke-width:1.5;"/><rect fill="#FFFFFF" height="1200.9523" style="stroke:#181818;stroke-width:1.0;" width="10" x="193.5" y="114.7448"/><rect fill="#FFFFFF" height="1142.6503" style="stroke:#181818;stroke-width:1.0;" width="10" x="370.5" y="143.8958"/><rect fill="#FFFFFF" height="28" style="stroke:#181818;stroke-width:1.0;" width="10" x="375.5" y="181.0468"/><rect fill="#FFFFFF" height="28" style="stroke:#181818;stroke-width:1.0;" width="10" x="375.5" y="1222.395"/><rect fill="#FFFFFF" height="29.151" style="stroke:#181818;stroke-width:1.0;" width="10" x="534" y="245.1978"/><rect fill="#FFFFFF" height="295.755" style="stroke:#181818;stroke-width:1.0;" width="10" x="534" y="889.489"/><rect fill="#FFFFFF" height="853.3015" style="stroke:#181818;stroke-width:1.0;" width="10" x="845" y="331.9425"/><rect fill="#FFFFFF" height="30" style="stroke:#181818;stroke-width:1.0;" width="10" x="1149.5" y="476.9893"/><rect fill="#FFFFFF" height="30" style="stroke:#181818;stroke-width:1.0;" width="10" x="1149.5" y="536.1403"/><rect fill="#FFFFFF" height="30" style="stroke:#181818;stroke-width:1.0;" width="10" x="1149.5" y="595.2913"/><rect fill="#FFFFFF" height="30" style="stroke:#181818;stroke-width:1.0;" width="10" x="1149.5" y="654.4423"/><rect fill="#FFFFFF" height="30" style="stroke:#181818;stroke-width:1.0;" width="10" x="1149.5" y="713.5933"/><rect fill="#FFFFFF" height="30" style="stroke:#181818;stroke-width:1.0;" width="10" x="1149.5" y="918.64"/><rect fill="#FFFFFF" height="30" style="stroke:#181818;stroke-width:1.0;" width="10" x="1149.5" y="977.791"/><rect fill="#FFFFFF" height="30" style="stroke:#181818;stroke-width:1.0;" width="10" x="1149.5" y="1036.942"/><rect fill="#FFFFFF" height="30" style="stroke:#181818;stroke-width:1.0;" width="10" x="1149.5" y="1096.093"/><rect fill="#FFFFFF" height="30" style="stroke:#181818;stroke-width:1.0;" width="10" x="1149.5" y="1155.244"/><rect fill="#FFFFFF" height="441.6508" style="stroke:#181818;stroke-width:1.0;" width="10" x="1320.5" y="418.6873"/><rect fill="#FFFFFF" height="324.906" style="stroke:#181818;stroke-width:1.0;" width="10" x="1587.5" y="447.8383"/><rect fill="#FFFFFF" height="30" style="stroke:#181818;stroke-width:1.0;" width="10" x="2396.5" y="830.338"/><polygon fill="#181818" points="181.5,110.7448,191.5,114.7448,181.5,118.7448,185.5,114.7448" style="stroke:#181818;stroke-width:1.0;"/><line style="stroke:#181818;stroke-width:1.0;" x1="29.5" x2="187.5" y1="114.7448" y2="114.7448"/><text fill="#000000" font-family="sans-serif" font-size="13" lengthAdjust="spacing" textLength="145" x="36.5" y="109.6751">POST /robotType(json)</text><polygon fill="#181818" points="358.5,139.8958,368.5,143.8958,358.5,147.8958,362.5,143.8958" style="stroke:#181818;stroke-width:1.0;"/><line style="stroke:#181818;stroke-width:1.0;" x1="203.5" x2="364.5" y1="143.8958" y2="143.8958"/><text fill="#000000" font-family="sans-serif" font-size="13" lengthAdjust="spacing" textLength="148" x="210.5" y="138.8261">createRobotType(json)</text><line style="stroke:#181818;stroke-width:1.0;" x1="385.5" x2="427.5" y1="173.0468" y2="173.0468"/><line style="stroke:#181818;stroke-width:1.0;" x1="427.5" x2="427.5" y1="173.0468" y2="186.0468"/><line style="stroke:#181818;stroke-width:1.0;" x1="386.5" x2="427.5" y1="186.0468" y2="186.0468"/><polygon fill="#181818" points="396.5,182.0468,386.5,186.0468,396.5,190.0468,392.5,186.0468" style="stroke:#181818;stroke-width:1.0;"/><text fill="#000000" font-family="sans-serif" font-size="13" lengthAdjust="spacing" textLength="90" x="392.5" y="167.9771">validateJson()</text><polygon fill="#181818" points="522,241.1978,532,245.1978,522,249.1978,526,245.1978" style="stroke:#181818;stroke-width:1.0;"/><line style="stroke:#181818;stroke-width:1.0;" x1="380.5" x2="528" y1="245.1978" y2="245.1978"/><text fill="#000000" font-family="sans-serif" font-size="13" lengthAdjust="spacing" textLength="78" x="387.5" y="240.1282">toDTO(json)</text><polygon fill="#181818" points="634,270.3488,644,274.3488,634,278.3488,638,274.3488" style="stroke:#181818;stroke-width:1.0;"/><line style="stroke:#181818;stroke-width:1.0;" x1="539" x2="640" y1="274.3488" y2="274.3488"/><text fill="#000000" font-family="sans-serif" font-size="13" lengthAdjust="spacing" textLength="78" x="546" y="269.2792">create(json)</text><rect fill="#E2E2F0" height="46.5938" rx="2.5" ry="2.5" style="stroke:#181818;stroke-width:0.5;" width="122" x="646" y="253.1978"/><text fill="#000000" font-family="sans-serif" font-size="14" lengthAdjust="spacing" textLength="108" x="653" y="273.1929">RobotTypeDTO</text><text fill="#000000" font-family="sans-serif" font-size="14" lengthAdjust="spacing" textLength="49" x="682.5" y="289.4897">&#171;DTO&#187;</text><polygon fill="#181818" points="833,327.9425,843,331.9425,833,335.9425,837,331.9425" style="stroke:#181818;stroke-width:1.0;"/><line style="stroke:#181818;stroke-width:1.0;" x1="380.5" x2="839" y1="331.9425" y2="331.9425"/><text fill="#000000" font-family="sans-serif" font-size="13" lengthAdjust="spacing" textLength="328" x="387.5" y="326.8729">robotTypeDTO = createRobotType(robotTypeDTO)</text><polygon fill="#181818" points="1097,357.0935,1107,361.0935,1097,365.0935,1101,361.0935" style="stroke:#181818;stroke-width:1.0;"/><line style="stroke:#181818;stroke-width:1.0;" x1="855" x2="1103" y1="361.0935" y2="361.0935"/><text fill="#000000" font-family="sans-serif" font-size="13" lengthAdjust="spacing" textLength="230" x="862" y="356.0239">robotType = create(robotTypeDTO)</text><rect fill="#E2E2F0" height="46.5938" rx="2.5" ry="2.5" style="stroke:#181818;stroke-width:0.5;" width="91" x="1109" y="339.9425"/><text fill="#000000" font-family="sans-serif" font-size="14" lengthAdjust="spacing" textLength="77" x="1116" y="359.9376">RobotType</text><text fill="#000000" font-family="sans-serif" font-size="14" lengthAdjust="spacing" textLength="58" x="1125.5" y="376.2345">&#171;Entity&#187;</text><polygon fill="#181818" points="1308.5,414.6873,1318.5,418.6873,1308.5,422.6873,1312.5,418.6873" style="stroke:#181818;stroke-width:1.0;"/><line style="stroke:#181818;stroke-width:1.0;" x1="855" x2="1314.5" y1="418.6873" y2="418.6873"/><text fill="#000000" font-family="sans-serif" font-size="13" lengthAdjust="spacing" textLength="107" x="862" y="413.6177">save(robotType)</text><polygon fill="#181818" points="1575.5,443.8383,1585.5,447.8383,1575.5,451.8383,1579.5,447.8383" style="stroke:#181818;stroke-width:1.0;"/><line style="stroke:#181818;stroke-width:1.0;" x1="1330.5" x2="1581.5" y1="447.8383" y2="447.8383"/><text fill="#000000" font-family="sans-serif" font-size="13" lengthAdjust="spacing" textLength="238" x="1337.5" y="442.7687">dataRobotType = toData(robotType)</text><polygon fill="#181818" points="1170.5,472.9893,1160.5,476.9893,1170.5,480.9893,1166.5,476.9893" style="stroke:#181818;stroke-width:1.0;"/><line style="stroke:#181818;stroke-width:1.0;" x1="1164.5" x2="1586.5" y1="476.9893" y2="476.9893"/><text fill="#000000" font-family="sans-serif" font-size="13" lengthAdjust="spacing" textLength="140" x="1176.5" y="471.9197">getRobotTypeName()</text><polygon fill="#181818" points="1170.5,532.1403,1160.5,536.1403,1170.5,540.1403,1166.5,536.1403" style="stroke:#181818;stroke-width:1.0;"/><line style="stroke:#181818;stroke-width:1.0;" x1="1164.5" x2="1586.5" y1="536.1403" y2="536.1403"/><text fill="#000000" font-family="sans-serif" font-size="13" lengthAdjust="spacing" textLength="105" x="1176.5" y="531.0707">getDescription()</text><polygon fill="#181818" points="1170.5,591.2913,1160.5,595.2913,1170.5,599.2913,1166.5,595.2913" style="stroke:#181818;stroke-width:1.0;"/><line style="stroke:#181818;stroke-width:1.0;" x1="1164.5" x2="1586.5" y1="595.2913" y2="595.2913"/><text fill="#000000" font-family="sans-serif" font-size="13" lengthAdjust="spacing" textLength="69" x="1176.5" y="590.2217">gerBrand()</text><polygon fill="#181818" points="1170.5,650.4423,1160.5,654.4423,1170.5,658.4423,1166.5,654.4423" style="stroke:#181818;stroke-width:1.0;"/><line style="stroke:#181818;stroke-width:1.0;" x1="1164.5" x2="1586.5" y1="654.4423" y2="654.4423"/><text fill="#000000" font-family="sans-serif" font-size="13" lengthAdjust="spacing" textLength="70" x="1176.5" y="649.3727">getModel()</text><polygon fill="#181818" points="1170.5,709.5933,1160.5,713.5933,1170.5,717.5933,1166.5,713.5933" style="stroke:#181818;stroke-width:1.0;"/><line style="stroke:#181818;stroke-width:1.0;" x1="1164.5" x2="1586.5" y1="713.5933" y2="713.5933"/><text fill="#000000" font-family="sans-serif" font-size="13" lengthAdjust="spacing" textLength="167" x="1176.5" y="708.5237">getSupportedTaskTypes()</text><polygon fill="#181818" points="2184.5,768.7443,2194.5,772.7443,2184.5,776.7443,2188.5,772.7443" style="stroke:#181818;stroke-width:1.0;"/><line style="stroke:#181818;stroke-width:1.0;" x1="1592.5" x2="2190.5" y1="772.7443" y2="772.7443"/><text fill="#000000" font-family="sans-serif" font-size="13" lengthAdjust="spacing" textLength="575" x="1599.5" y="767.6747">dataRobotType = create(robotTypeName,brand,model,description,supportedTaskTypes)</text><rect fill="#E2E2F0" height="46.5938" rx="2.5" ry="2.5" style="stroke:#181818;stroke-width:0.5;" width="149" x="2196.5" y="751.5933"/><text fill="#000000" font-family="sans-serif" font-size="14" lengthAdjust="spacing" textLength="135" x="2203.5" y="771.5884">DataRobotType&lt;&lt;</text><text fill="#000000" font-family="sans-serif" font-size="14" lengthAdjust="spacing" textLength="52" x="2245" y="787.8853">&#171;Data&#187;</text><polygon fill="#181818" points="2384.5,826.338,2394.5,830.338,2384.5,834.338,2388.5,830.338" style="stroke:#181818;stroke-width:1.0;"/><line style="stroke:#181818;stroke-width:1.0;" x1="1330.5" x2="2390.5" y1="830.338" y2="830.338"/><text fill="#000000" font-family="sans-serif" font-size="13" lengthAdjust="spacing" textLength="140" x="1337.5" y="825.2684">save(dataRobotType)</text><polygon fill="#181818" points="555,885.489,545,889.489,555,893.489,551,889.489" style="stroke:#181818;stroke-width:1.0;"/><line style="stroke:#181818;stroke-width:1.0;" x1="549" x2="844" y1="889.489" y2="889.489"/><text fill="#000000" font-family="sans-serif" font-size="13" lengthAdjust="spacing" textLength="117" x="561" y="884.4194">toDTO(robotType)</text><polygon fill="#181818" points="1137.5,914.64,1147.5,918.64,1137.5,922.64,1141.5,918.64" style="stroke:#181818;stroke-width:1.0;"/><line style="stroke:#181818;stroke-width:1.0;" x1="544" x2="1143.5" y1="918.64" y2="918.64"/><text fill="#000000" font-family="sans-serif" font-size="13" lengthAdjust="spacing" textLength="140" x="551" y="913.5704">getRobotTypeName()</text><polygon fill="#181818" points="1137.5,973.791,1147.5,977.791,1137.5,981.791,1141.5,977.791" style="stroke:#181818;stroke-width:1.0;"/><line style="stroke:#181818;stroke-width:1.0;" x1="544" x2="1143.5" y1="977.791" y2="977.791"/><text fill="#000000" font-family="sans-serif" font-size="13" lengthAdjust="spacing" textLength="105" x="551" y="972.7214">getDescription()</text><polygon fill="#181818" points="1137.5,1032.942,1147.5,1036.942,1137.5,1040.942,1141.5,1036.942" style="stroke:#181818;stroke-width:1.0;"/><line style="stroke:#181818;stroke-width:1.0;" x1="544" x2="1143.5" y1="1036.942" y2="1036.942"/><text fill="#000000" font-family="sans-serif" font-size="13" lengthAdjust="spacing" textLength="69" x="551" y="1031.8724">gerBrand()</text><polygon fill="#181818" points="1137.5,1092.093,1147.5,1096.093,1137.5,1100.093,1141.5,1096.093" style="stroke:#181818;stroke-width:1.0;"/><line style="stroke:#181818;stroke-width:1.0;" x1="544" x2="1143.5" y1="1096.093" y2="1096.093"/><text fill="#000000" font-family="sans-serif" font-size="13" lengthAdjust="spacing" textLength="70" x="551" y="1091.0234">getModel()</text><polygon fill="#181818" points="1137.5,1151.244,1147.5,1155.244,1137.5,1159.244,1141.5,1155.244" style="stroke:#181818;stroke-width:1.0;"/><line style="stroke:#181818;stroke-width:1.0;" x1="544" x2="1143.5" y1="1155.244" y2="1155.244"/><text fill="#000000" font-family="sans-serif" font-size="13" lengthAdjust="spacing" textLength="167" x="551" y="1150.1744">getSupportedTaskTypes()</text><line style="stroke:#181818;stroke-width:1.0;" x1="385.5" x2="427.5" y1="1214.395" y2="1214.395"/><line style="stroke:#181818;stroke-width:1.0;" x1="427.5" x2="427.5" y1="1214.395" y2="1227.395"/><line style="stroke:#181818;stroke-width:1.0;" x1="386.5" x2="427.5" y1="1227.395" y2="1227.395"/><polygon fill="#181818" points="396.5,1223.395,386.5,1227.395,396.5,1231.395,392.5,1227.395" style="stroke:#181818;stroke-width:1.0;"/><text fill="#000000" font-family="sans-serif" font-size="13" lengthAdjust="spacing" textLength="119" x="392.5" y="1209.3254">generateRes(json)</text><polygon fill="#181818" points="214.5,1282.546,204.5,1286.546,214.5,1290.546,210.5,1286.546" style="stroke:#181818;stroke-width:1.0;"/><line style="stroke:#181818;stroke-width:1.0;stroke-dasharray:2.0,2.0;" x1="208.5" x2="374.5" y1="1286.546" y2="1286.546"/><text fill="#000000" font-family="sans-serif" font-size="13" lengthAdjust="spacing" textLength="59" x="220.5" y="1281.4764">response</text><polygon fill="#181818" points="40.5,1311.697,30.5,1315.697,40.5,1319.697,36.5,1315.697" style="stroke:#181818;stroke-width:1.0;"/><line style="stroke:#181818;stroke-width:1.0;" x1="34.5" x2="197.5" y1="1315.697" y2="1315.697"/><text fill="#000000" font-family="sans-serif" font-size="13" lengthAdjust="spacing" textLength="59" x="46.5" y="1310.6274">response</text><!--SRC=[nLRBZfim5Dtp5LPMwIZLI2mZ6YaPM4pLJ292grIQZG5hv6c2aUr4oj_tsXWm3wTT1HPHiCyvz_g-SCekHOxv3Hsz4dD9CrhYGgBPCcONIMAMCfdSIZ93MA1uzpE9kh06yC8AoTdfHFXx4GJjssgbgIz9_CF1tEAoh5ZV1IlyCDaPpdQztqUnWmKmHMdHyCy1FH1-fHbHSFFNK0xnBmT5OQD2KdapqEWjUKr-Ez0nATbxiNpjB0I1-XLKCbwBnD5-vmw2FWuxOmenm19tWk1tQMg_eGQ1PhQKS9silHpUKom8ckLfoEcrYd1eLclanlEEwEkgoYnQeltkaA1dNalFFo4ZNpoSINh5afW2gC30Kaa5KiO9jah5a10y3L6dNwreIakzuXC5JudA_BpYZFFKanEtNXKcK9GC2i5oeIDdAgfUDoIW0-VfgJbAZsxPjGHgor14GEHMNQ9lWv3OsoD-gKAi5vKUo5O5fvrgo8smGyzGLPa1JU2h1MnH7Skw9EqTJMu2weDERXSRk00HXXMNyaYy_G6W5c_E2MO-Y6oilE4pcGzrEzgc8ySmLi8SA8S38H4PfwMadMfyb7c-uRZ8fpZtbkNaD8NXmwKi6PSaJx3uep8l7kM56fAwk_hbtUymLOkBL6LcSLPXMkHjaIp4mF-X-uFnuOysNBYfUxRZqPtkWkbznrPlrzhfzBoP6Rtv-Q-nqHkamu4wPLjFszLJDVLKFVtWblRkjjRODxl-kFQk7X-a85nzfC51ntNXFsyVrls94r6oGX3FnMZkJaSRRJUdlcBz1G00]--></g></svg>