<?xml version="1.0" encoding="us-ascii" standalone="no"?><svg xmlns="http://www.w3.org/2000/svg" xmlns:xlink="http://www.w3.org/1999/xlink" contentStyleType="text/css" height="1502px" preserveAspectRatio="none" style="width:2470px;height:1502px;background:#FFFFFF;" version="1.1" viewBox="0 0 2470 1502" width="2470px" zoomAndPan="magnify"><defs/><g><rect fill="#FFFFFF" height="1275.546" style="stroke:#181818;stroke-width:1.0;" width="10" x="311.5" y="114.7448"/><rect fill="#FFFFFF" height="1217.244" style="stroke:#181818;stroke-width:1.0;" width="10" x="600.5" y="143.8958"/><rect fill="#FFFFFF" height="28" style="stroke:#181818;stroke-width:1.0;" width="10" x="605.5" y="1296.9888"/><rect fill="#FFFFFF" height="384.057" style="stroke:#181818;stroke-width:1.0;" width="10" x="743.5" y="847.338"/><rect fill="#FFFFFF" height="1058.3483" style="stroke:#181818;stroke-width:1.0;" width="10" x="985.5" y="173.0468"/><rect fill="#FFFFFF" height="30" style="stroke:#181818;stroke-width:1.0;" width="10" x="1216.5" y="375.6873"/><rect fill="#FFFFFF" height="30" style="stroke:#181818;stroke-width:1.0;" width="10" x="1216.5" y="434.8383"/><rect fill="#FFFFFF" height="30" style="stroke:#181818;stroke-width:1.0;" width="10" x="1216.5" y="493.9893"/><rect fill="#FFFFFF" height="30" style="stroke:#181818;stroke-width:1.0;" width="10" x="1216.5" y="553.1403"/><rect fill="#FFFFFF" height="30" style="stroke:#181818;stroke-width:1.0;" width="10" x="1216.5" y="612.2913"/><rect fill="#FFFFFF" height="30" style="stroke:#181818;stroke-width:1.0;" width="10" x="1216.5" y="671.4423"/><rect fill="#FFFFFF" height="30" style="stroke:#181818;stroke-width:1.0;" width="10" x="1216.5" y="876.489"/><rect fill="#FFFFFF" height="30" style="stroke:#181818;stroke-width:1.0;" width="10" x="1216.5" y="935.64"/><rect fill="#FFFFFF" height="30" style="stroke:#181818;stroke-width:1.0;" width="10" x="1216.5" y="994.791"/><rect fill="#FFFFFF" height="30" style="stroke:#181818;stroke-width:1.0;" width="10" x="1216.5" y="1053.942"/><rect fill="#FFFFFF" height="30" style="stroke:#181818;stroke-width:1.0;" width="10" x="1216.5" y="1113.093"/><rect fill="#FFFFFF" height="30" style="stroke:#181818;stroke-width:1.0;" width="10" x="1216.5" y="1172.244"/><rect fill="#FFFFFF" height="500.8018" style="stroke:#181818;stroke-width:1.0;" width="10" x="1360.5" y="317.3853"/><rect fill="#FFFFFF" height="384.057" style="stroke:#181818;stroke-width:1.0;" width="10" x="1563.5" y="346.5363"/><rect fill="#FFFFFF" height="30" style="stroke:#181818;stroke-width:1.0;" width="10" x="2418.5" y="788.187"/><line style="stroke:#181818;stroke-width:0.5;stroke-dasharray:5.0,5.0;" x1="29" x2="29" y1="83.5938" y2="1408.2908"/><line style="stroke:#181818;stroke-width:0.5;stroke-dasharray:5.0,5.0;" x1="316" x2="316" y1="83.5938" y2="1408.2908"/><line style="stroke:#181818;stroke-width:0.5;stroke-dasharray:5.0,5.0;" x1="605" x2="605" y1="83.5938" y2="1408.2908"/><line style="stroke:#181818;stroke-width:0.5;stroke-dasharray:5.0,5.0;" x1="748.5" x2="748.5" y1="83.5938" y2="1408.2908"/><line style="stroke:#181818;stroke-width:0.5;stroke-dasharray:5.0,5.0;" x1="856.5" x2="856.5" y1="83.5938" y2="1408.2908"/><line style="stroke:#181818;stroke-width:0.5;stroke-dasharray:5.0,5.0;" x1="990" x2="990" y1="83.5938" y2="1408.2908"/><line style="stroke:#181818;stroke-width:0.5;stroke-dasharray:5.0,5.0;" x1="1221.5" x2="1221.5" y1="277.4374" y2="1408.2908"/><line style="stroke:#181818;stroke-width:0.5;stroke-dasharray:5.0,5.0;" x1="1365.5" x2="1365.5" y1="83.5938" y2="1408.2908"/><line style="stroke:#181818;stroke-width:0.5;stroke-dasharray:5.0,5.0;" x1="1568" x2="1568" y1="83.5938" y2="1408.2908"/><line style="stroke:#181818;stroke-width:0.5;stroke-dasharray:5.0,5.0;" x1="2310.5" x2="2310.5" y1="1249.0409" y2="1408.2908"/><line style="stroke:#181818;stroke-width:0.5;stroke-dasharray:5.0,5.0;" x1="2423.5" x2="2423.5" y1="83.5938" y2="1408.2908"/><text fill="#000000" font-family="sans-serif" font-size="14" lengthAdjust="spacing" textLength="10" x="21.5" y="80.292">X</text><path d="M9,39.2969 L9,63.2969 M9,51.2969 L26,51.2969 " fill="none" style="stroke:#181818;stroke-width:0.5;"/><ellipse cx="38" cy="51.2969" fill="#E2E2F0" rx="12" ry="12" style="stroke:#181818;stroke-width:0.5;"/><text fill="#000000" font-family="sans-serif" font-size="14" lengthAdjust="spacing" textLength="10" x="21.5" y="1420.2859">X</text><path d="M9,1427.5876 L9,1451.5876 M9,1439.5876 L26,1439.5876 " fill="none" style="stroke:#181818;stroke-width:0.5;"/><ellipse cx="38" cy="1439.5876" fill="#E2E2F0" rx="12" ry="12" style="stroke:#181818;stroke-width:0.5;"/><rect fill="#E2E2F0" height="30.2969" rx="2.5" ry="2.5" style="stroke:#181818;stroke-width:0.5;" width="103" x="265" y="52.2969"/><text fill="#000000" font-family="sans-serif" font-size="14" lengthAdjust="spacing" textLength="89" x="272" y="72.292">:RouteRobot</text><rect fill="#E2E2F0" height="30.2969" rx="2.5" ry="2.5" style="stroke:#181818;stroke-width:0.5;" width="103" x="265" y="1407.2908"/><text fill="#000000" font-family="sans-serif" font-size="14" lengthAdjust="spacing" textLength="89" x="272" y="1427.2859">:RouteRobot</text><rect fill="#E2E2F0" height="46.5938" rx="2.5" ry="2.5" style="stroke:#181818;stroke-width:0.5;" width="127" x="542" y="36"/><text fill="#000000" font-family="sans-serif" font-size="14" lengthAdjust="spacing" textLength="113" x="549" y="55.9951">RobotController</text><text fill="#000000" font-family="sans-serif" font-size="14" lengthAdjust="spacing" textLength="89" x="561" y="72.292">&#171;Controller&#187;</text><rect fill="#E2E2F0" height="46.5938" rx="2.5" ry="2.5" style="stroke:#181818;stroke-width:0.5;" width="127" x="542" y="1407.2908"/><text fill="#000000" font-family="sans-serif" font-size="14" lengthAdjust="spacing" textLength="113" x="549" y="1427.2859">RobotController</text><text fill="#000000" font-family="sans-serif" font-size="14" lengthAdjust="spacing" textLength="89" x="561" y="1443.5828">&#171;Controller&#187;</text><rect fill="#E2E2F0" height="46.5938" rx="2.5" ry="2.5" style="stroke:#181818;stroke-width:0.5;" width="110" x="693.5" y="36"/><text fill="#000000" font-family="sans-serif" font-size="14" lengthAdjust="spacing" textLength="96" x="700.5" y="55.9951">RobotMapper</text><text fill="#000000" font-family="sans-serif" font-size="14" lengthAdjust="spacing" textLength="87" x="705" y="72.292">&#171;Json2DTO&#187;</text><rect fill="#E2E2F0" height="46.5938" rx="2.5" ry="2.5" style="stroke:#181818;stroke-width:0.5;" width="110" x="693.5" y="1407.2908"/><text fill="#000000" font-family="sans-serif" font-size="14" lengthAdjust="spacing" textLength="96" x="700.5" y="1427.2859">RobotMapper</text><text fill="#000000" font-family="sans-serif" font-size="14" lengthAdjust="spacing" textLength="87" x="705" y="1443.5828">&#171;Json2DTO&#187;</text><rect fill="#E2E2F0" height="46.5938" rx="2.5" ry="2.5" style="stroke:#181818;stroke-width:0.5;" width="87" x="813.5" y="36"/><text fill="#000000" font-family="sans-serif" font-size="14" lengthAdjust="spacing" textLength="73" x="820.5" y="55.9951">RobotDTO</text><text fill="#000000" font-family="sans-serif" font-size="14" lengthAdjust="spacing" textLength="49" x="832.5" y="72.292">&#171;DTO&#187;</text><rect fill="#E2E2F0" height="46.5938" rx="2.5" ry="2.5" style="stroke:#181818;stroke-width:0.5;" width="87" x="813.5" y="1407.2908"/><text fill="#000000" font-family="sans-serif" font-size="14" lengthAdjust="spacing" textLength="73" x="820.5" y="1427.2859">RobotDTO</text><text fill="#000000" font-family="sans-serif" font-size="14" lengthAdjust="spacing" textLength="49" x="832.5" y="1443.5828">&#171;DTO&#187;</text><rect fill="#E2E2F0" height="46.5938" rx="2.5" ry="2.5" style="stroke:#181818;stroke-width:0.5;" width="109" x="936" y="36"/><text fill="#000000" font-family="sans-serif" font-size="14" lengthAdjust="spacing" textLength="95" x="943" y="55.9951">RobotService</text><text fill="#000000" font-family="sans-serif" font-size="14" lengthAdjust="spacing" textLength="71" x="955" y="72.292">&#171;Service&#187;</text><rect fill="#E2E2F0" height="46.5938" rx="2.5" ry="2.5" style="stroke:#181818;stroke-width:0.5;" width="109" x="936" y="1407.2908"/><text fill="#000000" font-family="sans-serif" font-size="14" lengthAdjust="spacing" textLength="95" x="943" y="1427.2859">RobotService</text><text fill="#000000" font-family="sans-serif" font-size="14" lengthAdjust="spacing" textLength="71" x="955" y="1443.5828">&#171;Service&#187;</text><rect fill="#E2E2F0" height="46.5938" rx="2.5" ry="2.5" style="stroke:#181818;stroke-width:0.5;" width="72" x="1185.5" y="1407.2908"/><text fill="#000000" font-family="sans-serif" font-size="14" lengthAdjust="spacing" textLength="42" x="1200.5" y="1427.2859">Robot</text><text fill="#000000" font-family="sans-serif" font-size="14" lengthAdjust="spacing" textLength="58" x="1192.5" y="1443.5828">&#171;Entity&#187;</text><rect fill="#E2E2F0" height="46.5938" rx="2.5" ry="2.5" style="stroke:#181818;stroke-width:0.5;" width="196" x="1267.5" y="36"/><text fill="#000000" font-family="sans-serif" font-size="14" lengthAdjust="spacing" textLength="79" x="1326" y="55.9951">RobotRepo</text><text fill="#000000" font-family="sans-serif" font-size="14" lengthAdjust="spacing" textLength="182" x="1274.5" y="72.292">:IRobotRepo&#171;Repository&#187;</text><rect fill="#E2E2F0" height="46.5938" rx="2.5" ry="2.5" style="stroke:#181818;stroke-width:0.5;" width="196" x="1267.5" y="1407.2908"/><text fill="#000000" font-family="sans-serif" font-size="14" lengthAdjust="spacing" textLength="79" x="1326" y="1427.2859">RobotRepo</text><text fill="#000000" font-family="sans-serif" font-size="14" lengthAdjust="spacing" textLength="182" x="1274.5" y="1443.5828">:IRobotRepo&#171;Repository&#187;</text><rect fill="#E2E2F0" height="46.5938" rx="2.5" ry="2.5" style="stroke:#181818;stroke-width:0.5;" width="131" x="1503" y="36"/><text fill="#000000" font-family="sans-serif" font-size="14" lengthAdjust="spacing" textLength="72" x="1532.5" y="55.9951">RobotMap</text><text fill="#000000" font-family="sans-serif" font-size="14" lengthAdjust="spacing" textLength="117" x="1510" y="72.292">&#171;Domain2Data&#187;</text><rect fill="#E2E2F0" height="46.5938" rx="2.5" ry="2.5" style="stroke:#181818;stroke-width:0.5;" width="131" x="1503" y="1407.2908"/><text fill="#000000" font-family="sans-serif" font-size="14" lengthAdjust="spacing" textLength="72" x="1532.5" y="1427.2859">RobotMap</text><text fill="#000000" font-family="sans-serif" font-size="14" lengthAdjust="spacing" textLength="117" x="1510" y="1443.5828">&#171;Domain2Data&#187;</text><rect fill="#E2E2F0" height="46.5938" rx="2.5" ry="2.5" style="stroke:#181818;stroke-width:0.5;" width="114" x="2253.5" y="1407.2908"/><text fill="#000000" font-family="sans-serif" font-size="14" lengthAdjust="spacing" textLength="100" x="2260.5" y="1427.2859">DataRobot&lt;&lt;</text><text fill="#000000" font-family="sans-serif" font-size="14" lengthAdjust="spacing" textLength="52" x="2284.5" y="1443.5828">&#171;Data&#187;</text><text fill="#000000" font-family="sans-serif" font-size="14" lengthAdjust="spacing" textLength="62" x="2389.5" y="63.9951">dbDriver</text><text fill="#000000" font-family="sans-serif" font-size="14" lengthAdjust="spacing" textLength="86" x="2377.5" y="80.292">&#171;Database&#187;</text><path d="M2405.5,15 C2405.5,5 2423.5,5 2423.5,5 C2423.5,5 2441.5,5 2441.5,15 L2441.5,41 C2441.5,51 2423.5,51 2423.5,51 C2423.5,51 2405.5,51 2405.5,41 L2405.5,15 " fill="#E2E2F0" style="stroke:#181818;stroke-width:1.5;"/><path d="M2405.5,15 C2405.5,25 2423.5,25 2423.5,25 C2423.5,25 2441.5,25 2441.5,15 " fill="none" style="stroke:#181818;stroke-width:1.5;"/><text fill="#000000" font-family="sans-serif" font-size="14" lengthAdjust="spacing" textLength="62" x="2389.5" y="1420.2859">dbDriver</text><text fill="#000000" font-family="sans-serif" font-size="14" lengthAdjust="spacing" textLength="86" x="2377.5" y="1436.5828">&#171;Database&#187;</text><path d="M2405.5,1449.8845 C2405.5,1439.8845 2423.5,1439.8845 2423.5,1439.8845 C2423.5,1439.8845 2441.5,1439.8845 2441.5,1449.8845 L2441.5,1475.8845 C2441.5,1485.8845 2423.5,1485.8845 2423.5,1485.8845 C2423.5,1485.8845 2405.5,1485.8845 2405.5,1475.8845 L2405.5,1449.8845 " fill="#E2E2F0" style="stroke:#181818;stroke-width:1.5;"/><path d="M2405.5,1449.8845 C2405.5,1459.8845 2423.5,1459.8845 2423.5,1459.8845 C2423.5,1459.8845 2441.5,1459.8845 2441.5,1449.8845 " fill="none" style="stroke:#181818;stroke-width:1.5;"/><rect fill="#FFFFFF" height="1275.546" style="stroke:#181818;stroke-width:1.0;" width="10" x="311.5" y="114.7448"/><rect fill="#FFFFFF" height="1217.244" style="stroke:#181818;stroke-width:1.0;" width="10" x="600.5" y="143.8958"/><rect fill="#FFFFFF" height="28" style="stroke:#181818;stroke-width:1.0;" width="10" x="605.5" y="1296.9888"/><rect fill="#FFFFFF" height="384.057" style="stroke:#181818;stroke-width:1.0;" width="10" x="743.5" y="847.338"/><rect fill="#FFFFFF" height="1058.3483" style="stroke:#181818;stroke-width:1.0;" width="10" x="985.5" y="173.0468"/><rect fill="#FFFFFF" height="30" style="stroke:#181818;stroke-width:1.0;" width="10" x="1216.5" y="375.6873"/><rect fill="#FFFFFF" height="30" style="stroke:#181818;stroke-width:1.0;" width="10" x="1216.5" y="434.8383"/><rect fill="#FFFFFF" height="30" style="stroke:#181818;stroke-width:1.0;" width="10" x="1216.5" y="493.9893"/><rect fill="#FFFFFF" height="30" style="stroke:#181818;stroke-width:1.0;" width="10" x="1216.5" y="553.1403"/><rect fill="#FFFFFF" height="30" style="stroke:#181818;stroke-width:1.0;" width="10" x="1216.5" y="612.2913"/><rect fill="#FFFFFF" height="30" style="stroke:#181818;stroke-width:1.0;" width="10" x="1216.5" y="671.4423"/><rect fill="#FFFFFF" height="30" style="stroke:#181818;stroke-width:1.0;" width="10" x="1216.5" y="876.489"/><rect fill="#FFFFFF" height="30" style="stroke:#181818;stroke-width:1.0;" width="10" x="1216.5" y="935.64"/><rect fill="#FFFFFF" height="30" style="stroke:#181818;stroke-width:1.0;" width="10" x="1216.5" y="994.791"/><rect fill="#FFFFFF" height="30" style="stroke:#181818;stroke-width:1.0;" width="10" x="1216.5" y="1053.942"/><rect fill="#FFFFFF" height="30" style="stroke:#181818;stroke-width:1.0;" width="10" x="1216.5" y="1113.093"/><rect fill="#FFFFFF" height="30" style="stroke:#181818;stroke-width:1.0;" width="10" x="1216.5" y="1172.244"/><rect fill="#FFFFFF" height="500.8018" style="stroke:#181818;stroke-width:1.0;" width="10" x="1360.5" y="317.3853"/><rect fill="#FFFFFF" height="384.057" style="stroke:#181818;stroke-width:1.0;" width="10" x="1563.5" y="346.5363"/><rect fill="#FFFFFF" height="30" style="stroke:#181818;stroke-width:1.0;" width="10" x="2418.5" y="788.187"/><polygon fill="#181818" points="299.5,110.7448,309.5,114.7448,299.5,118.7448,303.5,114.7448" style="stroke:#181818;stroke-width:1.0;"/><line style="stroke:#181818;stroke-width:1.0;" x1="29.5" x2="305.5" y1="114.7448" y2="114.7448"/><text fill="#000000" font-family="sans-serif" font-size="13" lengthAdjust="spacing" textLength="263" x="36.5" y="109.6751">PATCH /robots/#robotCode/disable(json)</text><polygon fill="#181818" points="588.5,139.8958,598.5,143.8958,588.5,147.8958,592.5,143.8958" style="stroke:#181818;stroke-width:1.0;"/><line style="stroke:#181818;stroke-width:1.0;" x1="321.5" x2="594.5" y1="143.8958" y2="143.8958"/><text fill="#000000" font-family="sans-serif" font-size="13" lengthAdjust="spacing" textLength="260" x="328.5" y="138.8261">enableOrDisableRobot(enable: boolean)</text><polygon fill="#181818" points="973.5,169.0468,983.5,173.0468,973.5,177.0468,977.5,173.0468" style="stroke:#181818;stroke-width:1.0;"/><line style="stroke:#181818;stroke-width:1.0;" x1="610.5" x2="979.5" y1="173.0468" y2="173.0468"/><text fill="#000000" font-family="sans-serif" font-size="13" lengthAdjust="spacing" textLength="356" x="617.5" y="167.9771">robotDTO = enableOrDisableRobot(robotCode, enable)</text><polygon fill="#181818" points="1173.5,198.1978,1183.5,202.1978,1173.5,206.1978,1177.5,202.1978" style="stroke:#181818;stroke-width:1.0;"/><line style="stroke:#181818;stroke-width:1.0;" x1="995.5" x2="1179.5" y1="202.1978" y2="202.1978"/><text fill="#000000" font-family="sans-serif" font-size="13" lengthAdjust="spacing" textLength="166" x="1002.5" y="197.1282">robot = create(robotDTO)</text><rect fill="#E2E2F0" height="46.5938" rx="2.5" ry="2.5" style="stroke:#181818;stroke-width:0.5;" width="72" x="1185.5" y="181.0468"/><text fill="#000000" font-family="sans-serif" font-size="14" lengthAdjust="spacing" textLength="42" x="1200.5" y="201.0419">Robot</text><text fill="#000000" font-family="sans-serif" font-size="14" lengthAdjust="spacing" textLength="58" x="1192.5" y="217.3387">&#171;Entity&#187;</text><polygon fill="#181818" points="1173.5,255.7915,1183.5,259.7915,1173.5,263.7915,1177.5,259.7915" style="stroke:#181818;stroke-width:1.0;"/><line style="stroke:#181818;stroke-width:1.0;" x1="995.5" x2="1179.5" y1="259.7915" y2="259.7915"/><text fill="#000000" font-family="sans-serif" font-size="13" lengthAdjust="spacing" textLength="135" x="1002.5" y="254.7219">changeState(enable)</text><rect fill="#E2E2F0" height="46.5938" rx="2.5" ry="2.5" style="stroke:#181818;stroke-width:0.5;" width="72" x="1185.5" y="238.6405"/><text fill="#000000" font-family="sans-serif" font-size="14" lengthAdjust="spacing" textLength="42" x="1200.5" y="258.6356">Robot</text><text fill="#000000" font-family="sans-serif" font-size="14" lengthAdjust="spacing" textLength="58" x="1192.5" y="274.9325">&#171;Entity&#187;</text><polygon fill="#181818" points="1348.5,313.3853,1358.5,317.3853,1348.5,321.3853,1352.5,317.3853" style="stroke:#181818;stroke-width:1.0;"/><line style="stroke:#181818;stroke-width:1.0;" x1="995.5" x2="1354.5" y1="317.3853" y2="317.3853"/><text fill="#000000" font-family="sans-serif" font-size="13" lengthAdjust="spacing" textLength="75" x="1002.5" y="312.3157">save(robot)</text><polygon fill="#181818" points="1551.5,342.5363,1561.5,346.5363,1551.5,350.5363,1555.5,346.5363" style="stroke:#181818;stroke-width:1.0;"/><line style="stroke:#181818;stroke-width:1.0;" x1="1370.5" x2="1557.5" y1="346.5363" y2="346.5363"/><text fill="#000000" font-family="sans-serif" font-size="13" lengthAdjust="spacing" textLength="174" x="1377.5" y="341.4667">dataRobot = toData(robot)</text><polygon fill="#181818" points="1237.5,371.6873,1227.5,375.6873,1237.5,379.6873,1233.5,375.6873" style="stroke:#181818;stroke-width:1.0;"/><line style="stroke:#181818;stroke-width:1.0;" x1="1231.5" x2="1562.5" y1="375.6873" y2="375.6873"/><text fill="#000000" font-family="sans-serif" font-size="13" lengthAdjust="spacing" textLength="64" x="1243.5" y="370.6177">getCode()</text><polygon fill="#181818" points="1237.5,430.8383,1227.5,434.8383,1237.5,438.8383,1233.5,434.8383" style="stroke:#181818;stroke-width:1.0;"/><line style="stroke:#181818;stroke-width:1.0;" x1="1231.5" x2="1562.5" y1="434.8383" y2="434.8383"/><text fill="#000000" font-family="sans-serif" font-size="13" lengthAdjust="spacing" textLength="97" x="1243.5" y="429.7687">getNickname()</text><polygon fill="#181818" points="1237.5,489.9893,1227.5,493.9893,1237.5,497.9893,1233.5,493.9893" style="stroke:#181818;stroke-width:1.0;"/><line style="stroke:#181818;stroke-width:1.0;" x1="1231.5" x2="1562.5" y1="493.9893" y2="493.9893"/><text fill="#000000" font-family="sans-serif" font-size="13" lengthAdjust="spacing" textLength="120" x="1243.5" y="488.9197">getSerialNumber()</text><polygon fill="#181818" points="1237.5,549.1403,1227.5,553.1403,1237.5,557.1403,1233.5,553.1403" style="stroke:#181818;stroke-width:1.0;"/><line style="stroke:#181818;stroke-width:1.0;" x1="1231.5" x2="1562.5" y1="553.1403" y2="553.1403"/><text fill="#000000" font-family="sans-serif" font-size="13" lengthAdjust="spacing" textLength="105" x="1243.5" y="548.0707">getDescription()</text><polygon fill="#181818" points="1237.5,608.2913,1227.5,612.2913,1237.5,616.2913,1233.5,612.2913" style="stroke:#181818;stroke-width:1.0;"/><line style="stroke:#181818;stroke-width:1.0;" x1="1231.5" x2="1562.5" y1="612.2913" y2="612.2913"/><text fill="#000000" font-family="sans-serif" font-size="13" lengthAdjust="spacing" textLength="140" x="1243.5" y="607.2217">getRobotTypeName()</text><polygon fill="#181818" points="1237.5,667.4423,1227.5,671.4423,1237.5,675.4423,1233.5,671.4423" style="stroke:#181818;stroke-width:1.0;"/><line style="stroke:#181818;stroke-width:1.0;" x1="1231.5" x2="1562.5" y1="671.4423" y2="671.4423"/><text fill="#000000" font-family="sans-serif" font-size="13" lengthAdjust="spacing" textLength="83" x="1243.5" y="666.3727">getEnabled()</text><polygon fill="#181818" points="2241.5,726.5933,2251.5,730.5933,2241.5,734.5933,2245.5,730.5933" style="stroke:#181818;stroke-width:1.0;"/><line style="stroke:#181818;stroke-width:1.0;" x1="1568.5" x2="2247.5" y1="730.5933" y2="730.5933"/><text fill="#000000" font-family="sans-serif" font-size="13" lengthAdjust="spacing" textLength="656" x="1575.5" y="725.5237">dataRobot = create(robotCode, robotNickname, serialNumber, description, robotTypeNane, enabled)</text><rect fill="#E2E2F0" height="46.5938" rx="2.5" ry="2.5" style="stroke:#181818;stroke-width:0.5;" width="114" x="2253.5" y="709.4423"/><text fill="#000000" font-family="sans-serif" font-size="14" lengthAdjust="spacing" textLength="100" x="2260.5" y="729.4374">DataRobot&lt;&lt;</text><text fill="#000000" font-family="sans-serif" font-size="14" lengthAdjust="spacing" textLength="52" x="2284.5" y="745.7343">&#171;Data&#187;</text><polygon fill="#181818" points="2406.5,784.187,2416.5,788.187,2406.5,792.187,2410.5,788.187" style="stroke:#181818;stroke-width:1.0;"/><line style="stroke:#181818;stroke-width:1.0;" x1="1370.5" x2="2412.5" y1="788.187" y2="788.187"/><text fill="#000000" font-family="sans-serif" font-size="13" lengthAdjust="spacing" textLength="108" x="1377.5" y="783.1174">save(dataRobot)</text><polygon fill="#181818" points="764.5,843.338,754.5,847.338,764.5,851.338,760.5,847.338" style="stroke:#181818;stroke-width:1.0;"/><line style="stroke:#181818;stroke-width:1.0;" x1="758.5" x2="984.5" y1="847.338" y2="847.338"/><text fill="#000000" font-family="sans-serif" font-size="13" lengthAdjust="spacing" textLength="85" x="770.5" y="842.2684">toDTO(robot)</text><polygon fill="#181818" points="1204.5,872.489,1214.5,876.489,1204.5,880.489,1208.5,876.489" style="stroke:#181818;stroke-width:1.0;"/><line style="stroke:#181818;stroke-width:1.0;" x1="753.5" x2="1210.5" y1="876.489" y2="876.489"/><text fill="#000000" font-family="sans-serif" font-size="13" lengthAdjust="spacing" textLength="64" x="760.5" y="871.4194">getCode()</text><polygon fill="#181818" points="1204.5,931.64,1214.5,935.64,1204.5,939.64,1208.5,935.64" style="stroke:#181818;stroke-width:1.0;"/><line style="stroke:#181818;stroke-width:1.0;" x1="753.5" x2="1210.5" y1="935.64" y2="935.64"/><text fill="#000000" font-family="sans-serif" font-size="13" lengthAdjust="spacing" textLength="97" x="760.5" y="930.5704">getNickname()</text><polygon fill="#181818" points="1204.5,990.791,1214.5,994.791,1204.5,998.791,1208.5,994.791" style="stroke:#181818;stroke-width:1.0;"/><line style="stroke:#181818;stroke-width:1.0;" x1="753.5" x2="1210.5" y1="994.791" y2="994.791"/><text fill="#000000" font-family="sans-serif" font-size="13" lengthAdjust="spacing" textLength="120" x="760.5" y="989.7214">getSerialNumber()</text><polygon fill="#181818" points="1204.5,1049.942,1214.5,1053.942,1204.5,1057.942,1208.5,1053.942" style="stroke:#181818;stroke-width:1.0;"/><line style="stroke:#181818;stroke-width:1.0;" x1="753.5" x2="1210.5" y1="1053.942" y2="1053.942"/><text fill="#000000" font-family="sans-serif" font-size="13" lengthAdjust="spacing" textLength="105" x="760.5" y="1048.8724">getDescription()</text><polygon fill="#181818" points="1204.5,1109.093,1214.5,1113.093,1204.5,1117.093,1208.5,1113.093" style="stroke:#181818;stroke-width:1.0;"/><line style="stroke:#181818;stroke-width:1.0;" x1="753.5" x2="1210.5" y1="1113.093" y2="1113.093"/><text fill="#000000" font-family="sans-serif" font-size="13" lengthAdjust="spacing" textLength="140" x="760.5" y="1108.0234">getRobotTypeName()</text><polygon fill="#181818" points="1204.5,1168.244,1214.5,1172.244,1204.5,1176.244,1208.5,1172.244" style="stroke:#181818;stroke-width:1.0;"/><line style="stroke:#181818;stroke-width:1.0;" x1="753.5" x2="1210.5" y1="1172.244" y2="1172.244"/><text fill="#000000" font-family="sans-serif" font-size="13" lengthAdjust="spacing" textLength="83" x="760.5" y="1167.1744">getEnabled()</text><polygon fill="#181818" points="2241.5,1227.395,2251.5,1231.395,2241.5,1235.395,2245.5,1231.395" style="stroke:#181818;stroke-width:1.0;"/><line style="stroke:#181818;stroke-width:1.0;" x1="748.5" x2="2247.5" y1="1231.395" y2="1231.395"/><text fill="#000000" font-family="sans-serif" font-size="13" lengthAdjust="spacing" textLength="656" x="755.5" y="1226.3254">dataRobot = create(robotCode, robotNickname, serialNumber, description, robotTypeNane, enabled)</text><rect fill="#E2E2F0" height="46.5938" rx="2.5" ry="2.5" style="stroke:#181818;stroke-width:0.5;" width="114" x="2253.5" y="1210.244"/><text fill="#000000" font-family="sans-serif" font-size="14" lengthAdjust="spacing" textLength="100" x="2260.5" y="1230.2391">DataRobot&lt;&lt;</text><text fill="#000000" font-family="sans-serif" font-size="14" lengthAdjust="spacing" textLength="52" x="2284.5" y="1246.536">&#171;Data&#187;</text><line style="stroke:#181818;stroke-width:1.0;" x1="615.5" x2="657.5" y1="1288.9888" y2="1288.9888"/><line style="stroke:#181818;stroke-width:1.0;" x1="657.5" x2="657.5" y1="1288.9888" y2="1301.9888"/><line style="stroke:#181818;stroke-width:1.0;" x1="616.5" x2="657.5" y1="1301.9888" y2="1301.9888"/><polygon fill="#181818" points="626.5,1297.9888,616.5,1301.9888,626.5,1305.9888,622.5,1301.9888" style="stroke:#181818;stroke-width:1.0;"/><text fill="#000000" font-family="sans-serif" font-size="13" lengthAdjust="spacing" textLength="119" x="622.5" y="1283.9192">generateRes(json)</text><polygon fill="#181818" points="332.5,1357.1398,322.5,1361.1398,332.5,1365.1398,328.5,1361.1398" style="stroke:#181818;stroke-width:1.0;"/><line style="stroke:#181818;stroke-width:1.0;stroke-dasharray:2.0,2.0;" x1="326.5" x2="604.5" y1="1361.1398" y2="1361.1398"/><text fill="#000000" font-family="sans-serif" font-size="13" lengthAdjust="spacing" textLength="59" x="338.5" y="1356.0702">response</text><polygon fill="#181818" points="40.5,1386.2908,30.5,1390.2908,40.5,1394.2908,36.5,1390.2908" style="stroke:#181818;stroke-width:1.0;"/><line style="stroke:#181818;stroke-width:1.0;" x1="34.5" x2="315.5" y1="1390.2908" y2="1390.2908"/><text fill="#000000" font-family="sans-serif" font-size="13" lengthAdjust="spacing" textLength="59" x="46.5" y="1385.2212">response</text><!--SRC=[nLPDZzem4BtdLrZqmgweaFQ8KYIMHEfMNK0XhQYq5oUng5km8ziWyUyx_We9UDFRXWDAF6_UZ3sUboduYLLOND0kgh5GjAGrPWgDPXa_APBnWgiHmX9bwnzvseKOuv8p9VZXGCGRY-Fhstnkt9PvzZtWzOhhsdfyavmz9VdQuLyNcqsQ1Jm0ek5N93m5O5iYphGa6keU7NoR_Gp0DIvbYggBWwMh_2N_5K1cfEPlRFRIlCIn_fTKSU6TitIp3c_MfCwFcC9UiSATpJvrNRJTkCMnyRh2aqM-Y2fuBx0aQ5GLYQ1dUug9M_N8voZQeSzpMpKqGvj5lloAfaBpokadOIjNaMb59IuEPFm7ol0GuLBHCrR4LTjw0usk8h0Gfh5haLWda-NOBivGmVc1O211y6k8JFtrYg40AgW3C0bNKlGbJDeaE75sIzkXrXNrYveLo6tr7Xzz1A0l1G7ms0Tyw74fVsEs9rkbyRTH7LfN690Idntb5T79pTo4jiKu0e4hEN1KliwGfEAwW2763gk_BxS0Jzfi1-Ztn9pV-9wkG-dkUmXJaV-XtecxekLVXe-3n8Qcf_YmEXqB8eQ8dn1P2behojaGuSs5oYyrMGrq_gdfc-gZGcj9DBtRxgPsoriDCO_-MawGR5sI2GHiIkQGzW1P8pxL_MvQMOQwqhTxykpLeacmfxz1jdlYt5XRbexQEAMoMK5qq9PytIjMxfiRFkQ1H6L0JHbOKePLbA45PJWz-L0vYNgr90fO_BJZvoWtakq98mBi6P5kXhixcsO4ks6y6SrQqw8WikPCakWzZsOmtBNHRKKoy-C_]--></g></svg>