<?xml version="1.0" encoding="us-ascii" standalone="no"?><svg xmlns="http://www.w3.org/2000/svg" xmlns:xlink="http://www.w3.org/1999/xlink" contentStyleType="text/css" height="1588px" preserveAspectRatio="none" style="width:2019px;height:1588px;background:#FFFFFF;" version="1.1" viewBox="0 0 2019 1588" width="2019px" zoomAndPan="magnify"><defs/><g><rect fill="#FFFFFF" height="1354.7422" style="stroke:#181818;stroke-width:1.0;" width="10" x="152.5" y="118.5703"/><rect fill="#FFFFFF" height="1294.0391" style="stroke:#181818;stroke-width:1.0;" width="10" x="283.5" y="148.9219"/><rect fill="#FFFFFF" height="28" style="stroke:#181818;stroke-width:1.0;" width="10" x="288.5" y="187.2734"/><rect fill="#FFFFFF" height="28" style="stroke:#181818;stroke-width:1.0;" width="10" x="288.5" y="1377.6094"/><rect fill="#FFFFFF" height="30.3516" style="stroke:#181818;stroke-width:1.0;" width="10" x="412.5" y="252.625"/><rect fill="#FFFFFF" height="362.1094" style="stroke:#181818;stroke-width:1.0;" width="10" x="412.5" y="977.1484"/><rect fill="#FFFFFF" height="996.0625" style="stroke:#181818;stroke-width:1.0;" width="10" x="649.5" y="343.1953"/><rect fill="#FFFFFF" height="30" style="stroke:#181818;stroke-width:1.0;" width="10" x="855" y="494.4688"/><rect fill="#FFFFFF" height="30" style="stroke:#181818;stroke-width:1.0;" width="10" x="855" y="554.8203"/><rect fill="#FFFFFF" height="30" style="stroke:#181818;stroke-width:1.0;" width="10" x="855" y="615.1719"/><rect fill="#FFFFFF" height="30" style="stroke:#181818;stroke-width:1.0;" width="10" x="855" y="675.5234"/><rect fill="#FFFFFF" height="30" style="stroke:#181818;stroke-width:1.0;" width="10" x="855" y="735.875"/><rect fill="#FFFFFF" height="30" style="stroke:#181818;stroke-width:1.0;" width="10" x="855" y="796.2266"/><rect fill="#FFFFFF" height="30" style="stroke:#181818;stroke-width:1.0;" width="10" x="855" y="1007.5"/><rect fill="#FFFFFF" height="30" style="stroke:#181818;stroke-width:1.0;" width="10" x="855" y="1067.8516"/><rect fill="#FFFFFF" height="30" style="stroke:#181818;stroke-width:1.0;" width="10" x="855" y="1128.2031"/><rect fill="#FFFFFF" height="30" style="stroke:#181818;stroke-width:1.0;" width="10" x="855" y="1188.5547"/><rect fill="#FFFFFF" height="30" style="stroke:#181818;stroke-width:1.0;" width="10" x="855" y="1248.9063"/><rect fill="#FFFFFF" height="30" style="stroke:#181818;stroke-width:1.0;" width="10" x="855" y="1309.2578"/><rect fill="#FFFFFF" height="513.0313" style="stroke:#181818;stroke-width:1.0;" width="10" x="985.5" y="433.7656"/><rect fill="#FFFFFF" height="392.4609" style="stroke:#181818;stroke-width:1.0;" width="10" x="1164.5" y="464.1172"/><rect fill="#FFFFFF" height="30" style="stroke:#181818;stroke-width:1.0;" width="10" x="1972" y="916.7969"/><line style="stroke:#181818;stroke-width:0.5;stroke-dasharray:5.0,5.0;" x1="29" x2="29" y1="86.2188" y2="1491.3125"/><line style="stroke:#181818;stroke-width:0.5;stroke-dasharray:5.0,5.0;" x1="157" x2="157" y1="86.2188" y2="1491.3125"/><line style="stroke:#181818;stroke-width:0.5;stroke-dasharray:5.0,5.0;" x1="288" x2="288" y1="86.2188" y2="1491.3125"/><line style="stroke:#181818;stroke-width:0.5;stroke-dasharray:5.0,5.0;" x1="417" x2="417" y1="86.2188" y2="1491.3125"/><line style="stroke:#181818;stroke-width:0.5;stroke-dasharray:5.0,5.0;" x1="554.5" x2="554.5" y1="300.7344" y2="1491.3125"/><line style="stroke:#181818;stroke-width:0.5;stroke-dasharray:5.0,5.0;" x1="654.5" x2="654.5" y1="86.2188" y2="1491.3125"/><line style="stroke:#181818;stroke-width:0.5;stroke-dasharray:5.0,5.0;" x1="859.5" x2="859.5" y1="391.3047" y2="1491.3125"/><line style="stroke:#181818;stroke-width:0.5;stroke-dasharray:5.0,5.0;" x1="990.5" x2="990.5" y1="86.2188" y2="1491.3125"/><line style="stroke:#181818;stroke-width:0.5;stroke-dasharray:5.0,5.0;" x1="1169.5" x2="1169.5" y1="86.2188" y2="1491.3125"/><line style="stroke:#181818;stroke-width:0.5;stroke-dasharray:5.0,5.0;" x1="1876.5" x2="1876.5" y1="874.3359" y2="1491.3125"/><line style="stroke:#181818;stroke-width:0.5;stroke-dasharray:5.0,5.0;" x1="1976.5" x2="1976.5" y1="86.2188" y2="1491.3125"/><text fill="#000000" font-family="sans-serif" font-size="14" lengthAdjust="spacing" textLength="8" x="22.5" y="83.1426">X</text><path d="M9,40.6094 L9,64.6094 M9,52.6094 L26,52.6094 " fill="none" style="stroke:#181818;stroke-width:0.5;"/><ellipse cx="38" cy="52.6094" fill="#E2E2F0" rx="12" ry="12" style="stroke:#181818;stroke-width:0.5;"/><text fill="#000000" font-family="sans-serif" font-size="14" lengthAdjust="spacing" textLength="8" x="22.5" y="1504.8457">X</text><path d="M9,1511.9219 L9,1535.9219 M9,1523.9219 L26,1523.9219 " fill="none" style="stroke:#181818;stroke-width:0.5;"/><ellipse cx="38" cy="1523.9219" fill="#E2E2F0" rx="12" ry="12" style="stroke:#181818;stroke-width:0.5;"/><rect fill="#E2E2F0" height="31.6094" rx="2.5" ry="2.5" style="stroke:#181818;stroke-width:0.5;" width="93" x="111" y="53.6094"/><text fill="#000000" font-family="sans-serif" font-size="14" lengthAdjust="spacing" textLength="79" x="118" y="75.1426">:RouteRoom</text><rect fill="#E2E2F0" height="31.6094" rx="2.5" ry="2.5" style="stroke:#181818;stroke-width:0.5;" width="93" x="111" y="1490.3125"/><text fill="#000000" font-family="sans-serif" font-size="14" lengthAdjust="spacing" textLength="79" x="118" y="1511.8457">:RouteRoom</text><rect fill="#E2E2F0" height="49.2188" rx="2.5" ry="2.5" style="stroke:#181818;stroke-width:0.5;" width="113" x="232" y="36"/><text fill="#000000" font-family="sans-serif" font-size="14" lengthAdjust="spacing" textLength="99" x="239" y="57.5332">RoomController</text><text fill="#000000" font-family="sans-serif" font-size="14" lengthAdjust="spacing" textLength="78" x="249.5" y="75.1426">&#171;Controller&#187;</text><rect fill="#E2E2F0" height="49.2188" rx="2.5" ry="2.5" style="stroke:#181818;stroke-width:0.5;" width="113" x="232" y="1490.3125"/><text fill="#000000" font-family="sans-serif" font-size="14" lengthAdjust="spacing" textLength="99" x="239" y="1511.8457">RoomController</text><text fill="#000000" font-family="sans-serif" font-size="14" lengthAdjust="spacing" textLength="78" x="249.5" y="1529.4551">&#171;Controller&#187;</text><rect fill="#E2E2F0" height="49.2188" rx="2.5" ry="2.5" style="stroke:#181818;stroke-width:0.5;" width="99" x="368" y="36"/><text fill="#000000" font-family="sans-serif" font-size="14" lengthAdjust="spacing" textLength="85" x="375" y="57.5332">RoomMapper</text><text fill="#000000" font-family="sans-serif" font-size="14" lengthAdjust="spacing" textLength="83" x="376" y="75.1426">&#171;Json2DTO&#187;</text><rect fill="#E2E2F0" height="49.2188" rx="2.5" ry="2.5" style="stroke:#181818;stroke-width:0.5;" width="99" x="368" y="1490.3125"/><text fill="#000000" font-family="sans-serif" font-size="14" lengthAdjust="spacing" textLength="85" x="375" y="1511.8457">RoomMapper</text><text fill="#000000" font-family="sans-serif" font-size="14" lengthAdjust="spacing" textLength="83" x="376" y="1529.4551">&#171;Json2DTO&#187;</text><rect fill="#E2E2F0" height="49.2188" rx="2.5" ry="2.5" style="stroke:#181818;stroke-width:0.5;" width="81" x="514.5" y="1490.3125"/><text fill="#000000" font-family="sans-serif" font-size="14" lengthAdjust="spacing" textLength="67" x="521.5" y="1511.8457">RoomDTO</text><text fill="#000000" font-family="sans-serif" font-size="14" lengthAdjust="spacing" textLength="46" x="532" y="1529.4551">&#171;DTO&#187;</text><rect fill="#E2E2F0" height="49.2188" rx="2.5" ry="2.5" style="stroke:#181818;stroke-width:0.5;" width="98" x="605.5" y="36"/><text fill="#000000" font-family="sans-serif" font-size="14" lengthAdjust="spacing" textLength="84" x="612.5" y="57.5332">RoomService</text><text fill="#000000" font-family="sans-serif" font-size="14" lengthAdjust="spacing" textLength="63" x="623" y="75.1426">&#171;Service&#187;</text><rect fill="#E2E2F0" height="49.2188" rx="2.5" ry="2.5" style="stroke:#181818;stroke-width:0.5;" width="98" x="605.5" y="1490.3125"/><text fill="#000000" font-family="sans-serif" font-size="14" lengthAdjust="spacing" textLength="84" x="612.5" y="1511.8457">RoomService</text><text fill="#000000" font-family="sans-serif" font-size="14" lengthAdjust="spacing" textLength="63" x="623" y="1529.4551">&#171;Service&#187;</text><rect fill="#E2E2F0" height="49.2188" rx="2.5" ry="2.5" style="stroke:#181818;stroke-width:0.5;" width="65" x="827.5" y="1490.3125"/><text fill="#000000" font-family="sans-serif" font-size="14" lengthAdjust="spacing" textLength="37" x="841.5" y="1511.8457">Room</text><text fill="#000000" font-family="sans-serif" font-size="14" lengthAdjust="spacing" textLength="51" x="834.5" y="1529.4551">&#171;Entity&#187;</text><rect fill="#E2E2F0" height="49.2188" rx="2.5" ry="2.5" style="stroke:#181818;stroke-width:0.5;" width="176" x="902.5" y="36"/><text fill="#000000" font-family="sans-serif" font-size="14" lengthAdjust="spacing" textLength="71" x="955" y="57.5332">RoomRepo</text><text fill="#000000" font-family="sans-serif" font-size="14" lengthAdjust="spacing" textLength="162" x="909.5" y="75.1426">:IRoomRepo&#171;Repository&#187;</text><rect fill="#E2E2F0" height="49.2188" rx="2.5" ry="2.5" style="stroke:#181818;stroke-width:0.5;" width="176" x="902.5" y="1490.3125"/><text fill="#000000" font-family="sans-serif" font-size="14" lengthAdjust="spacing" textLength="71" x="955" y="1511.8457">RoomRepo</text><text fill="#000000" font-family="sans-serif" font-size="14" lengthAdjust="spacing" textLength="162" x="909.5" y="1529.4551">:IRoomRepo&#171;Repository&#187;</text><rect fill="#E2E2F0" height="49.2188" rx="2.5" ry="2.5" style="stroke:#181818;stroke-width:0.5;" width="116" x="1111.5" y="36"/><text fill="#000000" font-family="sans-serif" font-size="14" lengthAdjust="spacing" textLength="64" x="1137.5" y="57.5332">RoomMap</text><text fill="#000000" font-family="sans-serif" font-size="14" lengthAdjust="spacing" textLength="102" x="1118.5" y="75.1426">&#171;Domain2Data&#187;</text><rect fill="#E2E2F0" height="49.2188" rx="2.5" ry="2.5" style="stroke:#181818;stroke-width:0.5;" width="116" x="1111.5" y="1490.3125"/><text fill="#000000" font-family="sans-serif" font-size="14" lengthAdjust="spacing" textLength="64" x="1137.5" y="1511.8457">RoomMap</text><text fill="#000000" font-family="sans-serif" font-size="14" lengthAdjust="spacing" textLength="102" x="1118.5" y="1529.4551">&#171;Domain2Data&#187;</text><rect fill="#E2E2F0" height="49.2188" rx="2.5" ry="2.5" style="stroke:#181818;stroke-width:0.5;" width="97" x="1828.5" y="1490.3125"/><text fill="#000000" font-family="sans-serif" font-size="14" lengthAdjust="spacing" textLength="83" x="1835.5" y="1511.8457">DataRoom&lt;&lt;</text><text fill="#000000" font-family="sans-serif" font-size="14" lengthAdjust="spacing" textLength="46" x="1854" y="1529.4551">&#171;Data&#187;</text><text fill="#000000" font-family="sans-serif" font-size="14" lengthAdjust="spacing" textLength="54" x="1947" y="65.5332">dbDriver</text><text fill="#000000" font-family="sans-serif" font-size="14" lengthAdjust="spacing" textLength="77" x="1935.5" y="83.1426">&#171;Database&#187;</text><path d="M1959,15 C1959,5 1977,5 1977,5 C1977,5 1995,5 1995,15 L1995,41 C1995,51 1977,51 1977,51 C1977,51 1959,51 1959,41 L1959,15 " fill="#E2E2F0" style="stroke:#181818;stroke-width:1.5;"/><path d="M1959,15 C1959,25 1977,25 1977,25 C1977,25 1995,25 1995,15 " fill="none" style="stroke:#181818;stroke-width:1.5;"/><text fill="#000000" font-family="sans-serif" font-size="14" lengthAdjust="spacing" textLength="54" x="1947" y="1504.8457">dbDriver</text><text fill="#000000" font-family="sans-serif" font-size="14" lengthAdjust="spacing" textLength="77" x="1935.5" y="1522.4551">&#171;Database&#187;</text><path d="M1959,1535.5313 C1959,1525.5313 1977,1525.5313 1977,1525.5313 C1977,1525.5313 1995,1525.5313 1995,1535.5313 L1995,1561.5313 C1995,1571.5313 1977,1571.5313 1977,1571.5313 C1977,1571.5313 1959,1571.5313 1959,1561.5313 L1959,1535.5313 " fill="#E2E2F0" style="stroke:#181818;stroke-width:1.5;"/><path d="M1959,1535.5313 C1959,1545.5313 1977,1545.5313 1977,1545.5313 C1977,1545.5313 1995,1545.5313 1995,1535.5313 " fill="none" style="stroke:#181818;stroke-width:1.5;"/><rect fill="#FFFFFF" height="1354.7422" style="stroke:#181818;stroke-width:1.0;" width="10" x="152.5" y="118.5703"/><rect fill="#FFFFFF" height="1294.0391" style="stroke:#181818;stroke-width:1.0;" width="10" x="283.5" y="148.9219"/><rect fill="#FFFFFF" height="28" style="stroke:#181818;stroke-width:1.0;" width="10" x="288.5" y="187.2734"/><rect fill="#FFFFFF" height="28" style="stroke:#181818;stroke-width:1.0;" width="10" x="288.5" y="1377.6094"/><rect fill="#FFFFFF" height="30.3516" style="stroke:#181818;stroke-width:1.0;" width="10" x="412.5" y="252.625"/><rect fill="#FFFFFF" height="362.1094" style="stroke:#181818;stroke-width:1.0;" width="10" x="412.5" y="977.1484"/><rect fill="#FFFFFF" height="996.0625" style="stroke:#181818;stroke-width:1.0;" width="10" x="649.5" y="343.1953"/><rect fill="#FFFFFF" height="30" style="stroke:#181818;stroke-width:1.0;" width="10" x="855" y="494.4688"/><rect fill="#FFFFFF" height="30" style="stroke:#181818;stroke-width:1.0;" width="10" x="855" y="554.8203"/><rect fill="#FFFFFF" height="30" style="stroke:#181818;stroke-width:1.0;" width="10" x="855" y="615.1719"/><rect fill="#FFFFFF" height="30" style="stroke:#181818;stroke-width:1.0;" width="10" x="855" y="675.5234"/><rect fill="#FFFFFF" height="30" style="stroke:#181818;stroke-width:1.0;" width="10" x="855" y="735.875"/><rect fill="#FFFFFF" height="30" style="stroke:#181818;stroke-width:1.0;" width="10" x="855" y="796.2266"/><rect fill="#FFFFFF" height="30" style="stroke:#181818;stroke-width:1.0;" width="10" x="855" y="1007.5"/><rect fill="#FFFFFF" height="30" style="stroke:#181818;stroke-width:1.0;" width="10" x="855" y="1067.8516"/><rect fill="#FFFFFF" height="30" style="stroke:#181818;stroke-width:1.0;" width="10" x="855" y="1128.2031"/><rect fill="#FFFFFF" height="30" style="stroke:#181818;stroke-width:1.0;" width="10" x="855" y="1188.5547"/><rect fill="#FFFFFF" height="30" style="stroke:#181818;stroke-width:1.0;" width="10" x="855" y="1248.9063"/><rect fill="#FFFFFF" height="30" style="stroke:#181818;stroke-width:1.0;" width="10" x="855" y="1309.2578"/><rect fill="#FFFFFF" height="513.0313" style="stroke:#181818;stroke-width:1.0;" width="10" x="985.5" y="433.7656"/><rect fill="#FFFFFF" height="392.4609" style="stroke:#181818;stroke-width:1.0;" width="10" x="1164.5" y="464.1172"/><rect fill="#FFFFFF" height="30" style="stroke:#181818;stroke-width:1.0;" width="10" x="1972" y="916.7969"/><polygon fill="#181818" points="140.5,114.5703,150.5,118.5703,140.5,122.5703,144.5,118.5703" style="stroke:#181818;stroke-width:1.0;"/><line style="stroke:#181818;stroke-width:1.0;" x1="29.5" x2="146.5" y1="118.5703" y2="118.5703"/><text fill="#000000" font-family="sans-serif" font-size="13" lengthAdjust="spacing" textLength="104" x="36.5" y="113.7139">POST /room(json)</text><polygon fill="#181818" points="271.5,144.9219,281.5,148.9219,271.5,152.9219,275.5,148.9219" style="stroke:#181818;stroke-width:1.0;"/><line style="stroke:#181818;stroke-width:1.0;" x1="162.5" x2="277.5" y1="148.9219" y2="148.9219"/><text fill="#000000" font-family="sans-serif" font-size="13" lengthAdjust="spacing" textLength="102" x="169.5" y="144.0654">createRoom(json)</text><line style="stroke:#181818;stroke-width:1.0;" x1="298.5" x2="340.5" y1="179.2734" y2="179.2734"/><line style="stroke:#181818;stroke-width:1.0;" x1="340.5" x2="340.5" y1="179.2734" y2="192.2734"/><line style="stroke:#181818;stroke-width:1.0;" x1="299.5" x2="340.5" y1="192.2734" y2="192.2734"/><polygon fill="#181818" points="309.5,188.2734,299.5,192.2734,309.5,196.2734,305.5,192.2734" style="stroke:#181818;stroke-width:1.0;"/><text fill="#000000" font-family="sans-serif" font-size="13" lengthAdjust="spacing" textLength="78" x="305.5" y="174.417">validateJson()</text><polygon fill="#181818" points="400.5,248.625,410.5,252.625,400.5,256.625,404.5,252.625" style="stroke:#181818;stroke-width:1.0;"/><line style="stroke:#181818;stroke-width:1.0;" x1="293.5" x2="406.5" y1="252.625" y2="252.625"/><text fill="#000000" font-family="sans-serif" font-size="13" lengthAdjust="spacing" textLength="69" x="300.5" y="247.7686">toDTO(json)</text><polygon fill="#181818" points="502.5,278.9766,512.5,282.9766,502.5,286.9766,506.5,282.9766" style="stroke:#181818;stroke-width:1.0;"/><line style="stroke:#181818;stroke-width:1.0;" x1="417.5" x2="508.5" y1="282.9766" y2="282.9766"/><text fill="#000000" font-family="sans-serif" font-size="13" lengthAdjust="spacing" textLength="68" x="424.5" y="278.1201">create(json)</text><rect fill="#E2E2F0" height="49.2188" rx="2.5" ry="2.5" style="stroke:#181818;stroke-width:0.5;" width="81" x="514.5" y="260.625"/><text fill="#000000" font-family="sans-serif" font-size="14" lengthAdjust="spacing" textLength="67" x="521.5" y="282.1582">RoomDTO</text><text fill="#000000" font-family="sans-serif" font-size="14" lengthAdjust="spacing" textLength="46" x="532" y="299.7676">&#171;DTO&#187;</text><polygon fill="#181818" points="637.5,339.1953,647.5,343.1953,637.5,347.1953,641.5,343.1953" style="stroke:#181818;stroke-width:1.0;"/><line style="stroke:#181818;stroke-width:1.0;" x1="293.5" x2="643.5" y1="343.1953" y2="343.1953"/><text fill="#000000" font-family="sans-serif" font-size="13" lengthAdjust="spacing" textLength="204" x="300.5" y="338.3389">roomDTO = createRoom(roomDTO)</text><polygon fill="#181818" points="815.5,369.5469,825.5,373.5469,815.5,377.5469,819.5,373.5469" style="stroke:#181818;stroke-width:1.0;"/><line style="stroke:#181818;stroke-width:1.0;" x1="659.5" x2="821.5" y1="373.5469" y2="373.5469"/><text fill="#000000" font-family="sans-serif" font-size="13" lengthAdjust="spacing" textLength="144" x="666.5" y="368.6904">room = create(roomDTO)</text><rect fill="#E2E2F0" height="49.2188" rx="2.5" ry="2.5" style="stroke:#181818;stroke-width:0.5;" width="65" x="827.5" y="351.1953"/><text fill="#000000" font-family="sans-serif" font-size="14" lengthAdjust="spacing" textLength="37" x="841.5" y="372.7285">Room</text><text fill="#000000" font-family="sans-serif" font-size="14" lengthAdjust="spacing" textLength="51" x="834.5" y="390.3379">&#171;Entity&#187;</text><polygon fill="#181818" points="973.5,429.7656,983.5,433.7656,973.5,437.7656,977.5,433.7656" style="stroke:#181818;stroke-width:1.0;"/><line style="stroke:#181818;stroke-width:1.0;" x1="659.5" x2="979.5" y1="433.7656" y2="433.7656"/><text fill="#000000" font-family="sans-serif" font-size="13" lengthAdjust="spacing" textLength="63" x="666.5" y="428.9092">save(room)</text><polygon fill="#181818" points="1152.5,460.1172,1162.5,464.1172,1152.5,468.1172,1156.5,464.1172" style="stroke:#181818;stroke-width:1.0;"/><line style="stroke:#181818;stroke-width:1.0;" x1="995.5" x2="1158.5" y1="464.1172" y2="464.1172"/><text fill="#000000" font-family="sans-serif" font-size="13" lengthAdjust="spacing" textLength="150" x="1002.5" y="459.2607">dataRoom = toData(room)</text><polygon fill="#181818" points="876,490.4688,866,494.4688,876,498.4688,872,494.4688" style="stroke:#181818;stroke-width:1.0;"/><line style="stroke:#181818;stroke-width:1.0;" x1="870" x2="1163.5" y1="494.4688" y2="494.4688"/><text fill="#000000" font-family="sans-serif" font-size="13" lengthAdjust="spacing" textLength="36" x="882" y="489.6123">getId()</text><polygon fill="#181818" points="876,550.8203,866,554.8203,876,558.8203,872,554.8203" style="stroke:#181818;stroke-width:1.0;"/><line style="stroke:#181818;stroke-width:1.0;" x1="870" x2="1163.5" y1="554.8203" y2="554.8203"/><text fill="#000000" font-family="sans-serif" font-size="13" lengthAdjust="spacing" textLength="60" x="882" y="549.9639">getName()</text><polygon fill="#181818" points="876,611.1719,866,615.1719,876,619.1719,872,615.1719" style="stroke:#181818;stroke-width:1.0;"/><line style="stroke:#181818;stroke-width:1.0;" x1="870" x2="1163.5" y1="615.1719" y2="615.1719"/><text fill="#000000" font-family="sans-serif" font-size="13" lengthAdjust="spacing" textLength="54" x="882" y="610.3154">getType()</text><polygon fill="#181818" points="876,671.5234,866,675.5234,876,679.5234,872,675.5234" style="stroke:#181818;stroke-width:1.0;"/><line style="stroke:#181818;stroke-width:1.0;" x1="870" x2="1163.5" y1="675.5234" y2="675.5234"/><text fill="#000000" font-family="sans-serif" font-size="13" lengthAdjust="spacing" textLength="125" x="882" y="670.667">getRoomDescription()</text><polygon fill="#181818" points="876,731.875,866,735.875,876,739.875,872,735.875" style="stroke:#181818;stroke-width:1.0;"/><line style="stroke:#181818;stroke-width:1.0;" x1="870" x2="1163.5" y1="735.875" y2="735.875"/><text fill="#000000" font-family="sans-serif" font-size="13" lengthAdjust="spacing" textLength="152" x="882" y="731.0186">getRoomBuildingFinderId()</text><polygon fill="#181818" points="876,792.2266,866,796.2266,876,800.2266,872,796.2266" style="stroke:#181818;stroke-width:1.0;"/><line style="stroke:#181818;stroke-width:1.0;" x1="870" x2="1163.5" y1="796.2266" y2="796.2266"/><text fill="#000000" font-family="sans-serif" font-size="13" lengthAdjust="spacing" textLength="134" x="882" y="791.3701">getRoomFloorNumber()</text><polygon fill="#181818" points="1816.5,852.5781,1826.5,856.5781,1816.5,860.5781,1820.5,856.5781" style="stroke:#181818;stroke-width:1.0;"/><line style="stroke:#181818;stroke-width:1.0;" x1="1169.5" x2="1822.5" y1="856.5781" y2="856.5781"/><text fill="#000000" font-family="sans-serif" font-size="13" lengthAdjust="spacing" textLength="630" x="1176.5" y="851.7217">dataRoom = create(roomId, roomName,roomType,roomDescription,RoomBuildingFinderId,RoomFloorNumber)</text><rect fill="#E2E2F0" height="49.2188" rx="2.5" ry="2.5" style="stroke:#181818;stroke-width:0.5;" width="97" x="1828.5" y="834.2266"/><text fill="#000000" font-family="sans-serif" font-size="14" lengthAdjust="spacing" textLength="83" x="1835.5" y="855.7598">DataRoom&lt;&lt;</text><text fill="#000000" font-family="sans-serif" font-size="14" lengthAdjust="spacing" textLength="46" x="1854" y="873.3691">&#171;Data&#187;</text><polygon fill="#181818" points="1960,912.7969,1970,916.7969,1960,920.7969,1964,916.7969" style="stroke:#181818;stroke-width:1.0;"/><line style="stroke:#181818;stroke-width:1.0;" x1="995.5" x2="1966" y1="916.7969" y2="916.7969"/><text fill="#000000" font-family="sans-serif" font-size="13" lengthAdjust="spacing" textLength="93" x="1002.5" y="911.9404">save(dataRoom)</text><polygon fill="#181818" points="433.5,973.1484,423.5,977.1484,433.5,981.1484,429.5,977.1484" style="stroke:#181818;stroke-width:1.0;"/><line style="stroke:#181818;stroke-width:1.0;" x1="427.5" x2="648.5" y1="977.1484" y2="977.1484"/><text fill="#000000" font-family="sans-serif" font-size="13" lengthAdjust="spacing" textLength="74" x="439.5" y="972.292">toDTO(room)</text><polygon fill="#181818" points="843,1003.5,853,1007.5,843,1011.5,847,1007.5" style="stroke:#181818;stroke-width:1.0;"/><line style="stroke:#181818;stroke-width:1.0;" x1="422.5" x2="849" y1="1007.5" y2="1007.5"/><text fill="#000000" font-family="sans-serif" font-size="13" lengthAdjust="spacing" textLength="125" x="429.5" y="1002.6436">roomId = getRoomId()</text><polygon fill="#181818" points="843,1063.8516,853,1067.8516,843,1071.8516,847,1067.8516" style="stroke:#181818;stroke-width:1.0;"/><line style="stroke:#181818;stroke-width:1.0;" x1="422.5" x2="849" y1="1067.8516" y2="1067.8516"/><text fill="#000000" font-family="sans-serif" font-size="13" lengthAdjust="spacing" textLength="173" x="429.5" y="1062.9951">roomName = getRoomName()</text><polygon fill="#181818" points="843,1124.2031,853,1128.2031,843,1132.2031,847,1128.2031" style="stroke:#181818;stroke-width:1.0;"/><line style="stroke:#181818;stroke-width:1.0;" x1="422.5" x2="849" y1="1128.2031" y2="1128.2031"/><text fill="#000000" font-family="sans-serif" font-size="13" lengthAdjust="spacing" textLength="161" x="429.5" y="1123.3467">roomType = getRoomType()</text><polygon fill="#181818" points="843,1184.5547,853,1188.5547,843,1192.5547,847,1188.5547" style="stroke:#181818;stroke-width:1.0;"/><line style="stroke:#181818;stroke-width:1.0;" x1="422.5" x2="849" y1="1188.5547" y2="1188.5547"/><text fill="#000000" font-family="sans-serif" font-size="13" lengthAdjust="spacing" textLength="235" x="429.5" y="1183.6982">roomDescription = getRoomDescription()</text><polygon fill="#181818" points="843,1244.9063,853,1248.9063,843,1252.9063,847,1248.9063" style="stroke:#181818;stroke-width:1.0;"/><line style="stroke:#181818;stroke-width:1.0;" x1="422.5" x2="849" y1="1248.9063" y2="1248.9063"/><text fill="#000000" font-family="sans-serif" font-size="13" lengthAdjust="spacing" textLength="152" x="429.5" y="1244.0498">getRoomBuildingFinderId()</text><polygon fill="#181818" points="843,1305.2578,853,1309.2578,843,1313.2578,847,1309.2578" style="stroke:#181818;stroke-width:1.0;"/><line style="stroke:#181818;stroke-width:1.0;" x1="422.5" x2="849" y1="1309.2578" y2="1309.2578"/><text fill="#000000" font-family="sans-serif" font-size="13" lengthAdjust="spacing" textLength="134" x="429.5" y="1304.4014">getRoomFloorNumber()</text><line style="stroke:#181818;stroke-width:1.0;" x1="298.5" x2="340.5" y1="1369.6094" y2="1369.6094"/><line style="stroke:#181818;stroke-width:1.0;" x1="340.5" x2="340.5" y1="1369.6094" y2="1382.6094"/><line style="stroke:#181818;stroke-width:1.0;" x1="299.5" x2="340.5" y1="1382.6094" y2="1382.6094"/><polygon fill="#181818" points="309.5,1378.6094,299.5,1382.6094,309.5,1386.6094,305.5,1382.6094" style="stroke:#181818;stroke-width:1.0;"/><text fill="#000000" font-family="sans-serif" font-size="13" lengthAdjust="spacing" textLength="105" x="305.5" y="1364.7529">generateRes(json)</text><polygon fill="#181818" points="173.5,1438.9609,163.5,1442.9609,173.5,1446.9609,169.5,1442.9609" style="stroke:#181818;stroke-width:1.0;"/><line style="stroke:#181818;stroke-width:1.0;stroke-dasharray:2.0,2.0;" x1="167.5" x2="287.5" y1="1442.9609" y2="1442.9609"/><text fill="#000000" font-family="sans-serif" font-size="13" lengthAdjust="spacing" textLength="53" x="179.5" y="1438.1045">response</text><polygon fill="#181818" points="40.5,1469.3125,30.5,1473.3125,40.5,1477.3125,36.5,1473.3125" style="stroke:#181818;stroke-width:1.0;"/><line style="stroke:#181818;stroke-width:1.0;" x1="34.5" x2="156.5" y1="1473.3125" y2="1473.3125"/><text fill="#000000" font-family="sans-serif" font-size="13" lengthAdjust="spacing" textLength="53" x="46.5" y="1468.4561">response</text><!--SRC=[nLPRRzem57xFhuXuOXNL91vHXWI5Iamhe91LJEgB8HRo17Ra62J-_SwndSIvZgfZvQ5oxEyxztDwTkBCOoAl_jPBY5HipnB2bTyRXUAiQ2Z4gUUJr0zNFwDv6O5lJu8hAOv7Ajzu41HVux5cFKNXZphfXII98NnF1H_EefM5lqpMwtbO9m02qGKGJdNKXieBsrD4sgD5RyBNEXfXSwwOkbhKV1ajebzrO4WJySP7Y-mS1FWtPKh8Z1hErwj6DxNLuaGOU4aKARavB3Fm7Lb1e4a5UZQ99buCtpkIKhyNxsQINKpuPlOsGquzR-i_Zaso_96_NcqY_wi4gVtV4Eal7jahTY6AsdGQ710mJu3VIqfCpYtUXr_EqSd46uqkM1ToP60VnMJs3QUPXx-OjiipSG69Ia227HDAucoHPFUM17JWF3paNbJeZbv7GAOPAWI8qfIQ_yqDXBriC0JBAhj40I37r92s0dcvfBeKIy3A0N1ABWPJ04ggT86vBvgNXsm88c9RFw0JmWSV3V8QuZYi0JAHkJiW_43L8kxNXPK4sWPgmZZHRq6rQ5sI4_qClT4r-HIzUjhHT2zPebYfdVwh2TCpEyQC7vuPZwcyS-gx37a-2Y6NvzEEoXORRZBYVT70YQjxsEaffuyNyK1tDzRc00zOBFhWP6xG5CP1nQMwHxKnDMni-zaq6ngPYHsD3lyMEjHKNfsNqj2nyweoeZj6LcLCbqTrdcOJJuYlpNTZgVqjTTt9RT6AsIlqjioP3sXkKOkrKgXj6JDtSTWfpiA0xbdpp-suVRpSItNtGFcOrkOTe_AIRGsL9Uf0EPMuSz2qRV6vSOzozZz9qqJmb7fjZ7m1tBfeTmReFV4F]--></g></svg>