<?xml version="1.0" encoding="us-ascii" standalone="no"?><svg xmlns="http://www.w3.org/2000/svg" xmlns:xlink="http://www.w3.org/1999/xlink" contentStyleType="text/css" height="801px" preserveAspectRatio="none" style="width:1406px;height:801px;background:#FFFFFF;" version="1.1" viewBox="0 0 1406 801" width="1406px" zoomAndPan="magnify"><defs/><g><rect fill="#FFFFFF" height="573.963" style="stroke:#181818;stroke-width:1.0;" width="10" x="168.5" y="114.7448"/><rect fill="#FFFFFF" height="515.661" style="stroke:#181818;stroke-width:1.0;" width="10" x="317.5" y="143.8958"/><rect fill="#FFFFFF" height="28" style="stroke:#181818;stroke-width:1.0;" width="10" x="322.5" y="595.4058"/><rect fill="#FFFFFF" height="275.755" style="stroke:#181818;stroke-width:1.0;" width="10" x="460.5" y="290.4998"/><rect fill="#FFFFFF" height="393.208" style="stroke:#181818;stroke-width:1.0;" width="10" x="690.5" y="173.0468"/><rect fill="#FFFFFF" height="30" style="stroke:#181818;stroke-width:1.0;" width="10" x="791" y="343.8018"/><rect fill="#FFFFFF" height="30" style="stroke:#181818;stroke-width:1.0;" width="10" x="791" y="402.9528"/><rect fill="#FFFFFF" height="30" style="stroke:#181818;stroke-width:1.0;" width="10" x="791" y="462.1038"/><rect fill="#FFFFFF" height="30" style="stroke:#181818;stroke-width:1.0;" width="10" x="791" y="521.2548"/><rect fill="#FFFFFF" height="59.151" style="stroke:#181818;stroke-width:1.0;" width="10" x="935" y="202.1978"/><rect fill="#FFFFFF" height="30" style="stroke:#181818;stroke-width:1.0;" width="10" x="1354" y="231.3488"/><rect fill="none" height="253.755" style="stroke:#000000;stroke-width:1.5;" width="441.5" x="400.5" y="305.4998"/><line style="stroke:#181818;stroke-width:0.5;stroke-dasharray:5.0,5.0;" x1="29" x2="29" y1="83.5938" y2="706.7078"/><line style="stroke:#181818;stroke-width:0.5;stroke-dasharray:5.0,5.0;" x1="173" x2="173" y1="83.5938" y2="706.7078"/><line style="stroke:#181818;stroke-width:0.5;stroke-dasharray:5.0,5.0;" x1="322" x2="322" y1="83.5938" y2="706.7078"/><line style="stroke:#181818;stroke-width:0.5;stroke-dasharray:5.0,5.0;" x1="465.5" x2="465.5" y1="83.5938" y2="706.7078"/><line style="stroke:#181818;stroke-width:0.5;stroke-dasharray:5.0,5.0;" x1="573.5" x2="573.5" y1="83.5938" y2="706.7078"/><line style="stroke:#181818;stroke-width:0.5;stroke-dasharray:5.0,5.0;" x1="695" x2="695" y1="83.5938" y2="706.7078"/><line style="stroke:#181818;stroke-width:0.5;stroke-dasharray:5.0,5.0;" x1="796" x2="796" y1="83.5938" y2="706.7078"/><line style="stroke:#181818;stroke-width:0.5;stroke-dasharray:5.0,5.0;" x1="940" x2="940" y1="83.5938" y2="706.7078"/><line style="stroke:#181818;stroke-width:0.5;stroke-dasharray:5.0,5.0;" x1="1113" x2="1113" y1="83.5938" y2="706.7078"/><line style="stroke:#181818;stroke-width:0.5;stroke-dasharray:5.0,5.0;" x1="1246" x2="1246" y1="83.5938" y2="706.7078"/><line style="stroke:#181818;stroke-width:0.5;stroke-dasharray:5.0,5.0;" x1="1359" x2="1359" y1="83.5938" y2="706.7078"/><text fill="#000000" font-family="sans-serif" font-size="14" lengthAdjust="spacing" textLength="10" x="21.5" y="80.292">X</text><path d="M9,39.2969 L9,63.2969 M9,51.2969 L26,51.2969 " fill="none" style="stroke:#181818;stroke-width:0.5;"/><ellipse cx="38" cy="51.2969" fill="#E2E2F0" rx="12" ry="12" style="stroke:#181818;stroke-width:0.5;"/><text fill="#000000" font-family="sans-serif" font-size="14" lengthAdjust="spacing" textLength="10" x="21.5" y="718.7029">X</text><path d="M9,726.0046 L9,750.0046 M9,738.0046 L26,738.0046 " fill="none" style="stroke:#181818;stroke-width:0.5;"/><ellipse cx="38" cy="738.0046" fill="#E2E2F0" rx="12" ry="12" style="stroke:#181818;stroke-width:0.5;"/><rect fill="#E2E2F0" height="30.2969" rx="2.5" ry="2.5" style="stroke:#181818;stroke-width:0.5;" width="103" x="122" y="52.2969"/><text fill="#000000" font-family="sans-serif" font-size="14" lengthAdjust="spacing" textLength="89" x="129" y="72.292">:RouteRobot</text><rect fill="#E2E2F0" height="30.2969" rx="2.5" ry="2.5" style="stroke:#181818;stroke-width:0.5;" width="103" x="122" y="705.7078"/><text fill="#000000" font-family="sans-serif" font-size="14" lengthAdjust="spacing" textLength="89" x="129" y="725.7029">:RouteRobot</text><rect fill="#E2E2F0" height="46.5938" rx="2.5" ry="2.5" style="stroke:#181818;stroke-width:0.5;" width="127" x="259" y="36"/><text fill="#000000" font-family="sans-serif" font-size="14" lengthAdjust="spacing" textLength="113" x="266" y="55.9951">RobotController</text><text fill="#000000" font-family="sans-serif" font-size="14" lengthAdjust="spacing" textLength="89" x="278" y="72.292">&#171;Controller&#187;</text><rect fill="#E2E2F0" height="46.5938" rx="2.5" ry="2.5" style="stroke:#181818;stroke-width:0.5;" width="127" x="259" y="705.7078"/><text fill="#000000" font-family="sans-serif" font-size="14" lengthAdjust="spacing" textLength="113" x="266" y="725.7029">RobotController</text><text fill="#000000" font-family="sans-serif" font-size="14" lengthAdjust="spacing" textLength="89" x="278" y="741.9998">&#171;Controller&#187;</text><rect fill="#E2E2F0" height="46.5938" rx="2.5" ry="2.5" style="stroke:#181818;stroke-width:0.5;" width="110" x="410.5" y="36"/><text fill="#000000" font-family="sans-serif" font-size="14" lengthAdjust="spacing" textLength="96" x="417.5" y="55.9951">RobotMapper</text><text fill="#000000" font-family="sans-serif" font-size="14" lengthAdjust="spacing" textLength="87" x="422" y="72.292">&#171;Json2DTO&#187;</text><rect fill="#E2E2F0" height="46.5938" rx="2.5" ry="2.5" style="stroke:#181818;stroke-width:0.5;" width="110" x="410.5" y="705.7078"/><text fill="#000000" font-family="sans-serif" font-size="14" lengthAdjust="spacing" textLength="96" x="417.5" y="725.7029">RobotMapper</text><text fill="#000000" font-family="sans-serif" font-size="14" lengthAdjust="spacing" textLength="87" x="422" y="741.9998">&#171;Json2DTO&#187;</text><rect fill="#E2E2F0" height="46.5938" rx="2.5" ry="2.5" style="stroke:#181818;stroke-width:0.5;" width="87" x="530.5" y="36"/><text fill="#000000" font-family="sans-serif" font-size="14" lengthAdjust="spacing" textLength="73" x="537.5" y="55.9951">RobotDTO</text><text fill="#000000" font-family="sans-serif" font-size="14" lengthAdjust="spacing" textLength="49" x="549.5" y="72.292">&#171;DTO&#187;</text><rect fill="#E2E2F0" height="46.5938" rx="2.5" ry="2.5" style="stroke:#181818;stroke-width:0.5;" width="87" x="530.5" y="705.7078"/><text fill="#000000" font-family="sans-serif" font-size="14" lengthAdjust="spacing" textLength="73" x="537.5" y="725.7029">RobotDTO</text><text fill="#000000" font-family="sans-serif" font-size="14" lengthAdjust="spacing" textLength="49" x="549.5" y="741.9998">&#171;DTO&#187;</text><rect fill="#E2E2F0" height="46.5938" rx="2.5" ry="2.5" style="stroke:#181818;stroke-width:0.5;" width="109" x="641" y="36"/><text fill="#000000" font-family="sans-serif" font-size="14" lengthAdjust="spacing" textLength="95" x="648" y="55.9951">RobotService</text><text fill="#000000" font-family="sans-serif" font-size="14" lengthAdjust="spacing" textLength="71" x="660" y="72.292">&#171;Service&#187;</text><rect fill="#E2E2F0" height="46.5938" rx="2.5" ry="2.5" style="stroke:#181818;stroke-width:0.5;" width="109" x="641" y="705.7078"/><text fill="#000000" font-family="sans-serif" font-size="14" lengthAdjust="spacing" textLength="95" x="648" y="725.7029">RobotService</text><text fill="#000000" font-family="sans-serif" font-size="14" lengthAdjust="spacing" textLength="71" x="660" y="741.9998">&#171;Service&#187;</text><rect fill="#E2E2F0" height="46.5938" rx="2.5" ry="2.5" style="stroke:#181818;stroke-width:0.5;" width="72" x="760" y="36"/><text fill="#000000" font-family="sans-serif" font-size="14" lengthAdjust="spacing" textLength="42" x="775" y="55.9951">Robot</text><text fill="#000000" font-family="sans-serif" font-size="14" lengthAdjust="spacing" textLength="58" x="767" y="72.292">&#171;Entity&#187;</text><rect fill="#E2E2F0" height="46.5938" rx="2.5" ry="2.5" style="stroke:#181818;stroke-width:0.5;" width="72" x="760" y="705.7078"/><text fill="#000000" font-family="sans-serif" font-size="14" lengthAdjust="spacing" textLength="42" x="775" y="725.7029">Robot</text><text fill="#000000" font-family="sans-serif" font-size="14" lengthAdjust="spacing" textLength="58" x="767" y="741.9998">&#171;Entity&#187;</text><rect fill="#E2E2F0" height="46.5938" rx="2.5" ry="2.5" style="stroke:#181818;stroke-width:0.5;" width="196" x="842" y="36"/><text fill="#000000" font-family="sans-serif" font-size="14" lengthAdjust="spacing" textLength="79" x="900.5" y="55.9951">RobotRepo</text><text fill="#000000" font-family="sans-serif" font-size="14" lengthAdjust="spacing" textLength="182" x="849" y="72.292">:IRobotRepo&#171;Repository&#187;</text><rect fill="#E2E2F0" height="46.5938" rx="2.5" ry="2.5" style="stroke:#181818;stroke-width:0.5;" width="196" x="842" y="705.7078"/><text fill="#000000" font-family="sans-serif" font-size="14" lengthAdjust="spacing" textLength="79" x="900.5" y="725.7029">RobotRepo</text><text fill="#000000" font-family="sans-serif" font-size="14" lengthAdjust="spacing" textLength="182" x="849" y="741.9998">:IRobotRepo&#171;Repository&#187;</text><rect fill="#E2E2F0" height="46.5938" rx="2.5" ry="2.5" style="stroke:#181818;stroke-width:0.5;" width="131" x="1048" y="36"/><text fill="#000000" font-family="sans-serif" font-size="14" lengthAdjust="spacing" textLength="72" x="1077.5" y="55.9951">RobotMap</text><text fill="#000000" font-family="sans-serif" font-size="14" lengthAdjust="spacing" textLength="117" x="1055" y="72.292">&#171;Domain2Data&#187;</text><rect fill="#E2E2F0" height="46.5938" rx="2.5" ry="2.5" style="stroke:#181818;stroke-width:0.5;" width="131" x="1048" y="705.7078"/><text fill="#000000" font-family="sans-serif" font-size="14" lengthAdjust="spacing" textLength="72" x="1077.5" y="725.7029">RobotMap</text><text fill="#000000" font-family="sans-serif" font-size="14" lengthAdjust="spacing" textLength="117" x="1055" y="741.9998">&#171;Domain2Data&#187;</text><rect fill="#E2E2F0" height="46.5938" rx="2.5" ry="2.5" style="stroke:#181818;stroke-width:0.5;" width="114" x="1189" y="36"/><text fill="#000000" font-family="sans-serif" font-size="14" lengthAdjust="spacing" textLength="100" x="1196" y="55.9951">DataRobot&lt;&lt;</text><text fill="#000000" font-family="sans-serif" font-size="14" lengthAdjust="spacing" textLength="52" x="1220" y="72.292">&#171;Data&#187;</text><rect fill="#E2E2F0" height="46.5938" rx="2.5" ry="2.5" style="stroke:#181818;stroke-width:0.5;" width="114" x="1189" y="705.7078"/><text fill="#000000" font-family="sans-serif" font-size="14" lengthAdjust="spacing" textLength="100" x="1196" y="725.7029">DataRobot&lt;&lt;</text><text fill="#000000" font-family="sans-serif" font-size="14" lengthAdjust="spacing" textLength="52" x="1220" y="741.9998">&#171;Data&#187;</text><text fill="#000000" font-family="sans-serif" font-size="14" lengthAdjust="spacing" textLength="62" x="1325" y="63.9951">dbDriver</text><text fill="#000000" font-family="sans-serif" font-size="14" lengthAdjust="spacing" textLength="86" x="1313" y="80.292">&#171;Database&#187;</text><path d="M1341,15 C1341,5 1359,5 1359,5 C1359,5 1377,5 1377,15 L1377,41 C1377,51 1359,51 1359,51 C1359,51 1341,51 1341,41 L1341,15 " fill="#E2E2F0" style="stroke:#181818;stroke-width:1.5;"/><path d="M1341,15 C1341,25 1359,25 1359,25 C1359,25 1377,25 1377,15 " fill="none" style="stroke:#181818;stroke-width:1.5;"/><text fill="#000000" font-family="sans-serif" font-size="14" lengthAdjust="spacing" textLength="62" x="1325" y="718.7029">dbDriver</text><text fill="#000000" font-family="sans-serif" font-size="14" lengthAdjust="spacing" textLength="86" x="1313" y="734.9998">&#171;Database&#187;</text><path d="M1341,748.3015 C1341,738.3015 1359,738.3015 1359,738.3015 C1359,738.3015 1377,738.3015 1377,748.3015 L1377,774.3015 C1377,784.3015 1359,784.3015 1359,784.3015 C1359,784.3015 1341,784.3015 1341,774.3015 L1341,748.3015 " fill="#E2E2F0" style="stroke:#181818;stroke-width:1.5;"/><path d="M1341,748.3015 C1341,758.3015 1359,758.3015 1359,758.3015 C1359,758.3015 1377,758.3015 1377,748.3015 " fill="none" style="stroke:#181818;stroke-width:1.5;"/><rect fill="#FFFFFF" height="573.963" style="stroke:#181818;stroke-width:1.0;" width="10" x="168.5" y="114.7448"/><rect fill="#FFFFFF" height="515.661" style="stroke:#181818;stroke-width:1.0;" width="10" x="317.5" y="143.8958"/><rect fill="#FFFFFF" height="28" style="stroke:#181818;stroke-width:1.0;" width="10" x="322.5" y="595.4058"/><rect fill="#FFFFFF" height="275.755" style="stroke:#181818;stroke-width:1.0;" width="10" x="460.5" y="290.4998"/><rect fill="#FFFFFF" height="393.208" style="stroke:#181818;stroke-width:1.0;" width="10" x="690.5" y="173.0468"/><rect fill="#FFFFFF" height="30" style="stroke:#181818;stroke-width:1.0;" width="10" x="791" y="343.8018"/><rect fill="#FFFFFF" height="30" style="stroke:#181818;stroke-width:1.0;" width="10" x="791" y="402.9528"/><rect fill="#FFFFFF" height="30" style="stroke:#181818;stroke-width:1.0;" width="10" x="791" y="462.1038"/><rect fill="#FFFFFF" height="30" style="stroke:#181818;stroke-width:1.0;" width="10" x="791" y="521.2548"/><rect fill="#FFFFFF" height="59.151" style="stroke:#181818;stroke-width:1.0;" width="10" x="935" y="202.1978"/><rect fill="#FFFFFF" height="30" style="stroke:#181818;stroke-width:1.0;" width="10" x="1354" y="231.3488"/><polygon fill="#181818" points="156.5,110.7448,166.5,114.7448,156.5,118.7448,160.5,114.7448" style="stroke:#181818;stroke-width:1.0;"/><line style="stroke:#181818;stroke-width:1.0;" x1="29.5" x2="162.5" y1="114.7448" y2="114.7448"/><text fill="#000000" font-family="sans-serif" font-size="13" lengthAdjust="spacing" textLength="120" x="36.5" y="109.6751">GET /robots/ (json)</text><polygon fill="#181818" points="305.5,139.8958,315.5,143.8958,305.5,147.8958,309.5,143.8958" style="stroke:#181818;stroke-width:1.0;"/><line style="stroke:#181818;stroke-width:1.0;" x1="178.5" x2="311.5" y1="143.8958" y2="143.8958"/><text fill="#000000" font-family="sans-serif" font-size="13" lengthAdjust="spacing" textLength="120" x="185.5" y="138.8261">getAllRobots(json)</text><polygon fill="#181818" points="678.5,169.0468,688.5,173.0468,678.5,177.0468,682.5,173.0468" style="stroke:#181818;stroke-width:1.0;"/><line style="stroke:#181818;stroke-width:1.0;" x1="327.5" x2="684.5" y1="173.0468" y2="173.0468"/><text fill="#000000" font-family="sans-serif" font-size="13" lengthAdjust="spacing" textLength="236" x="334.5" y="167.9771">robotDTO = getAllRobots(robotDTO)</text><polygon fill="#181818" points="923,198.1978,933,202.1978,923,206.1978,927,202.1978" style="stroke:#181818;stroke-width:1.0;"/><line style="stroke:#181818;stroke-width:1.0;" x1="700.5" x2="929" y1="202.1978" y2="202.1978"/><text fill="#000000" font-family="sans-serif" font-size="13" lengthAdjust="spacing" textLength="93" x="707.5" y="197.1282">getAllRobots()</text><polygon fill="#181818" points="1342,227.3488,1352,231.3488,1342,235.3488,1346,231.3488" style="stroke:#181818;stroke-width:1.0;"/><line style="stroke:#181818;stroke-width:1.0;" x1="945" x2="1348" y1="231.3488" y2="231.3488"/><text fill="#000000" font-family="sans-serif" font-size="13" lengthAdjust="spacing" textLength="93" x="952" y="226.2792">getAllRobots()</text><polygon fill="#181818" points="481.5,286.4998,471.5,290.4998,481.5,294.4998,477.5,290.4998" style="stroke:#181818;stroke-width:1.0;"/><line style="stroke:#181818;stroke-width:1.0;" x1="475.5" x2="689.5" y1="290.4998" y2="290.4998"/><text fill="#000000" font-family="sans-serif" font-size="13" lengthAdjust="spacing" textLength="201" x="487.5" y="285.4302">iRobotDTO[] = toDTO(robots[])</text><path d="M400.5,305.4998 L476.5,305.4998 L476.5,312.6508 L466.5,322.6508 L400.5,322.6508 L400.5,305.4998 " fill="#EEEEEE" style="stroke:#000000;stroke-width:1.5;"/><rect fill="none" height="253.755" style="stroke:#000000;stroke-width:1.5;" width="441.5" x="400.5" y="305.4998"/><text fill="#000000" font-family="sans-serif" font-size="13" font-weight="bold" lengthAdjust="spacing" textLength="31" x="415.5" y="318.5812">loop</text><text fill="#000000" font-family="sans-serif" font-size="11" font-weight="bold" lengthAdjust="spacing" textLength="143" x="491.5" y="317.7247">[(while data available)]</text><polygon fill="#181818" points="779,339.8018,789,343.8018,779,347.8018,783,343.8018" style="stroke:#181818;stroke-width:1.0;"/><line style="stroke:#181818;stroke-width:1.0;" x1="470.5" x2="785" y1="343.8018" y2="343.8018"/><text fill="#000000" font-family="sans-serif" font-size="13" lengthAdjust="spacing" textLength="188" x="477.5" y="338.7322">robotCode = getRobotCode()</text><polygon fill="#181818" points="779,398.9528,789,402.9528,779,406.9528,783,402.9528" style="stroke:#181818;stroke-width:1.0;"/><line style="stroke:#181818;stroke-width:1.0;" x1="470.5" x2="785" y1="402.9528" y2="402.9528"/><text fill="#000000" font-family="sans-serif" font-size="13" lengthAdjust="spacing" textLength="200" x="477.5" y="397.8832">robotName = getRobotName()</text><polygon fill="#181818" points="779,458.1038,789,462.1038,779,466.1038,783,462.1038" style="stroke:#181818;stroke-width:1.0;"/><line style="stroke:#181818;stroke-width:1.0;" x1="470.5" x2="785" y1="462.1038" y2="462.1038"/><text fill="#000000" font-family="sans-serif" font-size="13" lengthAdjust="spacing" textLength="270" x="477.5" y="457.0342">robotDescription = getRobotDescription()</text><polygon fill="#181818" points="779,517.2548,789,521.2548,779,525.2548,783,521.2548" style="stroke:#181818;stroke-width:1.0;"/><line style="stroke:#181818;stroke-width:1.0;" x1="470.5" x2="785" y1="521.2548" y2="521.2548"/><text fill="#000000" font-family="sans-serif" font-size="13" lengthAdjust="spacing" textLength="176" x="477.5" y="516.1852">robotSize = getRobotSize()</text><line style="stroke:#181818;stroke-width:1.0;" x1="332.5" x2="374.5" y1="587.4058" y2="587.4058"/><line style="stroke:#181818;stroke-width:1.0;" x1="374.5" x2="374.5" y1="587.4058" y2="600.4058"/><line style="stroke:#181818;stroke-width:1.0;" x1="333.5" x2="374.5" y1="600.4058" y2="600.4058"/><polygon fill="#181818" points="343.5,596.4058,333.5,600.4058,343.5,604.4058,339.5,600.4058" style="stroke:#181818;stroke-width:1.0;"/><text fill="#000000" font-family="sans-serif" font-size="13" lengthAdjust="spacing" textLength="119" x="339.5" y="582.3362">generateRes(json)</text><polygon fill="#181818" points="189.5,655.5568,179.5,659.5568,189.5,663.5568,185.5,659.5568" style="stroke:#181818;stroke-width:1.0;"/><line style="stroke:#181818;stroke-width:1.0;stroke-dasharray:2.0,2.0;" x1="183.5" x2="321.5" y1="659.5568" y2="659.5568"/><text fill="#000000" font-family="sans-serif" font-size="13" lengthAdjust="spacing" textLength="59" x="195.5" y="654.4872">response</text><polygon fill="#181818" points="40.5,684.7078,30.5,688.7078,40.5,692.7078,36.5,688.7078" style="stroke:#181818;stroke-width:1.0;"/><line style="stroke:#181818;stroke-width:1.0;" x1="34.5" x2="172.5" y1="688.7078" y2="688.7078"/><text fill="#000000" font-family="sans-serif" font-size="13" lengthAdjust="spacing" textLength="59" x="46.5" y="683.6382">response</text><!--SRC=[lLHDRzim3BthLmWvTOUXG8-15o2DZQ73sWIADwHeUr1YOjFWIeQaPkX-_QWFnxAhxBRc49ZYUzGZANAlNcJ3zIlTaOvhAmwYuzBIsPof5mjCxPMTKMueMt-hgp74ErTAMgtQ5lIZB8h1MYmyRLMphndMBU-wmFXYbBmgwtN4toutcufb60Xny069NndO5lHH7C11usU4Rzdt3DpXAcc5VOsmwgw-gUypI0QTUfJpcvDH5ExV2AjqJsRLPfrFrajNprnWhjpoKR9NOuhpUrfHUDO0BvVraZHexxa1EclsfHR7KCKodlR8Qq9szECYT8tEwUUgffVQHJMNzE8Nrlm3uGShZjn2R6s08iUr32a_m2xRrYinaK7nTsBvpX9_vXd8n1eZKSTsqK_Z6FrvY3EAvPfpEdLHd7GivbJ6G1tHVTq96Jaz7SEKr_yECWg4TPlw6aYzv8pBAvWa4BgBjul-0JyyOKsimgzG3FFmb2b6787XdbQfZbxy_YbQeAxzb1-vQFc-XMagyKgyFBpZlXihrK1e1-lDJ1aI3N4CtYAIdBEOSmhk-7Egm9dlhA04Sz2YiqB9H4Xo-ivwjk9FMX5d_WS581l_ViuztCbZIpnk9jFXFgq52Hhz3DAjy7OpP2A6ZJ74JFQJ1jCfQO3aA7wS- -sqIz7f1FebzXS0]--></g></svg>